solid ascii
  facet normal -5.628216e-001 4.221162e-001 5.551115e-017
    outer loop
      vertex   -1.211471e+002 8.180392e+001 6.000000e+000
      vertex   -1.081359e+002 9.915218e+001 6.000000e+000
      vertex   -1.223592e+002 8.018768e+001 4.000000e+000
    endloop
  endfacet
  facet normal -1.007937e-001 7.559527e-002 -5.551115e-017
    outer loop
      vertex   -1.223592e+002 8.018768e+001 4.000000e+000
      vertex   -1.081359e+002 9.915218e+001 6.000000e+000
      vertex   -1.081359e+002 9.915218e+001 3.000000e+000
    endloop
  endfacet
  facet normal -7.992892e-001 5.994669e-001 0.000000e+000
    outer loop
      vertex   -1.223592e+002 8.018768e+001 4.000000e+000
      vertex   -1.081359e+002 9.915218e+001 3.000000e+000
      vertex   -1.223592e+002 8.018768e+001 3.000000e+000
    endloop
  endfacet
  facet normal 0.000000e+000 0.000000e+000 8.564864e-002
    outer loop
      vertex   -1.000000e+002 9.000000e+001 3.000000e+000
      vertex   -7.515127e+001 7.136345e+001 3.000000e+000
      vertex   -8.018768e+001 7.764075e+001 3.000000e+000
    endloop
  endfacet
  facet normal 0.000000e+000 0.000000e+000 5.807660e-001
    outer loop
      vertex   -8.018768e+001 7.764075e+001 3.000000e+000
      vertex   -7.515127e+001 7.136345e+001 3.000000e+000
      vertex   -7.136345e+001 7.515127e+001 3.000000e+000
    endloop
  endfacet
  facet normal -0.000000e+000 0.000000e+000 8.725369e-001
    outer loop
      vertex   -8.018768e+001 7.764075e+001 3.000000e+000
      vertex   -7.136345e+001 7.515127e+001 3.000000e+000
      vertex   -7.764075e+001 8.018768e+001 3.000000e+000
    endloop
  endfacet
  facet normal -0.000000e+000 -0.000000e+000 3.305582e-001
    outer loop
      vertex   -7.764075e+001 8.018768e+001 3.000000e+000
      vertex   -7.136345e+001 7.515127e+001 3.000000e+000
      vertex   -9.000000e+001 1.000000e+002 3.000000e+000
    endloop
  endfacet
  facet normal 0.000000e+000 0.000000e+000 8.564859e-002
    outer loop
      vertex   -7.764075e+001 8.018768e+001 3.000000e+000
      vertex   -9.000000e+001 1.000000e+002 3.000000e+000
      vertex   -9.186414e+001 9.915218e+001 3.000000e+000
    endloop
  endfacet
  facet normal 0.000000e+000 -0.000000e+000 9.766211e-001
    outer loop
      vertex   -9.186414e+001 9.915218e+001 3.000000e+000
      vertex   -9.000000e+001 1.000000e+002 3.000000e+000
      vertex   -9.759167e+001 1.260000e+002 3.000000e+000
    endloop
  endfacet
  facet normal -0.000000e+000 0.000000e+000 3.205946e-001
    outer loop
      vertex   -9.759167e+001 1.260000e+002 3.000000e+000
      vertex   -9.000000e+001 1.000000e+002 3.000000e+000
      vertex   -9.725333e+001 1.340000e+002 3.000000e+000
    endloop
  endfacet
  facet normal 0.000000e+000 -0.000000e+000 5.766950e-001
    outer loop
      vertex   -9.759167e+001 1.260000e+002 3.000000e+000
      vertex   -9.725333e+001 1.340000e+002 3.000000e+000
      vertex   -1.027467e+002 1.340000e+002 3.000000e+000
    endloop
  endfacet
  facet normal 0.000000e+000 0.000000e+000 8.405980e-001
    outer loop
      vertex   -9.759167e+001 1.260000e+002 3.000000e+000
      vertex   -1.027467e+002 1.340000e+002 3.000000e+000
      vertex   -1.024083e+002 1.260000e+002 3.000000e+000
    endloop
  endfacet
  facet normal 0.000000e+000 0.000000e+000 3.205946e-001
    outer loop
      vertex   -1.024083e+002 1.260000e+002 3.000000e+000
      vertex   -1.027467e+002 1.340000e+002 3.000000e+000
      vertex   -1.100000e+002 1.000000e+002 3.000000e+000
    endloop
  endfacet
  facet normal 0.000000e+000 0.000000e+000 7.383973e-002
    outer loop
      vertex   -1.024083e+002 1.260000e+002 3.000000e+000
      vertex   -1.100000e+002 1.000000e+002 3.000000e+000
      vertex   -1.081359e+002 9.915218e+001 3.000000e+000
    endloop
  endfacet
  facet normal 0.000000e+000 0.000000e+000 9.766210e-001
    outer loop
      vertex   -1.081359e+002 9.915218e+001 3.000000e+000
      vertex   -1.100000e+002 1.000000e+002 3.000000e+000
      vertex   -1.223592e+002 8.018768e+001 3.000000e+000
    endloop
  endfacet
  facet normal 0.000000e+000 -0.000000e+000 3.305582e-001
    outer loop
      vertex   -1.223592e+002 8.018768e+001 3.000000e+000
      vertex   -1.100000e+002 1.000000e+002 3.000000e+000
      vertex   -1.286366e+002 7.515127e+001 3.000000e+000
    endloop
  endfacet
  facet normal 0.000000e+000 0.000000e+000 9.940388e-001
    outer loop
      vertex   -1.223592e+002 8.018768e+001 3.000000e+000
      vertex   -1.286366e+002 7.515127e+001 3.000000e+000
      vertex   -1.198123e+002 7.764075e+001 3.000000e+000
    endloop
  endfacet
  facet normal 0.000000e+000 0.000000e+000 5.807660e-001
    outer loop
      vertex   -1.198123e+002 7.764075e+001 3.000000e+000
      vertex   -1.286366e+002 7.515127e+001 3.000000e+000
      vertex   -1.248487e+002 7.136345e+001 3.000000e+000
    endloop
  endfacet
  facet normal -0.000000e+000 0.000000e+000 3.305582e-001
    outer loop
      vertex   -1.198123e+002 7.764075e+001 3.000000e+000
      vertex   -1.248487e+002 7.136345e+001 3.000000e+000
      vertex   -1.000000e+002 9.000000e+001 3.000000e+000
    endloop
  endfacet
  facet normal 0.000000e+000 0.000000e+000 8.564865e-002
    outer loop
      vertex   -8.018768e+001 7.764075e+001 3.000000e+000
      vertex   -9.997000e+001 9.247750e+001 3.000000e+000
      vertex   -1.000000e+002 9.000000e+001 3.000000e+000
    endloop
  endfacet
  facet normal 0.000000e+000 -0.000000e+000 2.421342e-002
    outer loop
      vertex   -1.000000e+002 9.000000e+001 3.000000e+000
      vertex   -9.997000e+001 9.247750e+001 3.000000e+000
      vertex   -1.000300e+002 9.247750e+001 3.000000e+000
    endloop
  endfacet
  facet normal 0.000000e+000 0.000000e+000 8.547956e-001
    outer loop
      vertex   -1.000000e+002 9.000000e+001 3.000000e+000
      vertex   -1.000300e+002 9.247750e+001 3.000000e+000
      vertex   -1.198123e+002 7.764075e+001 3.000000e+000
    endloop
  endfacet
  facet normal 0.000000e+000 0.000000e+000 1.000000e+000
    outer loop
      vertex   -1.000300e+002 9.247750e+001 3.000000e+000
      vertex   -9.997000e+001 9.247750e+001 3.000000e+000
      vertex   -1.000300e+002 9.410000e+001 3.000000e+000
    endloop
  endfacet
  facet normal -0.000000e+000 0.000000e+000 9.993170e-001
    outer loop
      vertex   -1.000300e+002 9.410000e+001 3.000000e+000
      vertex   -9.997000e+001 9.247750e+001 3.000000e+000
      vertex   -9.997000e+001 9.410000e+001 3.000000e+000
    endloop
  endfacet
  facet normal 0.000000e+000 -0.000000e+000 9.901333e-001
    outer loop
      vertex   -1.000300e+002 9.410000e+001 3.000000e+000
      vertex   -9.997000e+001 9.410000e+001 3.000000e+000
      vertex   -1.017000e+002 1.059000e+002 3.000000e+000
    endloop
  endfacet
  facet normal -0.000000e+000 0.000000e+000 9.894230e-001
    outer loop
      vertex   -1.017000e+002 1.059000e+002 3.000000e+000
      vertex   -9.997000e+001 9.410000e+001 3.000000e+000
      vertex   -9.830000e+001 1.059000e+002 3.000000e+000
    endloop
  endfacet
  facet normal 0.000000e+000 0.000000e+000 1.401288e-001
    outer loop
      vertex   -9.830000e+001 1.059000e+002 3.000000e+000
      vertex   -9.997000e+001 9.410000e+001 3.000000e+000
      vertex   -9.830000e+001 9.410000e+001 3.000000e+000
    endloop
  endfacet
  facet normal 0.000000e+000 0.000000e+000 1.401288e-001
    outer loop
      vertex   -1.017000e+002 1.059000e+002 3.000000e+000
      vertex   -1.017000e+002 9.410000e+001 3.000000e+000
      vertex   -1.000300e+002 9.410000e+001 3.000000e+000
    endloop
  endfacet
  facet normal -6.838089e-001 1.458794e-001 2.846936e-007
    outer loop
      vertex   -1.028350e+002 1.240000e+002 6.000000e+000
      vertex   -1.024083e+002 1.260000e+002 4.000000e+000
      vertex   -1.081359e+002 9.915218e+001 6.000000e+000
    endloop
  endfacet
  facet normal -9.754076e-001 2.080871e-001 0.000000e+000
    outer loop
      vertex   -1.081359e+002 9.915218e+001 6.000000e+000
      vertex   -1.024083e+002 1.260000e+002 4.000000e+000
      vertex   -1.081359e+002 9.915218e+001 3.000000e+000
    endloop
  endfacet
  facet normal -3.560200e-002 7.595100e-003 -2.775558e-017
    outer loop
      vertex   -1.081359e+002 9.915218e+001 3.000000e+000
      vertex   -1.024083e+002 1.260000e+002 4.000000e+000
      vertex   -1.024083e+002 1.260000e+002 3.000000e+000
    endloop
  endfacet
  facet normal 8.000000e-001 6.000000e-001 -0.000000e+000
    outer loop
      vertex   -7.764075e+001 8.018768e+001 3.000000e+000
      vertex   -9.186414e+001 9.915218e+001 3.000000e+000
      vertex   -7.764075e+001 8.018768e+001 4.000000e+000
    endloop
  endfacet
  facet normal 1.007937e-001 7.559527e-002 -5.551115e-017
    outer loop
      vertex   -7.764075e+001 8.018768e+001 4.000000e+000
      vertex   -9.186414e+001 9.915218e+001 3.000000e+000
      vertex   -9.186414e+001 9.915218e+001 6.000000e+000
    endloop
  endfacet
  facet normal 5.130328e-001 3.847746e-001 5.551115e-017
    outer loop
      vertex   -7.764075e+001 8.018768e+001 4.000000e+000
      vertex   -9.186414e+001 9.915218e+001 6.000000e+000
      vertex   -7.885294e+001 8.180392e+001 6.000000e+000
    endloop
  endfacet
  facet normal 9.779928e-001 2.086386e-001 -0.000000e+000
    outer loop
      vertex   -9.759167e+001 1.260000e+002 3.000000e+000
      vertex   -9.759167e+001 1.260000e+002 4.000000e+000
      vertex   -9.186414e+001 9.915218e+001 3.000000e+000
    endloop
  endfacet
  facet normal 9.773446e-001 2.085004e-001 -0.000000e+000
    outer loop
      vertex   -9.186414e+001 9.915218e+001 3.000000e+000
      vertex   -9.759167e+001 1.260000e+002 4.000000e+000
      vertex   -9.186414e+001 9.915218e+001 6.000000e+000
    endloop
  endfacet
  facet normal 7.106289e-002 1.516010e-002 2.958596e-008
    outer loop
      vertex   -9.186414e+001 9.915218e+001 6.000000e+000
      vertex   -9.759167e+001 1.260000e+002 4.000000e+000
      vertex   -9.716501e+001 1.240000e+002 6.000000e+000
    endloop
  endfacet
  facet normal 4.974687e-001 -4.974687e-001 7.035259e-001
    outer loop
      vertex   -7.015127e+001 7.353503e+001 1.000000e+000
      vertex   -7.136345e+001 7.515127e+001 3.000000e+000
      vertex   -7.353503e+001 7.015127e+001 1.000000e+000
    endloop
  endfacet
  facet normal 4.589376e-001 -4.589376e-001 6.490347e-001
    outer loop
      vertex   -7.353503e+001 7.015127e+001 1.000000e+000
      vertex   -7.136345e+001 7.515127e+001 3.000000e+000
      vertex   -7.515127e+001 7.136345e+001 3.000000e+000
    endloop
  endfacet
  facet normal -4.221162e-001 -5.628216e-001 -3.491185e-008
    outer loop
      vertex   -7.515127e+001 7.136345e+001 3.000000e+000
      vertex   -1.000000e+002 9.000000e+001 3.000000e+000
      vertex   -7.353503e+001 7.015127e+001 1.000000e+000
    endloop
  endfacet
  facet normal -5.428758e-002 -7.238343e-002 0.000000e+000
    outer loop
      vertex   -7.353503e+001 7.015127e+001 1.000000e+000
      vertex   -1.000000e+002 9.000000e+001 3.000000e+000
      vertex   -1.000000e+002 9.000000e+001 0.000000e+000
    endloop
  endfacet
  facet normal -5.997261e-001 -7.996347e-001 -0.000000e+000
    outer loop
      vertex   -7.353503e+001 7.015127e+001 1.000000e+000
      vertex   -1.000000e+002 9.000000e+001 0.000000e+000
      vertex   -7.353503e+001 7.015127e+001 0.000000e+000
    endloop
  endfacet
  facet normal -4.974687e-001 -4.974687e-001 7.035259e-001
    outer loop
      vertex   -1.248487e+002 7.136345e+001 3.000000e+000
      vertex   -1.286366e+002 7.515127e+001 3.000000e+000
      vertex   -1.264650e+002 7.015127e+001 1.000000e+000
    endloop
  endfacet
  facet normal -2.435556e-001 -2.435561e-001 3.444404e-001
    outer loop
      vertex   -1.264650e+002 7.015127e+001 1.000000e+000
      vertex   -1.286366e+002 7.515127e+001 3.000000e+000
      vertex   -1.298487e+002 7.353503e+001 1.000000e+000
    endloop
  endfacet
  facet normal -5.628210e-001 4.221158e-001 2.112080e-006
    outer loop
      vertex   -1.286366e+002 7.515127e+001 3.000000e+000
      vertex   -1.100000e+002 1.000000e+002 3.000000e+000
      vertex   -1.298487e+002 7.353503e+001 1.000000e+000
    endloop
  endfacet
  facet normal -7.238341e-002 5.428758e-002 0.000000e+000
    outer loop
      vertex   -1.298487e+002 7.353503e+001 1.000000e+000
      vertex   -1.100000e+002 1.000000e+002 3.000000e+000
      vertex   -1.100000e+002 1.000000e+002 0.000000e+000
    endloop
  endfacet
  facet normal -7.996346e-001 5.997263e-001 0.000000e+000
    outer loop
      vertex   -1.298487e+002 7.353503e+001 1.000000e+000
      vertex   -1.100000e+002 1.000000e+002 0.000000e+000
      vertex   -1.298487e+002 7.353503e+001 0.000000e+000
    endloop
  endfacet
  facet normal -0.000000e+000 6.991962e-001 6.991962e-001
    outer loop
      vertex   -1.027467e+002 1.340000e+002 3.000000e+000
      vertex   -9.725333e+001 1.340000e+002 3.000000e+000
      vertex   -1.023200e+002 1.360000e+002 1.000000e+000
    endloop
  endfacet
  facet normal -0.000000e+000 3.446683e-001 3.446683e-001
    outer loop
      vertex   -1.023200e+002 1.360000e+002 1.000000e+000
      vertex   -9.725333e+001 1.340000e+002 3.000000e+000
      vertex   -9.768000e+001 1.360000e+002 1.000000e+000
    endloop
  endfacet
  facet normal 6.838089e-001 1.458793e-001 1.534426e-007
    outer loop
      vertex   -9.725333e+001 1.340000e+002 3.000000e+000
      vertex   -9.000000e+001 1.000000e+002 3.000000e+000
      vertex   -9.768000e+001 1.360000e+002 1.000000e+000
    endloop
  endfacet
  facet normal 7.955909e-002 1.697261e-002 0.000000e+000
    outer loop
      vertex   -9.768000e+001 1.360000e+002 1.000000e+000
      vertex   -9.000000e+001 1.000000e+002 3.000000e+000
      vertex   -9.000000e+001 1.000000e+002 0.000000e+000
    endloop
  endfacet
  facet normal 9.776322e-001 2.085615e-001 0.000000e+000
    outer loop
      vertex   -9.768000e+001 1.360000e+002 1.000000e+000
      vertex   -9.000000e+001 1.000000e+002 0.000000e+000
      vertex   -9.768000e+001 1.360000e+002 0.000000e+000
    endloop
  endfacet
  facet normal 0.000000e+000 0.000000e+000 -4.106928e-001
    outer loop
      vertex   -7.015127e+001 7.353503e+001 0.000000e+000
      vertex   -1.000000e+002 9.000000e+001 0.000000e+000
      vertex   -9.000000e+001 1.000000e+002 0.000000e+000
    endloop
  endfacet
  facet normal -0.000000e+000 0.000000e+000 -7.071068e-001
    outer loop
      vertex   -9.000000e+001 1.000000e+002 0.000000e+000
      vertex   -1.000000e+002 9.000000e+001 0.000000e+000
      vertex   -1.100000e+002 1.000000e+002 0.000000e+000
    endloop
  endfacet
  facet normal 0.000000e+000 0.000000e+000 -9.461301e-001
    outer loop
      vertex   -9.000000e+001 1.000000e+002 0.000000e+000
      vertex   -1.100000e+002 1.000000e+002 0.000000e+000
      vertex   -1.023200e+002 1.360000e+002 0.000000e+000
    endloop
  endfacet
  facet normal -0.000000e+000 0.000000e+000 -9.606907e-001
    outer loop
      vertex   -7.015127e+001 7.353503e+001 0.000000e+000
      vertex   -7.353503e+001 7.015127e+001 0.000000e+000
      vertex   -1.000000e+002 9.000000e+001 0.000000e+000
    endloop
  endfacet
  facet normal 0.000000e+000 0.000000e+000 -9.899493e-001
    outer loop
      vertex   -1.264650e+002 7.015127e+001 0.000000e+000
      vertex   -1.298487e+002 7.353503e+001 0.000000e+000
      vertex   -1.000000e+002 9.000000e+001 0.000000e+000
    endloop
  endfacet
  facet normal -0.000000e+000 0.000000e+000 -9.606907e-001
    outer loop
      vertex   -1.000000e+002 9.000000e+001 0.000000e+000
      vertex   -1.298487e+002 7.353503e+001 0.000000e+000
      vertex   -1.100000e+002 1.000000e+002 0.000000e+000
    endloop
  endfacet
  facet normal 0.000000e+000 0.000000e+000 -9.461301e-001
    outer loop
      vertex   -1.023200e+002 1.360000e+002 0.000000e+000
      vertex   -9.768000e+001 1.360000e+002 0.000000e+000
      vertex   -9.000000e+001 1.000000e+002 0.000000e+000
    endloop
  endfacet
  facet normal 4.221162e-001 -5.628216e-001 -3.491185e-008
    outer loop
      vertex   -1.248487e+002 7.136345e+001 3.000000e+000
      vertex   -1.264650e+002 7.015127e+001 1.000000e+000
      vertex   -1.000000e+002 9.000000e+001 3.000000e+000
    endloop
  endfacet
  facet normal 5.989065e-001 -7.985420e-001 0.000000e+000
    outer loop
      vertex   -1.000000e+002 9.000000e+001 3.000000e+000
      vertex   -1.264650e+002 7.015127e+001 1.000000e+000
      vertex   -1.000000e+002 9.000000e+001 0.000000e+000
    endloop
  endfacet
  facet normal 1.812890e-002 -2.417186e-002 5.551115e-017
    outer loop
      vertex   -1.000000e+002 9.000000e+001 0.000000e+000
      vertex   -1.264650e+002 7.015127e+001 1.000000e+000
      vertex   -1.264650e+002 7.015127e+001 0.000000e+000
    endloop
  endfacet
  facet normal 5.628216e-001 4.221162e-001 -3.491185e-008
    outer loop
      vertex   -7.136345e+001 7.515127e+001 3.000000e+000
      vertex   -7.015127e+001 7.353503e+001 1.000000e+000
      vertex   -9.000000e+001 1.000000e+002 3.000000e+000
    endloop
  endfacet
  facet normal 7.985420e-001 5.989065e-001 0.000000e+000
    outer loop
      vertex   -9.000000e+001 1.000000e+002 3.000000e+000
      vertex   -7.015127e+001 7.353503e+001 1.000000e+000
      vertex   -9.000000e+001 1.000000e+002 0.000000e+000
    endloop
  endfacet
  facet normal 2.417186e-002 1.812890e-002 5.551115e-017
    outer loop
      vertex   -9.000000e+001 1.000000e+002 0.000000e+000
      vertex   -7.015127e+001 7.353503e+001 1.000000e+000
      vertex   -7.015127e+001 7.353503e+001 0.000000e+000
    endloop
  endfacet
  facet normal -7.071060e-001 -7.071076e-001 -0.000000e+000
    outer loop
      vertex   -1.264650e+002 7.015127e+001 1.000000e+000
      vertex   -1.298487e+002 7.353503e+001 1.000000e+000
      vertex   -1.264650e+002 7.015127e+001 0.000000e+000
    endloop
  endfacet
  facet normal -1.446400e-001 -1.446403e-001 0.000000e+000
    outer loop
      vertex   -1.264650e+002 7.015127e+001 0.000000e+000
      vertex   -1.298487e+002 7.353503e+001 1.000000e+000
      vertex   -1.298487e+002 7.353503e+001 0.000000e+000
    endloop
  endfacet
  facet normal 7.071068e-001 -7.071068e-001 0.000000e+000
    outer loop
      vertex   -7.015127e+001 7.353503e+001 1.000000e+000
      vertex   -7.353503e+001 7.015127e+001 1.000000e+000
      vertex   -7.015127e+001 7.353503e+001 0.000000e+000
    endloop
  endfacet
  facet normal 1.446403e-001 -1.446403e-001 0.000000e+000
    outer loop
      vertex   -7.015127e+001 7.353503e+001 0.000000e+000
      vertex   -7.353503e+001 7.015127e+001 1.000000e+000
      vertex   -7.353503e+001 7.015127e+001 0.000000e+000
    endloop
  endfacet
  facet normal 1.000000e+000 0.000000e+000 -0.000000e+000
    outer loop
      vertex   -1.017000e+002 1.059000e+002 3.000000e+000
      vertex   -1.017000e+002 1.059000e+002 6.000000e+000
      vertex   -1.017000e+002 9.410000e+001 3.000000e+000
    endloop
  endfacet
  facet normal 9.691685e-001 0.000000e+000 0.000000e+000
    outer loop
      vertex   -1.017000e+002 9.410000e+001 3.000000e+000
      vertex   -1.017000e+002 1.059000e+002 6.000000e+000
      vertex   -1.017000e+002 9.410000e+001 6.000000e+000
    endloop
  endfacet
  facet normal 0.000000e+000 1.000000e+000 0.000000e+000
    outer loop
      vertex   -1.017000e+002 9.410000e+001 3.000000e+000
      vertex   -1.017000e+002 9.410000e+001 6.000000e+000
      vertex   -1.000300e+002 9.410000e+001 3.000000e+000
    endloop
  endfacet
  facet normal 0.000000e+000 4.863842e-001 -0.000000e+000
    outer loop
      vertex   -1.000300e+002 9.410000e+001 3.000000e+000
      vertex   -1.017000e+002 9.410000e+001 6.000000e+000
      vertex   -1.000300e+002 9.410000e+001 6.000000e+000
    endloop
  endfacet
  facet normal 1.000000e+000 0.000000e+000 -0.000000e+000
    outer loop
      vertex   -1.000300e+002 9.410000e+001 3.000000e+000
      vertex   -1.000300e+002 9.410000e+001 6.000000e+000
      vertex   -1.000300e+002 9.247750e+001 3.000000e+000
    endloop
  endfacet
  facet normal 4.757158e-001 0.000000e+000 0.000000e+000
    outer loop
      vertex   -1.000300e+002 9.247750e+001 3.000000e+000
      vertex   -1.000300e+002 9.410000e+001 6.000000e+000
      vertex   -1.000300e+002 9.247750e+001 6.000000e+000
    endloop
  endfacet
  facet normal -1.000000e+000 0.000000e+000 0.000000e+000
    outer loop
      vertex   -9.997000e+001 9.247750e+001 3.000000e+000
      vertex   -9.997000e+001 9.247750e+001 6.000000e+000
      vertex   -9.997000e+001 9.410000e+001 3.000000e+000
    endloop
  endfacet
  facet normal -4.757158e-001 0.000000e+000 0.000000e+000
    outer loop
      vertex   -9.997000e+001 9.410000e+001 3.000000e+000
      vertex   -9.997000e+001 9.247750e+001 6.000000e+000
      vertex   -9.997000e+001 9.410000e+001 6.000000e+000
    endloop
  endfacet
  facet normal 0.000000e+000 1.000000e+000 0.000000e+000
    outer loop
      vertex   -9.997000e+001 9.410000e+001 3.000000e+000
      vertex   -9.997000e+001 9.410000e+001 6.000000e+000
      vertex   -9.830000e+001 9.410000e+001 3.000000e+000
    endloop
  endfacet
  facet normal 0.000000e+000 4.863842e-001 -0.000000e+000
    outer loop
      vertex   -9.830000e+001 9.410000e+001 3.000000e+000
      vertex   -9.997000e+001 9.410000e+001 6.000000e+000
      vertex   -9.830000e+001 9.410000e+001 6.000000e+000
    endloop
  endfacet
  facet normal -1.000000e+000 0.000000e+000 0.000000e+000
    outer loop
      vertex   -9.830000e+001 9.410000e+001 3.000000e+000
      vertex   -9.830000e+001 9.410000e+001 6.000000e+000
      vertex   -9.830000e+001 1.059000e+002 3.000000e+000
    endloop
  endfacet
  facet normal -9.691685e-001 0.000000e+000 0.000000e+000
    outer loop
      vertex   -9.830000e+001 1.059000e+002 3.000000e+000
      vertex   -9.830000e+001 9.410000e+001 6.000000e+000
      vertex   -9.830000e+001 1.059000e+002 6.000000e+000
    endloop
  endfacet
  facet normal 0.000000e+000 -1.000000e+000 0.000000e+000
    outer loop
      vertex   -9.830000e+001 1.059000e+002 3.000000e+000
      vertex   -9.830000e+001 1.059000e+002 6.000000e+000
      vertex   -1.017000e+002 1.059000e+002 3.000000e+000
    endloop
  endfacet
  facet normal 0.000000e+000 -7.498373e-001 0.000000e+000
    outer loop
      vertex   -1.017000e+002 1.059000e+002 3.000000e+000
      vertex   -9.830000e+001 1.059000e+002 6.000000e+000
      vertex   -1.017000e+002 1.059000e+002 6.000000e+000
    endloop
  endfacet
  facet normal -0.000000e+000 1.000000e+000 0.000000e+000
    outer loop
      vertex   -1.023200e+002 1.360000e+002 1.000000e+000
      vertex   -9.768000e+001 1.360000e+002 1.000000e+000
      vertex   -1.023200e+002 1.360000e+002 0.000000e+000
    endloop
  endfacet
  facet normal 0.000000e+000 2.106800e-001 0.000000e+000
    outer loop
      vertex   -1.023200e+002 1.360000e+002 0.000000e+000
      vertex   -9.768000e+001 1.360000e+002 1.000000e+000
      vertex   -9.768000e+001 1.360000e+002 0.000000e+000
    endloop
  endfacet
  facet normal -6.838089e-001 1.458793e-001 1.534426e-007
    outer loop
      vertex   -1.027467e+002 1.340000e+002 3.000000e+000
      vertex   -1.023200e+002 1.360000e+002 1.000000e+000
      vertex   -1.100000e+002 1.000000e+002 3.000000e+000
    endloop
  endfacet
  facet normal -9.765525e-001 2.083312e-001 0.000000e+000
    outer loop
      vertex   -1.100000e+002 1.000000e+002 3.000000e+000
      vertex   -1.023200e+002 1.360000e+002 1.000000e+000
      vertex   -1.100000e+002 1.000000e+002 0.000000e+000
    endloop
  endfacet
  facet normal -2.655881e-002 5.665880e-003 0.000000e+000
    outer loop
      vertex   -1.100000e+002 1.000000e+002 0.000000e+000
      vertex   -1.023200e+002 1.360000e+002 1.000000e+000
      vertex   -1.023200e+002 1.360000e+002 0.000000e+000
    endloop
  endfacet
  facet normal -6.000000e-001 -8.000000e-001 0.000000e+000
    outer loop
      vertex   -8.018768e+001 7.764075e+001 3.000000e+000
      vertex   -8.018768e+001 7.764075e+001 4.000000e+000
      vertex   -9.997000e+001 9.247750e+001 3.000000e+000
    endloop
  endfacet
  facet normal -5.995100e-001 -7.993466e-001 0.000000e+000
    outer loop
      vertex   -9.997000e+001 9.247750e+001 3.000000e+000
      vertex   -8.018768e+001 7.764075e+001 4.000000e+000
      vertex   -9.997000e+001 9.247750e+001 6.000000e+000
    endloop
  endfacet
  facet normal -4.837022e-002 -6.449361e-002 -5.472197e-009
    outer loop
      vertex   -9.997000e+001 9.247750e+001 6.000000e+000
      vertex   -8.018768e+001 7.764075e+001 4.000000e+000
      vertex   -8.180392e+001 7.885294e+001 6.000000e+000
    endloop
  endfacet
  facet normal -4.974687e-001 -4.974687e-001 7.035259e-001
    outer loop
      vertex   -1.223592e+002 8.018768e+001 4.000000e+000
      vertex   -1.198123e+002 7.764075e+001 4.000000e+000
      vertex   -1.211471e+002 8.180392e+001 6.000000e+000
    endloop
  endfacet
  facet normal -2.941593e-001 -2.941593e-001 4.160034e-001
    outer loop
      vertex   -1.211471e+002 8.180392e+001 6.000000e+000
      vertex   -1.198123e+002 7.764075e+001 4.000000e+000
      vertex   -1.181961e+002 7.885294e+001 6.000000e+000
    endloop
  endfacet
  facet normal 4.221163e-001 -5.628216e-001 -4.775466e-008
    outer loop
      vertex   -1.181961e+002 7.885294e+001 6.000000e+000
      vertex   -1.198123e+002 7.764075e+001 4.000000e+000
      vertex   -1.000300e+002 9.247750e+001 6.000000e+000
    endloop
  endfacet
  facet normal 5.980471e-001 -7.973961e-001 0.000000e+000
    outer loop
      vertex   -1.000300e+002 9.247750e+001 6.000000e+000
      vertex   -1.198123e+002 7.764075e+001 4.000000e+000
      vertex   -1.000300e+002 9.247750e+001 3.000000e+000
    endloop
  endfacet
  facet normal 2.424427e-002 -3.232569e-002 -5.551115e-017
    outer loop
      vertex   -1.000300e+002 9.247750e+001 3.000000e+000
      vertex   -1.198123e+002 7.764075e+001 4.000000e+000
      vertex   -1.198123e+002 7.764075e+001 3.000000e+000
    endloop
  endfacet
  facet normal -0.000000e+000 0.000000e+000 9.899495e-001
    outer loop
      vertex   -1.211471e+002 8.180392e+001 6.000000e+000
      vertex   -1.181961e+002 7.885294e+001 6.000000e+000
      vertex   -1.081359e+002 9.915218e+001 6.000000e+000
    endloop
  endfacet
  facet normal 0.000000e+000 0.000000e+000 9.789770e-001
    outer loop
      vertex   -1.081359e+002 9.915218e+001 6.000000e+000
      vertex   -1.181961e+002 7.885294e+001 6.000000e+000
      vertex   -1.017000e+002 9.410000e+001 6.000000e+000
    endloop
  endfacet
  facet normal -0.000000e+000 0.000000e+000 9.953753e-001
    outer loop
      vertex   -1.081359e+002 9.915218e+001 6.000000e+000
      vertex   -1.017000e+002 9.410000e+001 6.000000e+000
      vertex   -1.017000e+002 1.059000e+002 6.000000e+000
    endloop
  endfacet
  facet normal 0.000000e+000 0.000000e+000 1.023897e-001
    outer loop
      vertex   -1.181961e+002 7.885294e+001 6.000000e+000
      vertex   -1.000300e+002 9.247750e+001 6.000000e+000
      vertex   -1.017000e+002 9.410000e+001 6.000000e+000
    endloop
  endfacet
  facet normal -0.000000e+000 0.000000e+000 6.968329e-001
    outer loop
      vertex   -1.017000e+002 9.410000e+001 6.000000e+000
      vertex   -1.000300e+002 9.247750e+001 6.000000e+000
      vertex   -1.000300e+002 9.410000e+001 6.000000e+000
    endloop
  endfacet
  facet normal 0.000000e+000 0.000000e+000 5.240148e-001
    outer loop
      vertex   -1.081359e+002 9.915218e+001 6.000000e+000
      vertex   -1.017000e+002 1.059000e+002 6.000000e+000
      vertex   -1.028350e+002 1.240000e+002 6.000000e+000
    endloop
  endfacet
  facet normal 0.000000e+000 0.000000e+000 1.818555e-001
    outer loop
      vertex   -1.028350e+002 1.240000e+002 6.000000e+000
      vertex   -1.017000e+002 1.059000e+002 6.000000e+000
      vertex   -9.830000e+001 1.059000e+002 6.000000e+000
    endloop
  endfacet
  facet normal -0.000000e+000 0.000000e+000 9.700164e-001
    outer loop
      vertex   -1.028350e+002 1.240000e+002 6.000000e+000
      vertex   -9.830000e+001 1.059000e+002 6.000000e+000
      vertex   -9.716501e+001 1.240000e+002 6.000000e+000
    endloop
  endfacet
  facet normal 0.000000e+000 0.000000e+000 2.694363e-001
    outer loop
      vertex   -9.716501e+001 1.240000e+002 6.000000e+000
      vertex   -9.830000e+001 1.059000e+002 6.000000e+000
      vertex   -9.186414e+001 9.915218e+001 6.000000e+000
    endloop
  endfacet
  facet normal 0.000000e+000 0.000000e+000 9.953753e-001
    outer loop
      vertex   -9.186414e+001 9.915218e+001 6.000000e+000
      vertex   -9.830000e+001 1.059000e+002 6.000000e+000
      vertex   -9.830000e+001 9.410000e+001 6.000000e+000
    endloop
  endfacet
  facet normal 0.000000e+000 0.000000e+000 9.789770e-001
    outer loop
      vertex   -9.186414e+001 9.915218e+001 6.000000e+000
      vertex   -9.830000e+001 9.410000e+001 6.000000e+000
      vertex   -8.180392e+001 7.885294e+001 6.000000e+000
    endloop
  endfacet
  facet normal 0.000000e+000 0.000000e+000 1.023897e-001
    outer loop
      vertex   -8.180392e+001 7.885294e+001 6.000000e+000
      vertex   -9.830000e+001 9.410000e+001 6.000000e+000
      vertex   -9.997000e+001 9.247750e+001 6.000000e+000
    endloop
  endfacet
  facet normal 0.000000e+000 0.000000e+000 7.172335e-001
    outer loop
      vertex   -9.997000e+001 9.247750e+001 6.000000e+000
      vertex   -9.830000e+001 9.410000e+001 6.000000e+000
      vertex   -9.997000e+001 9.410000e+001 6.000000e+000
    endloop
  endfacet
  facet normal 0.000000e+000 -0.000000e+000 9.475612e-001
    outer loop
      vertex   -8.180392e+001 7.885294e+001 6.000000e+000
      vertex   -7.885294e+001 8.180392e+001 6.000000e+000
      vertex   -9.186414e+001 9.915218e+001 6.000000e+000
    endloop
  endfacet
  facet normal 4.974687e-001 -4.974687e-001 7.035259e-001
    outer loop
      vertex   -8.180392e+001 7.885294e+001 6.000000e+000
      vertex   -8.018768e+001 7.764075e+001 4.000000e+000
      vertex   -7.885294e+001 8.180392e+001 6.000000e+000
    endloop
  endfacet
  facet normal 3.727038e-001 -3.727038e-001 5.270820e-001
    outer loop
      vertex   -7.885294e+001 8.180392e+001 6.000000e+000
      vertex   -8.018768e+001 7.764075e+001 4.000000e+000
      vertex   -7.764075e+001 8.018768e+001 4.000000e+000
    endloop
  endfacet
  facet normal 0.000000e+000 6.991962e-001 6.991962e-001
    outer loop
      vertex   -9.759167e+001 1.260000e+002 4.000000e+000
      vertex   -1.024083e+002 1.260000e+002 4.000000e+000
      vertex   -9.716501e+001 1.240000e+002 6.000000e+000
    endloop
  endfacet
  facet normal 0.000000e+000 3.357086e-001 3.357086e-001
    outer loop
      vertex   -9.716501e+001 1.240000e+002 6.000000e+000
      vertex   -1.024083e+002 1.260000e+002 4.000000e+000
      vertex   -1.028350e+002 1.240000e+002 6.000000e+000
    endloop
  endfacet
  facet normal -0.000000e+000 1.000000e+000 0.000000e+000
    outer loop
      vertex   -1.024083e+002 1.260000e+002 4.000000e+000
      vertex   -9.759167e+001 1.260000e+002 4.000000e+000
      vertex   -1.024083e+002 1.260000e+002 3.000000e+000
    endloop
  endfacet
  facet normal 0.000000e+000 2.032784e-001 0.000000e+000
    outer loop
      vertex   -1.024083e+002 1.260000e+002 3.000000e+000
      vertex   -9.759167e+001 1.260000e+002 4.000000e+000
      vertex   -9.759167e+001 1.260000e+002 3.000000e+000
    endloop
  endfacet
  facet normal -7.071068e-001 -7.071068e-001 -0.000000e+000
    outer loop
      vertex   -1.198123e+002 7.764075e+001 4.000000e+000
      vertex   -1.223592e+002 8.018768e+001 4.000000e+000
      vertex   -1.198123e+002 7.764075e+001 3.000000e+000
    endloop
  endfacet
  facet normal -1.891606e-001 -1.891606e-001 0.000000e+000
    outer loop
      vertex   -1.198123e+002 7.764075e+001 3.000000e+000
      vertex   -1.223592e+002 8.018768e+001 4.000000e+000
      vertex   -1.223592e+002 8.018768e+001 3.000000e+000
    endloop
  endfacet
  facet normal 7.071068e-001 -7.071068e-001 0.000000e+000
    outer loop
      vertex   -7.764075e+001 8.018768e+001 4.000000e+000
      vertex   -8.018768e+001 7.764075e+001 4.000000e+000
      vertex   -7.764075e+001 8.018768e+001 3.000000e+000
    endloop
  endfacet
  facet normal 1.891606e-001 -1.891606e-001 0.000000e+000
    outer loop
      vertex   -7.764075e+001 8.018768e+001 3.000000e+000
      vertex   -8.018768e+001 7.764075e+001 4.000000e+000
      vertex   -8.018768e+001 7.764075e+001 3.000000e+000
    endloop
  endfacet
endsolid
