solid Strider_v6
facet normal 0.0 0.0 -1.0
  outer loop
    vertex -18.314814565722678 8.447047612756311 -2.6
    vertex -18.314814565722678 7.152952387243707 -2.6
    vertex -18.400000000000006 7.800000000000009 -2.6
  endloop
endfacet
facet normal 0.0 0.0 -1.0
  outer loop
    vertex -18.314814565722678 7.152952387243707 -2.6
    vertex -18.314814565722678 8.447047612756311 -2.6
    vertex -18.0650635094611 9.05000000000001 -2.6
  endloop
endfacet
facet normal 0.0 0.0 -1.0
  outer loop
    vertex -18.314814565722678 7.152952387243707 -2.6
    vertex -18.0650635094611 9.05000000000001 -2.6
    vertex -18.065063509461105 6.550000000000008 -2.6
  endloop
endfacet
facet normal 0.0 0.0 -1.0
  outer loop
    vertex -18.065063509461105 6.550000000000008 -2.6
    vertex -18.0650635094611 9.05000000000001 -2.6
    vertex -17.667766952966378 6.032233047033639 -2.6
  endloop
endfacet
facet normal 0.0 0.0 -1.0
  outer loop
    vertex -17.667766952966378 6.032233047033639 -2.6
    vertex -18.0650635094611 9.05000000000001 -2.6
    vertex -17.66776695296637 9.567766952966377 -2.6
  endloop
endfacet
facet normal 0.0 0.0 -1.0
  outer loop
    vertex -17.667766952966378 6.032233047033639 -2.6
    vertex -17.66776695296637 9.567766952966377 -2.6
    vertex -17.15000000000001 5.6349364905389105 -2.6
  endloop
endfacet
facet normal 0.0 0.0 -1.0
  outer loop
    vertex -17.15000000000001 5.6349364905389105 -2.6
    vertex -17.66776695296637 9.567766952966377 -2.6
    vertex -17.150000000000002 9.965063509461105 -2.6
  endloop
endfacet
facet normal 0.0 0.0 -1.0
  outer loop
    vertex -17.15000000000001 5.6349364905389105 -2.6
    vertex -17.150000000000002 9.965063509461105 -2.6
    vertex -16.547047612756312 5.385185434277335 -2.6
  endloop
endfacet
facet normal 0.0 0.0 -1.0
  outer loop
    vertex -16.547047612756312 5.385185434277335 -2.6
    vertex -17.150000000000002 9.965063509461105 -2.6
    vertex -16.585113310707108 10.259124907202244 -2.6
  endloop
endfacet
facet normal 0.0 0.0 -1.0
  outer loop
    vertex -16.547047612756312 5.385185434277335 -2.6
    vertex -16.585113310707108 10.259124907202244 -2.6
    vertex -16.450000000000003 7.800000000000005 -2.6
  endloop
endfacet
facet normal 0.0 0.0 -1.0
  outer loop
    vertex -16.450000000000003 7.800000000000005 -2.6
    vertex -16.585113310707108 10.259124907202244 -2.6
    vertex -16.43125920445899 7.942350474806392 -2.6
  endloop
endfacet
facet normal 0.0 0.0 -1.0
  outer loop
    vertex -16.43125920445899 7.942350474806392 -2.6
    vertex -16.585113310707108 10.259124907202244 -2.6
    vertex -15.996747046277385 10.50283419357183 -2.6
  endloop
endfacet
facet normal 0.0 0.0 -1.0
  outer loop
    vertex -16.43125920445899 7.942350474806392 -2.6
    vertex -15.996747046277385 10.50283419357183 -2.6
    vertex -16.376313972081444 8.075000000000005 -2.6
  endloop
endfacet
facet normal 0.0 0.0 -1.0
  outer loop
    vertex -16.376313972081444 8.075000000000005 -2.6
    vertex -15.996747046277385 10.50283419357183 -2.6
    vertex -16.288908729652604 8.188908729652606 -2.6
  endloop
endfacet
facet normal 0.0 0.0 -1.0
  outer loop
    vertex -16.288908729652604 8.188908729652606 -2.6
    vertex -15.996747046277385 10.50283419357183 -2.6
    vertex -16.175000000000004 8.276313972081446 -2.6
  endloop
endfacet
facet normal 0.0 0.0 -1.0
  outer loop
    vertex -16.175000000000004 8.276313972081446 -2.6
    vertex -15.996747046277385 10.50283419357183 -2.6
    vertex -16.04235047480639 8.331259204458993 -2.6
  endloop
endfacet
facet normal 0.0 0.0 -1.0
  outer loop
    vertex -16.04235047480639 8.331259204458993 -2.6
    vertex -15.996747046277385 10.50283419357183 -2.6
    vertex -15.900000000000004 8.350000000000005 -2.6
  endloop
endfacet
facet normal 0.0 0.0 -1.0
  outer loop
    vertex -15.900000000000004 8.350000000000005 -2.6
    vertex -15.996747046277385 10.50283419357183 -2.6
    vertex -15.389379029248403 10.694336593744897 -2.6
  endloop
endfacet
facet normal 0.0 0.0 -1.0
  outer loop
    vertex -15.900000000000004 8.350000000000005 -2.6
    vertex -15.389379029248403 10.694336593744897 -2.6
    vertex -15.757649525193619 8.331259204458993 -2.6
  endloop
endfacet
facet normal 0.0 0.0 -1.0
  outer loop
    vertex -15.757649525193619 8.331259204458993 -2.6
    vertex -15.389379029248403 10.694336593744897 -2.6
    vertex -15.625000000000005 8.276313972081446 -2.6
  endloop
endfacet
facet normal 0.0 0.0 -1.0
  outer loop
    vertex -15.625000000000005 8.276313972081446 -2.6
    vertex -15.389379029248403 10.694336593744897 -2.6
    vertex -15.511091270347404 8.188908729652606 -2.6
  endloop
endfacet
facet normal 0.0 0.0 -1.0
  outer loop
    vertex -15.511091270347404 8.188908729652606 -2.6
    vertex -15.389379029248403 10.694336593744897 -2.6
    vertex -15.423686027918565 8.075000000000005 -2.6
  endloop
endfacet
facet normal 0.0 0.0 -1.0
  outer loop
    vertex -15.423686027918565 8.075000000000005 -2.6
    vertex -15.389379029248403 10.694336593744897 -2.6
    vertex -15.368740795541019 7.942350474806392 -2.6
  endloop
endfacet
facet normal 0.0 0.0 -1.0
  outer loop
    vertex -15.368740795541019 7.942350474806392 -2.6
    vertex -15.389379029248403 10.694336593744897 -2.6
    vertex -14.767631696968596 10.832174658823819 -2.6
  endloop
endfacet
facet normal 0.0 0.0 -1.0
  outer loop
    vertex -15.368740795541019 7.942350474806392 -2.6
    vertex -14.767631696968596 10.832174658823819 -2.6
    vertex -15.350000000000005 7.800000000000005 -2.6
  endloop
endfacet
facet normal 0.0 0.0 -1.0
  outer loop
    vertex -15.350000000000005 7.800000000000005 -2.6
    vertex -14.767631696968596 10.832174658823819 -2.6
    vertex -15.032437021300176 5.166514148040262 -2.6
  endloop
endfacet
facet normal 0.0 0.0 -1.0
  outer loop
    vertex -15.032437021300176 5.166514148040262 -2.6
    vertex -14.767631696968596 10.832174658823819 -2.6
    vertex -13.508799343093502 5.3093098087749295 -2.6
  endloop
endfacet
facet normal 0.0 0.0 -1.0
  outer loop
    vertex -13.508799343093502 5.3093098087749295 -2.6
    vertex -14.767631696968596 10.832174658823819 -2.6
    vertex -14.136236922057908 10.915299357904441 -2.6
  endloop
endfacet
facet normal 0.0 0.0 -1.0
  outer loop
    vertex -13.508799343093502 5.3093098087749295 -2.6
    vertex -14.136236922057908 10.915299357904441 -2.6
    vertex -13.500000000000004 10.943078061834699 -2.6
  endloop
endfacet
facet normal 0.0 0.0 -1.0
  outer loop
    vertex -13.508799343093502 5.3093098087749295 -2.6
    vertex -13.500000000000004 10.943078061834699 -2.6
    vertex -12.414541297369087 5.684460769849379 -2.6
  endloop
endfacet
facet normal 0.0 0.0 -1.0
  outer loop
    vertex -12.414541297369087 5.684460769849379 -2.6
    vertex -13.500000000000004 10.943078061834699 -2.6
    vertex -12.8637630779421 10.915299357904441 -2.6
  endloop
endfacet
facet normal 0.0 0.0 -1.0
  outer loop
    vertex -12.414541297369087 5.684460769849379 -2.6
    vertex -12.8637630779421 10.915299357904441 -2.6
    vertex -12.232368303031413 10.832174658823815 -2.6
  endloop
endfacet
facet normal 0.0 0.0 -1.0
  outer loop
    vertex -12.414541297369087 5.684460769849379 -2.6
    vertex -12.232368303031413 10.832174658823815 -2.6
    vertex -12.061195148517836 5.805600520981615 -2.6
  endloop
endfacet
facet normal 0.0 0.0 -1.0
  outer loop
    vertex -12.061195148517836 5.805600520981615 -2.6
    vertex -12.232368303031413 10.832174658823815 -2.6
    vertex -11.610620970751603 10.694336593744897 -2.6
  endloop
endfacet
facet normal 0.0 0.0 -1.0
  outer loop
    vertex -12.061195148517836 5.805600520981615 -2.6
    vertex -11.610620970751603 10.694336593744897 -2.6
    vertex -11.700000000000006 7.800000000000004 -2.6
  endloop
endfacet
facet normal 0.0 0.0 -1.0
  outer loop
    vertex -11.700000000000006 7.800000000000004 -2.6
    vertex -11.610620970751603 10.694336593744897 -2.6
    vertex -11.679555495773448 7.955291427061518 -2.6
  endloop
endfacet
facet normal 0.0 0.0 -1.0
  outer loop
    vertex -11.679555495773448 7.955291427061518 -2.6
    vertex -11.610620970751603 10.694336593744897 -2.6
    vertex -11.61961524227067 8.100000000000005 -2.6
  endloop
endfacet
facet normal 0.0 0.0 -1.0
  outer loop
    vertex -11.61961524227067 8.100000000000005 -2.6
    vertex -11.610620970751603 10.694336593744897 -2.6
    vertex -11.524264068711936 8.224264068711934 -2.6
  endloop
endfacet
facet normal 0.0 0.0 -1.0
  outer loop
    vertex -11.524264068711936 8.224264068711934 -2.6
    vertex -11.610620970751603 10.694336593744897 -2.6
    vertex -11.003252953722622 10.50283419357183 -2.6
  endloop
endfacet
facet normal 0.0 0.0 -1.0
  outer loop
    vertex -11.524264068711936 8.224264068711934 -2.6
    vertex -11.003252953722622 10.50283419357183 -2.6
    vertex -11.400000000000006 8.319615242270668 -2.6
  endloop
endfacet
facet normal 0.0 0.0 -1.0
  outer loop
    vertex -11.400000000000006 8.319615242270668 -2.6
    vertex -11.003252953722622 10.50283419357183 -2.6
    vertex -11.255291427061518 8.379555495773445 -2.6
  endloop
endfacet
facet normal 0.0 0.0 -1.0
  outer loop
    vertex -11.255291427061518 8.379555495773445 -2.6
    vertex -11.003252953722622 10.50283419357183 -2.6
    vertex -11.100000000000007 8.400000000000004 -2.6
  endloop
endfacet
facet normal 0.0 0.0 -1.0
  outer loop
    vertex -11.100000000000007 8.400000000000004 -2.6
    vertex -11.003252953722622 10.50283419357183 -2.6
    vertex -10.944708572938495 8.379555495773445 -2.6
  endloop
endfacet
facet normal 0.0 0.0 -1.0
  outer loop
    vertex -10.944708572938495 8.379555495773445 -2.6
    vertex -11.003252953722622 10.50283419357183 -2.6
    vertex -10.414886689292898 10.259124907202244 -2.6
  endloop
endfacet
facet normal 0.0 0.0 -1.0
  outer loop
    vertex -10.944708572938495 8.379555495773445 -2.6
    vertex -10.414886689292898 10.259124907202244 -2.6
    vertex -10.800000000000006 8.319615242270668 -2.6
  endloop
endfacet
facet normal 0.0 0.0 -1.0
  outer loop
    vertex -10.800000000000006 8.319615242270668 -2.6
    vertex -10.414886689292898 10.259124907202244 -2.6
    vertex -10.675735931288077 8.224264068711934 -2.6
  endloop
endfacet
facet normal 0.0 0.0 -1.0
  outer loop
    vertex -10.675735931288077 8.224264068711934 -2.6
    vertex -10.414886689292898 10.259124907202244 -2.6
    vertex -10.580384757729343 8.100000000000003 -2.6
  endloop
endfacet
facet normal 0.0 0.0 -1.0
  outer loop
    vertex -10.580384757729343 8.100000000000003 -2.6
    vertex -10.414886689292898 10.259124907202244 -2.6
    vertex -10.520444504226566 7.955291427061516 -2.6
  endloop
endfacet
facet normal 0.0 0.0 -1.0
  outer loop
    vertex -10.520444504226566 7.955291427061516 -2.6
    vertex -10.414886689292898 10.259124907202244 -2.6
    vertex -10.500000000000005 7.800000000000004 -2.6
  endloop
endfacet
facet normal 0.0 0.0 -1.0
  outer loop
    vertex -12.061195148517836 5.805600520981615 -2.6
    vertex -11.524264068711936 7.375735931288075 -2.6
    vertex -10.770440264221852 6.62767971658368 -2.6
  endloop
endfacet
facet normal 0.0 0.0 -1.0
  outer loop
    vertex -11.524264068711936 7.375735931288075 -2.6
    vertex -12.061195148517836 5.805600520981615 -2.6
    vertex -11.61961524227067 7.500000000000004 -2.6
  endloop
endfacet
facet normal 0.0 0.0 -1.0
  outer loop
    vertex -11.61961524227067 7.500000000000004 -2.6
    vertex -12.061195148517836 5.805600520981615 -2.6
    vertex -11.679555495773448 7.644708572938492 -2.6
  endloop
endfacet
facet normal 0.0 0.0 -1.0
  outer loop
    vertex -11.679555495773448 7.644708572938492 -2.6
    vertex -12.061195148517836 5.805600520981615 -2.6
    vertex -11.700000000000006 7.800000000000004 -2.6
  endloop
endfacet
facet normal 0.0 0.0 -1.0
  outer loop
    vertex -10.770440264221852 6.62767971658368 -2.6
    vertex -11.524264068711936 7.375735931288075 -2.6
    vertex -11.400000000000007 7.28038475772934 -2.6
  endloop
endfacet
facet normal 0.0 0.0 -1.0
  outer loop
    vertex -10.770440264221852 6.62767971658368 -2.6
    vertex -11.400000000000007 7.28038475772934 -2.6
    vertex -11.25529142706152 7.220444504226563 -2.6
  endloop
endfacet
facet normal 0.0 0.0 -1.0
  outer loop
    vertex -10.770440264221852 6.62767971658368 -2.6
    vertex -11.25529142706152 7.220444504226563 -2.6
    vertex -11.100000000000007 7.200000000000004 -2.6
  endloop
endfacet
facet normal 0.0 0.0 -1.0
  outer loop
    vertex -10.770440264221852 6.62767971658368 -2.6
    vertex -11.100000000000007 7.200000000000004 -2.6
    vertex -10.944708572938495 7.220444504226563 -2.6
  endloop
endfacet
facet normal 0.0 0.0 -1.0
  outer loop
    vertex -10.770440264221852 6.62767971658368 -2.6
    vertex -10.944708572938495 7.220444504226563 -2.6
    vertex -10.800000000000008 7.28038475772934 -2.6
  endloop
endfacet
facet normal 0.0 0.0 -1.0
  outer loop
    vertex -10.770440264221852 6.62767971658368 -2.6
    vertex -10.800000000000008 7.28038475772934 -2.6
    vertex -10.675735931288077 7.375735931288075 -2.6
  endloop
endfacet
facet normal 0.0 0.0 -1.0
  outer loop
    vertex -10.770440264221852 6.62767971658368 -2.6
    vertex -10.675735931288077 7.375735931288075 -2.6
    vertex -9.70859404411324 7.729652937681514 -2.6
  endloop
endfacet
facet normal 0.0 0.0 -1.0
  outer loop
    vertex -9.70859404411324 7.729652937681514 -2.6
    vertex -10.675735931288077 7.375735931288075 -2.6
    vertex -10.580384757729343 7.5000000000000036 -2.6
  endloop
endfacet
facet normal 0.0 0.0 -1.0
  outer loop
    vertex -9.70859404411324 7.729652937681514 -2.6
    vertex -10.580384757729343 7.5000000000000036 -2.6
    vertex -10.520444504226566 7.644708572938491 -2.6
  endloop
endfacet
facet normal 0.0 0.0 -1.0
  outer loop
    vertex -9.70859404411324 7.729652937681514 -2.6
    vertex -10.520444504226566 7.644708572938491 -2.6
    vertex -10.500000000000005 7.800000000000004 -2.6
  endloop
endfacet
facet normal 0.0 0.0 -1.0
  outer loop
    vertex -9.70859404411324 7.729652937681514 -2.6
    vertex -10.500000000000005 7.800000000000004 -2.6
    vertex -10.414886689292898 10.259124907202244 -2.6
  endloop
endfacet
facet normal 0.0 0.0 -1.0
  outer loop
    vertex -9.70859404411324 7.729652937681514 -2.6
    vertex -10.414886689292898 10.259124907202244 -2.6
    vertex -9.850000000000007 9.9650635094611 -2.6
  endloop
endfacet
facet normal 0.0 0.0 -1.0
  outer loop
    vertex -9.70859404411324 7.729652937681514 -2.6
    vertex -9.850000000000007 9.9650635094611 -2.6
    vertex -9.332233047033638 9.567766952966373 -2.6
  endloop
endfacet
facet normal 0.0 0.0 -1.0
  outer loop
    vertex -9.70859404411324 7.729652937681514 -2.6
    vertex -9.332233047033638 9.567766952966373 -2.6
    vertex -8.93493649053891 9.050000000000002 -2.6
  endloop
endfacet
facet normal 0.0 0.0 -1.0
  outer loop
    vertex -16.547047612756312 5.385185434277335 -2.6
    vertex -16.43125920445899 7.65764952519362 -2.6
    vertex -15.900000000000007 5.300000000000004 -2.6
  endloop
endfacet
facet normal 0.0 0.0 -1.0
  outer loop
    vertex -16.43125920445899 7.65764952519362 -2.6
    vertex -16.547047612756312 5.385185434277335 -2.6
    vertex -16.450000000000003 7.800000000000005 -2.6
  endloop
endfacet
facet normal 0.0 0.0 -1.0
  outer loop
    vertex -15.900000000000007 5.300000000000004 -2.6
    vertex -16.43125920445899 7.65764952519362 -2.6
    vertex -16.376313972081444 7.525000000000006 -2.6
  endloop
endfacet
facet normal 0.0 0.0 -1.0
  outer loop
    vertex -15.900000000000007 5.300000000000004 -2.6
    vertex -16.376313972081444 7.525000000000006 -2.6
    vertex -16.288908729652604 7.411091270347405 -2.6
  endloop
endfacet
facet normal 0.0 0.0 -1.0
  outer loop
    vertex -15.900000000000007 5.300000000000004 -2.6
    vertex -16.288908729652604 7.411091270347405 -2.6
    vertex -16.175000000000004 7.323686027918566 -2.6
  endloop
endfacet
facet normal 0.0 0.0 -1.0
  outer loop
    vertex -15.900000000000007 5.300000000000004 -2.6
    vertex -16.175000000000004 7.323686027918566 -2.6
    vertex -16.04235047480639 7.268740795541018 -2.6
  endloop
endfacet
facet normal 0.0 0.0 -1.0
  outer loop
    vertex -15.900000000000007 5.300000000000004 -2.6
    vertex -16.04235047480639 7.268740795541018 -2.6
    vertex -15.900000000000004 7.250000000000006 -2.6
  endloop
endfacet
facet normal 0.0 0.0 -1.0
  outer loop
    vertex -15.900000000000007 5.300000000000004 -2.6
    vertex -15.900000000000004 7.250000000000006 -2.6
    vertex -15.032437021300176 5.166514148040262 -2.6
  endloop
endfacet
facet normal 0.0 0.0 -1.0
  outer loop
    vertex -15.032437021300176 5.166514148040262 -2.6
    vertex -15.900000000000004 7.250000000000006 -2.6
    vertex -15.757649525193619 7.268740795541018 -2.6
  endloop
endfacet
facet normal 0.0 0.0 -1.0
  outer loop
    vertex -15.032437021300176 5.166514148040262 -2.6
    vertex -15.757649525193619 7.268740795541018 -2.6
    vertex -15.625000000000005 7.323686027918565 -2.6
  endloop
endfacet
facet normal 0.0 0.0 -1.0
  outer loop
    vertex -15.032437021300176 5.166514148040262 -2.6
    vertex -15.625000000000005 7.323686027918565 -2.6
    vertex -15.511091270347404 7.411091270347405 -2.6
  endloop
endfacet
facet normal 0.0 0.0 -1.0
  outer loop
    vertex -15.032437021300176 5.166514148040262 -2.6
    vertex -15.511091270347404 7.411091270347405 -2.6
    vertex -15.423686027918565 7.525000000000006 -2.6
  endloop
endfacet
facet normal 0.0 0.0 -1.0
  outer loop
    vertex -15.032437021300176 5.166514148040262 -2.6
    vertex -15.423686027918565 7.525000000000006 -2.6
    vertex -15.368740795541019 7.6576495251936185 -2.6
  endloop
endfacet
facet normal 0.0 0.0 -1.0
  outer loop
    vertex -15.032437021300176 5.166514148040262 -2.6
    vertex -15.368740795541019 7.6576495251936185 -2.6
    vertex -15.350000000000005 7.800000000000005 -2.6
  endloop
endfacet
facet normal -0.6087614290087195 0.7933533402912359 0.0
  outer loop
    vertex -17.66776695296637 9.567766952966377 0.0
    vertex -17.150000000000002 9.965063509461105 -2.6
    vertex -17.66776695296637 9.567766952966377 -2.6
  endloop
endfacet
facet normal -0.6087614290087195 0.7933533402912359 0.0
  outer loop
    vertex -17.150000000000002 9.965063509461105 -2.6
    vertex -17.66776695296637 9.567766952966377 0.0
    vertex -17.150000000000002 9.965063509461105 0.0
  endloop
endfacet
facet normal -0.4617486132350312 0.8870108331782232 0.0
  outer loop
    vertex -17.150000000000002 9.965063509461105 0.0
    vertex -16.585113310707108 10.259124907202244 -2.6
    vertex -17.150000000000002 9.965063509461105 -2.6
  endloop
endfacet
facet normal -0.4617486132350312 0.8870108331782232 0.0
  outer loop
    vertex -16.585113310707108 10.259124907202244 -2.6
    vertex -17.150000000000002 9.965063509461105 0.0
    vertex -16.585113310707108 10.259124907202244 0.0
  endloop
endfacet
facet normal -0.38268343236508995 0.9238795325112867 0.0
  outer loop
    vertex -16.585113310707108 10.259124907202244 0.0
    vertex -15.996747046277385 10.50283419357183 -2.6
    vertex -16.585113310707108 10.259124907202244 -2.6
  endloop
endfacet
facet normal -0.38268343236508995 0.9238795325112867 0.0
  outer loop
    vertex -15.996747046277385 10.50283419357183 -2.6
    vertex -16.585113310707108 10.259124907202244 0.0
    vertex -15.996747046277385 10.50283419357183 0.0
  endloop
endfacet
facet normal -0.3007057995042709 0.9537169507482277 0.0
  outer loop
    vertex -15.996747046277385 10.50283419357183 0.0
    vertex -15.389379029248403 10.694336593744897 -2.6
    vertex -15.996747046277385 10.50283419357183 -2.6
  endloop
endfacet
facet normal -0.3007057995042709 0.9537169507482277 0.0
  outer loop
    vertex -15.389379029248403 10.694336593744897 -2.6
    vertex -15.996747046277385 10.50283419357183 0.0
    vertex -15.389379029248403 10.694336593744897 0.0
  endloop
endfacet
facet normal -0.2164396139381051 0.9762960071199328 0.0
  outer loop
    vertex -15.389379029248403 10.694336593744897 0.0
    vertex -14.767631696968596 10.832174658823819 -2.6
    vertex -15.389379029248403 10.694336593744897 -2.6
  endloop
endfacet
facet normal -0.2164396139381051 0.9762960071199328 0.0
  outer loop
    vertex -14.767631696968596 10.832174658823819 -2.6
    vertex -15.389379029248403 10.694336593744897 0.0
    vertex -14.767631696968596 10.832174658823819 0.0
  endloop
endfacet
facet normal -0.1305261922200494 0.9914448613738107 0.0
  outer loop
    vertex -14.767631696968596 10.832174658823819 0.0
    vertex -14.136236922057908 10.915299357904441 -2.6
    vertex -14.767631696968596 10.832174658823819 -2.6
  endloop
endfacet
facet normal -0.1305261922200494 0.9914448613738107 0.0
  outer loop
    vertex -14.136236922057908 10.915299357904441 -2.6
    vertex -14.767631696968596 10.832174658823819 0.0
    vertex -14.136236922057908 10.915299357904441 2.3999999999999995
  endloop
endfacet
facet normal -0.1305261922200494 0.9914448613738107 0.0
  outer loop
    vertex -14.136236922057908 10.915299357904441 2.3999999999999995
    vertex -14.767631696968596 10.832174658823819 0.0
    vertex -14.767631696968596 10.832174658823819 2.3999999999999995
  endloop
endfacet
facet normal -0.04361938736533609 0.9990482215818577 0.0
  outer loop
    vertex -14.136236922057908 10.915299357904441 2.3999999999999995
    vertex -13.500000000000004 10.943078061834699 -2.6
    vertex -14.136236922057908 10.915299357904441 -2.6
  endloop
endfacet
facet normal -0.04361938736533609 0.9990482215818577 0.0
  outer loop
    vertex -13.500000000000004 10.943078061834699 -2.6
    vertex -14.136236922057908 10.915299357904441 2.3999999999999995
    vertex -13.500000000000004 10.943078061834699 2.3999999999999995
  endloop
endfacet
facet normal 0.04361938736533609 0.9990482215818577 0.0
  outer loop
    vertex -13.500000000000004 10.943078061834699 2.3999999999999995
    vertex -12.8637630779421 10.915299357904441 -2.6
    vertex -13.500000000000004 10.943078061834699 -2.6
  endloop
endfacet
facet normal 0.04361938736533609 0.9990482215818577 0.0
  outer loop
    vertex -12.8637630779421 10.915299357904441 -2.6
    vertex -13.500000000000004 10.943078061834699 2.3999999999999995
    vertex -12.8637630779421 10.915299357904441 2.3999999999999995
  endloop
endfacet
facet normal 0.13052619222005402 0.99144486137381 0.0
  outer loop
    vertex -12.8637630779421 10.915299357904441 2.3999999999999995
    vertex -12.232368303031413 10.832174658823815 -2.6
    vertex -12.8637630779421 10.915299357904441 -2.6
  endloop
endfacet
facet normal 0.13052619222005402 0.99144486137381 0.0
  outer loop
    vertex -12.232368303031413 10.832174658823815 -2.6
    vertex -12.8637630779421 10.915299357904441 2.3999999999999995
    vertex -12.232368303031413 10.832174658823815 2.3999999999999995
  endloop
endfacet
facet normal 0.2164396139381 0.976296007119934 0.0
  outer loop
    vertex -12.232368303031413 10.832174658823815 2.3999999999999995
    vertex -11.610620970751603 10.694336593744897 -2.6
    vertex -12.232368303031413 10.832174658823815 -2.6
  endloop
endfacet
facet normal 0.2164396139381 0.976296007119934 0.0
  outer loop
    vertex -11.610620970751603 10.694336593744897 -2.6
    vertex -12.232368303031413 10.832174658823815 2.3999999999999995
    vertex -11.610620970751603 10.694336593744897 2.3999999999999995
  endloop
endfacet
facet normal 0.30070579950427223 0.9537169507482274 0.0
  outer loop
    vertex -11.610620970751603 10.694336593744897 2.3999999999999995
    vertex -11.003252953722622 10.50283419357183 -2.6
    vertex -11.610620970751603 10.694336593744897 -2.6
  endloop
endfacet
facet normal 0.30070579950427223 0.9537169507482274 0.0
  outer loop
    vertex -11.003252953722622 10.50283419357183 -2.6
    vertex -11.610620970751603 10.694336593744897 2.3999999999999995
    vertex -11.003252953722622 10.50283419357183 2.3999999999999995
  endloop
endfacet
facet normal 0.3826834323650891 0.923879532511287 0.0
  outer loop
    vertex -11.003252953722622 10.50283419357183 2.3999999999999995
    vertex -10.414886689292898 10.259124907202244 -2.6
    vertex -11.003252953722622 10.50283419357183 -2.6
  endloop
endfacet
facet normal 0.3826834323650891 0.923879532511287 0.0
  outer loop
    vertex -10.414886689292898 10.259124907202244 -2.6
    vertex -11.003252953722622 10.50283419357183 2.3999999999999995
    vertex -10.414886689292898 10.259124907202244 2.3999999999999995
  endloop
endfacet
facet normal 0.4617486132350374 0.88701083317822 0.0
  outer loop
    vertex -10.414886689292898 10.259124907202244 2.3999999999999995
    vertex -9.850000000000007 9.9650635094611 -2.6
    vertex -10.414886689292898 10.259124907202244 -2.6
  endloop
endfacet
facet normal 0.4617486132350374 0.88701083317822 0.0
  outer loop
    vertex -9.850000000000007 9.9650635094611 -2.6
    vertex -10.414886689292898 10.259124907202244 2.3999999999999995
    vertex -9.850000000000007 9.9650635094611 2.3999999999999995
  endloop
endfacet
facet normal 0.6087614290087205 0.7933533402912352 0.0
  outer loop
    vertex -9.850000000000007 9.9650635094611 2.3999999999999995
    vertex -9.332233047033638 9.567766952966373 -2.6
    vertex -9.850000000000007 9.9650635094611 -2.6
  endloop
endfacet
facet normal 0.6087614290087205 0.7933533402912352 0.0
  outer loop
    vertex -9.332233047033638 9.567766952966373 -2.6
    vertex -9.850000000000007 9.9650635094611 2.3999999999999995
    vertex -9.332233047033638 9.567766952966373 2.3999999999999995
  endloop
endfacet
facet normal 0.7933533402912359 0.6087614290087195 0.0
  outer loop
    vertex -9.332233047033638 9.567766952966373 -2.6
    vertex -8.93493649053891 9.050000000000002 2.3999999999999995
    vertex -8.93493649053891 9.050000000000002 -2.6
  endloop
endfacet
facet normal 0.7933533402912359 0.6087614290087195 0.0
  outer loop
    vertex -8.93493649053891 9.050000000000002 2.3999999999999995
    vertex -9.332233047033638 9.567766952966373 -2.6
    vertex -9.332233047033638 9.567766952966373 2.3999999999999995
  endloop
endfacet
facet normal 0.8627946012028014 -0.5055546223063329 0.0
  outer loop
    vertex -8.93493649053891 9.050000000000002 -2.6
    vertex -9.70859404411324 7.729652937681514 2.3999999999999995
    vertex -9.70859404411324 7.729652937681514 -2.6
  endloop
endfacet
facet normal 0.8627946012028014 -0.5055546223063329 0.0
  outer loop
    vertex -9.70859404411324 7.729652937681514 2.3999999999999995
    vertex -8.93493649053891 9.050000000000002 -2.6
    vertex -8.93493649053891 9.050000000000002 2.3999999999999995
  endloop
endfacet
facet normal 0.7200959300532228 -0.6938745214523906 0.0
  outer loop
    vertex -9.70859404411324 7.729652937681514 -2.6
    vertex -10.770440264221852 6.62767971658368 2.3999999999999995
    vertex -10.770440264221852 6.62767971658368 -2.6
  endloop
endfacet
facet normal 0.7200959300532228 -0.6938745214523906 0.0
  outer loop
    vertex -10.770440264221852 6.62767971658368 2.3999999999999995
    vertex -9.70859404411324 7.729652937681514 -2.6
    vertex -9.70859404411324 7.729652937681514 2.3999999999999995
  endloop
endfacet
facet normal 0.537196250871434 -0.843457282883772 3.1509575896884315e-17
  outer loop
    vertex -12.061195148517836 5.805600520981615 0.0
    vertex -12.061195148517836 5.805600520981615 -2.6
    vertex -10.839476202380553 6.5837108661074 0.0
  endloop
endfacet
facet normal 0.537196250871434 -0.843457282883772 3.1509575896884315e-17
  outer loop
    vertex -10.770440264221852 6.62767971658368 -2.6
    vertex -10.839476202380553 6.5837108661074 0.0
    vertex -12.061195148517836 5.805600520981615 -2.6
  endloop
endfacet
facet normal 0.537196250871434 -0.843457282883772 3.1509575896884315e-17
  outer loop
    vertex -10.839476202380553 6.5837108661074 0.0
    vertex -10.770440264221852 6.62767971658368 -2.6
    vertex -10.770440264221852 6.62767971658368 2.3999999999999995
  endloop
endfacet
facet normal 0.537196250871434 -0.843457282883772 3.1509575896884315e-17
  outer loop
    vertex -10.839476202380553 6.5837108661074 0.0
    vertex -10.770440264221852 6.62767971658368 2.3999999999999995
    vertex -10.839476202380553 6.5837108661074 2.3999999999999995
  endloop
endfacet
facet normal 0.32430635803219926 -0.9459521056268605 0.0
  outer loop
    vertex -12.061195148517836 5.805600520981615 0.0
    vertex -12.414541297369087 5.684460769849379 -2.6
    vertex -12.061195148517836 5.805600520981615 -2.6
  endloop
endfacet
facet normal 0.32430635803219926 -0.9459521056268605 0.0
  outer loop
    vertex -12.414541297369087 5.684460769849379 -2.6
    vertex -12.061195148517836 5.805600520981615 0.0
    vertex -12.414541297369087 5.684460769849379 0.0
  endloop
endfacet
facet normal 0.13052619222004894 0.9914448613738108 0.0
  outer loop
    vertex -16.04235047480639 7.268740795541018 0.0
    vertex -15.900000000000004 7.250000000000006 -2.6
    vertex -16.04235047480639 7.268740795541018 -2.6
  endloop
endfacet
facet normal 0.13052619222004894 0.9914448613738108 0.0
  outer loop
    vertex -15.900000000000004 7.250000000000006 -2.6
    vertex -16.04235047480639 7.268740795541018 0.0
    vertex -15.900000000000004 7.250000000000006 0.0
  endloop
endfacet
facet normal -0.13052619222004894 0.9914448613738108 0.0
  outer loop
    vertex -15.900000000000004 7.250000000000006 0.0
    vertex -15.757649525193619 7.268740795541018 -2.6
    vertex -15.900000000000004 7.250000000000006 -2.6
  endloop
endfacet
facet normal -0.13052619222004894 0.9914448613738108 0.0
  outer loop
    vertex -15.757649525193619 7.268740795541018 -2.6
    vertex -15.900000000000004 7.250000000000006 0.0
    vertex -15.757649525193619 7.268740795541018 0.0
  endloop
endfacet
facet normal 0.6087614290087172 0.7933533402912379 0.0
  outer loop
    vertex -16.288908729652604 7.411091270347405 0.0
    vertex -16.175000000000004 7.323686027918566 -2.6
    vertex -16.288908729652604 7.411091270347405 -2.6
  endloop
endfacet
facet normal 0.6087614290087172 0.7933533402912379 0.0
  outer loop
    vertex -16.175000000000004 7.323686027918566 -2.6
    vertex -16.288908729652604 7.411091270347405 0.0
    vertex -16.175000000000004 7.323686027918566 0.0
  endloop
endfacet
facet normal 0.3826834323650955 0.9238795325112845 0.0
  outer loop
    vertex -16.175000000000004 7.323686027918566 0.0
    vertex -16.04235047480639 7.268740795541018 -2.6
    vertex -16.175000000000004 7.323686027918566 -2.6
  endloop
endfacet
facet normal 0.3826834323650955 0.9238795325112845 0.0
  outer loop
    vertex -16.04235047480639 7.268740795541018 -2.6
    vertex -16.175000000000004 7.323686027918566 0.0
    vertex -16.04235047480639 7.268740795541018 0.0
  endloop
endfacet
facet normal 0.7933533402912379 0.6087614290087172 0.0
  outer loop
    vertex -16.376313972081444 7.525000000000006 -2.6
    vertex -16.288908729652604 7.411091270347405 0.0
    vertex -16.288908729652604 7.411091270347405 -2.6
  endloop
endfacet
facet normal 0.7933533402912379 0.6087614290087172 0.0
  outer loop
    vertex -16.288908729652604 7.411091270347405 0.0
    vertex -16.376313972081444 7.525000000000006 -2.6
    vertex -16.376313972081444 7.525000000000006 0.0
  endloop
endfacet
facet normal 0.923879532511288 0.3826834323650871 0.0
  outer loop
    vertex -16.43125920445899 7.65764952519362 -2.6
    vertex -16.376313972081444 7.525000000000006 0.0
    vertex -16.376313972081444 7.525000000000006 -2.6
  endloop
endfacet
facet normal 0.923879532511288 0.3826834323650871 0.0
  outer loop
    vertex -16.376313972081444 7.525000000000006 0.0
    vertex -16.43125920445899 7.65764952519362 -2.6
    vertex -16.43125920445899 7.65764952519362 0.0
  endloop
endfacet
facet normal 0.9914448613738096 0.1305261922200586 0.0
  outer loop
    vertex -16.450000000000003 7.800000000000005 -2.6
    vertex -16.43125920445899 7.65764952519362 0.0
    vertex -16.43125920445899 7.65764952519362 -2.6
  endloop
endfacet
facet normal 0.9914448613738096 0.1305261922200586 0.0
  outer loop
    vertex -16.43125920445899 7.65764952519362 0.0
    vertex -16.450000000000003 7.800000000000005 -2.6
    vertex -16.450000000000003 7.800000000000005 0.0
  endloop
endfacet
facet normal 0.9914448613738097 -0.1305261922200573 0.0
  outer loop
    vertex -16.43125920445899 7.942350474806392 -2.6
    vertex -16.450000000000003 7.800000000000005 0.0
    vertex -16.450000000000003 7.800000000000005 -2.6
  endloop
endfacet
facet normal 0.9914448613738097 -0.1305261922200573 0.0
  outer loop
    vertex -16.450000000000003 7.800000000000005 0.0
    vertex -16.43125920445899 7.942350474806392 -2.6
    vertex -16.43125920445899 7.942350474806392 0.0
  endloop
endfacet
facet normal 0.9238795325112865 -0.38268343236509056 0.0
  outer loop
    vertex -16.376313972081444 8.075000000000005 -2.6
    vertex -16.43125920445899 7.942350474806392 0.0
    vertex -16.43125920445899 7.942350474806392 -2.6
  endloop
endfacet
facet normal 0.9238795325112865 -0.38268343236509056 0.0
  outer loop
    vertex -16.43125920445899 7.942350474806392 0.0
    vertex -16.376313972081444 8.075000000000005 -2.6
    vertex -16.376313972081444 8.075000000000005 0.0
  endloop
endfacet
facet normal 0.7933533402912379 -0.6087614290087172 0.0
  outer loop
    vertex -16.288908729652604 8.188908729652606 -2.6
    vertex -16.376313972081444 8.075000000000005 0.0
    vertex -16.376313972081444 8.075000000000005 -2.6
  endloop
endfacet
facet normal 0.7933533402912379 -0.6087614290087172 0.0
  outer loop
    vertex -16.376313972081444 8.075000000000005 0.0
    vertex -16.288908729652604 8.188908729652606 -2.6
    vertex -16.288908729652604 8.188908729652606 0.0
  endloop
endfacet
facet normal 0.6087614290087233 -0.7933533402912331 0.0
  outer loop
    vertex -16.175000000000004 8.276313972081446 0.0
    vertex -16.288908729652604 8.188908729652606 -2.6
    vertex -16.175000000000004 8.276313972081446 -2.6
  endloop
endfacet
facet normal 0.6087614290087233 -0.7933533402912331 0.0
  outer loop
    vertex -16.288908729652604 8.188908729652606 -2.6
    vertex -16.175000000000004 8.276313972081446 0.0
    vertex -16.288908729652604 8.188908729652606 0.0
  endloop
endfacet
facet normal 0.3826834323650871 -0.923879532511288 0.0
  outer loop
    vertex -16.04235047480639 8.331259204458993 0.0
    vertex -16.175000000000004 8.276313972081446 -2.6
    vertex -16.04235047480639 8.331259204458993 -2.6
  endloop
endfacet
facet normal 0.3826834323650871 -0.923879532511288 0.0
  outer loop
    vertex -16.175000000000004 8.276313972081446 -2.6
    vertex -16.04235047480639 8.331259204458993 0.0
    vertex -16.175000000000004 8.276313972081446 0.0
  endloop
endfacet
facet normal 0.13052619222004894 -0.9914448613738108 0.0
  outer loop
    vertex -15.900000000000004 8.350000000000005 0.0
    vertex -16.04235047480639 8.331259204458993 -2.6
    vertex -15.900000000000004 8.350000000000005 -2.6
  endloop
endfacet
facet normal 0.13052619222004894 -0.9914448613738108 0.0
  outer loop
    vertex -16.04235047480639 8.331259204458993 -2.6
    vertex -15.900000000000004 8.350000000000005 0.0
    vertex -16.04235047480639 8.331259204458993 0.0
  endloop
endfacet
facet normal -0.13052619222004894 -0.9914448613738108 -0.0
  outer loop
    vertex -15.757649525193619 8.331259204458993 0.0
    vertex -15.900000000000004 8.350000000000005 -2.6
    vertex -15.757649525193619 8.331259204458993 -2.6
  endloop
endfacet
facet normal -0.13052619222004894 -0.9914448613738108 -0.0
  outer loop
    vertex -15.900000000000004 8.350000000000005 -2.6
    vertex -15.757649525193619 8.331259204458993 0.0
    vertex -15.900000000000004 8.350000000000005 0.0
  endloop
endfacet
facet normal -0.3826834323650871 -0.923879532511288 -0.0
  outer loop
    vertex -15.625000000000005 8.276313972081446 0.0
    vertex -15.757649525193619 8.331259204458993 -2.6
    vertex -15.625000000000005 8.276313972081446 -2.6
  endloop
endfacet
facet normal -0.3826834323650871 -0.923879532511288 -0.0
  outer loop
    vertex -15.757649525193619 8.331259204458993 -2.6
    vertex -15.625000000000005 8.276313972081446 0.0
    vertex -15.757649525193619 8.331259204458993 0.0
  endloop
endfacet
facet normal -0.6087614290087233 -0.7933533402912331 -0.0
  outer loop
    vertex -15.511091270347404 8.188908729652606 0.0
    vertex -15.625000000000005 8.276313972081446 -2.6
    vertex -15.511091270347404 8.188908729652606 -2.6
  endloop
endfacet
facet normal -0.6087614290087233 -0.7933533402912331 -0.0
  outer loop
    vertex -15.625000000000005 8.276313972081446 -2.6
    vertex -15.511091270347404 8.188908729652606 0.0
    vertex -15.625000000000005 8.276313972081446 0.0
  endloop
endfacet
facet normal -0.7933533402912352 0.6087614290087205 0.0
  outer loop
    vertex -17.66776695296637 9.567766952966377 0.0
    vertex -18.0650635094611 9.05000000000001 -2.6
    vertex -18.0650635094611 9.05000000000001 0.0
  endloop
endfacet
facet normal -0.7933533402912352 0.6087614290087205 0.0
  outer loop
    vertex -18.0650635094611 9.05000000000001 -2.6
    vertex -17.66776695296637 9.567766952966377 0.0
    vertex -17.66776695296637 9.567766952966377 -2.6
  endloop
endfacet
facet normal -0.9238795325112854 0.38268343236509317 0.0
  outer loop
    vertex -18.0650635094611 9.05000000000001 0.0
    vertex -18.314814565722678 8.447047612756311 -2.6
    vertex -18.314814565722678 8.447047612756311 0.0
  endloop
endfacet
facet normal -0.9238795325112854 0.38268343236509317 0.0
  outer loop
    vertex -18.314814565722678 8.447047612756311 -2.6
    vertex -18.0650635094611 9.05000000000001 0.0
    vertex -18.0650635094611 9.05000000000001 -2.6
  endloop
endfacet
facet normal -0.9914448613738104 0.13052619222005157 0.0
  outer loop
    vertex -18.314814565722678 8.447047612756311 0.0
    vertex -18.400000000000006 7.800000000000009 -2.6
    vertex -18.400000000000006 7.800000000000009 0.0
  endloop
endfacet
facet normal -0.9914448613738104 0.13052619222005157 0.0
  outer loop
    vertex -18.400000000000006 7.800000000000009 -2.6
    vertex -18.314814565722678 8.447047612756311 0.0
    vertex -18.314814565722678 8.447047612756311 -2.6
  endloop
endfacet
facet normal -0.9914448613738104 -0.13052619222005188 -0.0
  outer loop
    vertex -18.400000000000006 7.800000000000009 0.0
    vertex -18.314814565722678 7.152952387243707 -2.6
    vertex -18.314814565722678 7.152952387243707 0.0
  endloop
endfacet
facet normal -0.9914448613738104 -0.13052619222005188 -0.0
  outer loop
    vertex -18.314814565722678 7.152952387243707 -2.6
    vertex -18.400000000000006 7.800000000000009 0.0
    vertex -18.400000000000006 7.800000000000009 -2.6
  endloop
endfacet
facet normal -0.9238795325112887 -0.382683432365085 -0.0
  outer loop
    vertex -18.314814565722678 7.152952387243707 0.0
    vertex -18.065063509461105 6.550000000000008 -2.6
    vertex -18.065063509461105 6.550000000000008 0.0
  endloop
endfacet
facet normal -0.9238795325112887 -0.382683432365085 -0.0
  outer loop
    vertex -18.065063509461105 6.550000000000008 -2.6
    vertex -18.314814565722678 7.152952387243707 0.0
    vertex -18.314814565722678 7.152952387243707 -2.6
  endloop
endfacet
facet normal -0.7933533402912352 -0.6087614290087205 -0.0
  outer loop
    vertex -18.065063509461105 6.550000000000008 0.0
    vertex -17.667766952966378 6.032233047033639 -2.6
    vertex -17.667766952966378 6.032233047033639 0.0
  endloop
endfacet
facet normal -0.7933533402912352 -0.6087614290087205 -0.0
  outer loop
    vertex -17.667766952966378 6.032233047033639 -2.6
    vertex -18.065063509461105 6.550000000000008 0.0
    vertex -18.065063509461105 6.550000000000008 -2.6
  endloop
endfacet
facet normal -0.608761429008721 -0.7933533402912349 -0.0
  outer loop
    vertex -17.15000000000001 5.6349364905389105 0.0
    vertex -17.667766952966378 6.032233047033639 -2.6
    vertex -17.15000000000001 5.6349364905389105 -2.6
  endloop
endfacet
facet normal -0.608761429008721 -0.7933533402912349 -0.0
  outer loop
    vertex -17.667766952966378 6.032233047033639 -2.6
    vertex -17.15000000000001 5.6349364905389105 0.0
    vertex -17.667766952966378 6.032233047033639 0.0
  endloop
endfacet
facet normal -0.3826834323650921 -0.923879532511286 -0.0
  outer loop
    vertex -16.547047612756312 5.385185434277335 0.0
    vertex -17.15000000000001 5.6349364905389105 -2.6
    vertex -16.547047612756312 5.385185434277335 -2.6
  endloop
endfacet
facet normal -0.3826834323650921 -0.923879532511286 -0.0
  outer loop
    vertex -17.15000000000001 5.6349364905389105 -2.6
    vertex -16.547047612756312 5.385185434277335 0.0
    vertex -17.15000000000001 5.6349364905389105 0.0
  endloop
endfacet
facet normal -0.13052619222005343 -0.9914448613738103 -0.0
  outer loop
    vertex -15.900000000000007 5.300000000000004 0.0
    vertex -16.547047612756312 5.385185434277335 -2.6
    vertex -15.900000000000007 5.300000000000004 -2.6
  endloop
endfacet
facet normal -0.13052619222005343 -0.9914448613738103 -0.0
  outer loop
    vertex -16.547047612756312 5.385185434277335 -2.6
    vertex -15.900000000000007 5.300000000000004 0.0
    vertex -16.547047612756312 5.385185434277335 0.0
  endloop
endfacet
facet normal -0.15207345990240898 -0.9883691935675203 -0.0
  outer loop
    vertex -15.032437021300176 5.166514148040262 0.0
    vertex -15.900000000000007 5.300000000000004 -2.6
    vertex -15.032437021300176 5.166514148040262 -2.6
  endloop
endfacet
facet normal -0.15207345990240898 -0.9883691935675203 -0.0
  outer loop
    vertex -15.900000000000007 5.300000000000004 -2.6
    vertex -15.032437021300176 5.166514148040262 0.0
    vertex -15.900000000000007 5.300000000000004 0.0
  endloop
endfacet
facet normal 0.09331131842011066 -0.9956369809597778 0.0
  outer loop
    vertex -13.508799343093502 5.3093098087749295 0.0
    vertex -15.032437021300176 5.166514148040262 -2.6
    vertex -13.508799343093502 5.3093098087749295 -2.6
  endloop
endfacet
facet normal 0.09331131842011066 -0.9956369809597778 0.0
  outer loop
    vertex -15.032437021300176 5.166514148040262 -2.6
    vertex -13.508799343093502 5.3093098087749295 0.0
    vertex -15.032437021300176 5.166514148040262 0.0
  endloop
endfacet
facet normal 0.3243063580321984 -0.9459521056268608 0.0
  outer loop
    vertex -12.414541297369087 5.684460769849379 0.0
    vertex -13.508799343093502 5.3093098087749295 -2.6
    vertex -12.414541297369087 5.684460769849379 -2.6
  endloop
endfacet
facet normal 0.3243063580321984 -0.9459521056268608 0.0
  outer loop
    vertex -13.508799343093502 5.3093098087749295 -2.6
    vertex -12.414541297369087 5.684460769849379 0.0
    vertex -13.508799343093502 5.3093098087749295 0.0
  endloop
endfacet
facet normal -0.3826834323650871 0.923879532511288 0.0
  outer loop
    vertex -15.757649525193619 7.268740795541018 0.0
    vertex -15.625000000000005 7.323686027918565 -2.6
    vertex -15.757649525193619 7.268740795541018 -2.6
  endloop
endfacet
facet normal -0.3826834323650871 0.923879532511288 0.0
  outer loop
    vertex -15.625000000000005 7.323686027918565 -2.6
    vertex -15.757649525193619 7.268740795541018 0.0
    vertex -15.625000000000005 7.323686027918565 0.0
  endloop
endfacet
facet normal -0.6087614290087233 0.7933533402912331 0.0
  outer loop
    vertex -15.625000000000005 7.323686027918565 0.0
    vertex -15.511091270347404 7.411091270347405 -2.6
    vertex -15.625000000000005 7.323686027918565 -2.6
  endloop
endfacet
facet normal -0.6087614290087233 0.7933533402912331 0.0
  outer loop
    vertex -15.511091270347404 7.411091270347405 -2.6
    vertex -15.625000000000005 7.323686027918565 0.0
    vertex -15.511091270347404 7.411091270347405 0.0
  endloop
endfacet
facet normal -0.7933533402912379 0.6087614290087172 0.0
  outer loop
    vertex -15.423686027918565 7.525000000000006 0.0
    vertex -15.511091270347404 7.411091270347405 -2.6
    vertex -15.511091270347404 7.411091270347405 0.0
  endloop
endfacet
facet normal -0.7933533402912379 0.6087614290087172 0.0
  outer loop
    vertex -15.511091270347404 7.411091270347405 -2.6
    vertex -15.423686027918565 7.525000000000006 0.0
    vertex -15.423686027918565 7.525000000000006 -2.6
  endloop
endfacet
facet normal -0.9238795325112865 0.38268343236509056 0.0
  outer loop
    vertex -15.368740795541019 7.6576495251936185 0.0
    vertex -15.423686027918565 7.525000000000006 -2.6
    vertex -15.423686027918565 7.525000000000006 0.0
  endloop
endfacet
facet normal -0.9238795325112865 0.38268343236509056 0.0
  outer loop
    vertex -15.423686027918565 7.525000000000006 -2.6
    vertex -15.368740795541019 7.6576495251936185 0.0
    vertex -15.368740795541019 7.6576495251936185 -2.6
  endloop
endfacet
facet normal -0.9914448613738097 0.1305261922200573 0.0
  outer loop
    vertex -15.350000000000005 7.800000000000005 0.0
    vertex -15.368740795541019 7.6576495251936185 -2.6
    vertex -15.368740795541019 7.6576495251936185 0.0
  endloop
endfacet
facet normal -0.9914448613738097 0.1305261922200573 0.0
  outer loop
    vertex -15.368740795541019 7.6576495251936185 -2.6
    vertex -15.350000000000005 7.800000000000005 0.0
    vertex -15.350000000000005 7.800000000000005 -2.6
  endloop
endfacet
facet normal -0.9914448613738097 -0.1305261922200573 -0.0
  outer loop
    vertex -15.368740795541019 7.942350474806392 0.0
    vertex -15.350000000000005 7.800000000000005 -2.6
    vertex -15.350000000000005 7.800000000000005 0.0
  endloop
endfacet
facet normal -0.9914448613738097 -0.1305261922200573 -0.0
  outer loop
    vertex -15.350000000000005 7.800000000000005 -2.6
    vertex -15.368740795541019 7.942350474806392 0.0
    vertex -15.368740795541019 7.942350474806392 -2.6
  endloop
endfacet
facet normal -0.9238795325112865 -0.38268343236509056 -0.0
  outer loop
    vertex -15.423686027918565 8.075000000000005 0.0
    vertex -15.368740795541019 7.942350474806392 -2.6
    vertex -15.368740795541019 7.942350474806392 0.0
  endloop
endfacet
facet normal -0.9238795325112865 -0.38268343236509056 -0.0
  outer loop
    vertex -15.368740795541019 7.942350474806392 -2.6
    vertex -15.423686027918565 8.075000000000005 0.0
    vertex -15.423686027918565 8.075000000000005 -2.6
  endloop
endfacet
facet normal -0.7933533402912379 -0.6087614290087172 -0.0
  outer loop
    vertex -15.511091270347404 8.188908729652606 0.0
    vertex -15.423686027918565 8.075000000000005 -2.6
    vertex -15.423686027918565 8.075000000000005 0.0
  endloop
endfacet
facet normal -0.7933533402912379 -0.6087614290087172 -0.0
  outer loop
    vertex -15.423686027918565 8.075000000000005 -2.6
    vertex -15.511091270347404 8.188908729652606 0.0
    vertex -15.511091270347404 8.188908729652606 -2.6
  endloop
endfacet
facet normal 0.923879532511288 -0.3826834323650867 0.0
  outer loop
    vertex -11.61961524227067 8.100000000000005 -2.6
    vertex -11.679555495773448 7.955291427061518 2.3999999999999995
    vertex -11.679555495773448 7.955291427061518 -2.6
  endloop
endfacet
facet normal 0.923879532511288 -0.3826834323650867 0.0
  outer loop
    vertex -11.679555495773448 7.955291427061518 2.3999999999999995
    vertex -11.61961524227067 8.100000000000005 -2.6
    vertex -11.61961524227067 8.100000000000005 2.3999999999999995
  endloop
endfacet
facet normal 0.9914448613738104 -0.13052619222005277 0.0
  outer loop
    vertex -11.679555495773448 7.955291427061518 -2.6
    vertex -11.700000000000006 7.800000000000004 2.3999999999999995
    vertex -11.700000000000006 7.800000000000004 -2.6
  endloop
endfacet
facet normal 0.9914448613738104 -0.13052619222005277 0.0
  outer loop
    vertex -11.700000000000006 7.800000000000004 2.3999999999999995
    vertex -11.679555495773448 7.955291427061518 -2.6
    vertex -11.679555495773448 7.955291427061518 2.3999999999999995
  endloop
endfacet
facet normal 0.99144486137381 0.1305261922200539 0.0
  outer loop
    vertex -11.700000000000006 7.800000000000004 -2.6
    vertex -11.679555495773448 7.644708572938492 2.3999999999999995
    vertex -11.679555495773448 7.644708572938492 -2.6
  endloop
endfacet
facet normal 0.99144486137381 0.1305261922200539 0.0
  outer loop
    vertex -11.679555495773448 7.644708572938492 2.3999999999999995
    vertex -11.700000000000006 7.800000000000004 -2.6
    vertex -11.700000000000006 7.800000000000004 2.3999999999999995
  endloop
endfacet
facet normal 0.923879532511288 0.3826834323650867 0.0
  outer loop
    vertex -11.679555495773448 7.644708572938492 -2.6
    vertex -11.61961524227067 7.500000000000004 2.3999999999999995
    vertex -11.61961524227067 7.500000000000004 -2.6
  endloop
endfacet
facet normal 0.923879532511288 0.3826834323650867 0.0
  outer loop
    vertex -11.61961524227067 7.500000000000004 2.3999999999999995
    vertex -11.679555495773448 7.644708572938492 -2.6
    vertex -11.679555495773448 7.644708572938492 2.3999999999999995
  endloop
endfacet
facet normal 0.7933533402912374 0.6087614290087179 0.0
  outer loop
    vertex -11.61961524227067 7.500000000000004 -2.6
    vertex -11.524264068711936 7.375735931288075 2.3999999999999995
    vertex -11.524264068711936 7.375735931288075 -2.6
  endloop
endfacet
facet normal 0.7933533402912374 0.6087614290087179 0.0
  outer loop
    vertex -11.524264068711936 7.375735931288075 2.3999999999999995
    vertex -11.61961524227067 7.500000000000004 -2.6
    vertex -11.61961524227067 7.500000000000004 2.3999999999999995
  endloop
endfacet
facet normal 0.6087614290087221 0.7933533402912339 0.0
  outer loop
    vertex -11.524264068711936 7.375735931288075 2.3999999999999995
    vertex -11.400000000000007 7.28038475772934 -2.6
    vertex -11.524264068711936 7.375735931288075 -2.6
  endloop
endfacet
facet normal 0.6087614290087221 0.7933533402912339 0.0
  outer loop
    vertex -11.400000000000007 7.28038475772934 -2.6
    vertex -11.524264068711936 7.375735931288075 2.3999999999999995
    vertex -11.400000000000007 7.28038475772934 2.3999999999999995
  endloop
endfacet
facet normal 0.0 0.0 1.0
  outer loop
    vertex -16.547047612756312 5.385185434277335 0.0
    vertex -16.43125920445899 7.65764952519362 0.0
    vertex -16.450000000000003 7.800000000000005 0.0
  endloop
endfacet
facet normal 0.0 0.0 1.0
  outer loop
    vertex -16.43125920445899 7.65764952519362 0.0
    vertex -16.547047612756312 5.385185434277335 0.0
    vertex -15.900000000000007 5.300000000000004 0.0
  endloop
endfacet
facet normal 0.0 0.0 1.0
  outer loop
    vertex -16.43125920445899 7.65764952519362 0.0
    vertex -15.900000000000007 5.300000000000004 0.0
    vertex -16.376313972081444 7.525000000000006 0.0
  endloop
endfacet
facet normal 0.0 0.0 1.0
  outer loop
    vertex -16.376313972081444 7.525000000000006 0.0
    vertex -15.900000000000007 5.300000000000004 0.0
    vertex -16.288908729652604 7.411091270347405 0.0
  endloop
endfacet
facet normal 0.0 0.0 1.0
  outer loop
    vertex -16.288908729652604 7.411091270347405 0.0
    vertex -15.900000000000007 5.300000000000004 0.0
    vertex -16.175000000000004 7.323686027918566 0.0
  endloop
endfacet
facet normal 0.0 0.0 1.0
  outer loop
    vertex -16.175000000000004 7.323686027918566 0.0
    vertex -15.900000000000007 5.300000000000004 0.0
    vertex -16.04235047480639 7.268740795541018 0.0
  endloop
endfacet
facet normal 0.0 0.0 1.0
  outer loop
    vertex -16.04235047480639 7.268740795541018 0.0
    vertex -15.900000000000007 5.300000000000004 0.0
    vertex -15.900000000000004 7.250000000000006 0.0
  endloop
endfacet
facet normal 0.0 0.0 1.0
  outer loop
    vertex -15.900000000000004 7.250000000000006 0.0
    vertex -15.900000000000007 5.300000000000004 0.0
    vertex -15.032437021300176 5.166514148040262 0.0
  endloop
endfacet
facet normal 0.0 0.0 1.0
  outer loop
    vertex -15.900000000000004 7.250000000000006 0.0
    vertex -15.032437021300176 5.166514148040262 0.0
    vertex -15.757649525193619 7.268740795541018 0.0
  endloop
endfacet
facet normal 0.0 0.0 1.0
  outer loop
    vertex -15.757649525193619 7.268740795541018 0.0
    vertex -15.032437021300176 5.166514148040262 0.0
    vertex -15.625000000000005 7.323686027918565 0.0
  endloop
endfacet
facet normal 0.0 0.0 1.0
  outer loop
    vertex -15.625000000000005 7.323686027918565 0.0
    vertex -15.032437021300176 5.166514148040262 0.0
    vertex -15.511091270347404 7.411091270347405 0.0
  endloop
endfacet
facet normal 0.0 0.0 1.0
  outer loop
    vertex -15.511091270347404 7.411091270347405 0.0
    vertex -15.032437021300176 5.166514148040262 0.0
    vertex -15.423686027918565 7.525000000000006 0.0
  endloop
endfacet
facet normal 0.0 0.0 1.0
  outer loop
    vertex -15.423686027918565 7.525000000000006 0.0
    vertex -15.032437021300176 5.166514148040262 0.0
    vertex -15.368740795541019 7.6576495251936185 0.0
  endloop
endfacet
facet normal 0.0 0.0 1.0
  outer loop
    vertex -15.368740795541019 7.6576495251936185 0.0
    vertex -15.032437021300176 5.166514148040262 0.0
    vertex -15.350000000000005 7.800000000000005 0.0
  endloop
endfacet
facet normal 0.0 0.0 1.0
  outer loop
    vertex -18.314814565722678 7.152952387243707 0.0
    vertex -18.314814565722678 8.447047612756311 0.0
    vertex -18.400000000000006 7.800000000000009 0.0
  endloop
endfacet
facet normal 0.0 0.0 1.0
  outer loop
    vertex -18.314814565722678 8.447047612756311 0.0
    vertex -18.314814565722678 7.152952387243707 0.0
    vertex -18.065063509461105 6.550000000000008 0.0
  endloop
endfacet
facet normal 0.0 0.0 1.0
  outer loop
    vertex -18.314814565722678 8.447047612756311 0.0
    vertex -18.065063509461105 6.550000000000008 0.0
    vertex -18.0650635094611 9.05000000000001 0.0
  endloop
endfacet
facet normal 0.0 0.0 1.0
  outer loop
    vertex -18.0650635094611 9.05000000000001 0.0
    vertex -18.065063509461105 6.550000000000008 0.0
    vertex -17.667766952966378 6.032233047033639 0.0
  endloop
endfacet
facet normal 0.0 0.0 1.0
  outer loop
    vertex -18.0650635094611 9.05000000000001 0.0
    vertex -17.667766952966378 6.032233047033639 0.0
    vertex -17.66776695296637 9.567766952966377 0.0
  endloop
endfacet
facet normal 0.0 0.0 1.0
  outer loop
    vertex -17.66776695296637 9.567766952966377 0.0
    vertex -17.667766952966378 6.032233047033639 0.0
    vertex -17.15000000000001 5.6349364905389105 0.0
  endloop
endfacet
facet normal 0.0 0.0 1.0
  outer loop
    vertex -17.66776695296637 9.567766952966377 0.0
    vertex -17.15000000000001 5.6349364905389105 0.0
    vertex -17.150000000000002 9.965063509461105 0.0
  endloop
endfacet
facet normal 0.0 0.0 1.0
  outer loop
    vertex -17.150000000000002 9.965063509461105 0.0
    vertex -17.15000000000001 5.6349364905389105 0.0
    vertex -16.547047612756312 5.385185434277335 0.0
  endloop
endfacet
facet normal 0.0 0.0 1.0
  outer loop
    vertex -17.150000000000002 9.965063509461105 0.0
    vertex -16.547047612756312 5.385185434277335 0.0
    vertex -16.585113310707108 10.259124907202244 0.0
  endloop
endfacet
facet normal 0.0 0.0 1.0
  outer loop
    vertex -16.585113310707108 10.259124907202244 0.0
    vertex -16.547047612756312 5.385185434277335 0.0
    vertex -16.450000000000003 7.800000000000005 0.0
  endloop
endfacet
facet normal 0.0 0.0 1.0
  outer loop
    vertex -16.585113310707108 10.259124907202244 0.0
    vertex -16.450000000000003 7.800000000000005 0.0
    vertex -16.43125920445899 7.942350474806392 0.0
  endloop
endfacet
facet normal 0.0 0.0 1.0
  outer loop
    vertex -16.585113310707108 10.259124907202244 0.0
    vertex -16.43125920445899 7.942350474806392 0.0
    vertex -15.996747046277385 10.50283419357183 0.0
  endloop
endfacet
facet normal 0.0 0.0 1.0
  outer loop
    vertex -15.996747046277385 10.50283419357183 0.0
    vertex -16.43125920445899 7.942350474806392 0.0
    vertex -16.376313972081444 8.075000000000005 0.0
  endloop
endfacet
facet normal 0.0 0.0 1.0
  outer loop
    vertex -15.996747046277385 10.50283419357183 0.0
    vertex -16.376313972081444 8.075000000000005 0.0
    vertex -16.288908729652604 8.188908729652606 0.0
  endloop
endfacet
facet normal 0.0 0.0 1.0
  outer loop
    vertex -15.996747046277385 10.50283419357183 0.0
    vertex -16.288908729652604 8.188908729652606 0.0
    vertex -16.175000000000004 8.276313972081446 0.0
  endloop
endfacet
facet normal 0.0 0.0 1.0
  outer loop
    vertex -15.996747046277385 10.50283419357183 0.0
    vertex -16.175000000000004 8.276313972081446 0.0
    vertex -16.04235047480639 8.331259204458993 0.0
  endloop
endfacet
facet normal 0.0 0.0 1.0
  outer loop
    vertex -15.996747046277385 10.50283419357183 0.0
    vertex -16.04235047480639 8.331259204458993 0.0
    vertex -15.900000000000004 8.350000000000005 0.0
  endloop
endfacet
facet normal 0.0 0.0 1.0
  outer loop
    vertex -15.996747046277385 10.50283419357183 0.0
    vertex -15.900000000000004 8.350000000000005 0.0
    vertex -15.389379029248403 10.694336593744897 0.0
  endloop
endfacet
facet normal 0.0 0.0 1.0
  outer loop
    vertex -15.389379029248403 10.694336593744897 0.0
    vertex -15.900000000000004 8.350000000000005 0.0
    vertex -15.757649525193619 8.331259204458993 0.0
  endloop
endfacet
facet normal 0.0 0.0 1.0
  outer loop
    vertex -15.389379029248403 10.694336593744897 0.0
    vertex -15.757649525193619 8.331259204458993 0.0
    vertex -15.625000000000005 8.276313972081446 0.0
  endloop
endfacet
facet normal 0.0 0.0 1.0
  outer loop
    vertex -15.389379029248403 10.694336593744897 0.0
    vertex -15.625000000000005 8.276313972081446 0.0
    vertex -15.511091270347404 8.188908729652606 0.0
  endloop
endfacet
facet normal 0.0 0.0 1.0
  outer loop
    vertex -15.389379029248403 10.694336593744897 0.0
    vertex -15.511091270347404 8.188908729652606 0.0
    vertex -15.423686027918565 8.075000000000005 0.0
  endloop
endfacet
facet normal 0.0 0.0 1.0
  outer loop
    vertex -15.389379029248403 10.694336593744897 0.0
    vertex -15.423686027918565 8.075000000000005 0.0
    vertex -15.368740795541019 7.942350474806392 0.0
  endloop
endfacet
facet normal 0.0 0.0 1.0
  outer loop
    vertex -15.389379029248403 10.694336593744897 0.0
    vertex -15.368740795541019 7.942350474806392 0.0
    vertex -14.767631696968596 10.832174658823819 0.0
  endloop
endfacet
facet normal 0.0 0.0 1.0
  outer loop
    vertex -14.767631696968596 10.832174658823819 0.0
    vertex -15.368740795541019 7.942350474806392 0.0
    vertex -15.350000000000005 7.800000000000005 0.0
  endloop
endfacet
facet normal 0.0 0.0 1.0
  outer loop
    vertex -14.767631696968596 10.832174658823819 0.0
    vertex -15.350000000000005 7.800000000000005 0.0
    vertex -15.032437021300176 5.166514148040262 0.0
  endloop
endfacet
facet normal 0.0 0.0 1.0
  outer loop
    vertex -14.767631696968596 10.832174658823819 0.0
    vertex -15.032437021300176 5.166514148040262 0.0
    vertex -13.508799343093502 5.3093098087749295 0.0
  endloop
endfacet
facet normal 0.0 0.0 1.0
  outer loop
    vertex -14.767631696968596 10.832174658823819 0.0
    vertex -13.508799343093502 5.3093098087749295 0.0
    vertex -14.389214109924833 10.039832192405225 0.0
  endloop
endfacet
facet normal 0.0 0.0 1.0
  outer loop
    vertex -14.389214109924833 10.039832192405225 0.0
    vertex -13.508799343093502 5.3093098087749295 0.0
    vertex -13.860981661555076 9.572491599774251 0.0
  endloop
endfacet
facet normal 0.0 0.0 1.0
  outer loop
    vertex -13.860981661555076 9.572491599774251 0.0
    vertex -13.508799343093502 5.3093098087749295 0.0
    vertex -13.484033955898381 9.002985739915728 0.0
  endloop
endfacet
facet normal 0.0 0.0 1.0
  outer loop
    vertex -13.484033955898381 9.002985739915728 0.0
    vertex -13.508799343093502 5.3093098087749295 0.0
    vertex -12.414541297369087 5.684460769849379 0.0
  endloop
endfacet
facet normal 0.0 0.0 1.0
  outer loop
    vertex -13.484033955898381 9.002985739915728 0.0
    vertex -12.414541297369087 5.684460769849379 0.0
    vertex -13.014685436344841 8.228383962817565 0.0
  endloop
endfacet
facet normal 0.0 0.0 1.0
  outer loop
    vertex -13.014685436344841 8.228383962817565 0.0
    vertex -12.414541297369087 5.684460769849379 0.0
    vertex -12.427694960212078 7.568119149038713 0.0
  endloop
endfacet
facet normal 0.0 0.0 1.0
  outer loop
    vertex -12.427694960212078 7.568119149038713 0.0
    vertex -12.414541297369087 5.684460769849379 0.0
    vertex -11.730918318593751 7.024971144273827 0.0
  endloop
endfacet
facet normal 0.0 0.0 1.0
  outer loop
    vertex -11.730918318593751 7.024971144273827 0.0
    vertex -12.414541297369087 5.684460769849379 0.0
    vertex -12.061195148517836 5.805600520981615 0.0
  endloop
endfacet
facet normal 0.0 0.0 1.0
  outer loop
    vertex -11.730918318593751 7.024971144273827 0.0
    vertex -12.061195148517836 5.805600520981615 0.0
    vertex -10.947360392051552 6.616872603308685 0.0
  endloop
endfacet
facet normal 0.0 0.0 1.0
  outer loop
    vertex -10.947360392051552 6.616872603308685 0.0
    vertex -12.061195148517836 5.805600520981615 0.0
    vertex -10.839476202380553 6.5837108661074 0.0
  endloop
endfacet
facet normal 0.3826834323650867 0.923879532511288 0.0
  outer loop
    vertex -11.400000000000007 7.28038475772934 2.3999999999999995
    vertex -11.25529142706152 7.220444504226563 -2.6
    vertex -11.400000000000007 7.28038475772934 -2.6
  endloop
endfacet
facet normal 0.3826834323650867 0.923879532511288 0.0
  outer loop
    vertex -11.25529142706152 7.220444504226563 -2.6
    vertex -11.400000000000007 7.28038475772934 2.3999999999999995
    vertex -11.25529142706152 7.220444504226563 2.3999999999999995
  endloop
endfacet
facet normal 0.13052619222005277 0.9914448613738104 0.0
  outer loop
    vertex -11.25529142706152 7.220444504226563 2.3999999999999995
    vertex -11.100000000000007 7.200000000000004 -2.6
    vertex -11.25529142706152 7.220444504226563 -2.6
  endloop
endfacet
facet normal 0.13052619222005277 0.9914448613738104 0.0
  outer loop
    vertex -11.100000000000007 7.200000000000004 -2.6
    vertex -11.25529142706152 7.220444504226563 2.3999999999999995
    vertex -11.100000000000007 7.200000000000004 2.3999999999999995
  endloop
endfacet
facet normal -0.1305261922200539 0.99144486137381 0.0
  outer loop
    vertex -11.100000000000007 7.200000000000004 2.3999999999999995
    vertex -10.944708572938495 7.220444504226563 -2.6
    vertex -11.100000000000007 7.200000000000004 -2.6
  endloop
endfacet
facet normal -0.1305261922200539 0.99144486137381 0.0
  outer loop
    vertex -10.944708572938495 7.220444504226563 -2.6
    vertex -11.100000000000007 7.200000000000004 2.3999999999999995
    vertex -10.944708572938495 7.220444504226563 2.3999999999999995
  endloop
endfacet
facet normal -0.3826834323650867 0.923879532511288 0.0
  outer loop
    vertex -10.944708572938495 7.220444504226563 2.3999999999999995
    vertex -10.800000000000008 7.28038475772934 -2.6
    vertex -10.944708572938495 7.220444504226563 -2.6
  endloop
endfacet
facet normal -0.3826834323650867 0.923879532511288 0.0
  outer loop
    vertex -10.800000000000008 7.28038475772934 -2.6
    vertex -10.944708572938495 7.220444504226563 2.3999999999999995
    vertex -10.800000000000008 7.28038475772934 2.3999999999999995
  endloop
endfacet
facet normal -0.6087614290087179 0.7933533402912374 0.0
  outer loop
    vertex -10.800000000000008 7.28038475772934 2.3999999999999995
    vertex -10.675735931288077 7.375735931288075 -2.6
    vertex -10.800000000000008 7.28038475772934 -2.6
  endloop
endfacet
facet normal -0.6087614290087179 0.7933533402912374 0.0
  outer loop
    vertex -10.675735931288077 7.375735931288075 -2.6
    vertex -10.800000000000008 7.28038475772934 2.3999999999999995
    vertex -10.675735931288077 7.375735931288075 2.3999999999999995
  endloop
endfacet
facet normal -0.7933533402912339 0.6087614290087221 0.0
  outer loop
    vertex -10.580384757729343 7.5000000000000036 2.3999999999999995
    vertex -10.675735931288077 7.375735931288075 -2.6
    vertex -10.675735931288077 7.375735931288075 2.3999999999999995
  endloop
endfacet
facet normal -0.7933533402912339 0.6087614290087221 0.0
  outer loop
    vertex -10.675735931288077 7.375735931288075 -2.6
    vertex -10.580384757729343 7.5000000000000036 2.3999999999999995
    vertex -10.580384757729343 7.5000000000000036 -2.6
  endloop
endfacet
facet normal -0.923879532511288 0.3826834323650867 0.0
  outer loop
    vertex -10.520444504226566 7.644708572938491 2.3999999999999995
    vertex -10.580384757729343 7.5000000000000036 -2.6
    vertex -10.580384757729343 7.5000000000000036 2.3999999999999995
  endloop
endfacet
facet normal -0.923879532511288 0.3826834323650867 0.0
  outer loop
    vertex -10.580384757729343 7.5000000000000036 -2.6
    vertex -10.520444504226566 7.644708572938491 2.3999999999999995
    vertex -10.520444504226566 7.644708572938491 -2.6
  endloop
endfacet
facet normal -0.9914448613738104 0.13052619222005277 0.0
  outer loop
    vertex -10.500000000000005 7.800000000000004 2.3999999999999995
    vertex -10.520444504226566 7.644708572938491 -2.6
    vertex -10.520444504226566 7.644708572938491 2.3999999999999995
  endloop
endfacet
facet normal -0.9914448613738104 0.13052619222005277 0.0
  outer loop
    vertex -10.520444504226566 7.644708572938491 -2.6
    vertex -10.500000000000005 7.800000000000004 2.3999999999999995
    vertex -10.500000000000005 7.800000000000004 -2.6
  endloop
endfacet
facet normal -0.99144486137381 -0.1305261922200539 -0.0
  outer loop
    vertex -10.520444504226566 7.955291427061516 2.3999999999999995
    vertex -10.500000000000005 7.800000000000004 -2.6
    vertex -10.500000000000005 7.800000000000004 2.3999999999999995
  endloop
endfacet
facet normal -0.99144486137381 -0.1305261922200539 -0.0
  outer loop
    vertex -10.500000000000005 7.800000000000004 -2.6
    vertex -10.520444504226566 7.955291427061516 2.3999999999999995
    vertex -10.520444504226566 7.955291427061516 -2.6
  endloop
endfacet
facet normal -0.923879532511288 -0.3826834323650867 -0.0
  outer loop
    vertex -10.580384757729343 8.100000000000003 2.3999999999999995
    vertex -10.520444504226566 7.955291427061516 -2.6
    vertex -10.520444504226566 7.955291427061516 2.3999999999999995
  endloop
endfacet
facet normal -0.923879532511288 -0.3826834323650867 -0.0
  outer loop
    vertex -10.520444504226566 7.955291427061516 -2.6
    vertex -10.580384757729343 8.100000000000003 2.3999999999999995
    vertex -10.580384757729343 8.100000000000003 -2.6
  endloop
endfacet
facet normal -0.7933533402912374 -0.6087614290087179 -0.0
  outer loop
    vertex -10.675735931288077 8.224264068711934 2.3999999999999995
    vertex -10.580384757729343 8.100000000000003 -2.6
    vertex -10.580384757729343 8.100000000000003 2.3999999999999995
  endloop
endfacet
facet normal -0.7933533402912374 -0.6087614290087179 -0.0
  outer loop
    vertex -10.580384757729343 8.100000000000003 -2.6
    vertex -10.675735931288077 8.224264068711934 2.3999999999999995
    vertex -10.675735931288077 8.224264068711934 -2.6
  endloop
endfacet
facet normal -0.6087614290087221 -0.7933533402912339 -0.0
  outer loop
    vertex -10.675735931288077 8.224264068711934 2.3999999999999995
    vertex -10.800000000000006 8.319615242270668 -2.6
    vertex -10.675735931288077 8.224264068711934 -2.6
  endloop
endfacet
facet normal -0.6087614290087221 -0.7933533402912339 -0.0
  outer loop
    vertex -10.800000000000006 8.319615242270668 -2.6
    vertex -10.675735931288077 8.224264068711934 2.3999999999999995
    vertex -10.800000000000006 8.319615242270668 2.3999999999999995
  endloop
endfacet
facet normal -0.38268343236508356 -0.9238795325112895 -0.0
  outer loop
    vertex -10.800000000000006 8.319615242270668 2.3999999999999995
    vertex -10.944708572938495 8.379555495773445 -2.6
    vertex -10.800000000000006 8.319615242270668 -2.6
  endloop
endfacet
facet normal -0.38268343236508356 -0.9238795325112895 -0.0
  outer loop
    vertex -10.944708572938495 8.379555495773445 -2.6
    vertex -10.800000000000006 8.319615242270668 2.3999999999999995
    vertex -10.944708572938495 8.379555495773445 2.3999999999999995
  endloop
endfacet
facet normal -0.1305261922200539 -0.99144486137381 -0.0
  outer loop
    vertex -10.944708572938495 8.379555495773445 2.3999999999999995
    vertex -11.100000000000007 8.400000000000004 -2.6
    vertex -10.944708572938495 8.379555495773445 -2.6
  endloop
endfacet
facet normal -0.1305261922200539 -0.99144486137381 -0.0
  outer loop
    vertex -11.100000000000007 8.400000000000004 -2.6
    vertex -10.944708572938495 8.379555495773445 2.3999999999999995
    vertex -11.100000000000007 8.400000000000004 2.3999999999999995
  endloop
endfacet
facet normal 0.1305261922200539 -0.99144486137381 0.0
  outer loop
    vertex -11.100000000000007 8.400000000000004 2.3999999999999995
    vertex -11.255291427061518 8.379555495773445 -2.6
    vertex -11.100000000000007 8.400000000000004 -2.6
  endloop
endfacet
facet normal 0.1305261922200539 -0.99144486137381 0.0
  outer loop
    vertex -11.255291427061518 8.379555495773445 -2.6
    vertex -11.100000000000007 8.400000000000004 2.3999999999999995
    vertex -11.255291427061518 8.379555495773445 2.3999999999999995
  endloop
endfacet
facet normal 0.3826834323650867 -0.923879532511288 0.0
  outer loop
    vertex -11.255291427061518 8.379555495773445 2.3999999999999995
    vertex -11.400000000000006 8.319615242270668 -2.6
    vertex -11.255291427061518 8.379555495773445 -2.6
  endloop
endfacet
facet normal 0.3826834323650867 -0.923879532511288 0.0
  outer loop
    vertex -11.400000000000006 8.319615242270668 -2.6
    vertex -11.255291427061518 8.379555495773445 2.3999999999999995
    vertex -11.400000000000006 8.319615242270668 2.3999999999999995
  endloop
endfacet
facet normal 0.6087614290087179 -0.7933533402912374 0.0
  outer loop
    vertex -11.400000000000006 8.319615242270668 2.3999999999999995
    vertex -11.524264068711936 8.224264068711934 -2.6
    vertex -11.400000000000006 8.319615242270668 -2.6
  endloop
endfacet
facet normal 0.6087614290087179 -0.7933533402912374 0.0
  outer loop
    vertex -11.524264068711936 8.224264068711934 -2.6
    vertex -11.400000000000006 8.319615242270668 2.3999999999999995
    vertex -11.524264068711936 8.224264068711934 2.3999999999999995
  endloop
endfacet
facet normal 0.7933533402912339 -0.6087614290087221 0.0
  outer loop
    vertex -11.524264068711936 8.224264068711934 -2.6
    vertex -11.61961524227067 8.100000000000005 2.3999999999999995
    vertex -11.61961524227067 8.100000000000005 -2.6
  endloop
endfacet
facet normal 0.7933533402912339 -0.6087614290087221 0.0
  outer loop
    vertex -11.61961524227067 8.100000000000005 2.3999999999999995
    vertex -11.524264068711936 8.224264068711934 -2.6
    vertex -11.524264068711936 8.224264068711934 2.3999999999999995
  endloop
endfacet
facet normal 0.0 0.0 1.0
  outer loop
    vertex -11.730918318593751 7.024971144273827 2.3999999999999995
    vertex -11.679555495773448 7.644708572938492 2.3999999999999995
    vertex -11.700000000000006 7.800000000000004 2.3999999999999995
  endloop
endfacet
facet normal 0.0 0.0 1.0
  outer loop
    vertex -11.679555495773448 7.644708572938492 2.3999999999999995
    vertex -11.730918318593751 7.024971144273827 2.3999999999999995
    vertex -11.61961524227067 7.500000000000004 2.3999999999999995
  endloop
endfacet
facet normal 0.0 0.0 1.0
  outer loop
    vertex -11.61961524227067 7.500000000000004 2.3999999999999995
    vertex -11.730918318593751 7.024971144273827 2.3999999999999995
    vertex -10.947360392051552 6.616872603308685 2.3999999999999995
  endloop
endfacet
facet normal 0.0 0.0 1.0
  outer loop
    vertex -11.61961524227067 7.500000000000004 2.3999999999999995
    vertex -10.947360392051552 6.616872603308685 2.3999999999999995
    vertex -11.524264068711936 7.375735931288075 2.3999999999999995
  endloop
endfacet
facet normal 0.0 0.0 1.0
  outer loop
    vertex -11.524264068711936 7.375735931288075 2.3999999999999995
    vertex -10.947360392051552 6.616872603308685 2.3999999999999995
    vertex -11.400000000000007 7.28038475772934 2.3999999999999995
  endloop
endfacet
facet normal 0.0 0.0 1.0
  outer loop
    vertex -11.400000000000007 7.28038475772934 2.3999999999999995
    vertex -10.947360392051552 6.616872603308685 2.3999999999999995
    vertex -11.25529142706152 7.220444504226563 2.3999999999999995
  endloop
endfacet
facet normal 0.0 0.0 1.0
  outer loop
    vertex -11.25529142706152 7.220444504226563 2.3999999999999995
    vertex -10.947360392051552 6.616872603308685 2.3999999999999995
    vertex -11.100000000000007 7.200000000000004 2.3999999999999995
  endloop
endfacet
facet normal 0.0 0.0 1.0
  outer loop
    vertex -11.100000000000007 7.200000000000004 2.3999999999999995
    vertex -10.947360392051552 6.616872603308685 2.3999999999999995
    vertex -10.944708572938495 7.220444504226563 2.3999999999999995
  endloop
endfacet
facet normal 0.0 0.0 1.0
  outer loop
    vertex -10.944708572938495 7.220444504226563 2.3999999999999995
    vertex -10.947360392051552 6.616872603308685 2.3999999999999995
    vertex -10.839476202380553 6.5837108661074 2.3999999999999995
  endloop
endfacet
facet normal 0.0 0.0 1.0
  outer loop
    vertex -10.944708572938495 7.220444504226563 2.3999999999999995
    vertex -10.839476202380553 6.5837108661074 2.3999999999999995
    vertex -10.800000000000008 7.28038475772934 2.3999999999999995
  endloop
endfacet
facet normal 0.0 0.0 1.0
  outer loop
    vertex -10.800000000000008 7.28038475772934 2.3999999999999995
    vertex -10.839476202380553 6.5837108661074 2.3999999999999995
    vertex -10.770440264221852 6.62767971658368 2.3999999999999995
  endloop
endfacet
facet normal 0.0 0.0 1.0
  outer loop
    vertex -10.800000000000008 7.28038475772934 2.3999999999999995
    vertex -10.770440264221852 6.62767971658368 2.3999999999999995
    vertex -10.675735931288077 7.375735931288075 2.3999999999999995
  endloop
endfacet
facet normal 0.0 0.0 1.0
  outer loop
    vertex -10.675735931288077 7.375735931288075 2.3999999999999995
    vertex -10.770440264221852 6.62767971658368 2.3999999999999995
    vertex -9.70859404411324 7.729652937681514 2.3999999999999995
  endloop
endfacet
facet normal 0.0 0.0 1.0
  outer loop
    vertex -10.675735931288077 7.375735931288075 2.3999999999999995
    vertex -9.70859404411324 7.729652937681514 2.3999999999999995
    vertex -10.580384757729343 7.5000000000000036 2.3999999999999995
  endloop
endfacet
facet normal 0.0 0.0 1.0
  outer loop
    vertex -10.580384757729343 7.5000000000000036 2.3999999999999995
    vertex -9.70859404411324 7.729652937681514 2.3999999999999995
    vertex -10.520444504226566 7.644708572938491 2.3999999999999995
  endloop
endfacet
facet normal 0.0 0.0 1.0
  outer loop
    vertex -10.520444504226566 7.644708572938491 2.3999999999999995
    vertex -9.70859404411324 7.729652937681514 2.3999999999999995
    vertex -10.500000000000005 7.800000000000004 2.3999999999999995
  endloop
endfacet
facet normal 0.0 0.0 1.0
  outer loop
    vertex -10.500000000000005 7.800000000000004 2.3999999999999995
    vertex -9.70859404411324 7.729652937681514 2.3999999999999995
    vertex -10.414886689292898 10.259124907202244 2.3999999999999995
  endloop
endfacet
facet normal 0.0 0.0 1.0
  outer loop
    vertex -10.414886689292898 10.259124907202244 2.3999999999999995
    vertex -9.70859404411324 7.729652937681514 2.3999999999999995
    vertex -9.850000000000007 9.9650635094611 2.3999999999999995
  endloop
endfacet
facet normal 0.0 0.0 1.0
  outer loop
    vertex -9.850000000000007 9.9650635094611 2.3999999999999995
    vertex -9.70859404411324 7.729652937681514 2.3999999999999995
    vertex -9.332233047033638 9.567766952966373 2.3999999999999995
  endloop
endfacet
facet normal 0.0 0.0 1.0
  outer loop
    vertex -9.332233047033638 9.567766952966373 2.3999999999999995
    vertex -9.70859404411324 7.729652937681514 2.3999999999999995
    vertex -8.93493649053891 9.050000000000002 2.3999999999999995
  endloop
endfacet
facet normal 0.0 0.0 1.0
  outer loop
    vertex -14.389214109924833 10.039832192405225 2.3999999999999995
    vertex -14.136236922057908 10.915299357904441 2.3999999999999995
    vertex -14.767631696968596 10.832174658823819 2.3999999999999995
  endloop
endfacet
facet normal 0.0 0.0 1.0
  outer loop
    vertex -14.136236922057908 10.915299357904441 2.3999999999999995
    vertex -14.389214109924833 10.039832192405225 2.3999999999999995
    vertex -13.860981661555076 9.572491599774251 2.3999999999999995
  endloop
endfacet
facet normal 0.0 0.0 1.0
  outer loop
    vertex -14.136236922057908 10.915299357904441 2.3999999999999995
    vertex -13.860981661555076 9.572491599774251 2.3999999999999995
    vertex -13.500000000000004 10.943078061834699 2.3999999999999995
  endloop
endfacet
facet normal 0.0 0.0 1.0
  outer loop
    vertex -13.500000000000004 10.943078061834699 2.3999999999999995
    vertex -13.860981661555076 9.572491599774251 2.3999999999999995
    vertex -13.484033955898381 9.002985739915728 2.3999999999999995
  endloop
endfacet
facet normal 0.0 0.0 1.0
  outer loop
    vertex -13.500000000000004 10.943078061834699 2.3999999999999995
    vertex -13.484033955898381 9.002985739915728 2.3999999999999995
    vertex -12.8637630779421 10.915299357904441 2.3999999999999995
  endloop
endfacet
facet normal 0.0 0.0 1.0
  outer loop
    vertex -12.8637630779421 10.915299357904441 2.3999999999999995
    vertex -13.484033955898381 9.002985739915728 2.3999999999999995
    vertex -13.014685436344841 8.228383962817565 2.3999999999999995
  endloop
endfacet
facet normal 0.0 0.0 1.0
  outer loop
    vertex -12.8637630779421 10.915299357904441 2.3999999999999995
    vertex -13.014685436344841 8.228383962817565 2.3999999999999995
    vertex -12.427694960212078 7.568119149038713 2.3999999999999995
  endloop
endfacet
facet normal 0.0 0.0 1.0
  outer loop
    vertex -12.8637630779421 10.915299357904441 2.3999999999999995
    vertex -12.427694960212078 7.568119149038713 2.3999999999999995
    vertex -12.232368303031413 10.832174658823815 2.3999999999999995
  endloop
endfacet
facet normal 0.0 0.0 1.0
  outer loop
    vertex -12.232368303031413 10.832174658823815 2.3999999999999995
    vertex -12.427694960212078 7.568119149038713 2.3999999999999995
    vertex -11.730918318593751 7.024971144273827 2.3999999999999995
  endloop
endfacet
facet normal 0.0 0.0 1.0
  outer loop
    vertex -12.232368303031413 10.832174658823815 2.3999999999999995
    vertex -11.730918318593751 7.024971144273827 2.3999999999999995
    vertex -11.610620970751603 10.694336593744897 2.3999999999999995
  endloop
endfacet
facet normal 0.0 0.0 1.0
  outer loop
    vertex -11.610620970751603 10.694336593744897 2.3999999999999995
    vertex -11.730918318593751 7.024971144273827 2.3999999999999995
    vertex -11.700000000000006 7.800000000000004 2.3999999999999995
  endloop
endfacet
facet normal 0.0 0.0 1.0
  outer loop
    vertex -11.610620970751603 10.694336593744897 2.3999999999999995
    vertex -11.700000000000006 7.800000000000004 2.3999999999999995
    vertex -11.679555495773448 7.955291427061518 2.3999999999999995
  endloop
endfacet
facet normal 0.0 0.0 1.0
  outer loop
    vertex -11.610620970751603 10.694336593744897 2.3999999999999995
    vertex -11.679555495773448 7.955291427061518 2.3999999999999995
    vertex -11.61961524227067 8.100000000000005 2.3999999999999995
  endloop
endfacet
facet normal 0.0 0.0 1.0
  outer loop
    vertex -11.610620970751603 10.694336593744897 2.3999999999999995
    vertex -11.61961524227067 8.100000000000005 2.3999999999999995
    vertex -11.524264068711936 8.224264068711934 2.3999999999999995
  endloop
endfacet
facet normal 0.0 0.0 1.0
  outer loop
    vertex -11.610620970751603 10.694336593744897 2.3999999999999995
    vertex -11.524264068711936 8.224264068711934 2.3999999999999995
    vertex -11.003252953722622 10.50283419357183 2.3999999999999995
  endloop
endfacet
facet normal 0.0 0.0 1.0
  outer loop
    vertex -11.003252953722622 10.50283419357183 2.3999999999999995
    vertex -11.524264068711936 8.224264068711934 2.3999999999999995
    vertex -11.400000000000006 8.319615242270668 2.3999999999999995
  endloop
endfacet
facet normal 0.0 0.0 1.0
  outer loop
    vertex -11.003252953722622 10.50283419357183 2.3999999999999995
    vertex -11.400000000000006 8.319615242270668 2.3999999999999995
    vertex -11.255291427061518 8.379555495773445 2.3999999999999995
  endloop
endfacet
facet normal 0.0 0.0 1.0
  outer loop
    vertex -11.003252953722622 10.50283419357183 2.3999999999999995
    vertex -11.255291427061518 8.379555495773445 2.3999999999999995
    vertex -11.100000000000007 8.400000000000004 2.3999999999999995
  endloop
endfacet
facet normal 0.0 0.0 1.0
  outer loop
    vertex -11.003252953722622 10.50283419357183 2.3999999999999995
    vertex -11.100000000000007 8.400000000000004 2.3999999999999995
    vertex -10.944708572938495 8.379555495773445 2.3999999999999995
  endloop
endfacet
facet normal 0.0 0.0 1.0
  outer loop
    vertex -11.003252953722622 10.50283419357183 2.3999999999999995
    vertex -10.944708572938495 8.379555495773445 2.3999999999999995
    vertex -10.414886689292898 10.259124907202244 2.3999999999999995
  endloop
endfacet
facet normal 0.0 0.0 1.0
  outer loop
    vertex -10.414886689292898 10.259124907202244 2.3999999999999995
    vertex -10.944708572938495 8.379555495773445 2.3999999999999995
    vertex -10.800000000000006 8.319615242270668 2.3999999999999995
  endloop
endfacet
facet normal 0.0 0.0 1.0
  outer loop
    vertex -10.414886689292898 10.259124907202244 2.3999999999999995
    vertex -10.800000000000006 8.319615242270668 2.3999999999999995
    vertex -10.675735931288077 8.224264068711934 2.3999999999999995
  endloop
endfacet
facet normal 0.0 0.0 1.0
  outer loop
    vertex -10.414886689292898 10.259124907202244 2.3999999999999995
    vertex -10.675735931288077 8.224264068711934 2.3999999999999995
    vertex -10.580384757729343 8.100000000000003 2.3999999999999995
  endloop
endfacet
facet normal 0.0 0.0 1.0
  outer loop
    vertex -10.414886689292898 10.259124907202244 2.3999999999999995
    vertex -10.580384757729343 8.100000000000003 2.3999999999999995
    vertex -10.520444504226566 7.955291427061516 2.3999999999999995
  endloop
endfacet
facet normal 0.0 0.0 1.0
  outer loop
    vertex -10.414886689292898 10.259124907202244 2.3999999999999995
    vertex -10.520444504226566 7.955291427061516 2.3999999999999995
    vertex -10.500000000000005 7.800000000000004 2.3999999999999995
  endloop
endfacet
facet normal -0.9023684993715672 -0.4309653017841531 -0.0
  outer loop
    vertex -14.767631696968596 10.832174658823819 2.3999999999999995
    vertex -14.389214109924833 10.039832192405225 0.0
    vertex -14.389214109924833 10.039832192405225 2.3999999999999995
  endloop
endfacet
facet normal -0.9023684993715672 -0.4309653017841531 -0.0
  outer loop
    vertex -14.389214109924833 10.039832192405225 0.0
    vertex -14.767631696968596 10.832174658823819 2.3999999999999995
    vertex -14.767631696968596 10.832174658823819 0.0
  endloop
endfacet
facet normal -0.662620048215743 -0.7489557207889972 -0.0
  outer loop
    vertex -13.860981661555076 9.572491599774251 2.3999999999999995
    vertex -14.389214109924833 10.039832192405225 0.0
    vertex -13.860981661555076 9.572491599774251 0.0
  endloop
endfacet
facet normal -0.662620048215743 -0.7489557207889972 -0.0
  outer loop
    vertex -14.389214109924833 10.039832192405225 0.0
    vertex -13.860981661555076 9.572491599774251 2.3999999999999995
    vertex -14.389214109924833 10.039832192405225 2.3999999999999995
  endloop
endfacet
facet normal -0.833885822067167 -0.55193698531206 -0.0
  outer loop
    vertex -13.860981661555076 9.572491599774251 2.3999999999999995
    vertex -13.484033955898381 9.002985739915728 0.0
    vertex -13.484033955898381 9.002985739915728 2.3999999999999995
  endloop
endfacet
facet normal -0.833885822067167 -0.55193698531206 -0.0
  outer loop
    vertex -13.484033955898381 9.002985739915728 0.0
    vertex -13.860981661555076 9.572491599774251 2.3999999999999995
    vertex -13.860981661555076 9.572491599774251 0.0
  endloop
endfacet
facet normal -0.855250243353646 -0.5182152267576952 -0.0
  outer loop
    vertex -13.484033955898381 9.002985739915728 2.3999999999999995
    vertex -13.014685436344841 8.228383962817565 0.0
    vertex -13.014685436344841 8.228383962817565 2.3999999999999995
  endloop
endfacet
facet normal -0.855250243353646 -0.5182152267576952 -0.0
  outer loop
    vertex -13.014685436344841 8.228383962817565 0.0
    vertex -13.484033955898381 9.002985739915728 2.3999999999999995
    vertex -13.484033955898381 9.002985739915728 0.0
  endloop
endfacet
facet normal -0.7473596203296752 -0.664419745267014 -0.0
  outer loop
    vertex -13.014685436344841 8.228383962817565 2.3999999999999995
    vertex -12.427694960212078 7.568119149038713 0.0
    vertex -12.427694960212078 7.568119149038713 2.3999999999999995
  endloop
endfacet
facet normal -0.7473596203296752 -0.664419745267014 -0.0
  outer loop
    vertex -12.427694960212078 7.568119149038713 0.0
    vertex -13.014685436344841 8.228383962817565 2.3999999999999995
    vertex -13.014685436344841 8.228383962817565 0.0
  endloop
endfacet
facet normal -0.6147940616442815 -0.7886876832859301 -0.0
  outer loop
    vertex -11.730918318593751 7.024971144273827 2.3999999999999995
    vertex -12.427694960212078 7.568119149038713 0.0
    vertex -11.730918318593751 7.024971144273827 0.0
  endloop
endfacet
facet normal -0.6147940616442815 -0.7886876832859301 -0.0
  outer loop
    vertex -12.427694960212078 7.568119149038713 0.0
    vertex -11.730918318593751 7.024971144273827 2.3999999999999995
    vertex -12.427694960212078 7.568119149038713 2.3999999999999995
  endloop
endfacet
facet normal -0.46193037137211207 -0.8869161922098519 -0.0
  outer loop
    vertex -10.947360392051552 6.616872603308685 2.3999999999999995
    vertex -11.730918318593751 7.024971144273827 0.0
    vertex -10.947360392051552 6.616872603308685 0.0
  endloop
endfacet
facet normal -0.46193037137211207 -0.8869161922098519 -0.0
  outer loop
    vertex -11.730918318593751 7.024971144273827 0.0
    vertex -10.947360392051552 6.616872603308685 2.3999999999999995
    vertex -11.730918318593751 7.024971144273827 2.3999999999999995
  endloop
endfacet
facet normal -0.29381551969971864 -0.9558621450730145 -0.0
  outer loop
    vertex -10.839476202380553 6.5837108661074 2.3999999999999995
    vertex -10.947360392051552 6.616872603308685 0.0
    vertex -10.839476202380553 6.5837108661074 0.0
  endloop
endfacet
facet normal -0.29381551969971864 -0.9558621450730145 -0.0
  outer loop
    vertex -10.947360392051552 6.616872603308685 0.0
    vertex -10.839476202380553 6.5837108661074 2.3999999999999995
    vertex -10.947360392051552 6.616872603308685 2.3999999999999995
  endloop
endfacet
endsolid Strider_v6
