solid Strider_v6
facet normal 0.8485573225406781 6.755362690236421e-16 -0.5291034590348052
  outer loop
    vertex -12.507357555836947 19.64999999999995 18.056766304156763
    vertex -11.976205855075413 35.64999999999995 18.908608523981478
    vertex -11.976205855075413 19.64999999999995 18.90860852398146
  endloop
endfacet
facet normal 0.8485573225406781 6.755362690236421e-16 -0.5291034590348052
  outer loop
    vertex -11.976205855075413 35.64999999999995 18.908608523981478
    vertex -12.507357555836947 19.64999999999995 18.056766304156763
    vertex -12.507357555836947 35.64999999999995 18.05676630415678
  endloop
endfacet
facet normal 1.0 0.0 0.0
  outer loop
    vertex -11.976205855075413 19.64999999999995 18.90860852398146
    vertex -11.976205855075413 35.64999999999995 19.977511425722575
    vertex -11.976205855075413 19.64999999999995 19.977511425722557
  endloop
endfacet
facet normal 1.0 0.0 0.0
  outer loop
    vertex -11.976205855075413 35.64999999999995 19.977511425722575
    vertex -11.976205855075413 19.64999999999995 18.90860852398146
    vertex -11.976205855075413 35.64999999999995 18.908608523981478
  endloop
endfacet
facet normal -0.8264217110611998 -7.188798360048629e-16 0.5630516454879416
  outer loop
    vertex -12.778777116922527 35.64999999999995 18.79953366688048
    vertex -11.976205855075413 19.64999999999995 19.977511425722557
    vertex -11.976205855075413 35.64999999999995 19.977511425722575
  endloop
endfacet
facet normal -0.8264217110611998 -7.188798360048629e-16 0.5630516454879416
  outer loop
    vertex -11.976205855075413 19.64999999999995 19.977511425722557
    vertex -12.778777116922527 35.64999999999995 18.79953366688048
    vertex -12.778777116922527 19.64999999999995 18.799533666880464
  endloop
endfacet
facet normal 0.02263696701762346 -1.2764293107868724e-15 0.9997437510303544
  outer loop
    vertex -12.778777116922527 35.64999999999995 18.79953366688048
    vertex -14.353840422163541 19.64999999999995 18.83519746178257
    vertex -12.778777116922527 19.64999999999995 18.799533666880464
  endloop
endfacet
facet normal 0.02263696701762346 -1.2764293107868724e-15 0.9997437510303544
  outer loop
    vertex -14.353840422163541 19.64999999999995 18.83519746178257
    vertex -12.778777116922527 35.64999999999995 18.79953366688048
    vertex -14.353840422163541 35.64999999999995 18.835197461782588
  endloop
endfacet
facet normal -0.8955887870531819 -5.680070239246441e-16 0.44488282109406113
  outer loop
    vertex -14.956269588369938 35.64999999999995 17.6224538343226
    vertex -14.353840422163541 19.64999999999995 18.83519746178257
    vertex -14.353840422163541 35.64999999999995 18.835197461782588
  endloop
endfacet
facet normal -0.8955887870531819 -5.680070239246441e-16 0.44488282109406113
  outer loop
    vertex -14.353840422163541 19.64999999999995 18.83519746178257
    vertex -14.956269588369938 35.64999999999995 17.6224538343226
    vertex -14.956269588369938 19.64999999999995 17.622453834322574
  endloop
endfacet
facet normal -0.9342867311724299 -4.551924311461993e-16 0.35652251535511187
  outer loop
    vertex -15.517799495532111 35.64999999999995 16.15093403172177
    vertex -14.956269588369938 19.64999999999995 17.622453834322574
    vertex -14.956269588369938 35.64999999999995 17.6224538343226
  endloop
endfacet
facet normal -0.9342867311724299 -4.551924311461993e-16 0.35652251535511187
  outer loop
    vertex -14.956269588369938 19.64999999999995 17.622453834322574
    vertex -15.517799495532111 35.64999999999995 16.15093403172177
    vertex -15.517799495532111 19.649999999999952 16.15093403172175
  endloop
endfacet
facet normal -0.9642910676450333 -3.3814223887985306e-16 0.2648447410465272
  outer loop
    vertex -15.934935122167406 35.64999999999995 14.632156814656835
    vertex -15.517799495532111 19.649999999999952 16.15093403172175
    vertex -15.517799495532111 35.64999999999995 16.15093403172177
  endloop
endfacet
facet normal -0.9642910676450333 -3.3814223887985306e-16 0.2648447410465272
  outer loop
    vertex -15.517799495532111 19.649999999999952 16.15093403172175
    vertex -15.934935122167406 35.64999999999995 14.632156814656835
    vertex -15.934935122167406 19.649999999999952 14.632156814656815
  endloop
endfacet
facet normal -0.9853226038845112 -2.179456078859777e-16 0.17070256668910008
  outer loop
    vertex -16.203794990189486 35.649999999999956 13.080254518295657
    vertex -15.934935122167406 19.649999999999952 14.632156814656815
    vertex -15.934935122167406 35.64999999999995 14.632156814656835
  endloop
endfacet
facet normal -0.9853226038845112 -2.179456078859777e-16 0.17070256668910008
  outer loop
    vertex -15.934935122167406 19.649999999999952 14.632156814656815
    vertex -16.203794990189486 35.649999999999956 13.080254518295657
    vertex -16.203794990189486 19.649999999999956 13.080254518295638
  endloop
endfacet
facet normal -0.9971856398791102 -9.572097677173918e-17 0.0749719922296947
  outer loop
    vertex -16.32187733849383 35.649999999999956 11.509667709137098
    vertex -16.203794990189486 19.649999999999956 13.080254518295638
    vertex -16.203794990189486 35.649999999999956 13.080254518295657
  endloop
endfacet
facet normal -0.9971856398791102 -9.572097677173918e-17 0.0749719922296947
  outer loop
    vertex -16.203794990189486 19.649999999999956 13.080254518295638
    vertex -16.32187733849383 35.649999999999956 11.509667709137098
    vertex -16.32187733849383 19.64999999999996 11.509667709137078
  endloop
endfacet
facet normal -0.9997697891949934 2.739434516346992e-17 -0.021456202203523806
  outer loop
    vertex -16.28808340203123 35.649999999999956 9.935010814463755
    vertex -16.32187733849383 19.64999999999996 11.509667709137078
    vertex -16.32187733849383 35.649999999999956 11.509667709137098
  endloop
endfacet
facet normal -0.9997697891949934 2.739434516346992e-17 -0.021456202203523806
  outer loop
    vertex -16.32187733849383 19.64999999999996 11.509667709137078
    vertex -16.28808340203123 35.649999999999956 9.935010814463755
    vertex -16.28808340203123 19.64999999999996 9.935010814463736
  endloop
endfacet
facet normal -0.9930510061302329 1.502547606757951e-16 -0.1176847450765485
  outer loop
    vertex -16.102727635898432 35.649999999999956 8.370936134007207
    vertex -16.28808340203123 19.64999999999996 9.935010814463736
    vertex -16.28808340203123 35.649999999999956 9.935010814463755
  endloop
endfacet
facet normal -0.9930510061302329 1.502547606757951e-16 -0.1176847450765485
  outer loop
    vertex -16.28808340203123 19.64999999999996 9.935010814463736
    vertex -16.102727635898432 35.649999999999956 8.370936134007207
    vertex -16.102727635898432 19.64999999999996 8.370936134007188
  endloop
endfacet
facet normal -0.977091809461859 2.717170444446476e-16 -0.21281822262802214
  outer loop
    vertex -15.767534789310046 35.64999999999996 6.831997499207269
    vertex -16.102727635898432 19.64999999999996 8.370936134007188
    vertex -16.102727635898432 35.649999999999956 8.370936134007207
  endloop
endfacet
facet normal -0.977091809461859 2.717170444446476e-16 -0.21281822262802214
  outer loop
    vertex -16.102727635898432 19.64999999999996 8.370936134007188
    vertex -15.767534789310046 35.64999999999996 6.831997499207269
    vertex -15.767534789310046 19.649999999999963 6.831997499207249
  endloop
endfacet
facet normal -0.9520407007039786 3.906509808694913e-16 -0.3059714107610017
  outer loop
    vertex -15.285623856678562 35.64999999999997 5.332514848726044
    vertex -15.767534789310046 19.649999999999963 6.831997499207249
    vertex -15.767534789310046 35.64999999999996 6.831997499207269
  endloop
endfacet
facet normal -0.9520407007039786 3.906509808694913e-16 -0.3059714107610017
  outer loop
    vertex -15.767534789310046 19.649999999999963 6.831997499207249
    vertex -15.285623856678562 35.64999999999997 5.332514848726044
    vertex -15.285623856678562 19.649999999999967 5.332514848726023
  endloop
endfacet
facet normal -0.9181307822901276 5.059498808101932e-16 -0.3962775121191187
  outer loop
    vertex -14.661479055138987 35.64999999999997 3.8864409803517206
    vertex -15.285623856678562 19.649999999999967 5.332514848726023
    vertex -15.285623856678562 35.64999999999997 5.332514848726044
  endloop
endfacet
facet normal -0.9181307822901276 5.059498808101932e-16 -0.3962775121191187
  outer loop
    vertex -15.285623856678562 19.649999999999967 5.332514848726023
    vertex -14.661479055138987 35.64999999999997 3.8864409803517206
    vertex -14.661479055138987 19.649999999999967 3.886440980351701
  endloop
endfacet
facet normal -0.8756775885377494 6.165408794119714e-16 -0.48289622170059693
  outer loop
    vertex -13.900908098574261 35.64999999999997 2.5072317191755427
    vertex -14.661479055138987 19.649999999999967 3.886440980351701
    vertex -14.661479055138987 35.64999999999997 3.8864409803517206
  endloop
endfacet
facet normal -0.8756775885377494 6.165408794119714e-16 -0.48289622170059693
  outer loop
    vertex -14.661479055138987 19.649999999999967 3.886440980351701
    vertex -13.900908098574261 35.64999999999997 2.5072317191755427
    vertex -13.900908098574261 19.64999999999997 2.5072317191755227
  endloop
endfacet
facet normal -0.8250761495778722 7.213949191927656e-16 -0.565021545958871
  outer loop
    vertex -13.010988156404855 35.64999999999997 1.2077207101367036
    vertex -13.900908098574261 19.64999999999997 2.5072317191755227
    vertex -13.900908098574261 35.64999999999997 2.5072317191755427
  endloop
endfacet
facet normal -0.8250761495778722 7.213949191927656e-16 -0.565021545958871
  outer loop
    vertex -13.900908098574261 19.64999999999997 2.5072317191755227
    vertex -13.010988156404855 35.64999999999997 1.2077207101367036
    vertex -13.010988156404855 19.64999999999997 1.2077207101366838
  endloop
endfacet
facet normal -0.7667973155702966 8.195363254998137e-16 -0.6418893026326168
  outer loop
    vertex -12.0 35.64999999999997 1.973976537783528e-14
    vertex -13.010988156404855 19.64999999999997 1.2077207101366838
    vertex -13.010988156404855 35.64999999999997 1.2077207101367036
  endloop
endfacet
facet normal -0.7667973155702966 8.195363254998137e-16 -0.6418893026326168
  outer loop
    vertex -13.010988156404855 19.64999999999997 1.2077207101366838
    vertex -12.0 35.64999999999997 1.973976537783528e-14
    vertex -12.0 19.649999999999974 0.0
  endloop
endfacet
facet normal 0.0 1.27675647831893e-15 -1.0
  outer loop
    vertex -12.0 19.649999999999974 0.0
    vertex -10.031259204458989 22.007649525193585 2.8199664825478975e-15
    vertex -9.500000000000002 19.649999999999974 0.0
  endloop
endfacet
facet normal 0.0 1.27675647831893e-15 -1.0
  outer loop
    vertex -10.031259204458989 22.007649525193585 2.8199664825478975e-15
    vertex -12.0 19.649999999999974 0.0
    vertex -12.0 35.64999999999997 1.973976537783528e-14
  endloop
endfacet
facet normal 0.0 1.27675647831893e-15 -1.0
  outer loop
    vertex -9.500000000000002 19.649999999999974 0.0
    vertex -10.031259204458989 22.007649525193585 2.8199664825478975e-15
    vertex -9.976313972081442 21.87499999999997 2.8199664825478975e-15
  endloop
endfacet
facet normal 0.0 1.27675647831893e-15 -1.0
  outer loop
    vertex -9.500000000000002 19.649999999999974 0.0
    vertex -9.976313972081442 21.87499999999997 2.8199664825478975e-15
    vertex -9.888908729652602 21.76109127034737 2.8199664825478975e-15
  endloop
endfacet
facet normal 0.0 1.27675647831893e-15 -1.0
  outer loop
    vertex -9.500000000000002 19.649999999999974 0.0
    vertex -9.888908729652602 21.76109127034737 2.8199664825478975e-15
    vertex -9.775000000000002 21.67368602791853 2.8199664825478975e-15
  endloop
endfacet
facet normal 0.0 1.27675647831893e-15 -1.0
  outer loop
    vertex -9.500000000000002 19.649999999999974 0.0
    vertex -9.775000000000002 21.67368602791853 2.8199664825478975e-15
    vertex -7.000000000000001 19.649999999999974 0.0
  endloop
endfacet
facet normal 0.0 1.27675647831893e-15 -1.0
  outer loop
    vertex -7.000000000000001 19.649999999999974 0.0
    vertex -9.775000000000002 21.67368602791853 2.8199664825478975e-15
    vertex -9.642350474806388 21.618740795540987 2.8199664825478975e-15
  endloop
endfacet
facet normal 0.0 1.27675647831893e-15 -1.0
  outer loop
    vertex -7.000000000000001 19.649999999999974 0.0
    vertex -9.642350474806388 21.618740795540987 2.8199664825478975e-15
    vertex -9.500000000000002 21.599999999999973 2.8199664825478975e-15
  endloop
endfacet
facet normal 0.0 1.27675647831893e-15 -1.0
  outer loop
    vertex -10.031259204458989 22.007649525193585 2.8199664825478975e-15
    vertex -12.0 35.64999999999997 1.973976537783528e-14
    vertex -10.05 22.149999999999974 2.8199664825478975e-15
  endloop
endfacet
facet normal 0.0 1.27675647831893e-15 -1.0
  outer loop
    vertex -10.05 22.149999999999974 2.8199664825478975e-15
    vertex -12.0 35.64999999999997 1.973976537783528e-14
    vertex -10.031259204458989 22.29235047480636 2.8199664825478975e-15
  endloop
endfacet
facet normal 0.0 1.27675647831893e-15 -1.0
  outer loop
    vertex -10.031259204458989 22.29235047480636 2.8199664825478975e-15
    vertex -12.0 35.64999999999997 1.973976537783528e-14
    vertex -9.976313972081442 22.424999999999972 2.8199664825478975e-15
  endloop
endfacet
facet normal 0.0 1.27675647831893e-15 -1.0
  outer loop
    vertex -9.976313972081442 22.424999999999972 2.8199664825478975e-15
    vertex -12.0 35.64999999999997 1.973976537783528e-14
    vertex -9.888908729652602 22.538908729652572 2.8199664825478975e-15
  endloop
endfacet
facet normal 0.0 1.27675647831893e-15 -1.0
  outer loop
    vertex -9.888908729652602 22.538908729652572 2.8199664825478975e-15
    vertex -12.0 35.64999999999997 1.973976537783528e-14
    vertex -9.775 22.626313972081412 2.8199664825478975e-15
  endloop
endfacet
facet normal 0.0 1.27675647831893e-15 -1.0
  outer loop
    vertex -9.775 22.626313972081412 2.8199664825478975e-15
    vertex -12.0 35.64999999999997 1.973976537783528e-14
    vertex -9.642350474806388 22.68125920445896 2.8199664825478975e-15
  endloop
endfacet
facet normal 0.0 1.27675647831893e-15 -1.0
  outer loop
    vertex -9.642350474806388 22.68125920445896 2.8199664825478975e-15
    vertex -12.0 35.64999999999997 1.973976537783528e-14
    vertex -9.500000000000002 22.69999999999997 2.8199664825478975e-15
  endloop
endfacet
facet normal 0.0 1.27675647831893e-15 -1.0
  outer loop
    vertex -9.500000000000002 22.69999999999997 2.8199664825478975e-15
    vertex -12.0 35.64999999999997 1.973976537783528e-14
    vertex -9.976313972081442 32.874999999999964 1.6919798895287383e-14
  endloop
endfacet
facet normal 0.0 1.27675647831893e-15 -1.0
  outer loop
    vertex -9.500000000000002 22.69999999999997 2.8199664825478975e-15
    vertex -9.976313972081442 32.874999999999964 1.6919798895287383e-14
    vertex -9.888908729652602 32.76109127034737 1.6919798895287383e-14
  endloop
endfacet
facet normal 0.0 1.27675647831893e-15 -1.0
  outer loop
    vertex -9.500000000000002 22.69999999999997 2.8199664825478975e-15
    vertex -9.888908729652602 32.76109127034737 1.6919798895287383e-14
    vertex -9.775 32.67368602791853 1.6919798895287383e-14
  endloop
endfacet
facet normal 0.0 1.27675647831893e-15 -1.0
  outer loop
    vertex -9.500000000000002 22.69999999999997 2.8199664825478975e-15
    vertex -9.775 32.67368602791853 1.6919798895287383e-14
    vertex -9.642350474806388 32.61874079554098 1.6919798895287383e-14
  endloop
endfacet
facet normal 0.0 1.27675647831893e-15 -1.0
  outer loop
    vertex -9.500000000000002 22.69999999999997 2.8199664825478975e-15
    vertex -9.642350474806388 32.61874079554098 1.6919798895287383e-14
    vertex -9.500000000000002 32.59999999999997 1.6919798895287383e-14
  endloop
endfacet
facet normal 0.0 1.27675647831893e-15 -1.0
  outer loop
    vertex -9.976313972081442 32.874999999999964 1.6919798895287383e-14
    vertex -12.0 35.64999999999997 1.973976537783528e-14
    vertex -10.031259204458989 33.007649525193585 1.6919798895287383e-14
  endloop
endfacet
facet normal 0.0 1.27675647831893e-15 -1.0
  outer loop
    vertex -10.031259204458989 33.007649525193585 1.6919798895287383e-14
    vertex -12.0 35.64999999999997 1.973976537783528e-14
    vertex -10.05 33.14999999999997 1.6919798895287383e-14
  endloop
endfacet
facet normal 0.0 1.27675647831893e-15 -1.0
  outer loop
    vertex -10.05 33.14999999999997 1.6919798895287383e-14
    vertex -12.0 35.64999999999997 1.973976537783528e-14
    vertex -10.031259204458989 33.292350474806355 1.6919798895287383e-14
  endloop
endfacet
facet normal 0.0 1.27675647831893e-15 -1.0
  outer loop
    vertex -10.031259204458989 33.292350474806355 1.6919798895287383e-14
    vertex -12.0 35.64999999999997 1.973976537783528e-14
    vertex -9.976313972081442 33.42499999999997 1.6919798895287383e-14
  endloop
endfacet
facet normal 0.0 1.27675647831893e-15 -1.0
  outer loop
    vertex -9.976313972081442 33.42499999999997 1.6919798895287383e-14
    vertex -12.0 35.64999999999997 1.973976537783528e-14
    vertex -9.888908729652602 33.53890872965257 1.6919798895287383e-14
  endloop
endfacet
facet normal 0.0 1.27675647831893e-15 -1.0
  outer loop
    vertex -9.888908729652602 33.53890872965257 1.6919798895287383e-14
    vertex -12.0 35.64999999999997 1.973976537783528e-14
    vertex -9.775000000000002 33.62631397208141 1.6919798895287383e-14
  endloop
endfacet
facet normal 0.0 1.27675647831893e-15 -1.0
  outer loop
    vertex -9.775000000000002 33.62631397208141 1.6919798895287383e-14
    vertex -12.0 35.64999999999997 1.973976537783528e-14
    vertex -9.642350474806388 33.68125920445896 1.6919798895287383e-14
  endloop
endfacet
facet normal 0.0 1.27675647831893e-15 -1.0
  outer loop
    vertex -9.642350474806388 33.68125920445896 1.6919798895287383e-14
    vertex -12.0 35.64999999999997 1.973976537783528e-14
    vertex -9.500000000000002 33.699999999999974 1.6919798895287383e-14
  endloop
endfacet
facet normal 0.0 1.27675647831893e-15 -1.0
  outer loop
    vertex -7.000000000000001 19.649999999999974 0.0
    vertex -8.968740795541013 22.007649525193585 2.8199664825478975e-15
    vertex -7.000000000000001 35.64999999999997 1.973976537783528e-14
  endloop
endfacet
facet normal 0.0 1.27675647831893e-15 -1.0
  outer loop
    vertex -8.968740795541013 22.007649525193585 2.8199664825478975e-15
    vertex -7.000000000000001 19.649999999999974 0.0
    vertex -9.02368602791856 21.87499999999997 2.8199664825478975e-15
  endloop
endfacet
facet normal 0.0 1.27675647831893e-15 -1.0
  outer loop
    vertex -9.02368602791856 21.87499999999997 2.8199664825478975e-15
    vertex -7.000000000000001 19.649999999999974 0.0
    vertex -9.1110912703474 21.76109127034737 2.8199664825478975e-15
  endloop
endfacet
facet normal 0.0 1.27675647831893e-15 -1.0
  outer loop
    vertex -9.1110912703474 21.76109127034737 2.8199664825478975e-15
    vertex -7.000000000000001 19.649999999999974 0.0
    vertex -9.225000000000001 21.67368602791853 2.8199664825478975e-15
  endloop
endfacet
facet normal 0.0 1.27675647831893e-15 -1.0
  outer loop
    vertex -9.225000000000001 21.67368602791853 2.8199664825478975e-15
    vertex -7.000000000000001 19.649999999999974 0.0
    vertex -9.357649525193613 21.618740795540987 2.8199664825478975e-15
  endloop
endfacet
facet normal 0.0 1.27675647831893e-15 -1.0
  outer loop
    vertex -9.357649525193613 21.618740795540987 2.8199664825478975e-15
    vertex -7.000000000000001 19.649999999999974 0.0
    vertex -9.500000000000002 21.599999999999973 2.8199664825478975e-15
  endloop
endfacet
facet normal 0.0 1.27675647831893e-15 -1.0
  outer loop
    vertex -7.000000000000001 35.64999999999997 1.973976537783528e-14
    vertex -8.968740795541013 22.007649525193585 2.8199664825478975e-15
    vertex -8.950000000000001 22.149999999999974 2.8199664825478975e-15
  endloop
endfacet
facet normal 0.0 1.27675647831893e-15 -1.0
  outer loop
    vertex -7.000000000000001 35.64999999999997 1.973976537783528e-14
    vertex -8.950000000000001 22.149999999999974 2.8199664825478975e-15
    vertex -8.968740795541013 22.29235047480636 2.8199664825478975e-15
  endloop
endfacet
facet normal 0.0 1.27675647831893e-15 -1.0
  outer loop
    vertex -7.000000000000001 35.64999999999997 1.973976537783528e-14
    vertex -8.968740795541013 22.29235047480636 2.8199664825478975e-15
    vertex -9.02368602791856 22.424999999999972 2.8199664825478975e-15
  endloop
endfacet
facet normal 0.0 1.27675647831893e-15 -1.0
  outer loop
    vertex -7.000000000000001 35.64999999999997 1.973976537783528e-14
    vertex -9.02368602791856 22.424999999999972 2.8199664825478975e-15
    vertex -9.1110912703474 22.538908729652572 2.8199664825478975e-15
  endloop
endfacet
facet normal 0.0 1.27675647831893e-15 -1.0
  outer loop
    vertex -7.000000000000001 35.64999999999997 1.973976537783528e-14
    vertex -9.1110912703474 22.538908729652572 2.8199664825478975e-15
    vertex -9.225 22.626313972081412 2.8199664825478975e-15
  endloop
endfacet
facet normal 0.0 1.27675647831893e-15 -1.0
  outer loop
    vertex -7.000000000000001 35.64999999999997 1.973976537783528e-14
    vertex -9.225 22.626313972081412 2.8199664825478975e-15
    vertex -9.357649525193613 22.68125920445896 2.8199664825478975e-15
  endloop
endfacet
facet normal 0.0 1.27675647831893e-15 -1.0
  outer loop
    vertex -7.000000000000001 35.64999999999997 1.973976537783528e-14
    vertex -9.357649525193613 22.68125920445896 2.8199664825478975e-15
    vertex -9.500000000000002 22.69999999999997 2.8199664825478975e-15
  endloop
endfacet
facet normal 0.0 1.27675647831893e-15 -1.0
  outer loop
    vertex -7.000000000000001 35.64999999999997 1.973976537783528e-14
    vertex -9.500000000000002 22.69999999999997 2.8199664825478975e-15
    vertex -9.02368602791856 32.874999999999964 1.6919798895287383e-14
  endloop
endfacet
facet normal 0.0 1.27675647831893e-15 -1.0
  outer loop
    vertex -9.02368602791856 32.874999999999964 1.6919798895287383e-14
    vertex -9.500000000000002 22.69999999999997 2.8199664825478975e-15
    vertex -9.1110912703474 32.76109127034737 1.6919798895287383e-14
  endloop
endfacet
facet normal 0.0 1.27675647831893e-15 -1.0
  outer loop
    vertex -9.1110912703474 32.76109127034737 1.6919798895287383e-14
    vertex -9.500000000000002 22.69999999999997 2.8199664825478975e-15
    vertex -9.225000000000001 32.67368602791853 1.6919798895287383e-14
  endloop
endfacet
facet normal 0.0 1.27675647831893e-15 -1.0
  outer loop
    vertex -9.225000000000001 32.67368602791853 1.6919798895287383e-14
    vertex -9.500000000000002 22.69999999999997 2.8199664825478975e-15
    vertex -9.357649525193613 32.61874079554098 1.6919798895287383e-14
  endloop
endfacet
facet normal 0.0 1.27675647831893e-15 -1.0
  outer loop
    vertex -9.357649525193613 32.61874079554098 1.6919798895287383e-14
    vertex -9.500000000000002 22.69999999999997 2.8199664825478975e-15
    vertex -9.500000000000002 32.59999999999997 1.6919798895287383e-14
  endloop
endfacet
facet normal 0.0 1.27675647831893e-15 -1.0
  outer loop
    vertex -7.000000000000001 35.64999999999997 1.973976537783528e-14
    vertex -9.02368602791856 32.874999999999964 1.6919798895287383e-14
    vertex -8.968740795541013 33.007649525193585 1.6919798895287383e-14
  endloop
endfacet
facet normal 0.0 1.27675647831893e-15 -1.0
  outer loop
    vertex -7.000000000000001 35.64999999999997 1.973976537783528e-14
    vertex -8.968740795541013 33.007649525193585 1.6919798895287383e-14
    vertex -8.950000000000001 33.14999999999997 1.6919798895287383e-14
  endloop
endfacet
facet normal 0.0 1.27675647831893e-15 -1.0
  outer loop
    vertex -7.000000000000001 35.64999999999997 1.973976537783528e-14
    vertex -8.950000000000001 33.14999999999997 1.6919798895287383e-14
    vertex -8.968740795541013 33.292350474806355 1.6919798895287383e-14
  endloop
endfacet
facet normal 0.0 1.27675647831893e-15 -1.0
  outer loop
    vertex -7.000000000000001 35.64999999999997 1.973976537783528e-14
    vertex -8.968740795541013 33.292350474806355 1.6919798895287383e-14
    vertex -9.02368602791856 33.42499999999997 1.6919798895287383e-14
  endloop
endfacet
facet normal 0.0 1.27675647831893e-15 -1.0
  outer loop
    vertex -7.000000000000001 35.64999999999997 1.973976537783528e-14
    vertex -9.02368602791856 33.42499999999997 1.6919798895287383e-14
    vertex -9.1110912703474 33.53890872965257 1.6919798895287383e-14
  endloop
endfacet
facet normal 0.0 1.27675647831893e-15 -1.0
  outer loop
    vertex -7.000000000000001 35.64999999999997 1.973976537783528e-14
    vertex -9.1110912703474 33.53890872965257 1.6919798895287383e-14
    vertex -9.225000000000001 33.62631397208141 1.6919798895287383e-14
  endloop
endfacet
facet normal 0.0 1.27675647831893e-15 -1.0
  outer loop
    vertex -7.000000000000001 35.64999999999997 1.973976537783528e-14
    vertex -9.225000000000001 33.62631397208141 1.6919798895287383e-14
    vertex -9.357649525193613 33.68125920445896 1.6919798895287383e-14
  endloop
endfacet
facet normal 0.0 1.27675647831893e-15 -1.0
  outer loop
    vertex -7.000000000000001 35.64999999999997 1.973976537783528e-14
    vertex -9.357649525193613 33.68125920445896 1.6919798895287383e-14
    vertex -9.500000000000002 33.699999999999974 1.6919798895287383e-14
  endloop
endfacet
facet normal 0.0 1.27675647831893e-15 -1.0
  outer loop
    vertex -7.000000000000001 35.64999999999997 1.973976537783528e-14
    vertex -9.500000000000002 33.699999999999974 1.6919798895287383e-14
    vertex -12.0 35.64999999999997 1.973976537783528e-14
  endloop
endfacet
facet normal 1.0 0.0 0.0
  outer loop
    vertex -7.000000000000001 19.649999999999974 0.0
    vertex -7.000000000000001 35.64999999999997 2.000000000000019
    vertex -7.000000000000001 19.64999999999997 1.9999999999999991
  endloop
endfacet
facet normal 1.0 0.0 0.0
  outer loop
    vertex -7.000000000000001 35.64999999999997 2.000000000000019
    vertex -7.000000000000001 19.649999999999974 0.0
    vertex -7.000000000000001 35.64999999999997 1.973976537783528e-14
  endloop
endfacet
facet normal -0.0 -1.27675647831893e-15 1.0
  outer loop
    vertex -7.000000000000001 19.64999999999997 1.9999999999999991
    vertex -9.1110912703474 21.761091270347368 2.0000000000000018
    vertex -11.065957352495316 19.64999999999997 1.9999999999999991
  endloop
endfacet
facet normal -0.0 -1.27675647831893e-15 1.0
  outer loop
    vertex -9.1110912703474 21.761091270347368 2.0000000000000018
    vertex -7.000000000000001 19.64999999999997 1.9999999999999991
    vertex -9.02368602791856 21.874999999999968 2.0000000000000018
  endloop
endfacet
facet normal -0.0 -1.27675647831893e-15 1.0
  outer loop
    vertex -9.02368602791856 21.874999999999968 2.0000000000000018
    vertex -7.000000000000001 19.64999999999997 1.9999999999999991
    vertex -8.968740795541013 22.00764952519358 2.0000000000000018
  endloop
endfacet
facet normal -0.0 -1.27675647831893e-15 1.0
  outer loop
    vertex -8.968740795541013 22.00764952519358 2.0000000000000018
    vertex -7.000000000000001 19.64999999999997 1.9999999999999991
    vertex -7.000000000000001 35.64999999999997 2.000000000000019
  endloop
endfacet
facet normal -0.0 -1.27675647831893e-15 1.0
  outer loop
    vertex -11.065957352495316 19.64999999999997 1.9999999999999991
    vertex -9.1110912703474 21.761091270347368 2.0000000000000018
    vertex -9.225000000000001 21.673686027918528 2.0000000000000018
  endloop
endfacet
facet normal -0.0 -1.27675647831893e-15 1.0
  outer loop
    vertex -11.065957352495316 19.64999999999997 1.9999999999999991
    vertex -9.225000000000001 21.673686027918528 2.0000000000000018
    vertex -9.357649525193613 21.618740795540983 2.0000000000000018
  endloop
endfacet
facet normal -0.0 -1.27675647831893e-15 1.0
  outer loop
    vertex -11.065957352495316 19.64999999999997 1.9999999999999991
    vertex -9.357649525193613 21.618740795540983 2.0000000000000018
    vertex -9.500000000000002 21.59999999999997 2.0000000000000018
  endloop
endfacet
facet normal -0.0 -1.27675647831893e-15 1.0
  outer loop
    vertex -8.968740795541013 22.00764952519358 2.0000000000000018
    vertex -7.000000000000001 35.64999999999997 2.000000000000019
    vertex -8.950000000000001 22.14999999999997 2.0000000000000018
  endloop
endfacet
facet normal -0.0 -1.27675647831893e-15 1.0
  outer loop
    vertex -8.950000000000001 22.14999999999997 2.0000000000000018
    vertex -7.000000000000001 35.64999999999997 2.000000000000019
    vertex -8.968740795541013 22.292350474806355 2.0000000000000018
  endloop
endfacet
facet normal -0.0 -1.27675647831893e-15 1.0
  outer loop
    vertex -8.968740795541013 22.292350474806355 2.0000000000000018
    vertex -7.000000000000001 35.64999999999997 2.000000000000019
    vertex -9.02368602791856 22.42499999999997 2.0000000000000018
  endloop
endfacet
facet normal -0.0 -1.27675647831893e-15 1.0
  outer loop
    vertex -9.02368602791856 22.42499999999997 2.0000000000000018
    vertex -7.000000000000001 35.64999999999997 2.000000000000019
    vertex -9.1110912703474 22.538908729652572 2.0000000000000018
  endloop
endfacet
facet normal -0.0 -1.27675647831893e-15 1.0
  outer loop
    vertex -9.1110912703474 22.538908729652572 2.0000000000000018
    vertex -7.000000000000001 35.64999999999997 2.000000000000019
    vertex -9.225 22.62631397208141 2.0000000000000018
  endloop
endfacet
facet normal -0.0 -1.27675647831893e-15 1.0
  outer loop
    vertex -9.225 22.62631397208141 2.0000000000000018
    vertex -7.000000000000001 35.64999999999997 2.000000000000019
    vertex -9.357649525193613 22.681259204458957 2.0000000000000018
  endloop
endfacet
facet normal -0.0 -1.27675647831893e-15 1.0
  outer loop
    vertex -9.357649525193613 22.681259204458957 2.0000000000000018
    vertex -7.000000000000001 35.64999999999997 2.000000000000019
    vertex -9.500000000000002 22.69999999999997 2.0000000000000018
  endloop
endfacet
facet normal -0.0 -1.27675647831893e-15 1.0
  outer loop
    vertex -9.500000000000002 22.69999999999997 2.0000000000000018
    vertex -7.000000000000001 35.64999999999997 2.000000000000019
    vertex -9.02368602791856 32.874999999999964 2.000000000000016
  endloop
endfacet
facet normal -0.0 -1.27675647831893e-15 1.0
  outer loop
    vertex -9.500000000000002 22.69999999999997 2.0000000000000018
    vertex -9.02368602791856 32.874999999999964 2.000000000000016
    vertex -9.1110912703474 32.761091270347364 2.000000000000016
  endloop
endfacet
facet normal -0.0 -1.27675647831893e-15 1.0
  outer loop
    vertex -9.500000000000002 22.69999999999997 2.0000000000000018
    vertex -9.1110912703474 32.761091270347364 2.000000000000016
    vertex -9.225000000000001 32.67368602791853 2.000000000000016
  endloop
endfacet
facet normal -0.0 -1.27675647831893e-15 1.0
  outer loop
    vertex -9.500000000000002 22.69999999999997 2.0000000000000018
    vertex -9.225000000000001 32.67368602791853 2.000000000000016
    vertex -9.357649525193613 32.61874079554098 2.000000000000016
  endloop
endfacet
facet normal -0.0 -1.27675647831893e-15 1.0
  outer loop
    vertex -9.500000000000002 22.69999999999997 2.0000000000000018
    vertex -9.357649525193613 32.61874079554098 2.000000000000016
    vertex -9.500000000000002 32.599999999999966 2.000000000000016
  endloop
endfacet
facet normal -0.0 -1.27675647831893e-15 1.0
  outer loop
    vertex -9.02368602791856 32.874999999999964 2.000000000000016
    vertex -7.000000000000001 35.64999999999997 2.000000000000019
    vertex -8.968740795541013 33.00764952519358 2.000000000000016
  endloop
endfacet
facet normal -0.0 -1.27675647831893e-15 1.0
  outer loop
    vertex -8.968740795541013 33.00764952519358 2.000000000000016
    vertex -7.000000000000001 35.64999999999997 2.000000000000019
    vertex -8.950000000000001 33.14999999999997 2.000000000000016
  endloop
endfacet
facet normal -0.0 -1.27675647831893e-15 1.0
  outer loop
    vertex -8.950000000000001 33.14999999999997 2.000000000000016
    vertex -7.000000000000001 35.64999999999997 2.000000000000019
    vertex -8.968740795541013 33.292350474806355 2.000000000000016
  endloop
endfacet
facet normal -0.0 -1.27675647831893e-15 1.0
  outer loop
    vertex -8.968740795541013 33.292350474806355 2.000000000000016
    vertex -7.000000000000001 35.64999999999997 2.000000000000019
    vertex -9.02368602791856 33.42499999999997 2.000000000000016
  endloop
endfacet
facet normal -0.0 -1.27675647831893e-15 1.0
  outer loop
    vertex -9.02368602791856 33.42499999999997 2.000000000000016
    vertex -7.000000000000001 35.64999999999997 2.000000000000019
    vertex -9.1110912703474 33.53890872965257 2.000000000000016
  endloop
endfacet
facet normal -0.0 -1.27675647831893e-15 1.0
  outer loop
    vertex -9.1110912703474 33.53890872965257 2.000000000000016
    vertex -7.000000000000001 35.64999999999997 2.000000000000019
    vertex -9.225000000000001 33.626313972081405 2.000000000000016
  endloop
endfacet
facet normal -0.0 -1.27675647831893e-15 1.0
  outer loop
    vertex -9.225000000000001 33.626313972081405 2.000000000000016
    vertex -7.000000000000001 35.64999999999997 2.000000000000019
    vertex -9.357649525193613 33.681259204458954 2.000000000000016
  endloop
endfacet
facet normal -0.0 -1.27675647831893e-15 1.0
  outer loop
    vertex -9.357649525193613 33.681259204458954 2.000000000000016
    vertex -7.000000000000001 35.64999999999997 2.000000000000019
    vertex -9.500000000000002 33.69999999999997 2.000000000000016
  endloop
endfacet
facet normal -0.0 -1.27675647831893e-15 1.0
  outer loop
    vertex -11.065957352495316 19.64999999999997 1.9999999999999991
    vertex -10.05 22.14999999999997 2.0000000000000018
    vertex -11.065957352495316 35.64999999999997 2.000000000000019
  endloop
endfacet
facet normal -0.0 -1.27675647831893e-15 1.0
  outer loop
    vertex -10.05 22.14999999999997 2.0000000000000018
    vertex -11.065957352495316 19.64999999999997 1.9999999999999991
    vertex -10.031259204458989 22.00764952519358 2.0000000000000018
  endloop
endfacet
facet normal -0.0 -1.27675647831893e-15 1.0
  outer loop
    vertex -10.031259204458989 22.00764952519358 2.0000000000000018
    vertex -11.065957352495316 19.64999999999997 1.9999999999999991
    vertex -9.976313972081442 21.87499999999997 2.0000000000000018
  endloop
endfacet
facet normal -0.0 -1.27675647831893e-15 1.0
  outer loop
    vertex -9.976313972081442 21.87499999999997 2.0000000000000018
    vertex -11.065957352495316 19.64999999999997 1.9999999999999991
    vertex -9.888908729652602 21.761091270347368 2.0000000000000018
  endloop
endfacet
facet normal -0.0 -1.27675647831893e-15 1.0
  outer loop
    vertex -9.888908729652602 21.761091270347368 2.0000000000000018
    vertex -11.065957352495316 19.64999999999997 1.9999999999999991
    vertex -9.775000000000002 21.673686027918528 2.0000000000000018
  endloop
endfacet
facet normal -0.0 -1.27675647831893e-15 1.0
  outer loop
    vertex -9.775000000000002 21.673686027918528 2.0000000000000018
    vertex -11.065957352495316 19.64999999999997 1.9999999999999991
    vertex -9.642350474806388 21.618740795540983 2.0000000000000018
  endloop
endfacet
facet normal -0.0 -1.27675647831893e-15 1.0
  outer loop
    vertex -9.642350474806388 21.618740795540983 2.0000000000000018
    vertex -11.065957352495316 19.64999999999997 1.9999999999999991
    vertex -9.500000000000002 21.59999999999997 2.0000000000000018
  endloop
endfacet
facet normal -0.0 -1.27675647831893e-15 1.0
  outer loop
    vertex -11.065957352495316 35.64999999999997 2.000000000000019
    vertex -10.05 22.14999999999997 2.0000000000000018
    vertex -10.031259204458989 22.292350474806355 2.0000000000000018
  endloop
endfacet
facet normal -0.0 -1.27675647831893e-15 1.0
  outer loop
    vertex -11.065957352495316 35.64999999999997 2.000000000000019
    vertex -10.031259204458989 22.292350474806355 2.0000000000000018
    vertex -9.976313972081442 22.42499999999997 2.0000000000000018
  endloop
endfacet
facet normal -0.0 -1.27675647831893e-15 1.0
  outer loop
    vertex -11.065957352495316 35.64999999999997 2.000000000000019
    vertex -9.976313972081442 22.42499999999997 2.0000000000000018
    vertex -9.888908729652602 22.538908729652572 2.0000000000000018
  endloop
endfacet
facet normal -0.0 -1.27675647831893e-15 1.0
  outer loop
    vertex -11.065957352495316 35.64999999999997 2.000000000000019
    vertex -9.888908729652602 22.538908729652572 2.0000000000000018
    vertex -9.775 22.62631397208141 2.0000000000000018
  endloop
endfacet
facet normal -0.0 -1.27675647831893e-15 1.0
  outer loop
    vertex -11.065957352495316 35.64999999999997 2.000000000000019
    vertex -9.775 22.62631397208141 2.0000000000000018
    vertex -9.642350474806388 22.68125920445896 2.0000000000000018
  endloop
endfacet
facet normal -0.0 -1.27675647831893e-15 1.0
  outer loop
    vertex -11.065957352495316 35.64999999999997 2.000000000000019
    vertex -9.642350474806388 22.68125920445896 2.0000000000000018
    vertex -9.500000000000002 22.69999999999997 2.0000000000000018
  endloop
endfacet
facet normal -0.0 -1.27675647831893e-15 1.0
  outer loop
    vertex -11.065957352495316 35.64999999999997 2.000000000000019
    vertex -9.500000000000002 22.69999999999997 2.0000000000000018
    vertex -10.031259204458989 33.00764952519358 2.000000000000016
  endloop
endfacet
facet normal -0.0 -1.27675647831893e-15 1.0
  outer loop
    vertex -10.031259204458989 33.00764952519358 2.000000000000016
    vertex -9.500000000000002 22.69999999999997 2.0000000000000018
    vertex -9.976313972081442 32.874999999999964 2.000000000000016
  endloop
endfacet
facet normal -0.0 -1.27675647831893e-15 1.0
  outer loop
    vertex -9.976313972081442 32.874999999999964 2.000000000000016
    vertex -9.500000000000002 22.69999999999997 2.0000000000000018
    vertex -9.888908729652602 32.761091270347364 2.000000000000016
  endloop
endfacet
facet normal -0.0 -1.27675647831893e-15 1.0
  outer loop
    vertex -9.888908729652602 32.761091270347364 2.000000000000016
    vertex -9.500000000000002 22.69999999999997 2.0000000000000018
    vertex -9.775 32.67368602791853 2.000000000000016
  endloop
endfacet
facet normal -0.0 -1.27675647831893e-15 1.0
  outer loop
    vertex -9.775 32.67368602791853 2.000000000000016
    vertex -9.500000000000002 22.69999999999997 2.0000000000000018
    vertex -9.642350474806388 32.61874079554098 2.000000000000016
  endloop
endfacet
facet normal -0.0 -1.27675647831893e-15 1.0
  outer loop
    vertex -9.642350474806388 32.61874079554098 2.000000000000016
    vertex -9.500000000000002 22.69999999999997 2.0000000000000018
    vertex -9.500000000000002 32.599999999999966 2.000000000000016
  endloop
endfacet
facet normal -0.0 -1.27675647831893e-15 1.0
  outer loop
    vertex -11.065957352495316 35.64999999999997 2.000000000000019
    vertex -10.031259204458989 33.00764952519358 2.000000000000016
    vertex -10.05 33.14999999999997 2.000000000000016
  endloop
endfacet
facet normal -0.0 -1.27675647831893e-15 1.0
  outer loop
    vertex -11.065957352495316 35.64999999999997 2.000000000000019
    vertex -10.05 33.14999999999997 2.000000000000016
    vertex -10.031259204458989 33.292350474806355 2.000000000000016
  endloop
endfacet
facet normal -0.0 -1.27675647831893e-15 1.0
  outer loop
    vertex -11.065957352495316 35.64999999999997 2.000000000000019
    vertex -10.031259204458989 33.292350474806355 2.000000000000016
    vertex -9.976313972081442 33.42499999999997 2.000000000000016
  endloop
endfacet
facet normal -0.0 -1.27675647831893e-15 1.0
  outer loop
    vertex -11.065957352495316 35.64999999999997 2.000000000000019
    vertex -9.976313972081442 33.42499999999997 2.000000000000016
    vertex -9.888908729652602 33.53890872965257 2.000000000000016
  endloop
endfacet
facet normal -0.0 -1.27675647831893e-15 1.0
  outer loop
    vertex -11.065957352495316 35.64999999999997 2.000000000000019
    vertex -9.888908729652602 33.53890872965257 2.000000000000016
    vertex -9.775000000000002 33.626313972081405 2.000000000000016
  endloop
endfacet
facet normal -0.0 -1.27675647831893e-15 1.0
  outer loop
    vertex -11.065957352495316 35.64999999999997 2.000000000000019
    vertex -9.775000000000002 33.626313972081405 2.000000000000016
    vertex -9.642350474806388 33.681259204458954 2.000000000000016
  endloop
endfacet
facet normal -0.0 -1.27675647831893e-15 1.0
  outer loop
    vertex -11.065957352495316 35.64999999999997 2.000000000000019
    vertex -9.642350474806388 33.681259204458954 2.000000000000016
    vertex -9.500000000000002 33.69999999999997 2.000000000000016
  endloop
endfacet
facet normal -0.0 -1.27675647831893e-15 1.0
  outer loop
    vertex -11.065957352495316 35.64999999999997 2.000000000000019
    vertex -9.500000000000002 33.69999999999997 2.000000000000016
    vertex -7.000000000000001 35.64999999999997 2.000000000000019
  endloop
endfacet
facet normal 0.7667973155703031 -8.195363254998038e-16 0.641889302632609
  outer loop
    vertex -11.065957352495316 19.64999999999997 1.9999999999999991
    vertex -11.415402931405529 35.64999999999997 2.4174457040291886
    vertex -11.415402931405529 19.64999999999997 2.417445704029169
  endloop
endfacet
facet normal 0.7667973155703031 -8.195363254998038e-16 0.641889302632609
  outer loop
    vertex -11.415402931405529 35.64999999999997 2.4174457040291886
    vertex -11.065957352495316 19.64999999999997 1.9999999999999991
    vertex -11.065957352495316 35.64999999999997 2.000000000000019
  endloop
endfacet
facet normal 0.8250761495778698 -7.213949191927702e-16 0.5650215459588747
  outer loop
    vertex -11.415402931405529 19.64999999999997 2.417445704029169
    vertex -12.196188725262095 35.64999999999997 3.5575929091185414
    vertex -12.196188725262095 19.649999999999967 3.5575929091185214
  endloop
endfacet
facet normal 0.8250761495778698 -7.213949191927702e-16 0.5650215459588747
  outer loop
    vertex -12.196188725262095 35.64999999999997 3.5575929091185414
    vertex -11.415402931405529 19.64999999999997 2.417445704029169
    vertex -11.415402931405529 35.64999999999997 2.4174457040291886
  endloop
endfacet
facet normal 0.8756775885377496 -6.165408794119712e-16 0.48289622170059676
  outer loop
    vertex -12.196188725262095 19.649999999999967 3.5575929091185214
    vertex -12.863488074300156 35.64999999999997 4.767664677211102
    vertex -12.863488074300156 19.649999999999967 4.767664677211083
  endloop
endfacet
facet normal 0.8756775885377496 -6.165408794119712e-16 0.48289622170059676
  outer loop
    vertex -12.863488074300156 35.64999999999997 4.767664677211102
    vertex -12.196188725262095 19.649999999999967 3.5575929091185214
    vertex -12.196188725262095 35.64999999999997 3.5575929091185414
  endloop
endfacet
facet normal 0.9181307822901278 -5.059498808101929e-16 0.3962775121191185
  outer loop
    vertex -12.863488074300156 19.649999999999967 4.767664677211083
    vertex -13.411091708356889 35.64999999999996 6.0364012003431435
    vertex -13.411091708356889 19.649999999999963 6.036401200343124
  endloop
endfacet
facet normal 0.9181307822901278 -5.059498808101929e-16 0.3962775121191185
  outer loop
    vertex -13.411091708356889 35.64999999999996 6.0364012003431435
    vertex -12.863488074300156 19.649999999999967 4.767664677211083
    vertex -12.863488074300156 35.64999999999997 4.767664677211102
  endloop
endfacet
facet normal 0.9520407007039782 -3.906509808694928e-16 0.30597141076100287
  outer loop
    vertex -13.411091708356889 19.649999999999963 6.036401200343124
    vertex -13.833904134815807 35.64999999999996 7.351996790634164
    vertex -13.833904134815807 19.649999999999963 7.351996790634145
  endloop
endfacet
facet normal 0.9520407007039782 -3.906509808694928e-16 0.30597141076100287
  outer loop
    vertex -13.833904134815807 35.64999999999996 7.351996790634164
    vertex -13.411091708356889 19.649999999999963 6.036401200343124
    vertex -13.411091708356889 35.64999999999996 6.0364012003431435
  endloop
endfacet
facet normal 0.9770918094618594 -2.717170444446452e-16 0.2128182226280203
  outer loop
    vertex -13.833904134815807 19.649999999999963 7.351996790634145
    vertex -14.127991052545237 35.649999999999956 8.702209733092394
    vertex -14.127991052545237 19.64999999999996 8.702209733092374
  endloop
endfacet
facet normal 0.9770918094618594 -2.717170444446452e-16 0.2128182226280203
  outer loop
    vertex -14.127991052545237 35.649999999999956 8.702209733092394
    vertex -13.833904134815807 19.649999999999963 7.351996790634145
    vertex -13.833904134815807 35.64999999999996 7.351996790634164
  endloop
endfacet
facet normal 0.993051006130233 -1.5025476067579432e-16 0.11768474507654789
  outer loop
    vertex -14.127991052545237 19.64999999999996 8.702209733092374
    vertex -14.29061596086349 35.649999999999956 10.074476195684758
    vertex -14.29061596086349 19.64999999999996 10.074476195684738
  endloop
endfacet
facet normal 0.993051006130233 -1.5025476067579432e-16 0.11768474507654789
  outer loop
    vertex -14.29061596086349 35.649999999999956 10.074476195684758
    vertex -14.127991052545237 19.64999999999996 8.702209733092374
    vertex -14.127991052545237 35.649999999999956 8.702209733092394
  endloop
endfacet
facet normal 0.9997697891949934 -2.73943451634707e-17 0.021456202203524417
  outer loop
    vertex -14.29061596086349 19.64999999999996 10.074476195684738
    vertex -14.320265622881593 35.649999999999956 11.456027136730182
    vertex -14.320265622881593 19.64999999999996 11.456027136730162
  endloop
endfacet
facet normal 0.9997697891949934 -2.73943451634707e-17 0.021456202203524417
  outer loop
    vertex -14.320265622881593 35.649999999999956 11.456027136730182
    vertex -14.29061596086349 19.64999999999996 10.074476195684738
    vertex -14.29061596086349 35.649999999999956 10.074476195684758
  endloop
endfacet
facet normal 0.9971856398791105 9.572097677173929e-17 -0.07497199222969478
  outer loop
    vertex -14.320265622881593 19.64999999999996 11.456027136730162
    vertex -14.21666414628528 35.649999999999956 12.834007121783793
    vertex -14.21666414628528 19.649999999999956 12.834007121783776
  endloop
endfacet
facet normal 0.9971856398791105 9.572097677173929e-17 -0.07497199222969478
  outer loop
    vertex -14.21666414628528 35.649999999999956 12.834007121783793
    vertex -14.320265622881593 19.64999999999996 11.456027136730162
    vertex -14.320265622881593 35.649999999999956 11.456027136730182
  endloop
endfacet
facet normal 0.9853226038845114 2.179456078859767e-16 -0.17070256668909928
  outer loop
    vertex -14.21666414628528 19.649999999999956 12.834007121783776
    vertex -13.980775550533565 35.649999999999956 14.195593944412298
    vertex -13.980775550533565 19.649999999999956 14.195593944412275
  endloop
endfacet
facet normal 0.9853226038845114 2.179456078859767e-16 -0.17070256668909928
  outer loop
    vertex -13.980775550533565 35.649999999999956 14.195593944412298
    vertex -14.21666414628528 19.649999999999956 12.834007121783776
    vertex -14.21666414628528 35.649999999999956 12.834007121783793
  endloop
endfacet
facet normal 0.964291067645033 3.3814223887985434e-16 -0.2648447410465282
  outer loop
    vertex -13.980775550533565 19.649999999999956 14.195593944412275
    vertex -13.61479479658582 35.64999999999995 15.528117937780195
    vertex -13.61479479658582 19.649999999999952 15.528117937780172
  endloop
endfacet
facet normal 0.964291067645033 3.3814223887985434e-16 -0.2648447410465282
  outer loop
    vertex -13.61479479658582 35.64999999999995 15.528117937780195
    vertex -13.980775550533565 19.649999999999956 14.195593944412275
    vertex -13.980775550533565 35.649999999999956 14.195593944412298
  endloop
endfacet
facet normal 0.9342867311724306 4.551924311461965e-16 -0.3565225153551097
  outer loop
    vertex -13.61479479658582 19.649999999999952 15.528117937780172
    vertex -13.122127362626513 35.64999999999995 16.819179866843726
    vertex -13.122127362626513 19.64999999999995 16.819179866843704
  endloop
endfacet
facet normal 0.9342867311724306 4.551924311461965e-16 -0.3565225153551097
  outer loop
    vertex -13.122127362626513 35.64999999999995 16.819179866843726
    vertex -13.61479479658582 19.649999999999952 15.528117937780172
    vertex -13.61479479658582 35.64999999999995 15.528117937780195
  endloop
endfacet
facet normal 0.8955887870531803 5.680070239246484e-16 -0.44488282109406446
  outer loop
    vertex -13.122127362626513 19.64999999999995 16.819179866843704
    vertex -12.507357555836947 35.64999999999995 18.05676630415678
    vertex -12.507357555836947 19.64999999999995 18.056766304156763
  endloop
endfacet
facet normal 0.8955887870531803 5.680070239246484e-16 -0.44488282109406446
  outer loop
    vertex -12.507357555836947 35.64999999999995 18.05676630415678
    vertex -13.122127362626513 19.64999999999995 16.819179866843704
    vertex -13.122127362626513 35.64999999999995 16.819179866843726
  endloop
endfacet
facet normal 0.0 -1.0 -1.27675647831893e-15
  outer loop
    vertex -16.28808340203123 19.64999999999996 9.935010814463736
    vertex -16.203794990189486 19.649999999999956 13.080254518295638
    vertex -16.32187733849383 19.64999999999996 11.509667709137078
  endloop
endfacet
facet normal 0.0 -1.0 -1.27675647831893e-15
  outer loop
    vertex -16.203794990189486 19.649999999999956 13.080254518295638
    vertex -16.28808340203123 19.64999999999996 9.935010814463736
    vertex -16.102727635898432 19.64999999999996 8.370936134007188
  endloop
endfacet
facet normal 0.0 -1.0 -1.27675647831893e-15
  outer loop
    vertex -16.203794990189486 19.649999999999956 13.080254518295638
    vertex -16.102727635898432 19.64999999999996 8.370936134007188
    vertex -15.934935122167406 19.649999999999952 14.632156814656815
  endloop
endfacet
facet normal 0.0 -1.0 -1.27675647831893e-15
  outer loop
    vertex -15.934935122167406 19.649999999999952 14.632156814656815
    vertex -16.102727635898432 19.64999999999996 8.370936134007188
    vertex -15.767534789310046 19.649999999999963 6.831997499207249
  endloop
endfacet
facet normal 0.0 -1.0 -1.27675647831893e-15
  outer loop
    vertex -15.934935122167406 19.649999999999952 14.632156814656815
    vertex -15.767534789310046 19.649999999999963 6.831997499207249
    vertex -15.517799495532111 19.649999999999952 16.15093403172175
  endloop
endfacet
facet normal 0.0 -1.0 -1.27675647831893e-15
  outer loop
    vertex -15.517799495532111 19.649999999999952 16.15093403172175
    vertex -15.767534789310046 19.649999999999963 6.831997499207249
    vertex -15.285623856678562 19.649999999999967 5.332514848726023
  endloop
endfacet
facet normal 0.0 -1.0 -1.27675647831893e-15
  outer loop
    vertex -15.517799495532111 19.649999999999952 16.15093403172175
    vertex -15.285623856678562 19.649999999999967 5.332514848726023
    vertex -14.956269588369938 19.64999999999995 17.622453834322574
  endloop
endfacet
facet normal 0.0 -1.0 -1.27675647831893e-15
  outer loop
    vertex -14.956269588369938 19.64999999999995 17.622453834322574
    vertex -15.285623856678562 19.649999999999967 5.332514848726023
    vertex -14.661479055138987 19.649999999999967 3.886440980351701
  endloop
endfacet
facet normal 0.0 -1.0 -1.27675647831893e-15
  outer loop
    vertex -14.956269588369938 19.64999999999995 17.622453834322574
    vertex -14.661479055138987 19.649999999999967 3.886440980351701
    vertex -14.353840422163541 19.64999999999995 18.83519746178257
  endloop
endfacet
facet normal 0.0 -1.0 -1.27675647831893e-15
  outer loop
    vertex -14.353840422163541 19.64999999999995 18.83519746178257
    vertex -14.661479055138987 19.649999999999967 3.886440980351701
    vertex -14.320265622881593 19.64999999999996 11.456027136730162
  endloop
endfacet
facet normal 0.0 -1.0 -1.27675647831893e-15
  outer loop
    vertex -14.320265622881593 19.64999999999996 11.456027136730162
    vertex -14.661479055138987 19.649999999999967 3.886440980351701
    vertex -14.29061596086349 19.64999999999996 10.074476195684738
  endloop
endfacet
facet normal 0.0 -1.0 -1.27675647831893e-15
  outer loop
    vertex -14.29061596086349 19.64999999999996 10.074476195684738
    vertex -14.661479055138987 19.649999999999967 3.886440980351701
    vertex -13.900908098574261 19.64999999999997 2.5072317191755227
  endloop
endfacet
facet normal 0.0 -1.0 -1.27675647831893e-15
  outer loop
    vertex -14.29061596086349 19.64999999999996 10.074476195684738
    vertex -13.900908098574261 19.64999999999997 2.5072317191755227
    vertex -14.127991052545237 19.64999999999996 8.702209733092374
  endloop
endfacet
facet normal 0.0 -1.0 -1.27675647831893e-15
  outer loop
    vertex -14.127991052545237 19.64999999999996 8.702209733092374
    vertex -13.900908098574261 19.64999999999997 2.5072317191755227
    vertex -13.833904134815807 19.649999999999963 7.351996790634145
  endloop
endfacet
facet normal 0.0 -1.0 -1.27675647831893e-15
  outer loop
    vertex -13.833904134815807 19.649999999999963 7.351996790634145
    vertex -13.900908098574261 19.64999999999997 2.5072317191755227
    vertex -13.010988156404855 19.64999999999997 1.2077207101366838
  endloop
endfacet
facet normal 0.0 -1.0 -1.27675647831893e-15
  outer loop
    vertex -13.833904134815807 19.649999999999963 7.351996790634145
    vertex -13.010988156404855 19.64999999999997 1.2077207101366838
    vertex -13.411091708356889 19.649999999999963 6.036401200343124
  endloop
endfacet
facet normal 0.0 -1.0 -1.27675647831893e-15
  outer loop
    vertex -13.411091708356889 19.649999999999963 6.036401200343124
    vertex -13.010988156404855 19.64999999999997 1.2077207101366838
    vertex -12.863488074300156 19.649999999999967 4.767664677211083
  endloop
endfacet
facet normal 0.0 -1.0 -1.27675647831893e-15
  outer loop
    vertex -12.863488074300156 19.649999999999967 4.767664677211083
    vertex -13.010988156404855 19.64999999999997 1.2077207101366838
    vertex -12.0 19.649999999999974 0.0
  endloop
endfacet
facet normal 0.0 -1.0 -1.27675647831893e-15
  outer loop
    vertex -12.863488074300156 19.649999999999967 4.767664677211083
    vertex -12.0 19.649999999999974 0.0
    vertex -12.196188725262095 19.649999999999967 3.5575929091185214
  endloop
endfacet
facet normal 0.0 -1.0 -1.27675647831893e-15
  outer loop
    vertex -12.196188725262095 19.649999999999967 3.5575929091185214
    vertex -12.0 19.649999999999974 0.0
    vertex -11.415402931405529 19.64999999999997 2.417445704029169
  endloop
endfacet
facet normal 0.0 -1.0 -1.27675647831893e-15
  outer loop
    vertex -11.415402931405529 19.64999999999997 2.417445704029169
    vertex -12.0 19.649999999999974 0.0
    vertex -9.500000000000002 19.649999999999974 0.0
  endloop
endfacet
facet normal 0.0 -1.0 -1.27675647831893e-15
  outer loop
    vertex -11.415402931405529 19.64999999999997 2.417445704029169
    vertex -9.500000000000002 19.649999999999974 0.0
    vertex -11.065957352495316 19.64999999999997 1.9999999999999991
  endloop
endfacet
facet normal 0.0 -1.0 -1.27675647831893e-15
  outer loop
    vertex -11.065957352495316 19.64999999999997 1.9999999999999991
    vertex -9.500000000000002 19.649999999999974 0.0
    vertex -7.000000000000001 19.64999999999997 1.9999999999999991
  endloop
endfacet
facet normal 0.0 -1.0 -1.27675647831893e-15
  outer loop
    vertex -7.000000000000001 19.64999999999997 1.9999999999999991
    vertex -9.500000000000002 19.649999999999974 0.0
    vertex -7.000000000000001 19.649999999999974 0.0
  endloop
endfacet
facet normal 0.0 -1.0 -1.27675647831893e-15
  outer loop
    vertex -14.353840422163541 19.64999999999995 18.83519746178257
    vertex -13.980775550533565 19.649999999999956 14.195593944412275
    vertex -12.778777116922527 19.64999999999995 18.799533666880464
  endloop
endfacet
facet normal 0.0 -1.0 -1.27675647831893e-15
  outer loop
    vertex -13.980775550533565 19.649999999999956 14.195593944412275
    vertex -14.353840422163541 19.64999999999995 18.83519746178257
    vertex -14.21666414628528 19.649999999999956 12.834007121783776
  endloop
endfacet
facet normal 0.0 -1.0 -1.27675647831893e-15
  outer loop
    vertex -14.21666414628528 19.649999999999956 12.834007121783776
    vertex -14.353840422163541 19.64999999999995 18.83519746178257
    vertex -14.320265622881593 19.64999999999996 11.456027136730162
  endloop
endfacet
facet normal 0.0 -1.0 -1.27675647831893e-15
  outer loop
    vertex -12.778777116922527 19.64999999999995 18.799533666880464
    vertex -13.980775550533565 19.649999999999956 14.195593944412275
    vertex -13.61479479658582 19.649999999999952 15.528117937780172
  endloop
endfacet
facet normal 0.0 -1.0 -1.27675647831893e-15
  outer loop
    vertex -12.778777116922527 19.64999999999995 18.799533666880464
    vertex -13.61479479658582 19.649999999999952 15.528117937780172
    vertex -13.122127362626513 19.64999999999995 16.819179866843704
  endloop
endfacet
facet normal 0.0 -1.0 -1.27675647831893e-15
  outer loop
    vertex -12.778777116922527 19.64999999999995 18.799533666880464
    vertex -13.122127362626513 19.64999999999995 16.819179866843704
    vertex -12.507357555836947 19.64999999999995 18.056766304156763
  endloop
endfacet
facet normal 0.0 -1.0 -1.27675647831893e-15
  outer loop
    vertex -12.778777116922527 19.64999999999995 18.799533666880464
    vertex -12.507357555836947 19.64999999999995 18.056766304156763
    vertex -11.976205855075413 19.64999999999995 19.977511425722557
  endloop
endfacet
facet normal 0.0 -1.0 -1.27675647831893e-15
  outer loop
    vertex -11.976205855075413 19.64999999999995 19.977511425722557
    vertex -12.507357555836947 19.64999999999995 18.056766304156763
    vertex -11.976205855075413 19.64999999999995 18.90860852398146
  endloop
endfacet
facet normal 0.0 1.0 1.27675647831893e-15
  outer loop
    vertex -14.353840422163541 35.64999999999995 18.835197461782588
    vertex -14.21666414628528 35.649999999999956 12.834007121783793
    vertex -14.320265622881593 35.649999999999956 11.456027136730182
  endloop
endfacet
facet normal 0.0 1.0 1.27675647831893e-15
  outer loop
    vertex -14.21666414628528 35.649999999999956 12.834007121783793
    vertex -14.353840422163541 35.64999999999995 18.835197461782588
    vertex -13.980775550533565 35.649999999999956 14.195593944412298
  endloop
endfacet
facet normal 0.0 1.0 1.27675647831893e-15
  outer loop
    vertex -13.980775550533565 35.649999999999956 14.195593944412298
    vertex -14.353840422163541 35.64999999999995 18.835197461782588
    vertex -12.778777116922527 35.64999999999995 18.79953366688048
  endloop
endfacet
facet normal 0.0 1.0 1.27675647831893e-15
  outer loop
    vertex -13.980775550533565 35.649999999999956 14.195593944412298
    vertex -12.778777116922527 35.64999999999995 18.79953366688048
    vertex -13.61479479658582 35.64999999999995 15.528117937780195
  endloop
endfacet
facet normal 0.0 1.0 1.27675647831893e-15
  outer loop
    vertex -13.61479479658582 35.64999999999995 15.528117937780195
    vertex -12.778777116922527 35.64999999999995 18.79953366688048
    vertex -13.122127362626513 35.64999999999995 16.819179866843726
  endloop
endfacet
facet normal 0.0 1.0 1.27675647831893e-15
  outer loop
    vertex -13.122127362626513 35.64999999999995 16.819179866843726
    vertex -12.778777116922527 35.64999999999995 18.79953366688048
    vertex -12.507357555836947 35.64999999999995 18.05676630415678
  endloop
endfacet
facet normal 0.0 1.0 1.27675647831893e-15
  outer loop
    vertex -12.507357555836947 35.64999999999995 18.05676630415678
    vertex -12.778777116922527 35.64999999999995 18.79953366688048
    vertex -11.976205855075413 35.64999999999995 19.977511425722575
  endloop
endfacet
facet normal 0.0 1.0 1.27675647831893e-15
  outer loop
    vertex -12.507357555836947 35.64999999999995 18.05676630415678
    vertex -11.976205855075413 35.64999999999995 19.977511425722575
    vertex -11.976205855075413 35.64999999999995 18.908608523981478
  endloop
endfacet
facet normal 0.0 1.0 1.27675647831893e-15
  outer loop
    vertex -16.203794990189486 35.649999999999956 13.080254518295657
    vertex -16.28808340203123 35.649999999999956 9.935010814463755
    vertex -16.32187733849383 35.649999999999956 11.509667709137098
  endloop
endfacet
facet normal 0.0 1.0 1.27675647831893e-15
  outer loop
    vertex -16.28808340203123 35.649999999999956 9.935010814463755
    vertex -16.203794990189486 35.649999999999956 13.080254518295657
    vertex -16.102727635898432 35.649999999999956 8.370936134007207
  endloop
endfacet
facet normal 0.0 1.0 1.27675647831893e-15
  outer loop
    vertex -16.102727635898432 35.649999999999956 8.370936134007207
    vertex -16.203794990189486 35.649999999999956 13.080254518295657
    vertex -15.934935122167406 35.64999999999995 14.632156814656835
  endloop
endfacet
facet normal 0.0 1.0 1.27675647831893e-15
  outer loop
    vertex -16.102727635898432 35.649999999999956 8.370936134007207
    vertex -15.934935122167406 35.64999999999995 14.632156814656835
    vertex -15.767534789310046 35.64999999999996 6.831997499207269
  endloop
endfacet
facet normal 0.0 1.0 1.27675647831893e-15
  outer loop
    vertex -15.767534789310046 35.64999999999996 6.831997499207269
    vertex -15.934935122167406 35.64999999999995 14.632156814656835
    vertex -15.517799495532111 35.64999999999995 16.15093403172177
  endloop
endfacet
facet normal 0.0 1.0 1.27675647831893e-15
  outer loop
    vertex -15.767534789310046 35.64999999999996 6.831997499207269
    vertex -15.517799495532111 35.64999999999995 16.15093403172177
    vertex -15.285623856678562 35.64999999999997 5.332514848726044
  endloop
endfacet
facet normal 0.0 1.0 1.27675647831893e-15
  outer loop
    vertex -15.285623856678562 35.64999999999997 5.332514848726044
    vertex -15.517799495532111 35.64999999999995 16.15093403172177
    vertex -14.956269588369938 35.64999999999995 17.6224538343226
  endloop
endfacet
facet normal 0.0 1.0 1.27675647831893e-15
  outer loop
    vertex -15.285623856678562 35.64999999999997 5.332514848726044
    vertex -14.956269588369938 35.64999999999995 17.6224538343226
    vertex -14.661479055138987 35.64999999999997 3.8864409803517206
  endloop
endfacet
facet normal 0.0 1.0 1.27675647831893e-15
  outer loop
    vertex -14.661479055138987 35.64999999999997 3.8864409803517206
    vertex -14.956269588369938 35.64999999999995 17.6224538343226
    vertex -14.353840422163541 35.64999999999995 18.835197461782588
  endloop
endfacet
facet normal 0.0 1.0 1.27675647831893e-15
  outer loop
    vertex -14.661479055138987 35.64999999999997 3.8864409803517206
    vertex -14.353840422163541 35.64999999999995 18.835197461782588
    vertex -14.320265622881593 35.649999999999956 11.456027136730182
  endloop
endfacet
facet normal 0.0 1.0 1.27675647831893e-15
  outer loop
    vertex -14.661479055138987 35.64999999999997 3.8864409803517206
    vertex -14.320265622881593 35.649999999999956 11.456027136730182
    vertex -14.29061596086349 35.649999999999956 10.074476195684758
  endloop
endfacet
facet normal 0.0 1.0 1.27675647831893e-15
  outer loop
    vertex -14.661479055138987 35.64999999999997 3.8864409803517206
    vertex -14.29061596086349 35.649999999999956 10.074476195684758
    vertex -13.900908098574261 35.64999999999997 2.5072317191755427
  endloop
endfacet
facet normal 0.0 1.0 1.27675647831893e-15
  outer loop
    vertex -13.900908098574261 35.64999999999997 2.5072317191755427
    vertex -14.29061596086349 35.649999999999956 10.074476195684758
    vertex -14.127991052545237 35.649999999999956 8.702209733092394
  endloop
endfacet
facet normal 0.0 1.0 1.27675647831893e-15
  outer loop
    vertex -13.900908098574261 35.64999999999997 2.5072317191755427
    vertex -14.127991052545237 35.649999999999956 8.702209733092394
    vertex -13.833904134815807 35.64999999999996 7.351996790634164
  endloop
endfacet
facet normal 0.0 1.0 1.27675647831893e-15
  outer loop
    vertex -13.900908098574261 35.64999999999997 2.5072317191755427
    vertex -13.833904134815807 35.64999999999996 7.351996790634164
    vertex -13.010988156404855 35.64999999999997 1.2077207101367036
  endloop
endfacet
facet normal 0.0 1.0 1.27675647831893e-15
  outer loop
    vertex -13.010988156404855 35.64999999999997 1.2077207101367036
    vertex -13.833904134815807 35.64999999999996 7.351996790634164
    vertex -13.411091708356889 35.64999999999996 6.0364012003431435
  endloop
endfacet
facet normal 0.0 1.0 1.27675647831893e-15
  outer loop
    vertex -13.010988156404855 35.64999999999997 1.2077207101367036
    vertex -13.411091708356889 35.64999999999996 6.0364012003431435
    vertex -12.863488074300156 35.64999999999997 4.767664677211102
  endloop
endfacet
facet normal 0.0 1.0 1.27675647831893e-15
  outer loop
    vertex -13.010988156404855 35.64999999999997 1.2077207101367036
    vertex -12.863488074300156 35.64999999999997 4.767664677211102
    vertex -12.0 35.64999999999997 1.973976537783528e-14
  endloop
endfacet
facet normal 0.0 1.0 1.27675647831893e-15
  outer loop
    vertex -12.0 35.64999999999997 1.973976537783528e-14
    vertex -12.863488074300156 35.64999999999997 4.767664677211102
    vertex -12.196188725262095 35.64999999999997 3.5575929091185414
  endloop
endfacet
facet normal 0.0 1.0 1.27675647831893e-15
  outer loop
    vertex -12.0 35.64999999999997 1.973976537783528e-14
    vertex -12.196188725262095 35.64999999999997 3.5575929091185414
    vertex -11.415402931405529 35.64999999999997 2.4174457040291886
  endloop
endfacet
facet normal 0.0 1.0 1.27675647831893e-15
  outer loop
    vertex -12.0 35.64999999999997 1.973976537783528e-14
    vertex -11.415402931405529 35.64999999999997 2.4174457040291886
    vertex -11.065957352495316 35.64999999999997 2.000000000000019
  endloop
endfacet
facet normal 0.0 1.0 1.27675647831893e-15
  outer loop
    vertex -12.0 35.64999999999997 1.973976537783528e-14
    vertex -11.065957352495316 35.64999999999997 2.000000000000019
    vertex -7.000000000000001 35.64999999999997 1.973976537783528e-14
  endloop
endfacet
facet normal 0.0 1.0 1.27675647831893e-15
  outer loop
    vertex -7.000000000000001 35.64999999999997 1.973976537783528e-14
    vertex -11.065957352495316 35.64999999999997 2.000000000000019
    vertex -7.000000000000001 35.64999999999997 2.000000000000019
  endloop
endfacet
facet normal -0.9914448613738109 -0.13052619222004797 -1.6665016150724816e-16
  outer loop
    vertex -8.968740795541013 22.29235047480636 2.8199664825478975e-15
    vertex -8.950000000000001 22.14999999999997 2.0000000000000018
    vertex -8.968740795541013 22.292350474806355 2.0000000000000018
  endloop
endfacet
facet normal -0.9914448613738109 -0.13052619222004797 -1.6665016150724816e-16
  outer loop
    vertex -8.950000000000001 22.14999999999997 2.0000000000000018
    vertex -8.968740795541013 22.29235047480636 2.8199664825478975e-15
    vertex -8.950000000000001 22.149999999999974 2.8199664825478975e-15
  endloop
endfacet
facet normal -0.9914448613738097 0.13052619222005699 1.6665016150725967e-16
  outer loop
    vertex -8.950000000000001 22.149999999999974 2.8199664825478975e-15
    vertex -8.968740795541013 22.00764952519358 2.0000000000000018
    vertex -8.950000000000001 22.14999999999997 2.0000000000000018
  endloop
endfacet
facet normal -0.9914448613738097 0.13052619222005699 1.6665016150725967e-16
  outer loop
    vertex -8.968740795541013 22.00764952519358 2.0000000000000018
    vertex -8.950000000000001 22.149999999999974 2.8199664825478975e-15
    vertex -8.968740795541013 22.007649525193585 2.8199664825478975e-15
  endloop
endfacet
facet normal -0.9238795325112873 0.38268343236508884 4.885935514174513e-16
  outer loop
    vertex -8.968740795541013 22.007649525193585 2.8199664825478975e-15
    vertex -9.02368602791856 21.874999999999968 2.0000000000000018
    vertex -8.968740795541013 22.00764952519358 2.0000000000000018
  endloop
endfacet
facet normal -0.9238795325112873 0.38268343236508884 4.885935514174513e-16
  outer loop
    vertex -9.02368602791856 21.874999999999968 2.0000000000000018
    vertex -8.968740795541013 22.007649525193585 2.8199664825478975e-15
    vertex -9.02368602791856 21.87499999999997 2.8199664825478975e-15
  endloop
endfacet
facet normal -0.7933533402912379 0.6087614290087172 7.772400982375691e-16
  outer loop
    vertex -9.02368602791856 21.87499999999997 2.8199664825478975e-15
    vertex -9.1110912703474 21.761091270347368 2.0000000000000018
    vertex -9.02368602791856 21.874999999999968 2.0000000000000018
  endloop
endfacet
facet normal -0.7933533402912379 0.6087614290087172 7.772400982375691e-16
  outer loop
    vertex -9.1110912703474 21.761091270347368 2.0000000000000018
    vertex -9.02368602791856 21.87499999999997 2.8199664825478975e-15
    vertex -9.1110912703474 21.76109127034737 2.8199664825478975e-15
  endloop
endfacet
facet normal -0.6087614290087185 0.7933533402912367 1.012919016812799e-15
  outer loop
    vertex -9.1110912703474 21.761091270347368 2.0000000000000018
    vertex -9.225000000000001 21.67368602791853 2.8199664825478975e-15
    vertex -9.225000000000001 21.673686027918528 2.0000000000000018
  endloop
endfacet
facet normal -0.6087614290087185 0.7933533402912367 1.012919016812799e-15
  outer loop
    vertex -9.225000000000001 21.67368602791853 2.8199664825478975e-15
    vertex -9.1110912703474 21.761091270347368 2.0000000000000018
    vertex -9.1110912703474 21.76109127034737 2.8199664825478975e-15
  endloop
endfacet
facet normal -0.38268343236509056 0.9238795325112865 1.1795691783200496e-15
  outer loop
    vertex -9.225000000000001 21.673686027918528 2.0000000000000018
    vertex -9.357649525193613 21.618740795540987 2.8199664825478975e-15
    vertex -9.357649525193613 21.618740795540983 2.0000000000000018
  endloop
endfacet
facet normal -0.38268343236509056 0.9238795325112865 1.1795691783200496e-15
  outer loop
    vertex -9.357649525193613 21.618740795540987 2.8199664825478975e-15
    vertex -9.225000000000001 21.673686027918528 2.0000000000000018
    vertex -9.225000000000001 21.67368602791853 2.8199664825478975e-15
  endloop
endfacet
facet normal -0.13052619222005007 0.9914448613738106 1.2658336496550262e-15
  outer loop
    vertex -9.357649525193613 21.618740795540983 2.0000000000000018
    vertex -9.500000000000002 21.599999999999973 2.8199664825478975e-15
    vertex -9.500000000000002 21.59999999999997 2.0000000000000018
  endloop
endfacet
facet normal -0.13052619222005007 0.9914448613738106 1.2658336496550262e-15
  outer loop
    vertex -9.500000000000002 21.599999999999973 2.8199664825478975e-15
    vertex -9.357649525193613 21.618740795540983 2.0000000000000018
    vertex -9.357649525193613 21.618740795540987 2.8199664825478975e-15
  endloop
endfacet
facet normal 0.1305261922200525 0.9914448613738104 1.2658336496550258e-15
  outer loop
    vertex -9.500000000000002 21.59999999999997 2.0000000000000018
    vertex -9.642350474806388 21.618740795540987 2.8199664825478975e-15
    vertex -9.642350474806388 21.618740795540983 2.0000000000000018
  endloop
endfacet
facet normal 0.1305261922200525 0.9914448613738104 1.2658336496550258e-15
  outer loop
    vertex -9.642350474806388 21.618740795540987 2.8199664825478975e-15
    vertex -9.500000000000002 21.59999999999997 2.0000000000000018
    vertex -9.500000000000002 21.599999999999973 2.8199664825478975e-15
  endloop
endfacet
facet normal 0.3826834323650892 0.9238795325112872 1.1795691783200504e-15
  outer loop
    vertex -9.642350474806388 21.618740795540983 2.0000000000000018
    vertex -9.775000000000002 21.67368602791853 2.8199664825478975e-15
    vertex -9.775000000000002 21.673686027918528 2.0000000000000018
  endloop
endfacet
facet normal 0.3826834323650892 0.9238795325112872 1.1795691783200504e-15
  outer loop
    vertex -9.775000000000002 21.67368602791853 2.8199664825478975e-15
    vertex -9.642350474806388 21.618740795540983 2.0000000000000018
    vertex -9.642350474806388 21.618740795540987 2.8199664825478975e-15
  endloop
endfacet
facet normal 0.6087614290087218 0.7933533402912343 1.012919016812796e-15
  outer loop
    vertex -9.775000000000002 21.673686027918528 2.0000000000000018
    vertex -9.888908729652602 21.76109127034737 2.8199664825478975e-15
    vertex -9.888908729652602 21.761091270347368 2.0000000000000018
  endloop
endfacet
facet normal 0.6087614290087218 0.7933533402912343 1.012919016812796e-15
  outer loop
    vertex -9.888908729652602 21.76109127034737 2.8199664825478975e-15
    vertex -9.775000000000002 21.673686027918528 2.0000000000000018
    vertex -9.775000000000002 21.67368602791853 2.8199664825478975e-15
  endloop
endfacet
facet normal 0.7933533402912379 0.6087614290087172 7.772400982375691e-16
  outer loop
    vertex -9.888908729652602 21.76109127034737 2.8199664825478975e-15
    vertex -9.976313972081442 21.87499999999997 2.0000000000000018
    vertex -9.888908729652602 21.761091270347368 2.0000000000000018
  endloop
endfacet
facet normal 0.7933533402912379 0.6087614290087172 7.772400982375691e-16
  outer loop
    vertex -9.976313972081442 21.87499999999997 2.0000000000000018
    vertex -9.888908729652602 21.76109127034737 2.8199664825478975e-15
    vertex -9.976313972081442 21.87499999999997 2.8199664825478975e-15
  endloop
endfacet
facet normal 0.9238795325112841 0.38268343236509633 4.885935514174608e-16
  outer loop
    vertex -9.976313972081442 21.87499999999997 2.8199664825478975e-15
    vertex -10.031259204458989 22.00764952519358 2.0000000000000018
    vertex -9.976313972081442 21.87499999999997 2.0000000000000018
  endloop
endfacet
facet normal 0.9238795325112841 0.38268343236509633 4.885935514174608e-16
  outer loop
    vertex -10.031259204458989 22.00764952519358 2.0000000000000018
    vertex -9.976313972081442 21.87499999999997 2.8199664825478975e-15
    vertex -10.031259204458989 22.007649525193585 2.8199664825478975e-15
  endloop
endfacet
facet normal 0.9914448613738109 0.13052619222004797 1.6665016150724816e-16
  outer loop
    vertex -10.031259204458989 22.007649525193585 2.8199664825478975e-15
    vertex -10.05 22.14999999999997 2.0000000000000018
    vertex -10.031259204458989 22.00764952519358 2.0000000000000018
  endloop
endfacet
facet normal 0.9914448613738109 0.13052619222004797 1.6665016150724816e-16
  outer loop
    vertex -10.05 22.14999999999997 2.0000000000000018
    vertex -10.031259204458989 22.007649525193585 2.8199664825478975e-15
    vertex -10.05 22.149999999999974 2.8199664825478975e-15
  endloop
endfacet
facet normal 0.9914448613738109 -0.13052619222004766 -1.6665016150724776e-16
  outer loop
    vertex -10.05 22.149999999999974 2.8199664825478975e-15
    vertex -10.031259204458989 22.292350474806355 2.0000000000000018
    vertex -10.05 22.14999999999997 2.0000000000000018
  endloop
endfacet
facet normal 0.9914448613738109 -0.13052619222004766 -1.6665016150724776e-16
  outer loop
    vertex -10.031259204458989 22.292350474806355 2.0000000000000018
    vertex -10.05 22.149999999999974 2.8199664825478975e-15
    vertex -10.031259204458989 22.29235047480636 2.8199664825478975e-15
  endloop
endfacet
facet normal 0.9238795325112841 -0.38268343236509633 -4.885935514174608e-16
  outer loop
    vertex -10.031259204458989 22.29235047480636 2.8199664825478975e-15
    vertex -9.976313972081442 22.42499999999997 2.0000000000000018
    vertex -10.031259204458989 22.292350474806355 2.0000000000000018
  endloop
endfacet
facet normal 0.9238795325112841 -0.38268343236509633 -4.885935514174608e-16
  outer loop
    vertex -9.976313972081442 22.42499999999997 2.0000000000000018
    vertex -10.031259204458989 22.29235047480636 2.8199664825478975e-15
    vertex -9.976313972081442 22.424999999999972 2.8199664825478975e-15
  endloop
endfacet
facet normal 0.7933533402912379 -0.6087614290087172 -7.772400982375691e-16
  outer loop
    vertex -9.976313972081442 22.424999999999972 2.8199664825478975e-15
    vertex -9.888908729652602 22.538908729652572 2.0000000000000018
    vertex -9.976313972081442 22.42499999999997 2.0000000000000018
  endloop
endfacet
facet normal 0.7933533402912379 -0.6087614290087172 -7.772400982375691e-16
  outer loop
    vertex -9.888908729652602 22.538908729652572 2.0000000000000018
    vertex -9.976313972081442 22.424999999999972 2.8199664825478975e-15
    vertex -9.888908729652602 22.538908729652572 2.8199664825478975e-15
  endloop
endfacet
facet normal 0.608761429008717 -0.7933533402912379 -1.0129190168128007e-15
  outer loop
    vertex -9.775 22.626313972081412 2.8199664825478975e-15
    vertex -9.888908729652602 22.538908729652572 2.0000000000000018
    vertex -9.888908729652602 22.538908729652572 2.8199664825478975e-15
  endloop
endfacet
facet normal 0.608761429008717 -0.7933533402912379 -1.0129190168128007e-15
  outer loop
    vertex -9.888908729652602 22.538908729652572 2.0000000000000018
    vertex -9.775 22.626313972081412 2.8199664825478975e-15
    vertex -9.775 22.62631397208141 2.0000000000000018
  endloop
endfacet
facet normal 0.3826834323650926 -0.9238795325112855 -1.1795691783200484e-15
  outer loop
    vertex -9.642350474806388 22.68125920445896 2.8199664825478975e-15
    vertex -9.775 22.62631397208141 2.0000000000000018
    vertex -9.775 22.626313972081412 2.8199664825478975e-15
  endloop
endfacet
facet normal 0.3826834323650926 -0.9238795325112855 -1.1795691783200484e-15
  outer loop
    vertex -9.775 22.62631397208141 2.0000000000000018
    vertex -9.642350474806388 22.68125920445896 2.8199664825478975e-15
    vertex -9.642350474806388 22.68125920445896 2.0000000000000018
  endloop
endfacet
facet normal 0.13052619222005007 -0.9914448613738106 -1.2658336496550262e-15
  outer loop
    vertex -9.500000000000002 22.69999999999997 2.8199664825478975e-15
    vertex -9.642350474806388 22.68125920445896 2.0000000000000018
    vertex -9.642350474806388 22.68125920445896 2.8199664825478975e-15
  endloop
endfacet
facet normal 0.13052619222005007 -0.9914448613738106 -1.2658336496550262e-15
  outer loop
    vertex -9.642350474806388 22.68125920445896 2.0000000000000018
    vertex -9.500000000000002 22.69999999999997 2.8199664825478975e-15
    vertex -9.500000000000002 22.69999999999997 2.0000000000000018
  endloop
endfacet
facet normal -0.1305261922200525 -0.9914448613738104 -1.2658336496550258e-15
  outer loop
    vertex -9.357649525193613 22.68125920445896 2.8199664825478975e-15
    vertex -9.500000000000002 22.69999999999997 2.0000000000000018
    vertex -9.500000000000002 22.69999999999997 2.8199664825478975e-15
  endloop
endfacet
facet normal -0.1305261922200525 -0.9914448613738104 -1.2658336496550258e-15
  outer loop
    vertex -9.500000000000002 22.69999999999997 2.0000000000000018
    vertex -9.357649525193613 22.68125920445896 2.8199664825478975e-15
    vertex -9.357649525193613 22.681259204458957 2.0000000000000018
  endloop
endfacet
facet normal -0.3826834323650871 -0.923879532511288 -1.1795691783200514e-15
  outer loop
    vertex -9.225 22.626313972081412 2.8199664825478975e-15
    vertex -9.357649525193613 22.681259204458957 2.0000000000000018
    vertex -9.357649525193613 22.68125920445896 2.8199664825478975e-15
  endloop
endfacet
facet normal -0.3826834323650871 -0.923879532511288 -1.1795691783200514e-15
  outer loop
    vertex -9.357649525193613 22.681259204458957 2.0000000000000018
    vertex -9.225 22.626313972081412 2.8199664825478975e-15
    vertex -9.225 22.62631397208141 2.0000000000000018
  endloop
endfacet
facet normal -0.6087614290087218 -0.7933533402912343 -1.012919016812796e-15
  outer loop
    vertex -9.1110912703474 22.538908729652572 2.8199664825478975e-15
    vertex -9.225 22.62631397208141 2.0000000000000018
    vertex -9.225 22.626313972081412 2.8199664825478975e-15
  endloop
endfacet
facet normal -0.6087614290087218 -0.7933533402912343 -1.012919016812796e-15
  outer loop
    vertex -9.225 22.62631397208141 2.0000000000000018
    vertex -9.1110912703474 22.538908729652572 2.8199664825478975e-15
    vertex -9.1110912703474 22.538908729652572 2.0000000000000018
  endloop
endfacet
facet normal -0.7933533402912388 -0.608761429008716 -7.772400982375676e-16
  outer loop
    vertex -9.1110912703474 22.538908729652572 2.8199664825478975e-15
    vertex -9.02368602791856 22.42499999999997 2.0000000000000018
    vertex -9.1110912703474 22.538908729652572 2.0000000000000018
  endloop
endfacet
facet normal -0.7933533402912388 -0.608761429008716 -7.772400982375676e-16
  outer loop
    vertex -9.02368602791856 22.42499999999997 2.0000000000000018
    vertex -9.1110912703474 22.538908729652572 2.8199664825478975e-15
    vertex -9.02368602791856 22.424999999999972 2.8199664825478975e-15
  endloop
endfacet
facet normal -0.9238795325112841 -0.38268343236509633 -4.885935514174608e-16
  outer loop
    vertex -9.02368602791856 22.424999999999972 2.8199664825478975e-15
    vertex -8.968740795541013 22.292350474806355 2.0000000000000018
    vertex -9.02368602791856 22.42499999999997 2.0000000000000018
  endloop
endfacet
facet normal -0.9238795325112841 -0.38268343236509633 -4.885935514174608e-16
  outer loop
    vertex -8.968740795541013 22.292350474806355 2.0000000000000018
    vertex -9.02368602791856 22.424999999999972 2.8199664825478975e-15
    vertex -8.968740795541013 22.29235047480636 2.8199664825478975e-15
  endloop
endfacet
facet normal -0.9914448613738096 0.1305261922200586 1.6665016150726174e-16
  outer loop
    vertex -8.950000000000001 33.14999999999997 1.6919798895287383e-14
    vertex -8.968740795541013 33.00764952519358 2.000000000000016
    vertex -8.950000000000001 33.14999999999997 2.000000000000016
  endloop
endfacet
facet normal -0.9914448613738096 0.1305261922200586 1.6665016150726174e-16
  outer loop
    vertex -8.968740795541013 33.00764952519358 2.000000000000016
    vertex -8.950000000000001 33.14999999999997 1.6919798895287383e-14
    vertex -8.968740795541013 33.007649525193585 1.6919798895287383e-14
  endloop
endfacet
facet normal -0.923879532511288 0.3826834323650871 4.885935514174491e-16
  outer loop
    vertex -8.968740795541013 33.007649525193585 1.6919798895287383e-14
    vertex -9.02368602791856 32.874999999999964 2.000000000000016
    vertex -8.968740795541013 33.00764952519358 2.000000000000016
  endloop
endfacet
facet normal -0.923879532511288 0.3826834323650871 4.885935514174491e-16
  outer loop
    vertex -9.02368602791856 32.874999999999964 2.000000000000016
    vertex -8.968740795541013 33.007649525193585 1.6919798895287383e-14
    vertex -9.02368602791856 32.874999999999964 1.6919798895287383e-14
  endloop
endfacet
facet normal -0.7933533402912379 0.6087614290087172 7.772400982375691e-16
  outer loop
    vertex -9.02368602791856 32.874999999999964 1.6919798895287383e-14
    vertex -9.1110912703474 32.761091270347364 2.000000000000016
    vertex -9.02368602791856 32.874999999999964 2.000000000000016
  endloop
endfacet
facet normal -0.7933533402912379 0.6087614290087172 7.772400982375691e-16
  outer loop
    vertex -9.1110912703474 32.761091270347364 2.000000000000016
    vertex -9.02368602791856 32.874999999999964 1.6919798895287383e-14
    vertex -9.1110912703474 32.76109127034737 1.6919798895287383e-14
  endloop
endfacet
facet normal -0.6087614290087248 0.7933533402912322 1.0129190168127934e-15
  outer loop
    vertex -9.1110912703474 32.761091270347364 2.000000000000016
    vertex -9.225000000000001 32.67368602791853 1.6919798895287383e-14
    vertex -9.225000000000001 32.67368602791853 2.000000000000016
  endloop
endfacet
facet normal -0.6087614290087248 0.7933533402912322 1.0129190168127934e-15
  outer loop
    vertex -9.225000000000001 32.67368602791853 1.6919798895287383e-14
    vertex -9.1110912703474 32.761091270347364 2.000000000000016
    vertex -9.1110912703474 32.76109127034737 1.6919798895287383e-14
  endloop
endfacet
facet normal -0.38268343236509056 0.9238795325112865 1.1795691783200496e-15
  outer loop
    vertex -9.225000000000001 32.67368602791853 2.000000000000016
    vertex -9.357649525193613 32.61874079554098 1.6919798895287383e-14
    vertex -9.357649525193613 32.61874079554098 2.000000000000016
  endloop
endfacet
facet normal -0.38268343236509056 0.9238795325112865 1.1795691783200496e-15
  outer loop
    vertex -9.357649525193613 32.61874079554098 1.6919798895287383e-14
    vertex -9.225000000000001 32.67368602791853 2.000000000000016
    vertex -9.225000000000001 32.67368602791853 1.6919798895287383e-14
  endloop
endfacet
facet normal -0.130526192220038 0.9914448613738123 1.2658336496550284e-15
  outer loop
    vertex -9.357649525193613 32.61874079554098 2.000000000000016
    vertex -9.500000000000002 32.59999999999997 1.6919798895287383e-14
    vertex -9.500000000000002 32.599999999999966 2.000000000000016
  endloop
endfacet
facet normal -0.130526192220038 0.9914448613738123 1.2658336496550284e-15
  outer loop
    vertex -9.500000000000002 32.59999999999997 1.6919798895287383e-14
    vertex -9.357649525193613 32.61874079554098 2.000000000000016
    vertex -9.357649525193613 32.61874079554098 1.6919798895287383e-14
  endloop
endfacet
facet normal 0.130526192220038 0.9914448613738123 1.2658336496550284e-15
  outer loop
    vertex -9.500000000000002 32.599999999999966 2.000000000000016
    vertex -9.642350474806388 32.61874079554098 1.6919798895287383e-14
    vertex -9.642350474806388 32.61874079554098 2.000000000000016
  endloop
endfacet
facet normal 0.130526192220038 0.9914448613738123 1.2658336496550284e-15
  outer loop
    vertex -9.642350474806388 32.61874079554098 1.6919798895287383e-14
    vertex -9.500000000000002 32.599999999999966 2.000000000000016
    vertex -9.500000000000002 32.59999999999997 1.6919798895287383e-14
  endloop
endfacet
facet normal 0.38268343236509056 0.9238795325112865 1.1795691783200496e-15
  outer loop
    vertex -9.642350474806388 32.61874079554098 2.000000000000016
    vertex -9.775 32.67368602791853 1.6919798895287383e-14
    vertex -9.775 32.67368602791853 2.000000000000016
  endloop
endfacet
facet normal 0.38268343236509056 0.9238795325112865 1.1795691783200496e-15
  outer loop
    vertex -9.775 32.67368602791853 1.6919798895287383e-14
    vertex -9.642350474806388 32.61874079554098 2.000000000000016
    vertex -9.642350474806388 32.61874079554098 1.6919798895287383e-14
  endloop
endfacet
facet normal 0.6087614290087295 0.7933533402912283 1.0129190168127882e-15
  outer loop
    vertex -9.775 32.67368602791853 2.000000000000016
    vertex -9.888908729652602 32.76109127034737 1.6919798895287383e-14
    vertex -9.888908729652602 32.761091270347364 2.000000000000016
  endloop
endfacet
facet normal 0.6087614290087295 0.7933533402912283 1.0129190168127882e-15
  outer loop
    vertex -9.888908729652602 32.76109127034737 1.6919798895287383e-14
    vertex -9.775 32.67368602791853 2.000000000000016
    vertex -9.775 32.67368602791853 1.6919798895287383e-14
  endloop
endfacet
facet normal 0.7933533402912331 0.6087614290087233 7.772400982375769e-16
  outer loop
    vertex -9.888908729652602 32.76109127034737 1.6919798895287383e-14
    vertex -9.976313972081442 32.874999999999964 2.000000000000016
    vertex -9.888908729652602 32.761091270347364 2.000000000000016
  endloop
endfacet
facet normal 0.7933533402912331 0.6087614290087233 7.772400982375769e-16
  outer loop
    vertex -9.976313972081442 32.874999999999964 2.000000000000016
    vertex -9.888908729652602 32.76109127034737 1.6919798895287383e-14
    vertex -9.976313972081442 32.874999999999964 1.6919798895287383e-14
  endloop
endfacet
facet normal 0.923879532511288 0.3826834323650871 4.885935514174491e-16
  outer loop
    vertex -9.976313972081442 32.874999999999964 1.6919798895287383e-14
    vertex -10.031259204458989 33.00764952519358 2.000000000000016
    vertex -9.976313972081442 32.874999999999964 2.000000000000016
  endloop
endfacet
facet normal 0.923879532511288 0.3826834323650871 4.885935514174491e-16
  outer loop
    vertex -10.031259204458989 33.00764952519358 2.000000000000016
    vertex -9.976313972081442 32.874999999999964 1.6919798895287383e-14
    vertex -10.031259204458989 33.007649525193585 1.6919798895287383e-14
  endloop
endfacet
facet normal 0.9914448613738096 0.1305261922200586 1.6665016150726174e-16
  outer loop
    vertex -10.031259204458989 33.007649525193585 1.6919798895287383e-14
    vertex -10.05 33.14999999999997 2.000000000000016
    vertex -10.031259204458989 33.00764952519358 2.000000000000016
  endloop
endfacet
facet normal 0.9914448613738096 0.1305261922200586 1.6665016150726174e-16
  outer loop
    vertex -10.05 33.14999999999997 2.000000000000016
    vertex -10.031259204458989 33.007649525193585 1.6919798895287383e-14
    vertex -10.05 33.14999999999997 1.6919798895287383e-14
  endloop
endfacet
facet normal 0.9914448613738096 -0.1305261922200586 -1.6665016150726174e-16
  outer loop
    vertex -10.05 33.14999999999997 1.6919798895287383e-14
    vertex -10.031259204458989 33.292350474806355 2.000000000000016
    vertex -10.05 33.14999999999997 2.000000000000016
  endloop
endfacet
facet normal 0.9914448613738096 -0.1305261922200586 -1.6665016150726174e-16
  outer loop
    vertex -10.031259204458989 33.292350474806355 2.000000000000016
    vertex -10.05 33.14999999999997 1.6919798895287383e-14
    vertex -10.031259204458989 33.292350474806355 1.6919798895287383e-14
  endloop
endfacet
facet normal 0.923879532511288 -0.3826834323650871 -4.885935514174491e-16
  outer loop
    vertex -10.031259204458989 33.292350474806355 1.6919798895287383e-14
    vertex -9.976313972081442 33.42499999999997 2.000000000000016
    vertex -10.031259204458989 33.292350474806355 2.000000000000016
  endloop
endfacet
facet normal 0.923879532511288 -0.3826834323650871 -4.885935514174491e-16
  outer loop
    vertex -9.976313972081442 33.42499999999997 2.000000000000016
    vertex -10.031259204458989 33.292350474806355 1.6919798895287383e-14
    vertex -9.976313972081442 33.42499999999997 1.6919798895287383e-14
  endloop
endfacet
facet normal 0.7933533402912379 -0.6087614290087172 -7.772400982375691e-16
  outer loop
    vertex -9.976313972081442 33.42499999999997 1.6919798895287383e-14
    vertex -9.888908729652602 33.53890872965257 2.000000000000016
    vertex -9.976313972081442 33.42499999999997 2.000000000000016
  endloop
endfacet
facet normal 0.7933533402912379 -0.6087614290087172 -7.772400982375691e-16
  outer loop
    vertex -9.888908729652602 33.53890872965257 2.000000000000016
    vertex -9.976313972081442 33.42499999999997 1.6919798895287383e-14
    vertex -9.888908729652602 33.53890872965257 1.6919798895287383e-14
  endloop
endfacet
facet normal 0.6087614290087295 -0.7933533402912283 -1.0129190168127882e-15
  outer loop
    vertex -9.775000000000002 33.62631397208141 1.6919798895287383e-14
    vertex -9.888908729652602 33.53890872965257 2.000000000000016
    vertex -9.888908729652602 33.53890872965257 1.6919798895287383e-14
  endloop
endfacet
facet normal 0.6087614290087295 -0.7933533402912283 -1.0129190168127882e-15
  outer loop
    vertex -9.888908729652602 33.53890872965257 2.000000000000016
    vertex -9.775000000000002 33.62631397208141 1.6919798895287383e-14
    vertex -9.775000000000002 33.626313972081405 2.000000000000016
  endloop
endfacet
facet normal 0.3826834323650871 -0.923879532511288 -1.1795691783200514e-15
  outer loop
    vertex -9.642350474806388 33.68125920445896 1.6919798895287383e-14
    vertex -9.775000000000002 33.626313972081405 2.000000000000016
    vertex -9.775000000000002 33.62631397208141 1.6919798895287383e-14
  endloop
endfacet
facet normal 0.3826834323650871 -0.923879532511288 -1.1795691783200514e-15
  outer loop
    vertex -9.775000000000002 33.626313972081405 2.000000000000016
    vertex -9.642350474806388 33.68125920445896 1.6919798895287383e-14
    vertex -9.642350474806388 33.681259204458954 2.000000000000016
  endloop
endfacet
facet normal 0.130526192220038 -0.9914448613738123 -1.2658336496550284e-15
  outer loop
    vertex -9.500000000000002 33.699999999999974 1.6919798895287383e-14
    vertex -9.642350474806388 33.681259204458954 2.000000000000016
    vertex -9.642350474806388 33.68125920445896 1.6919798895287383e-14
  endloop
endfacet
facet normal 0.130526192220038 -0.9914448613738123 -1.2658336496550284e-15
  outer loop
    vertex -9.642350474806388 33.681259204458954 2.000000000000016
    vertex -9.500000000000002 33.699999999999974 1.6919798895287383e-14
    vertex -9.500000000000002 33.69999999999997 2.000000000000016
  endloop
endfacet
facet normal -0.130526192220038 -0.9914448613738123 -1.2658336496550284e-15
  outer loop
    vertex -9.357649525193613 33.68125920445896 1.6919798895287383e-14
    vertex -9.500000000000002 33.69999999999997 2.000000000000016
    vertex -9.500000000000002 33.699999999999974 1.6919798895287383e-14
  endloop
endfacet
facet normal -0.130526192220038 -0.9914448613738123 -1.2658336496550284e-15
  outer loop
    vertex -9.500000000000002 33.69999999999997 2.000000000000016
    vertex -9.357649525193613 33.68125920445896 1.6919798895287383e-14
    vertex -9.357649525193613 33.681259204458954 2.000000000000016
  endloop
endfacet
facet normal -0.38268343236509056 -0.9238795325112865 -1.1795691783200496e-15
  outer loop
    vertex -9.225000000000001 33.62631397208141 1.6919798895287383e-14
    vertex -9.357649525193613 33.681259204458954 2.000000000000016
    vertex -9.357649525193613 33.68125920445896 1.6919798895287383e-14
  endloop
endfacet
facet normal -0.38268343236509056 -0.9238795325112865 -1.1795691783200496e-15
  outer loop
    vertex -9.357649525193613 33.681259204458954 2.000000000000016
    vertex -9.225000000000001 33.62631397208141 1.6919798895287383e-14
    vertex -9.225000000000001 33.626313972081405 2.000000000000016
  endloop
endfacet
facet normal -0.6087614290087295 -0.7933533402912283 -1.0129190168127882e-15
  outer loop
    vertex -9.1110912703474 33.53890872965257 1.6919798895287383e-14
    vertex -9.225000000000001 33.626313972081405 2.000000000000016
    vertex -9.225000000000001 33.62631397208141 1.6919798895287383e-14
  endloop
endfacet
facet normal -0.6087614290087295 -0.7933533402912283 -1.0129190168127882e-15
  outer loop
    vertex -9.225000000000001 33.626313972081405 2.000000000000016
    vertex -9.1110912703474 33.53890872965257 1.6919798895287383e-14
    vertex -9.1110912703474 33.53890872965257 2.000000000000016
  endloop
endfacet
facet normal -0.7933533402912331 -0.6087614290087233 -7.772400982375769e-16
  outer loop
    vertex -9.1110912703474 33.53890872965257 1.6919798895287383e-14
    vertex -9.02368602791856 33.42499999999997 2.000000000000016
    vertex -9.1110912703474 33.53890872965257 2.000000000000016
  endloop
endfacet
facet normal -0.7933533402912331 -0.6087614290087233 -7.772400982375769e-16
  outer loop
    vertex -9.02368602791856 33.42499999999997 2.000000000000016
    vertex -9.1110912703474 33.53890872965257 1.6919798895287383e-14
    vertex -9.02368602791856 33.42499999999997 1.6919798895287383e-14
  endloop
endfacet
facet normal -0.9238795325112851 -0.382683432365094 -4.885935514174579e-16
  outer loop
    vertex -9.02368602791856 33.42499999999997 1.6919798895287383e-14
    vertex -8.968740795541013 33.292350474806355 2.000000000000016
    vertex -9.02368602791856 33.42499999999997 2.000000000000016
  endloop
endfacet
facet normal -0.9238795325112851 -0.382683432365094 -4.885935514174579e-16
  outer loop
    vertex -8.968740795541013 33.292350474806355 2.000000000000016
    vertex -9.02368602791856 33.42499999999997 1.6919798895287383e-14
    vertex -8.968740795541013 33.292350474806355 1.6919798895287383e-14
  endloop
endfacet
facet normal -0.9914448613738099 -0.13052619222005604 -1.6665016150725846e-16
  outer loop
    vertex -8.968740795541013 33.292350474806355 1.6919798895287383e-14
    vertex -8.950000000000001 33.14999999999997 2.000000000000016
    vertex -8.968740795541013 33.292350474806355 2.000000000000016
  endloop
endfacet
facet normal -0.9914448613738099 -0.13052619222005604 -1.6665016150725846e-16
  outer loop
    vertex -8.950000000000001 33.14999999999997 2.000000000000016
    vertex -8.968740795541013 33.292350474806355 1.6919798895287383e-14
    vertex -8.950000000000001 33.14999999999997 1.6919798895287383e-14
  endloop
endfacet
endsolid Strider_v6
