solid Strider_v6
facet normal 0.0 0.0 -1.0
  outer loop
    vertex -0.7661605011519662 -4.3002265029014275 0.0
    vertex -0.8000000000000014 -5.860000000000001 0.0
    vertex -1.5192067453740337 -4.4500462919219865 0.0
  endloop
endfacet
facet normal 0.0 0.0 -1.0
  outer loop
    vertex -0.8000000000000014 -5.860000000000001 0.0
    vertex -0.7661605011519662 -4.3002265029014275 0.0
    vertex -0.7727406610312565 -5.652944763917984 0.0
  endloop
endfacet
facet normal 0.0 0.0 -1.0
  outer loop
    vertex -0.7727406610312565 -5.652944763917984 0.0
    vertex -0.7661605011519662 -4.3002265029014275 0.0
    vertex -0.6928203230275508 -5.46 0.0
  endloop
endfacet
facet normal 0.0 0.0 -1.0
  outer loop
    vertex -0.6928203230275508 -5.46 0.0
    vertex -0.7661605011519662 -4.3002265029014275 0.0
    vertex -8.459899447643692e-15 -4.2499999999999964 0.0
  endloop
endfacet
facet normal 0.0 0.0 -1.0
  outer loop
    vertex -0.6928203230275508 -5.46 0.0
    vertex -8.459899447643692e-15 -4.2499999999999964 0.0
    vertex -0.5656854249492378 -5.2943145750507625 0.0
  endloop
endfacet
facet normal 0.0 0.0 -1.0
  outer loop
    vertex -0.5656854249492378 -5.2943145750507625 0.0
    vertex -8.459899447643692e-15 -4.2499999999999964 0.0
    vertex -0.39999999999999925 -5.16717967697245 0.0
  endloop
endfacet
facet normal 0.0 0.0 -1.0
  outer loop
    vertex -0.39999999999999925 -5.16717967697245 0.0
    vertex -8.459899447643692e-15 -4.2499999999999964 0.0
    vertex -0.20705523608201595 -5.087259338968746 0.0
  endloop
endfacet
facet normal 0.0 0.0 -1.0
  outer loop
    vertex -0.20705523608201595 -5.087259338968746 0.0
    vertex -8.459899447643692e-15 -4.2499999999999964 0.0
    vertex 0.0 -5.0600000000000005 0.0
  endloop
endfacet
facet normal 0.0 0.0 -1.0
  outer loop
    vertex 0.0 -5.0600000000000005 0.0
    vertex -8.459899447643692e-15 -4.2499999999999964 0.0
    vertex 0.7661605011519493 -4.300226502901429 0.0
  endloop
endfacet
facet normal 0.0 0.0 -1.0
  outer loop
    vertex 0.0 -5.0600000000000005 0.0
    vertex 0.7661605011519493 -4.300226502901429 0.0
    vertex 0.20705523608201595 -5.087259338968747 0.0
  endloop
endfacet
facet normal 0.0 0.0 -1.0
  outer loop
    vertex 0.20705523608201595 -5.087259338968747 0.0
    vertex 0.7661605011519493 -4.300226502901429 0.0
    vertex 0.39999999999999925 -5.16717967697245 0.0
  endloop
endfacet
facet normal 0.0 0.0 -1.0
  outer loop
    vertex 0.39999999999999925 -5.16717967697245 0.0
    vertex 0.7661605011519493 -4.300226502901429 0.0
    vertex 0.5656854249492378 -5.294314575050763 0.0
  endloop
endfacet
facet normal 0.0 0.0 -1.0
  outer loop
    vertex 0.5656854249492378 -5.294314575050763 0.0
    vertex 0.7661605011519493 -4.300226502901429 0.0
    vertex 0.6928203230275508 -5.460000000000001 0.0
  endloop
endfacet
facet normal 0.0 0.0 -1.0
  outer loop
    vertex 0.6928203230275508 -5.460000000000001 0.0
    vertex 0.7661605011519493 -4.300226502901429 0.0
    vertex 0.7727406610312537 -5.652944763917984 0.0
  endloop
endfacet
facet normal 0.0 0.0 -1.0
  outer loop
    vertex 0.7727406610312537 -5.652944763917984 0.0
    vertex 0.7661605011519493 -4.300226502901429 0.0
    vertex 1.5192067453740168 -4.450046291921989 0.0
  endloop
endfacet
facet normal 0.0 0.0 -1.0
  outer loop
    vertex 0.7727406610312537 -5.652944763917984 0.0
    vertex 1.5192067453740168 -4.450046291921989 0.0
    vertex 0.7999999999999985 -5.860000000000001 0.0
  endloop
endfacet
facet normal 0.0 0.0 -1.0
  outer loop
    vertex -12.882880848176589 0.6480578734294534 0.0
    vertex -13.42222222276882 -0.7195179349502793 0.0
    vertex -14.25557047830625 0.616976378945838 0.0
  endloop
endfacet
facet normal 0.0 0.0 -1.0
  outer loop
    vertex -13.42222222276882 -0.7195179349502793 0.0
    vertex -12.882880848176589 0.6480578734294534 0.0
    vertex -12.463979189367649 -1.969500596838858 0.0
  endloop
endfacet
facet normal 0.0 0.0 -1.0
  outer loop
    vertex -12.463979189367649 -1.969500596838858 0.0
    vertex -12.882880848176589 0.6480578734294534 0.0
    vertex -12.094081436664503 -0.5097061870608824 0.0
  endloop
endfacet
facet normal 0.0 0.0 -1.0
  outer loop
    vertex -12.463979189367649 -1.969500596838858 0.0
    vertex -12.094081436664503 -0.5097061870608824 0.0
    vertex -11.389757900926584 -3.121340424915642 0.0
  endloop
endfacet
facet normal 0.0 0.0 -1.0
  outer loop
    vertex -11.389757900926584 -3.121340424915642 0.0
    vertex -12.094081436664503 -0.5097061870608824 0.0
    vertex -11.201562233349375 -1.5895356194614845 0.0
  endloop
endfacet
facet normal 0.0 0.0 -1.0
  outer loop
    vertex -11.389757900926584 -3.121340424915642 0.0
    vertex -11.201562233349375 -1.5895356194614845 0.0
    vertex -10.20955406657409 -4.164319463757556 0.0
  endloop
endfacet
facet normal 0.0 0.0 -1.0
  outer loop
    vertex -10.20955406657409 -4.164319463757556 0.0
    vertex -11.201562233349375 -1.5895356194614845 0.0
    vertex -10.212977552982831 -2.582169721791979 0.0
  endloop
endfacet
facet normal 0.0 0.0 -1.0
  outer loop
    vertex -10.20955406657409 -4.164319463757556 0.0
    vertex -10.212977552982831 -2.582169721791979 0.0
    vertex -9.136805575388971 -3.4790955860676167 0.0
  endloop
endfacet
facet normal 0.0 0.0 -1.0
  outer loop
    vertex -10.20955406657409 -4.164319463757556 0.0
    vertex -9.136805575388971 -3.4790955860676167 0.0
    vertex -8.934349570925018 -5.0887327156965005 0.0
  endloop
endfacet
facet normal 0.0 0.0 -1.0
  outer loop
    vertex -8.934349570925018 -5.0887327156965005 0.0
    vertex -9.136805575388971 -3.4790955860676167 0.0
    vertex -7.982275635928633 -4.272621105666445 0.0
  endloop
endfacet
facet normal 0.0 0.0 -1.0
  outer loop
    vertex -8.934349570925018 -5.0887327156965005 0.0
    vertex -7.982275635928633 -4.272621105666445 0.0
    vertex -7.576010286826026 -5.885978446545763 0.0
  endloop
endfacet
facet normal 0.0 0.0 -1.0
  outer loop
    vertex -7.576010286826026 -5.885978446545763 0.0
    vertex -7.982275635928633 -4.272621105666445 0.0
    vertex -6.759289073994835 -4.955940943439527 0.0
  endloop
endfacet
facet normal 0.0 0.0 -1.0
  outer loop
    vertex -7.576010286826026 -5.885978446545763 0.0
    vertex -6.759289073994835 -4.955940943439527 0.0
    vertex -6.147175662524617 -6.548638225377545 0.0
  endloop
endfacet
facet normal 0.0 0.0 -1.0
  outer loop
    vertex -6.147175662524617 -6.548638225377545 0.0
    vertex -6.759289073994835 -4.955940943439527 0.0
    vertex -5.4783343183488675 -5.523194894816567 0.0
  endloop
endfacet
facet normal 0.0 0.0 -1.0
  outer loop
    vertex -6.147175662524617 -6.548638225377545 0.0
    vertex -5.4783343183488675 -5.523194894816567 0.0
    vertex -4.661141110661429 -7.070545953575471 0.0
  endloop
endfacet
facet normal 0.0 0.0 -1.0
  outer loop
    vertex -4.661141110661429 -7.070545953575471 0.0
    vertex -5.4783343183488675 -5.523194894816567 0.0
    vertex -4.150396937531879 -5.9695181453803245 0.0
  endloop
endfacet
facet normal 0.0 0.0 -1.0
  outer loop
    vertex -4.661141110661429 -7.070545953575471 0.0
    vertex -4.150396937531879 -5.9695181453803245 0.0
    vertex -4.150000000000002 -7.196308460628321 0.0
  endloop
endfacet
facet normal 0.0 0.0 -1.0
  outer loop
    vertex -4.150000000000002 -7.196308460628321 0.0
    vertex -4.150396937531879 -5.9695181453803245 0.0
    vertex -3.5732006655725868 -5.46318912314733 0.0
  endloop
endfacet
facet normal 0.0 0.0 -1.0
  outer loop
    vertex -4.150000000000002 -7.196308460628321 0.0
    vertex -3.5732006655725868 -5.46318912314733 0.0
    vertex -3.1317342934650063 -7.446845240841658 0.0
  endloop
endfacet
facet normal 0.0 0.0 -1.0
  outer loop
    vertex -3.1317342934650063 -7.446845240841658 0.0
    vertex -3.5732006655725868 -5.46318912314733 0.0
    vertex -2.9348424418813535 -5.036547126427713 0.0
  endloop
endfacet
facet normal 0.0 0.0 -1.0
  outer loop
    vertex -3.1317342934650063 -7.446845240841658 0.0
    vertex -2.9348424418813535 -5.036547126427713 0.0
    vertex -1.5731864553244437 -7.674034594270291 0.0
  endloop
endfacet
facet normal 0.0 0.0 -1.0
  outer loop
    vertex -1.5731864553244437 -7.674034594270291 0.0
    vertex -2.9348424418813535 -5.036547126427713 0.0
    vertex -2.246248950548798 -4.696894923706212 0.0
  endloop
endfacet
facet normal 0.0 0.0 -1.0
  outer loop
    vertex -1.5731864553244437 -7.674034594270291 0.0
    vertex -2.246248950548798 -4.696894923706212 0.0
    vertex -1.5192067453740337 -4.4500462919219865 0.0
  endloop
endfacet
facet normal 0.0 0.0 -1.0
  outer loop
    vertex -1.5731864553244437 -7.674034594270291 0.0
    vertex -1.5192067453740337 -4.4500462919219865 0.0
    vertex -0.6928203230275508 -6.260000000000001 0.0
  endloop
endfacet
facet normal 0.0 0.0 -1.0
  outer loop
    vertex -1.5731864553244437 -7.674034594270291 0.0
    vertex -0.6928203230275508 -6.260000000000001 0.0
    vertex -1.127986593019159e-14 -7.749999999999984 0.0
  endloop
endfacet
facet normal 0.0 0.0 -1.0
  outer loop
    vertex -0.6928203230275508 -6.260000000000001 0.0
    vertex -1.5192067453740337 -4.4500462919219865 0.0
    vertex -0.7727406610312565 -6.067055236082017 0.0
  endloop
endfacet
facet normal 0.0 0.0 -1.0
  outer loop
    vertex -0.7727406610312565 -6.067055236082017 0.0
    vertex -1.5192067453740337 -4.4500462919219865 0.0
    vertex -0.8000000000000014 -5.860000000000001 0.0
  endloop
endfacet
facet normal 0.0 0.0 -1.0
  outer loop
    vertex -1.127986593019159e-14 -7.749999999999984 0.0
    vertex -0.6928203230275508 -6.260000000000001 0.0
    vertex -0.5656854249492378 -6.425685424949239 0.0
  endloop
endfacet
facet normal 0.0 0.0 -1.0
  outer loop
    vertex -1.127986593019159e-14 -7.749999999999984 0.0
    vertex -0.5656854249492378 -6.425685424949239 0.0
    vertex -0.4000000000000021 -6.552820323027552 0.0
  endloop
endfacet
facet normal 0.0 0.0 -1.0
  outer loop
    vertex -1.127986593019159e-14 -7.749999999999984 0.0
    vertex -0.4000000000000021 -6.552820323027552 0.0
    vertex -0.20705523608201878 -6.632740661031256 0.0
  endloop
endfacet
facet normal 0.0 0.0 -1.0
  outer loop
    vertex -1.127986593019159e-14 -7.749999999999984 0.0
    vertex -0.20705523608201878 -6.632740661031256 0.0
    vertex 0.0 -6.660000000000001 0.0
  endloop
endfacet
facet normal 0.0 0.0 -1.0
  outer loop
    vertex -1.127986593019159e-14 -7.749999999999984 0.0
    vertex 0.0 -6.660000000000001 0.0
    vertex 1.573186455324424 -7.674034594270291 0.0
  endloop
endfacet
facet normal 0.0 0.0 -1.0
  outer loop
    vertex 1.573186455324424 -7.674034594270291 0.0
    vertex 0.0 -6.660000000000001 0.0
    vertex 0.20705523608201595 -6.632740661031256 0.0
  endloop
endfacet
facet normal 0.0 0.0 -1.0
  outer loop
    vertex 1.573186455324424 -7.674034594270291 0.0
    vertex 0.20705523608201595 -6.632740661031256 0.0
    vertex 0.39999999999999925 -6.552820323027552 0.0
  endloop
endfacet
facet normal 0.0 0.0 -1.0
  outer loop
    vertex 1.573186455324424 -7.674034594270291 0.0
    vertex 0.39999999999999925 -6.552820323027552 0.0
    vertex 0.5656854249492378 -6.425685424949239 0.0
  endloop
endfacet
facet normal 0.0 0.0 -1.0
  outer loop
    vertex 1.573186455324424 -7.674034594270291 0.0
    vertex 0.5656854249492378 -6.425685424949239 0.0
    vertex 0.6928203230275508 -6.260000000000002 0.0
  endloop
endfacet
facet normal 0.0 0.0 -1.0
  outer loop
    vertex 1.573186455324424 -7.674034594270291 0.0
    vertex 0.6928203230275508 -6.260000000000002 0.0
    vertex 0.7727406610312537 -6.067055236082018 0.0
  endloop
endfacet
facet normal 0.0 0.0 -1.0
  outer loop
    vertex 1.573186455324424 -7.674034594270291 0.0
    vertex 0.7727406610312537 -6.067055236082018 0.0
    vertex 0.7999999999999985 -5.860000000000001 0.0
  endloop
endfacet
facet normal 0.0 0.0 -1.0
  outer loop
    vertex 1.573186455324424 -7.674034594270291 0.0
    vertex 0.7999999999999985 -5.860000000000001 0.0
    vertex 1.5192067453740168 -4.450046291921989 0.0
  endloop
endfacet
facet normal 0.0 0.0 -1.0
  outer loop
    vertex 1.573186455324424 -7.674034594270291 0.0
    vertex 1.5192067453740168 -4.450046291921989 0.0
    vertex 2.246248950548781 -4.696894923706216 0.0
  endloop
endfacet
facet normal 0.0 0.0 -1.0
  outer loop
    vertex 1.573186455324424 -7.674034594270291 0.0
    vertex 2.246248950548781 -4.696894923706216 0.0
    vertex 3.1317342934649837 -7.446845240841658 0.0
  endloop
endfacet
facet normal 0.0 0.0 -1.0
  outer loop
    vertex 3.1317342934649837 -7.446845240841658 0.0
    vertex 2.246248950548781 -4.696894923706216 0.0
    vertex 2.934842441881334 -5.036547126427718 0.0
  endloop
endfacet
facet normal 0.0 0.0 -1.0
  outer loop
    vertex 3.1317342934649837 -7.446845240841658 0.0
    vertex 2.934842441881334 -5.036547126427718 0.0
    vertex 3.573200665572567 -5.463189123147334 0.0
  endloop
endfacet
facet normal 0.0 0.0 -1.0
  outer loop
    vertex 3.1317342934649837 -7.446845240841658 0.0
    vertex 3.573200665572567 -5.463189123147334 0.0
    vertex 4.149999999999998 -7.196308460628319 0.0
  endloop
endfacet
facet normal 0.0 0.0 -1.0
  outer loop
    vertex 4.149999999999998 -7.196308460628319 0.0
    vertex 3.573200665572567 -5.463189123147334 0.0
    vertex 4.15039693753186 -5.969518145380332 0.0
  endloop
endfacet
facet normal 0.0 0.0 -1.0
  outer loop
    vertex 4.149999999999998 -7.196308460628319 0.0
    vertex 4.15039693753186 -5.969518145380332 0.0
    vertex 4.66114111066141 -7.070545953575471 0.0
  endloop
endfacet
facet normal 0.0 0.0 -1.0
  outer loop
    vertex 4.66114111066141 -7.070545953575471 0.0
    vertex 4.15039693753186 -5.969518145380332 0.0
    vertex 5.478334318348852 -5.523194894816573 0.0
  endloop
endfacet
facet normal 0.0 0.0 -1.0
  outer loop
    vertex 4.66114111066141 -7.070545953575471 0.0
    vertex 5.478334318348852 -5.523194894816573 0.0
    vertex 6.147175662524595 -6.54863822537755 0.0
  endloop
endfacet
facet normal 0.0 0.0 -1.0
  outer loop
    vertex 6.147175662524595 -6.54863822537755 0.0
    vertex 5.478334318348852 -5.523194894816573 0.0
    vertex 6.759289073994821 -4.9559409434395345 0.0
  endloop
endfacet
facet normal 0.0 0.0 -1.0
  outer loop
    vertex 6.147175662524595 -6.54863822537755 0.0
    vertex 6.759289073994821 -4.9559409434395345 0.0
    vertex 7.576010286826007 -5.885978446545772 0.0
  endloop
endfacet
facet normal 0.0 0.0 -1.0
  outer loop
    vertex 7.576010286826007 -5.885978446545772 0.0
    vertex 6.759289073994821 -4.9559409434395345 0.0
    vertex 7.982275635928624 -4.2726211056664525 0.0
  endloop
endfacet
facet normal 0.0 0.0 -1.0
  outer loop
    vertex 7.576010286826007 -5.885978446545772 0.0
    vertex 7.982275635928624 -4.2726211056664525 0.0
    vertex 8.934349570925 -5.088732715696512 0.0
  endloop
endfacet
facet normal 0.0 0.0 -1.0
  outer loop
    vertex 8.934349570925 -5.088732715696512 0.0
    vertex 7.982275635928624 -4.2726211056664525 0.0
    vertex 9.136805575388964 -3.4790955860676225 0.0
  endloop
endfacet
facet normal 0.0 0.0 -1.0
  outer loop
    vertex 8.934349570925 -5.088732715696512 0.0
    vertex 9.136805575388964 -3.4790955860676225 0.0
    vertex 10.20955406657407 -4.1643194637575665 0.0
  endloop
endfacet
facet normal 0.0 0.0 -1.0
  outer loop
    vertex 10.20955406657407 -4.1643194637575665 0.0
    vertex 9.136805575388964 -3.4790955860676225 0.0
    vertex 10.212977552982828 -2.582169721791982 0.0
  endloop
endfacet
facet normal 0.0 0.0 -1.0
  outer loop
    vertex 10.20955406657407 -4.1643194637575665 0.0
    vertex 10.212977552982828 -2.582169721791982 0.0
    vertex 11.389757900926568 -3.121340424915654 0.0
  endloop
endfacet
facet normal 0.0 0.0 -1.0
  outer loop
    vertex 11.389757900926568 -3.121340424915654 0.0
    vertex 10.212977552982828 -2.582169721791982 0.0
    vertex 11.201562233349375 -1.5895356194614874 0.0
  endloop
endfacet
facet normal 0.0 0.0 -1.0
  outer loop
    vertex 11.389757900926568 -3.121340424915654 0.0
    vertex 11.201562233349375 -1.5895356194614874 0.0
    vertex 12.094081436664506 -0.509706187060881 0.0
  endloop
endfacet
facet normal 0.0 0.0 -1.0
  outer loop
    vertex 11.389757900926568 -3.121340424915654 0.0
    vertex 12.094081436664506 -0.509706187060881 0.0
    vertex 12.463979189367635 -1.9695005968388721 0.0
  endloop
endfacet
facet normal 0.0 0.0 -1.0
  outer loop
    vertex 12.463979189367635 -1.9695005968388721 0.0
    vertex 12.094081436664506 -0.509706187060881 0.0
    vertex 12.882880848176594 0.6480578734294576 0.0
  endloop
endfacet
facet normal 0.0 0.0 -1.0
  outer loop
    vertex 12.463979189367635 -1.9695005968388721 0.0
    vertex 12.882880848176594 0.6480578734294576 0.0
    vertex 13.422222222768804 -0.7195179349502934 0.0
  endloop
endfacet
facet normal 0.0 0.0 -1.0
  outer loop
    vertex 13.422222222768804 -0.7195179349502934 0.0
    vertex 12.882880848176594 0.6480578734294576 0.0
    vertex 14.25557047830624 0.6169763789458239 0.0
  endloop
endfacet
facet normal 0.0 0.0 1.0
  outer loop
    vertex -13.42222222276882 -0.7195179349502793 15.999999999999998
    vertex -12.882880848176589 0.6480578734294534 15.999999999999998
    vertex -14.25557047830625 0.616976378945838 15.999999999999998
  endloop
endfacet
facet normal 0.0 0.0 1.0
  outer loop
    vertex -12.882880848176589 0.6480578734294534 15.999999999999998
    vertex -13.42222222276882 -0.7195179349502793 15.999999999999998
    vertex -12.463979189367649 -1.969500596838858 15.999999999999998
  endloop
endfacet
facet normal 0.0 0.0 1.0
  outer loop
    vertex -12.882880848176589 0.6480578734294534 15.999999999999998
    vertex -12.463979189367649 -1.969500596838858 15.999999999999998
    vertex -12.094081436664503 -0.5097061870608824 15.999999999999998
  endloop
endfacet
facet normal 0.0 0.0 1.0
  outer loop
    vertex -12.094081436664503 -0.5097061870608824 15.999999999999998
    vertex -12.463979189367649 -1.969500596838858 15.999999999999998
    vertex -11.389757900926584 -3.121340424915642 15.999999999999998
  endloop
endfacet
facet normal 0.0 0.0 1.0
  outer loop
    vertex -12.094081436664503 -0.5097061870608824 15.999999999999998
    vertex -11.389757900926584 -3.121340424915642 15.999999999999998
    vertex -11.201562233349375 -1.5895356194614845 15.999999999999998
  endloop
endfacet
facet normal 0.0 0.0 1.0
  outer loop
    vertex -11.201562233349375 -1.5895356194614845 15.999999999999998
    vertex -11.389757900926584 -3.121340424915642 15.999999999999998
    vertex -10.20955406657409 -4.164319463757556 15.999999999999998
  endloop
endfacet
facet normal 0.0 0.0 1.0
  outer loop
    vertex -11.201562233349375 -1.5895356194614845 15.999999999999998
    vertex -10.20955406657409 -4.164319463757556 15.999999999999998
    vertex -10.212977552982831 -2.582169721791979 15.999999999999998
  endloop
endfacet
facet normal 0.0 0.0 1.0
  outer loop
    vertex -10.212977552982831 -2.582169721791979 15.999999999999998
    vertex -10.20955406657409 -4.164319463757556 15.999999999999998
    vertex -9.136805575388971 -3.4790955860676167 15.999999999999998
  endloop
endfacet
facet normal 0.0 0.0 1.0
  outer loop
    vertex -9.136805575388971 -3.4790955860676167 15.999999999999998
    vertex -10.20955406657409 -4.164319463757556 15.999999999999998
    vertex -8.934349570925018 -5.0887327156965005 15.999999999999998
  endloop
endfacet
facet normal 0.0 0.0 1.0
  outer loop
    vertex -9.136805575388971 -3.4790955860676167 15.999999999999998
    vertex -8.934349570925018 -5.0887327156965005 15.999999999999998
    vertex -7.982275635928633 -4.272621105666445 15.999999999999998
  endloop
endfacet
facet normal 0.0 0.0 1.0
  outer loop
    vertex -7.982275635928633 -4.272621105666445 15.999999999999998
    vertex -8.934349570925018 -5.0887327156965005 15.999999999999998
    vertex -7.576010286826026 -5.885978446545763 15.999999999999998
  endloop
endfacet
facet normal 0.0 0.0 1.0
  outer loop
    vertex -7.982275635928633 -4.272621105666445 15.999999999999998
    vertex -7.576010286826026 -5.885978446545763 15.999999999999998
    vertex -6.759289073994835 -4.955940943439527 15.999999999999998
  endloop
endfacet
facet normal 0.0 0.0 1.0
  outer loop
    vertex -6.759289073994835 -4.955940943439527 15.999999999999998
    vertex -7.576010286826026 -5.885978446545763 15.999999999999998
    vertex -6.147175662524617 -6.548638225377545 15.999999999999998
  endloop
endfacet
facet normal 0.0 0.0 1.0
  outer loop
    vertex -6.759289073994835 -4.955940943439527 15.999999999999998
    vertex -6.147175662524617 -6.548638225377545 15.999999999999998
    vertex -5.4783343183488675 -5.523194894816567 15.999999999999998
  endloop
endfacet
facet normal 0.0 0.0 1.0
  outer loop
    vertex -5.4783343183488675 -5.523194894816567 15.999999999999998
    vertex -6.147175662524617 -6.548638225377545 15.999999999999998
    vertex -4.661141110661429 -7.070545953575471 15.999999999999998
  endloop
endfacet
facet normal 0.0 0.0 1.0
  outer loop
    vertex -5.4783343183488675 -5.523194894816567 15.999999999999998
    vertex -4.661141110661429 -7.070545953575471 15.999999999999998
    vertex -4.150396937531879 -5.9695181453803245 15.999999999999998
  endloop
endfacet
facet normal 0.0 0.0 1.0
  outer loop
    vertex -4.150396937531879 -5.9695181453803245 15.999999999999998
    vertex -4.661141110661429 -7.070545953575471 15.999999999999998
    vertex -4.150000000000002 -7.196308460628321 15.999999999999998
  endloop
endfacet
facet normal 0.0 0.0 1.0
  outer loop
    vertex -4.150396937531879 -5.9695181453803245 15.999999999999998
    vertex -4.150000000000002 -7.196308460628321 15.999999999999998
    vertex -3.5732006655725868 -5.46318912314733 15.999999999999998
  endloop
endfacet
facet normal 0.0 0.0 1.0
  outer loop
    vertex -3.5732006655725868 -5.46318912314733 15.999999999999998
    vertex -4.150000000000002 -7.196308460628321 15.999999999999998
    vertex -3.1317342934650063 -7.446845240841658 15.999999999999998
  endloop
endfacet
facet normal 0.0 0.0 1.0
  outer loop
    vertex -3.5732006655725868 -5.46318912314733 15.999999999999998
    vertex -3.1317342934650063 -7.446845240841658 15.999999999999998
    vertex -2.9348424418813535 -5.036547126427713 15.999999999999998
  endloop
endfacet
facet normal 0.0 0.0 1.0
  outer loop
    vertex -2.9348424418813535 -5.036547126427713 15.999999999999998
    vertex -3.1317342934650063 -7.446845240841658 15.999999999999998
    vertex -1.5731864553244437 -7.674034594270291 15.999999999999998
  endloop
endfacet
facet normal 0.0 0.0 1.0
  outer loop
    vertex -2.9348424418813535 -5.036547126427713 15.999999999999998
    vertex -1.5731864553244437 -7.674034594270291 15.999999999999998
    vertex -2.246248950548798 -4.696894923706212 15.999999999999998
  endloop
endfacet
facet normal 0.0 0.0 1.0
  outer loop
    vertex -2.246248950548798 -4.696894923706212 15.999999999999998
    vertex -1.5731864553244437 -7.674034594270291 15.999999999999998
    vertex -1.5192067453740337 -4.4500462919219865 15.999999999999998
  endloop
endfacet
facet normal 0.0 0.0 1.0
  outer loop
    vertex -1.5192067453740337 -4.4500462919219865 15.999999999999998
    vertex -1.5731864553244437 -7.674034594270291 15.999999999999998
    vertex -0.6928203230275508 -6.260000000000001 15.999999999999998
  endloop
endfacet
facet normal 0.0 0.0 1.0
  outer loop
    vertex -0.6928203230275508 -6.260000000000001 15.999999999999998
    vertex -1.5731864553244437 -7.674034594270291 15.999999999999998
    vertex -1.127986593019159e-14 -7.749999999999984 15.999999999999998
  endloop
endfacet
facet normal 0.0 0.0 1.0
  outer loop
    vertex -1.5192067453740337 -4.4500462919219865 15.999999999999998
    vertex -0.6928203230275508 -6.260000000000001 15.999999999999998
    vertex -0.7727406610312565 -6.067055236082017 15.999999999999998
  endloop
endfacet
facet normal 0.0 0.0 1.0
  outer loop
    vertex -1.5192067453740337 -4.4500462919219865 15.999999999999998
    vertex -0.7727406610312565 -6.067055236082017 15.999999999999998
    vertex -0.8000000000000014 -5.860000000000001 15.999999999999998
  endloop
endfacet
facet normal 0.0 0.0 1.0
  outer loop
    vertex -0.6928203230275508 -6.260000000000001 15.999999999999998
    vertex -1.127986593019159e-14 -7.749999999999984 15.999999999999998
    vertex -0.5656854249492378 -6.425685424949239 15.999999999999998
  endloop
endfacet
facet normal 0.0 0.0 1.0
  outer loop
    vertex -0.5656854249492378 -6.425685424949239 15.999999999999998
    vertex -1.127986593019159e-14 -7.749999999999984 15.999999999999998
    vertex -0.4000000000000021 -6.552820323027552 15.999999999999998
  endloop
endfacet
facet normal 0.0 0.0 1.0
  outer loop
    vertex -0.4000000000000021 -6.552820323027552 15.999999999999998
    vertex -1.127986593019159e-14 -7.749999999999984 15.999999999999998
    vertex -0.20705523608201878 -6.632740661031256 15.999999999999998
  endloop
endfacet
facet normal 0.0 0.0 1.0
  outer loop
    vertex -0.20705523608201878 -6.632740661031256 15.999999999999998
    vertex -1.127986593019159e-14 -7.749999999999984 15.999999999999998
    vertex 0.0 -6.660000000000001 15.999999999999998
  endloop
endfacet
facet normal 0.0 0.0 1.0
  outer loop
    vertex 0.0 -6.660000000000001 15.999999999999998
    vertex -1.127986593019159e-14 -7.749999999999984 15.999999999999998
    vertex 1.573186455324424 -7.674034594270291 15.999999999999998
  endloop
endfacet
facet normal 0.0 0.0 1.0
  outer loop
    vertex 0.0 -6.660000000000001 15.999999999999998
    vertex 1.573186455324424 -7.674034594270291 15.999999999999998
    vertex 0.20705523608201595 -6.632740661031256 15.999999999999998
  endloop
endfacet
facet normal 0.0 0.0 1.0
  outer loop
    vertex 0.20705523608201595 -6.632740661031256 15.999999999999998
    vertex 1.573186455324424 -7.674034594270291 15.999999999999998
    vertex 0.39999999999999925 -6.552820323027552 15.999999999999998
  endloop
endfacet
facet normal 0.0 0.0 1.0
  outer loop
    vertex 0.39999999999999925 -6.552820323027552 15.999999999999998
    vertex 1.573186455324424 -7.674034594270291 15.999999999999998
    vertex 0.5656854249492378 -6.425685424949239 15.999999999999998
  endloop
endfacet
facet normal 0.0 0.0 1.0
  outer loop
    vertex 0.5656854249492378 -6.425685424949239 15.999999999999998
    vertex 1.573186455324424 -7.674034594270291 15.999999999999998
    vertex 0.6928203230275508 -6.260000000000002 15.999999999999998
  endloop
endfacet
facet normal 0.0 0.0 1.0
  outer loop
    vertex 0.6928203230275508 -6.260000000000002 15.999999999999998
    vertex 1.573186455324424 -7.674034594270291 15.999999999999998
    vertex 0.7727406610312537 -6.067055236082018 15.999999999999998
  endloop
endfacet
facet normal 0.0 0.0 1.0
  outer loop
    vertex 0.7727406610312537 -6.067055236082018 15.999999999999998
    vertex 1.573186455324424 -7.674034594270291 15.999999999999998
    vertex 0.7999999999999985 -5.860000000000001 15.999999999999998
  endloop
endfacet
facet normal 0.0 0.0 1.0
  outer loop
    vertex 0.7999999999999985 -5.860000000000001 15.999999999999998
    vertex 1.573186455324424 -7.674034594270291 15.999999999999998
    vertex 1.5192067453740168 -4.450046291921989 15.999999999999998
  endloop
endfacet
facet normal 0.0 0.0 1.0
  outer loop
    vertex 1.5192067453740168 -4.450046291921989 15.999999999999998
    vertex 1.573186455324424 -7.674034594270291 15.999999999999998
    vertex 2.246248950548781 -4.696894923706216 15.999999999999998
  endloop
endfacet
facet normal 0.0 0.0 1.0
  outer loop
    vertex 2.246248950548781 -4.696894923706216 15.999999999999998
    vertex 1.573186455324424 -7.674034594270291 15.999999999999998
    vertex 3.1317342934649837 -7.446845240841658 15.999999999999998
  endloop
endfacet
facet normal 0.0 0.0 1.0
  outer loop
    vertex 2.246248950548781 -4.696894923706216 15.999999999999998
    vertex 3.1317342934649837 -7.446845240841658 15.999999999999998
    vertex 2.934842441881334 -5.036547126427718 15.999999999999998
  endloop
endfacet
facet normal 0.0 0.0 1.0
  outer loop
    vertex 2.934842441881334 -5.036547126427718 15.999999999999998
    vertex 3.1317342934649837 -7.446845240841658 15.999999999999998
    vertex 3.573200665572567 -5.463189123147334 15.999999999999998
  endloop
endfacet
facet normal 0.0 0.0 1.0
  outer loop
    vertex 3.573200665572567 -5.463189123147334 15.999999999999998
    vertex 3.1317342934649837 -7.446845240841658 15.999999999999998
    vertex 4.149999999999998 -7.196308460628319 15.999999999999998
  endloop
endfacet
facet normal 0.0 0.0 1.0
  outer loop
    vertex 3.573200665572567 -5.463189123147334 15.999999999999998
    vertex 4.149999999999998 -7.196308460628319 15.999999999999998
    vertex 4.15039693753186 -5.969518145380332 15.999999999999998
  endloop
endfacet
facet normal 0.0 0.0 1.0
  outer loop
    vertex 4.15039693753186 -5.969518145380332 15.999999999999998
    vertex 4.149999999999998 -7.196308460628319 15.999999999999998
    vertex 4.66114111066141 -7.070545953575471 15.999999999999998
  endloop
endfacet
facet normal 0.0 0.0 1.0
  outer loop
    vertex 4.15039693753186 -5.969518145380332 15.999999999999998
    vertex 4.66114111066141 -7.070545953575471 15.999999999999998
    vertex 5.478334318348852 -5.523194894816573 15.999999999999998
  endloop
endfacet
facet normal 0.0 0.0 1.0
  outer loop
    vertex 5.478334318348852 -5.523194894816573 15.999999999999998
    vertex 4.66114111066141 -7.070545953575471 15.999999999999998
    vertex 6.147175662524595 -6.54863822537755 15.999999999999998
  endloop
endfacet
facet normal 0.0 0.0 1.0
  outer loop
    vertex 5.478334318348852 -5.523194894816573 15.999999999999998
    vertex 6.147175662524595 -6.54863822537755 15.999999999999998
    vertex 6.759289073994821 -4.9559409434395345 15.999999999999998
  endloop
endfacet
facet normal 0.0 0.0 1.0
  outer loop
    vertex 6.759289073994821 -4.9559409434395345 15.999999999999998
    vertex 6.147175662524595 -6.54863822537755 15.999999999999998
    vertex 7.576010286826007 -5.885978446545772 15.999999999999998
  endloop
endfacet
facet normal 0.0 0.0 1.0
  outer loop
    vertex 6.759289073994821 -4.9559409434395345 15.999999999999998
    vertex 7.576010286826007 -5.885978446545772 15.999999999999998
    vertex 7.982275635928624 -4.2726211056664525 15.999999999999998
  endloop
endfacet
facet normal 0.0 0.0 1.0
  outer loop
    vertex 7.982275635928624 -4.2726211056664525 15.999999999999998
    vertex 7.576010286826007 -5.885978446545772 15.999999999999998
    vertex 8.934349570925 -5.088732715696512 15.999999999999998
  endloop
endfacet
facet normal 0.0 0.0 1.0
  outer loop
    vertex 7.982275635928624 -4.2726211056664525 15.999999999999998
    vertex 8.934349570925 -5.088732715696512 15.999999999999998
    vertex 9.136805575388964 -3.4790955860676225 15.999999999999998
  endloop
endfacet
facet normal 0.0 0.0 1.0
  outer loop
    vertex 9.136805575388964 -3.4790955860676225 15.999999999999998
    vertex 8.934349570925 -5.088732715696512 15.999999999999998
    vertex 10.20955406657407 -4.1643194637575665 15.999999999999998
  endloop
endfacet
facet normal 0.0 0.0 1.0
  outer loop
    vertex 9.136805575388964 -3.4790955860676225 15.999999999999998
    vertex 10.20955406657407 -4.1643194637575665 15.999999999999998
    vertex 10.212977552982828 -2.582169721791982 15.999999999999998
  endloop
endfacet
facet normal 0.0 0.0 1.0
  outer loop
    vertex 10.212977552982828 -2.582169721791982 15.999999999999998
    vertex 10.20955406657407 -4.1643194637575665 15.999999999999998
    vertex 11.389757900926568 -3.121340424915654 15.999999999999998
  endloop
endfacet
facet normal 0.0 0.0 1.0
  outer loop
    vertex 10.212977552982828 -2.582169721791982 15.999999999999998
    vertex 11.389757900926568 -3.121340424915654 15.999999999999998
    vertex 11.201562233349375 -1.5895356194614874 15.999999999999998
  endloop
endfacet
facet normal 0.0 0.0 1.0
  outer loop
    vertex 11.201562233349375 -1.5895356194614874 15.999999999999998
    vertex 11.389757900926568 -3.121340424915654 15.999999999999998
    vertex 12.094081436664506 -0.509706187060881 15.999999999999998
  endloop
endfacet
facet normal 0.0 0.0 1.0
  outer loop
    vertex 12.094081436664506 -0.509706187060881 15.999999999999998
    vertex 11.389757900926568 -3.121340424915654 15.999999999999998
    vertex 12.463979189367635 -1.9695005968388721 15.999999999999998
  endloop
endfacet
facet normal 0.0 0.0 1.0
  outer loop
    vertex 12.094081436664506 -0.509706187060881 15.999999999999998
    vertex 12.463979189367635 -1.9695005968388721 15.999999999999998
    vertex 12.882880848176594 0.6480578734294576 15.999999999999998
  endloop
endfacet
facet normal 0.0 0.0 1.0
  outer loop
    vertex 12.882880848176594 0.6480578734294576 15.999999999999998
    vertex 12.463979189367635 -1.9695005968388721 15.999999999999998
    vertex 13.422222222768804 -0.7195179349502934 15.999999999999998
  endloop
endfacet
facet normal 0.0 0.0 1.0
  outer loop
    vertex 12.882880848176594 0.6480578734294576 15.999999999999998
    vertex 13.422222222768804 -0.7195179349502934 15.999999999999998
    vertex 14.25557047830624 0.6169763789458239 15.999999999999998
  endloop
endfacet
facet normal 0.0 0.0 1.0
  outer loop
    vertex -0.8000000000000014 -5.860000000000001 15.999999999999998
    vertex -0.7661605011519662 -4.3002265029014275 15.999999999999998
    vertex -1.5192067453740337 -4.4500462919219865 15.999999999999998
  endloop
endfacet
facet normal 0.0 0.0 1.0
  outer loop
    vertex -0.7661605011519662 -4.3002265029014275 15.999999999999998
    vertex -0.8000000000000014 -5.860000000000001 15.999999999999998
    vertex -0.7727406610312565 -5.652944763917984 15.999999999999998
  endloop
endfacet
facet normal 0.0 0.0 1.0
  outer loop
    vertex -0.7661605011519662 -4.3002265029014275 15.999999999999998
    vertex -0.7727406610312565 -5.652944763917984 15.999999999999998
    vertex -0.6928203230275508 -5.46 15.999999999999998
  endloop
endfacet
facet normal 0.0 0.0 1.0
  outer loop
    vertex -0.7661605011519662 -4.3002265029014275 15.999999999999998
    vertex -0.6928203230275508 -5.46 15.999999999999998
    vertex -8.459899447643692e-15 -4.2499999999999964 15.999999999999998
  endloop
endfacet
facet normal 0.0 0.0 1.0
  outer loop
    vertex -8.459899447643692e-15 -4.2499999999999964 15.999999999999998
    vertex -0.6928203230275508 -5.46 15.999999999999998
    vertex -0.5656854249492378 -5.2943145750507625 15.999999999999998
  endloop
endfacet
facet normal 0.0 0.0 1.0
  outer loop
    vertex -8.459899447643692e-15 -4.2499999999999964 15.999999999999998
    vertex -0.5656854249492378 -5.2943145750507625 15.999999999999998
    vertex -0.39999999999999925 -5.16717967697245 15.999999999999998
  endloop
endfacet
facet normal 0.0 0.0 1.0
  outer loop
    vertex -8.459899447643692e-15 -4.2499999999999964 15.999999999999998
    vertex -0.39999999999999925 -5.16717967697245 15.999999999999998
    vertex -0.20705523608201595 -5.087259338968746 15.999999999999998
  endloop
endfacet
facet normal 0.0 0.0 1.0
  outer loop
    vertex -8.459899447643692e-15 -4.2499999999999964 15.999999999999998
    vertex -0.20705523608201595 -5.087259338968746 15.999999999999998
    vertex 0.0 -5.0600000000000005 15.999999999999998
  endloop
endfacet
facet normal 0.0 0.0 1.0
  outer loop
    vertex -8.459899447643692e-15 -4.2499999999999964 15.999999999999998
    vertex 0.0 -5.0600000000000005 15.999999999999998
    vertex 0.7661605011519493 -4.300226502901429 15.999999999999998
  endloop
endfacet
facet normal 0.0 0.0 1.0
  outer loop
    vertex 0.7661605011519493 -4.300226502901429 15.999999999999998
    vertex 0.0 -5.0600000000000005 15.999999999999998
    vertex 0.20705523608201595 -5.087259338968747 15.999999999999998
  endloop
endfacet
facet normal 0.0 0.0 1.0
  outer loop
    vertex 0.7661605011519493 -4.300226502901429 15.999999999999998
    vertex 0.20705523608201595 -5.087259338968747 15.999999999999998
    vertex 0.39999999999999925 -5.16717967697245 15.999999999999998
  endloop
endfacet
facet normal 0.0 0.0 1.0
  outer loop
    vertex 0.7661605011519493 -4.300226502901429 15.999999999999998
    vertex 0.39999999999999925 -5.16717967697245 15.999999999999998
    vertex 0.5656854249492378 -5.294314575050763 15.999999999999998
  endloop
endfacet
facet normal 0.0 0.0 1.0
  outer loop
    vertex 0.7661605011519493 -4.300226502901429 15.999999999999998
    vertex 0.5656854249492378 -5.294314575050763 15.999999999999998
    vertex 0.6928203230275508 -5.460000000000001 15.999999999999998
  endloop
endfacet
facet normal 0.0 0.0 1.0
  outer loop
    vertex 0.7661605011519493 -4.300226502901429 15.999999999999998
    vertex 0.6928203230275508 -5.460000000000001 15.999999999999998
    vertex 0.7727406610312537 -5.652944763917984 15.999999999999998
  endloop
endfacet
facet normal 0.0 0.0 1.0
  outer loop
    vertex 0.7661605011519493 -4.300226502901429 15.999999999999998
    vertex 0.7727406610312537 -5.652944763917984 15.999999999999998
    vertex 1.5192067453740168 -4.450046291921989 15.999999999999998
  endloop
endfacet
facet normal 0.0 0.0 1.0
  outer loop
    vertex 1.5192067453740168 -4.450046291921989 15.999999999999998
    vertex 0.7727406610312537 -5.652944763917984 15.999999999999998
    vertex 0.7999999999999985 -5.860000000000001 15.999999999999998
  endloop
endfacet
facet normal 0.23891722722389477 -0.971039936632704 0.0
  outer loop
    vertex 4.66114111066141 -7.070545953575471 15.999999999999998
    vertex 4.149999999999998 -7.196308460628319 0.0
    vertex 4.66114111066141 -7.070545953575471 0.0
  endloop
endfacet
facet normal 0.23891722722389477 -0.971039936632704 0.0
  outer loop
    vertex 4.149999999999998 -7.196308460628319 0.0
    vertex 4.66114111066141 -7.070545953575471 15.999999999999998
    vertex 4.149999999999998 -7.196308460628319 15.999999999999998
  endloop
endfacet
facet normal 0.23891722722389266 -0.9710399366327045 0.0
  outer loop
    vertex 4.149999999999998 -7.196308460628319 15.999999999999998
    vertex 3.1317342934649837 -7.446845240841658 0.0
    vertex 4.149999999999998 -7.196308460628319 0.0
  endloop
endfacet
facet normal 0.23891722722389266 -0.9710399366327045 0.0
  outer loop
    vertex 3.1317342934649837 -7.446845240841658 0.0
    vertex 4.149999999999998 -7.196308460628319 15.999999999999998
    vertex 3.1317342934649837 -7.446845240841658 15.999999999999998
  endloop
endfacet
facet normal 0.14424542435437052 -0.989541943301459 0.0
  outer loop
    vertex 3.1317342934649837 -7.446845240841658 15.999999999999998
    vertex 1.573186455324424 -7.674034594270291 0.0
    vertex 3.1317342934649837 -7.446845240841658 0.0
  endloop
endfacet
facet normal 0.14424542435437052 -0.989541943301459 0.0
  outer loop
    vertex 1.573186455324424 -7.674034594270291 0.0
    vertex 3.1317342934649837 -7.446845240841658 15.999999999999998
    vertex 1.573186455324424 -7.674034594270291 15.999999999999998
  endloop
endfacet
facet normal 0.04823140706359522 -0.99883618845768 0.0
  outer loop
    vertex 1.573186455324424 -7.674034594270291 15.999999999999998
    vertex -1.127986593019159e-14 -7.749999999999984 0.0
    vertex 1.573186455324424 -7.674034594270291 0.0
  endloop
endfacet
facet normal 0.04823140706359522 -0.99883618845768 0.0
  outer loop
    vertex -1.127986593019159e-14 -7.749999999999984 0.0
    vertex 1.573186455324424 -7.674034594270291 15.999999999999998
    vertex -1.127986593019159e-14 -7.749999999999984 15.999999999999998
  endloop
endfacet
facet normal -0.048231407063595313 -0.99883618845768 -0.0
  outer loop
    vertex -1.127986593019159e-14 -7.749999999999984 15.999999999999998
    vertex -1.5731864553244437 -7.674034594270291 0.0
    vertex -1.127986593019159e-14 -7.749999999999984 0.0
  endloop
endfacet
facet normal -0.048231407063595313 -0.99883618845768 -0.0
  outer loop
    vertex -1.5731864553244437 -7.674034594270291 0.0
    vertex -1.127986593019159e-14 -7.749999999999984 15.999999999999998
    vertex -1.5731864553244437 -7.674034594270291 15.999999999999998
  endloop
endfacet
facet normal -0.14424542435437027 -0.989541943301459 -0.0
  outer loop
    vertex -1.5731864553244437 -7.674034594270291 15.999999999999998
    vertex -3.1317342934650063 -7.446845240841658 0.0
    vertex -1.5731864553244437 -7.674034594270291 0.0
  endloop
endfacet
facet normal -0.14424542435437027 -0.989541943301459 -0.0
  outer loop
    vertex -3.1317342934650063 -7.446845240841658 0.0
    vertex -1.5731864553244437 -7.674034594270291 15.999999999999998
    vertex -3.1317342934650063 -7.446845240841658 15.999999999999998
  endloop
endfacet
facet normal -0.2389172272238942 -0.9710399366327042 -0.0
  outer loop
    vertex -3.1317342934650063 -7.446845240841658 15.999999999999998
    vertex -4.150000000000002 -7.196308460628321 0.0
    vertex -3.1317342934650063 -7.446845240841658 0.0
  endloop
endfacet
facet normal -0.2389172272238942 -0.9710399366327042 -0.0
  outer loop
    vertex -4.150000000000002 -7.196308460628321 0.0
    vertex -3.1317342934650063 -7.446845240841658 15.999999999999998
    vertex -4.150000000000002 -7.196308460628321 15.999999999999998
  endloop
endfacet
facet normal -0.23891722722389303 -0.9710399366327046 -0.0
  outer loop
    vertex -4.150000000000002 -7.196308460628321 15.999999999999998
    vertex -4.661141110661429 -7.070545953575471 0.0
    vertex -4.150000000000002 -7.196308460628321 0.0
  endloop
endfacet
facet normal -0.23891722722389303 -0.9710399366327046 -0.0
  outer loop
    vertex -4.661141110661429 -7.070545953575471 0.0
    vertex -4.150000000000002 -7.196308460628321 15.999999999999998
    vertex -4.661141110661429 -7.070545953575471 15.999999999999998
  endloop
endfacet
facet normal -0.3313658874925392 -0.9435023310020394 -0.0
  outer loop
    vertex -4.661141110661429 -7.070545953575471 15.999999999999998
    vertex -6.147175662524617 -6.548638225377545 0.0
    vertex -4.661141110661429 -7.070545953575471 0.0
  endloop
endfacet
facet normal -0.3313658874925392 -0.9435023310020394 -0.0
  outer loop
    vertex -6.147175662524617 -6.548638225377545 0.0
    vertex -4.661141110661429 -7.070545953575471 15.999999999999998
    vertex -6.147175662524617 -6.548638225377545 15.999999999999998
  endloop
endfacet
facet normal -0.42073116348821255 -0.9071853658816676 -0.0
  outer loop
    vertex -6.147175662524617 -6.548638225377545 15.999999999999998
    vertex -7.576010286826026 -5.885978446545763 0.0
    vertex -6.147175662524617 -6.548638225377545 0.0
  endloop
endfacet
facet normal -0.42073116348821255 -0.9071853658816676 -0.0
  outer loop
    vertex -7.576010286826026 -5.885978446545763 0.0
    vertex -6.147175662524617 -6.548638225377545 15.999999999999998
    vertex -7.576010286826026 -5.885978446545763 15.999999999999998
  endloop
endfacet
facet normal -0.5061815046592246 -0.8624269733379885 -0.0
  outer loop
    vertex -7.576010286826026 -5.885978446545763 15.999999999999998
    vertex -8.934349570925018 -5.0887327156965005 0.0
    vertex -7.576010286826026 -5.885978446545763 0.0
  endloop
endfacet
facet normal -0.5061815046592246 -0.8624269733379885 -0.0
  outer loop
    vertex -8.934349570925018 -5.0887327156965005 0.0
    vertex -7.576010286826026 -5.885978446545763 15.999999999999998
    vertex -8.934349570925018 -5.0887327156965005 15.999999999999998
  endloop
endfacet
facet normal -0.5869217892141378 -0.8096436335485355 -0.0
  outer loop
    vertex -8.934349570925018 -5.0887327156965005 15.999999999999998
    vertex -10.20955406657409 -4.164319463757556 0.0
    vertex -8.934349570925018 -5.0887327156965005 0.0
  endloop
endfacet
facet normal -0.5869217892141378 -0.8096436335485355 -0.0
  outer loop
    vertex -10.20955406657409 -4.164319463757556 0.0
    vertex -8.934349570925018 -5.0887327156965005 15.999999999999998
    vertex -10.20955406657409 -4.164319463757556 15.999999999999998
  endloop
endfacet
facet normal -0.6622007227892585 -0.7493264994229043 -0.0
  outer loop
    vertex -10.20955406657409 -4.164319463757556 15.999999999999998
    vertex -11.389757900926584 -3.121340424915642 0.0
    vertex -10.20955406657409 -4.164319463757556 0.0
  endloop
endfacet
facet normal -0.6622007227892585 -0.7493264994229043 -0.0
  outer loop
    vertex -11.389757900926584 -3.121340424915642 0.0
    vertex -10.20955406657409 -4.164319463757556 15.999999999999998
    vertex -11.389757900926584 -3.121340424915642 15.999999999999998
  endloop
endfacet
facet normal -0.7313178292986893 -0.6820368263883214 -0.0
  outer loop
    vertex -12.463979189367649 -1.969500596838858 15.999999999999998
    vertex -11.389757900926584 -3.121340424915642 0.0
    vertex -11.389757900926584 -3.121340424915642 15.999999999999998
  endloop
endfacet
facet normal -0.7313178292986893 -0.6820368263883214 -0.0
  outer loop
    vertex -11.389757900926584 -3.121340424915642 0.0
    vertex -12.463979189367649 -1.969500596838858 15.999999999999998
    vertex -12.463979189367649 -1.969500596838858 0.0
  endloop
endfacet
facet normal -0.7936299689164888 -0.6084007498660836 -0.0
  outer loop
    vertex -13.42222222276882 -0.7195179349502793 15.999999999999998
    vertex -12.463979189367649 -1.969500596838858 0.0
    vertex -12.463979189367649 -1.969500596838858 15.999999999999998
  endloop
endfacet
facet normal -0.7936299689164888 -0.6084007498660836 -0.0
  outer loop
    vertex -12.463979189367649 -1.969500596838858 0.0
    vertex -13.42222222276882 -0.7195179349502793 15.999999999999998
    vertex -13.42222222276882 -0.7195179349502793 0.0
  endloop
endfacet
facet normal -0.8485573225406773 -0.5291034590348065 -0.0
  outer loop
    vertex -14.25557047830625 0.616976378945838 15.999999999999998
    vertex -13.42222222276882 -0.7195179349502793 0.0
    vertex -13.42222222276882 -0.7195179349502793 15.999999999999998
  endloop
endfacet
facet normal -0.8485573225406773 -0.5291034590348065 -0.0
  outer loop
    vertex -13.42222222276882 -0.7195179349502793 0.0
    vertex -14.25557047830625 0.616976378945838 15.999999999999998
    vertex -14.25557047830625 0.616976378945838 0.0
  endloop
endfacet
facet normal -0.022636967017623494 0.9997437510303544 0.0
  outer loop
    vertex -14.25557047830625 0.616976378945838 15.999999999999998
    vertex -12.882880848176589 0.6480578734294534 0.0
    vertex -14.25557047830625 0.616976378945838 0.0
  endloop
endfacet
facet normal -0.022636967017623494 0.9997437510303544 0.0
  outer loop
    vertex -12.882880848176589 0.6480578734294534 0.0
    vertex -14.25557047830625 0.616976378945838 15.999999999999998
    vertex -12.882880848176589 0.6480578734294534 15.999999999999998
  endloop
endfacet
facet normal 0.8264217110611997 0.5630516454879418 0.0
  outer loop
    vertex -12.882880848176589 0.6480578734294534 0.0
    vertex -12.094081436664503 -0.5097061870608824 15.999999999999998
    vertex -12.094081436664503 -0.5097061870608824 0.0
  endloop
endfacet
facet normal 0.8264217110611997 0.5630516454879418 0.0
  outer loop
    vertex -12.094081436664503 -0.5097061870608824 15.999999999999998
    vertex -12.882880848176589 0.6480578734294534 0.0
    vertex -12.882880848176589 0.6480578734294534 15.999999999999998
  endloop
endfacet
facet normal 0.7707913189158798 0.6370877040752856 0.0
  outer loop
    vertex -12.094081436664503 -0.5097061870608824 0.0
    vertex -11.201562233349375 -1.5895356194614845 15.999999999999998
    vertex -11.201562233349375 -1.5895356194614845 0.0
  endloop
endfacet
facet normal 0.7707913189158798 0.6370877040752856 0.0
  outer loop
    vertex -11.201562233349375 -1.5895356194614845 15.999999999999998
    vertex -12.094081436664503 -0.5097061870608824 0.0
    vertex -12.094081436664503 -0.5097061870608824 15.999999999999998
  endloop
endfacet
facet normal 0.7085505599113492 0.7056600485002064 0.0
  outer loop
    vertex -11.201562233349375 -1.5895356194614845 0.0
    vertex -10.212977552982831 -2.582169721791979 15.999999999999998
    vertex -10.212977552982831 -2.582169721791979 0.0
  endloop
endfacet
facet normal 0.7085505599113492 0.7056600485002064 0.0
  outer loop
    vertex -10.212977552982831 -2.582169721791979 15.999999999999998
    vertex -11.201562233349375 -1.5895356194614845 0.0
    vertex -11.201562233349375 -1.5895356194614845 15.999999999999998
  endloop
endfacet
facet normal 0.6402332156828124 0.7681805969538971 0.0
  outer loop
    vertex -10.212977552982831 -2.582169721791979 15.999999999999998
    vertex -9.136805575388971 -3.4790955860676167 0.0
    vertex -10.212977552982831 -2.582169721791979 0.0
  endloop
endfacet
facet normal 0.6402332156828124 0.7681805969538971 0.0
  outer loop
    vertex -9.136805575388971 -3.4790955860676167 0.0
    vertex -10.212977552982831 -2.582169721791979 15.999999999999998
    vertex -9.136805575388971 -3.4790955860676167 15.999999999999998
  endloop
endfacet
facet normal 0.5664251811373835 0.8241131683048648 0.0
  outer loop
    vertex -9.136805575388971 -3.4790955860676167 15.999999999999998
    vertex -7.982275635928633 -4.272621105666445 0.0
    vertex -9.136805575388971 -3.4790955860676167 0.0
  endloop
endfacet
facet normal 0.5664251811373835 0.8241131683048648 0.0
  outer loop
    vertex -7.982275635928633 -4.272621105666445 0.0
    vertex -9.136805575388971 -3.4790955860676167 15.999999999999998
    vertex -7.982275635928633 -4.272621105666445 15.999999999999998
  endloop
endfacet
facet normal 0.4877594397733562 0.8729780804304206 0.0
  outer loop
    vertex -7.982275635928633 -4.272621105666445 15.999999999999998
    vertex -6.759289073994835 -4.955940943439527 0.0
    vertex -7.982275635928633 -4.272621105666445 0.0
  endloop
endfacet
facet normal 0.4877594397733562 0.8729780804304206 0.0
  outer loop
    vertex -6.759289073994835 -4.955940943439527 0.0
    vertex -7.982275635928633 -4.272621105666445 15.999999999999998
    vertex -6.759289073994835 -4.955940943439527 15.999999999999998
  endloop
endfacet
facet normal 0.40491063516403936 0.9143562640082116 0.0
  outer loop
    vertex -6.759289073994835 -4.955940943439527 15.999999999999998
    vertex -5.4783343183488675 -5.523194894816567 0.0
    vertex -6.759289073994835 -4.955940943439527 0.0
  endloop
endfacet
facet normal 0.40491063516403936 0.9143562640082116 0.0
  outer loop
    vertex -5.4783343183488675 -5.523194894816567 0.0
    vertex -6.759289073994835 -4.955940943439527 15.999999999999998
    vertex -5.4783343183488675 -5.523194894816567 15.999999999999998
  endloop
endfacet
facet normal 0.3185892851615046 0.9478928564876316 0.0
  outer loop
    vertex -5.4783343183488675 -5.523194894816567 15.999999999999998
    vertex -4.150396937531879 -5.9695181453803245 0.0
    vertex -5.4783343183488675 -5.523194894816567 0.0
  endloop
endfacet
facet normal 0.3185892851615046 0.9478928564876316 0.0
  outer loop
    vertex -4.150396937531879 -5.9695181453803245 0.0
    vertex -5.4783343183488675 -5.523194894816567 15.999999999999998
    vertex -4.150396937531879 -5.9695181453803245 15.999999999999998
  endloop
endfacet
facet normal -0.6594499652086735 0.7517484575217159 0.0
  outer loop
    vertex -4.150396937531879 -5.9695181453803245 15.999999999999998
    vertex -3.5732006655725868 -5.46318912314733 0.0
    vertex -4.150396937531879 -5.9695181453803245 0.0
  endloop
endfacet
facet normal -0.6594499652086735 0.7517484575217159 0.0
  outer loop
    vertex -3.5732006655725868 -5.46318912314733 0.0
    vertex -4.150396937531879 -5.9695181453803245 15.999999999999998
    vertex -3.5732006655725868 -5.46318912314733 15.999999999999998
  endloop
endfacet
facet normal -0.555664474164476 0.8314066346569026 0.0
  outer loop
    vertex -3.5732006655725868 -5.46318912314733 15.999999999999998
    vertex -2.9348424418813535 -5.036547126427713 0.0
    vertex -3.5732006655725868 -5.46318912314733 0.0
  endloop
endfacet
facet normal -0.555664474164476 0.8314066346569026 0.0
  outer loop
    vertex -2.9348424418813535 -5.036547126427713 0.0
    vertex -3.5732006655725868 -5.46318912314733 15.999999999999998
    vertex -2.9348424418813535 -5.036547126427713 15.999999999999998
  endloop
endfacet
facet normal -0.4423677558120971 0.8968337463642684 0.0
  outer loop
    vertex -2.9348424418813535 -5.036547126427713 15.999999999999998
    vertex -2.246248950548798 -4.696894923706212 0.0
    vertex -2.9348424418813535 -5.036547126427713 0.0
  endloop
endfacet
facet normal -0.4423677558120971 0.8968337463642684 0.0
  outer loop
    vertex -2.246248950548798 -4.696894923706212 0.0
    vertex -2.9348424418813535 -5.036547126427713 15.999999999999998
    vertex -2.246248950548798 -4.696894923706212 15.999999999999998
  endloop
endfacet
facet normal -0.32149909346300365 0.9469098863685325 0.0
  outer loop
    vertex -2.246248950548798 -4.696894923706212 15.999999999999998
    vertex -1.5192067453740337 -4.4500462919219865 0.0
    vertex -2.246248950548798 -4.696894923706212 0.0
  endloop
endfacet
facet normal -0.32149909346300365 0.9469098863685325 0.0
  outer loop
    vertex -1.5192067453740337 -4.4500462919219865 0.0
    vertex -2.246248950548798 -4.696894923706212 15.999999999999998
    vertex -1.5192067453740337 -4.4500462919219865 15.999999999999998
  endloop
endfacet
facet normal -0.19512737828351226 0.9807779087256214 0.0
  outer loop
    vertex -1.5192067453740337 -4.4500462919219865 15.999999999999998
    vertex -0.7661605011519662 -4.3002265029014275 0.0
    vertex -1.5192067453740337 -4.4500462919219865 0.0
  endloop
endfacet
facet normal -0.19512737828351226 0.9807779087256214 0.0
  outer loop
    vertex -0.7661605011519662 -4.3002265029014275 0.0
    vertex -1.5192067453740337 -4.4500462919219865 15.999999999999998
    vertex -0.7661605011519662 -4.3002265029014275 15.999999999999998
  endloop
endfacet
facet normal -0.06541569638814924 0.997858099464074 0.0
  outer loop
    vertex -0.7661605011519662 -4.3002265029014275 15.999999999999998
    vertex -8.459899447643692e-15 -4.2499999999999964 0.0
    vertex -0.7661605011519662 -4.3002265029014275 0.0
  endloop
endfacet
facet normal -0.06541569638814924 0.997858099464074 0.0
  outer loop
    vertex -8.459899447643692e-15 -4.2499999999999964 0.0
    vertex -0.7661605011519662 -4.3002265029014275 15.999999999999998
    vertex -8.459899447643692e-15 -4.2499999999999964 15.999999999999998
  endloop
endfacet
facet normal 0.065415696388151 0.9978580994640739 0.0
  outer loop
    vertex -8.459899447643692e-15 -4.2499999999999964 15.999999999999998
    vertex 0.7661605011519493 -4.300226502901429 0.0
    vertex -8.459899447643692e-15 -4.2499999999999964 0.0
  endloop
endfacet
facet normal 0.065415696388151 0.9978580994640739 0.0
  outer loop
    vertex 0.7661605011519493 -4.300226502901429 0.0
    vertex -8.459899447643692e-15 -4.2499999999999964 15.999999999999998
    vertex 0.7661605011519493 -4.300226502901429 15.999999999999998
  endloop
endfacet
facet normal 0.19512737828351426 0.9807779087256209 0.0
  outer loop
    vertex 0.7661605011519493 -4.300226502901429 15.999999999999998
    vertex 1.5192067453740168 -4.450046291921989 0.0
    vertex 0.7661605011519493 -4.300226502901429 0.0
  endloop
endfacet
facet normal 0.19512737828351426 0.9807779087256209 0.0
  outer loop
    vertex 1.5192067453740168 -4.450046291921989 0.0
    vertex 0.7661605011519493 -4.300226502901429 15.999999999999998
    vertex 1.5192067453740168 -4.450046291921989 15.999999999999998
  endloop
endfacet
facet normal 0.3214990934630045 0.9469098863685321 0.0
  outer loop
    vertex 1.5192067453740168 -4.450046291921989 15.999999999999998
    vertex 2.246248950548781 -4.696894923706216 0.0
    vertex 1.5192067453740168 -4.450046291921989 0.0
  endloop
endfacet
facet normal 0.3214990934630045 0.9469098863685321 0.0
  outer loop
    vertex 2.246248950548781 -4.696894923706216 0.0
    vertex 1.5192067453740168 -4.450046291921989 15.999999999999998
    vertex 2.246248950548781 -4.696894923706216 15.999999999999998
  endloop
endfacet
facet normal 0.44236775581209836 0.8968337463642678 0.0
  outer loop
    vertex 2.246248950548781 -4.696894923706216 15.999999999999998
    vertex 2.934842441881334 -5.036547126427718 0.0
    vertex 2.246248950548781 -4.696894923706216 0.0
  endloop
endfacet
facet normal 0.44236775581209836 0.8968337463642678 0.0
  outer loop
    vertex 2.934842441881334 -5.036547126427718 0.0
    vertex 2.246248950548781 -4.696894923706216 15.999999999999998
    vertex 2.934842441881334 -5.036547126427718 15.999999999999998
  endloop
endfacet
facet normal 0.5556644741644765 0.8314066346569023 0.0
  outer loop
    vertex 2.934842441881334 -5.036547126427718 15.999999999999998
    vertex 3.573200665572567 -5.463189123147334 0.0
    vertex 2.934842441881334 -5.036547126427718 0.0
  endloop
endfacet
facet normal 0.5556644741644765 0.8314066346569023 0.0
  outer loop
    vertex 3.573200665572567 -5.463189123147334 0.0
    vertex 2.934842441881334 -5.036547126427718 15.999999999999998
    vertex 3.573200665572567 -5.463189123147334 15.999999999999998
  endloop
endfacet
facet normal 0.6594499652086753 0.7517484575217146 0.0
  outer loop
    vertex 3.573200665572567 -5.463189123147334 15.999999999999998
    vertex 4.15039693753186 -5.969518145380332 0.0
    vertex 3.573200665572567 -5.463189123147334 0.0
  endloop
endfacet
facet normal 0.6594499652086753 0.7517484575217146 0.0
  outer loop
    vertex 4.15039693753186 -5.969518145380332 0.0
    vertex 3.573200665572567 -5.463189123147334 15.999999999999998
    vertex 4.15039693753186 -5.969518145380332 15.999999999999998
  endloop
endfacet
facet normal -0.31858928516150503 0.9478928564876314 0.0
  outer loop
    vertex 4.15039693753186 -5.969518145380332 15.999999999999998
    vertex 5.478334318348852 -5.523194894816573 0.0
    vertex 4.15039693753186 -5.969518145380332 0.0
  endloop
endfacet
facet normal -0.31858928516150503 0.9478928564876314 0.0
  outer loop
    vertex 5.478334318348852 -5.523194894816573 0.0
    vertex 4.15039693753186 -5.969518145380332 15.999999999999998
    vertex 5.478334318348852 -5.523194894816573 15.999999999999998
  endloop
endfacet
facet normal -0.40491063516403775 0.9143562640082122 0.0
  outer loop
    vertex 5.478334318348852 -5.523194894816573 15.999999999999998
    vertex 6.759289073994821 -4.9559409434395345 0.0
    vertex 5.478334318348852 -5.523194894816573 0.0
  endloop
endfacet
facet normal -0.40491063516403775 0.9143562640082122 0.0
  outer loop
    vertex 6.759289073994821 -4.9559409434395345 0.0
    vertex 5.478334318348852 -5.523194894816573 15.999999999999998
    vertex 6.759289073994821 -4.9559409434395345 15.999999999999998
  endloop
endfacet
facet normal -0.48775943977335445 0.8729780804304216 0.0
  outer loop
    vertex 6.759289073994821 -4.9559409434395345 15.999999999999998
    vertex 7.982275635928624 -4.2726211056664525 0.0
    vertex 6.759289073994821 -4.9559409434395345 0.0
  endloop
endfacet
facet normal -0.48775943977335445 0.8729780804304216 0.0
  outer loop
    vertex 7.982275635928624 -4.2726211056664525 0.0
    vertex 6.759289073994821 -4.9559409434395345 15.999999999999998
    vertex 7.982275635928624 -4.2726211056664525 15.999999999999998
  endloop
endfacet
facet normal -0.5664251811373837 0.8241131683048647 0.0
  outer loop
    vertex 7.982275635928624 -4.2726211056664525 15.999999999999998
    vertex 9.136805575388964 -3.4790955860676225 0.0
    vertex 7.982275635928624 -4.2726211056664525 0.0
  endloop
endfacet
facet normal -0.5664251811373837 0.8241131683048647 0.0
  outer loop
    vertex 9.136805575388964 -3.4790955860676225 0.0
    vertex 7.982275635928624 -4.2726211056664525 15.999999999999998
    vertex 9.136805575388964 -3.4790955860676225 15.999999999999998
  endloop
endfacet
facet normal -0.6402332156828124 0.7681805969538968 0.0
  outer loop
    vertex 9.136805575388964 -3.4790955860676225 15.999999999999998
    vertex 10.212977552982828 -2.582169721791982 0.0
    vertex 9.136805575388964 -3.4790955860676225 0.0
  endloop
endfacet
facet normal -0.6402332156828124 0.7681805969538968 0.0
  outer loop
    vertex 10.212977552982828 -2.582169721791982 0.0
    vertex 9.136805575388964 -3.4790955860676225 15.999999999999998
    vertex 10.212977552982828 -2.582169721791982 15.999999999999998
  endloop
endfacet
facet normal -0.7085505599113482 0.7056600485002074 0.0
  outer loop
    vertex 11.201562233349375 -1.5895356194614874 15.999999999999998
    vertex 10.212977552982828 -2.582169721791982 0.0
    vertex 10.212977552982828 -2.582169721791982 15.999999999999998
  endloop
endfacet
facet normal -0.7085505599113482 0.7056600485002074 0.0
  outer loop
    vertex 10.212977552982828 -2.582169721791982 0.0
    vertex 11.201562233349375 -1.5895356194614874 15.999999999999998
    vertex 11.201562233349375 -1.5895356194614874 0.0
  endloop
endfacet
facet normal -0.7707913189158802 0.6370877040752851 0.0
  outer loop
    vertex 12.094081436664506 -0.509706187060881 15.999999999999998
    vertex 11.201562233349375 -1.5895356194614874 0.0
    vertex 11.201562233349375 -1.5895356194614874 15.999999999999998
  endloop
endfacet
facet normal -0.7707913189158802 0.6370877040752851 0.0
  outer loop
    vertex 11.201562233349375 -1.5895356194614874 0.0
    vertex 12.094081436664506 -0.509706187060881 15.999999999999998
    vertex 12.094081436664506 -0.509706187060881 0.0
  endloop
endfacet
facet normal -0.826421711061199 0.5630516454879431 0.0
  outer loop
    vertex 12.882880848176594 0.6480578734294576 15.999999999999998
    vertex 12.094081436664506 -0.509706187060881 0.0
    vertex 12.094081436664506 -0.509706187060881 15.999999999999998
  endloop
endfacet
facet normal -0.826421711061199 0.5630516454879431 0.0
  outer loop
    vertex 12.094081436664506 -0.509706187060881 0.0
    vertex 12.882880848176594 0.6480578734294576 15.999999999999998
    vertex 12.882880848176594 0.6480578734294576 0.0
  endloop
endfacet
facet normal 0.02263696701763711 0.999743751030354 0.0
  outer loop
    vertex 12.882880848176594 0.6480578734294576 15.999999999999998
    vertex 14.25557047830624 0.6169763789458239 0.0
    vertex 12.882880848176594 0.6480578734294576 0.0
  endloop
endfacet
facet normal 0.02263696701763711 0.999743751030354 0.0
  outer loop
    vertex 14.25557047830624 0.6169763789458239 0.0
    vertex 12.882880848176594 0.6480578734294576 15.999999999999998
    vertex 14.25557047830624 0.6169763789458239 15.999999999999998
  endloop
endfacet
facet normal 0.8485573225406756 -0.529103459034809 0.0
  outer loop
    vertex 14.25557047830624 0.6169763789458239 0.0
    vertex 13.422222222768804 -0.7195179349502934 15.999999999999998
    vertex 13.422222222768804 -0.7195179349502934 0.0
  endloop
endfacet
facet normal 0.8485573225406756 -0.529103459034809 0.0
  outer loop
    vertex 13.422222222768804 -0.7195179349502934 15.999999999999998
    vertex 14.25557047830624 0.6169763789458239 0.0
    vertex 14.25557047830624 0.6169763789458239 15.999999999999998
  endloop
endfacet
facet normal 0.7936299689164897 -0.6084007498660825 0.0
  outer loop
    vertex 13.422222222768804 -0.7195179349502934 0.0
    vertex 12.463979189367635 -1.9695005968388721 15.999999999999998
    vertex 12.463979189367635 -1.9695005968388721 0.0
  endloop
endfacet
facet normal 0.7936299689164897 -0.6084007498660825 0.0
  outer loop
    vertex 12.463979189367635 -1.9695005968388721 15.999999999999998
    vertex 13.422222222768804 -0.7195179349502934 0.0
    vertex 13.422222222768804 -0.7195179349502934 15.999999999999998
  endloop
endfacet
facet normal 0.7313178292986879 -0.6820368263883229 0.0
  outer loop
    vertex 12.463979189367635 -1.9695005968388721 0.0
    vertex 11.389757900926568 -3.121340424915654 15.999999999999998
    vertex 11.389757900926568 -3.121340424915654 0.0
  endloop
endfacet
facet normal 0.7313178292986879 -0.6820368263883229 0.0
  outer loop
    vertex 11.389757900926568 -3.121340424915654 15.999999999999998
    vertex 12.463979189367635 -1.9695005968388721 0.0
    vertex 12.463979189367635 -1.9695005968388721 15.999999999999998
  endloop
endfacet
facet normal 0.662200722789257 -0.7493264994229055 0.0
  outer loop
    vertex 11.389757900926568 -3.121340424915654 15.999999999999998
    vertex 10.20955406657407 -4.1643194637575665 0.0
    vertex 11.389757900926568 -3.121340424915654 0.0
  endloop
endfacet
facet normal 0.662200722789257 -0.7493264994229055 0.0
  outer loop
    vertex 10.20955406657407 -4.1643194637575665 0.0
    vertex 11.389757900926568 -3.121340424915654 15.999999999999998
    vertex 10.20955406657407 -4.1643194637575665 15.999999999999998
  endloop
endfacet
facet normal 0.5869217892141386 -0.8096436335485349 0.0
  outer loop
    vertex 10.20955406657407 -4.1643194637575665 15.999999999999998
    vertex 8.934349570925 -5.088732715696512 0.0
    vertex 10.20955406657407 -4.1643194637575665 0.0
  endloop
endfacet
facet normal 0.5869217892141386 -0.8096436335485349 0.0
  outer loop
    vertex 8.934349570925 -5.088732715696512 0.0
    vertex 10.20955406657407 -4.1643194637575665 15.999999999999998
    vertex 8.934349570925 -5.088732715696512 15.999999999999998
  endloop
endfacet
facet normal 0.5061815046592225 -0.8624269733379897 0.0
  outer loop
    vertex 8.934349570925 -5.088732715696512 15.999999999999998
    vertex 7.576010286826007 -5.885978446545772 0.0
    vertex 8.934349570925 -5.088732715696512 0.0
  endloop
endfacet
facet normal 0.5061815046592225 -0.8624269733379897 0.0
  outer loop
    vertex 7.576010286826007 -5.885978446545772 0.0
    vertex 8.934349570925 -5.088732715696512 15.999999999999998
    vertex 7.576010286826007 -5.885978446545772 15.999999999999998
  endloop
endfacet
facet normal 0.4207311634882104 -0.9071853658816686 0.0
  outer loop
    vertex 7.576010286826007 -5.885978446545772 15.999999999999998
    vertex 6.147175662524595 -6.54863822537755 0.0
    vertex 7.576010286826007 -5.885978446545772 0.0
  endloop
endfacet
facet normal 0.4207311634882104 -0.9071853658816686 0.0
  outer loop
    vertex 6.147175662524595 -6.54863822537755 0.0
    vertex 7.576010286826007 -5.885978446545772 15.999999999999998
    vertex 6.147175662524595 -6.54863822537755 15.999999999999998
  endloop
endfacet
facet normal 0.33136588749253654 -0.9435023310020404 0.0
  outer loop
    vertex 6.147175662524595 -6.54863822537755 15.999999999999998
    vertex 4.66114111066141 -7.070545953575471 0.0
    vertex 6.147175662524595 -6.54863822537755 0.0
  endloop
endfacet
facet normal 0.33136588749253654 -0.9435023310020404 0.0
  outer loop
    vertex 4.66114111066141 -7.070545953575471 0.0
    vertex 6.147175662524595 -6.54863822537755 15.999999999999998
    vertex 4.66114111066141 -7.070545953575471 15.999999999999998
  endloop
endfacet
facet normal 0.6087614290087265 0.7933533402912306 0.0
  outer loop
    vertex -0.5656854249492378 -6.425685424949239 15.999999999999998
    vertex -0.4000000000000021 -6.552820323027552 0.0
    vertex -0.5656854249492378 -6.425685424949239 0.0
  endloop
endfacet
facet normal 0.6087614290087265 0.7933533402912306 0.0
  outer loop
    vertex -0.4000000000000021 -6.552820323027552 0.0
    vertex -0.5656854249492378 -6.425685424949239 15.999999999999998
    vertex -0.4000000000000021 -6.552820323027552 15.999999999999998
  endloop
endfacet
facet normal 0.7933533402912344 0.6087614290087217 0.0
  outer loop
    vertex -0.6928203230275508 -6.260000000000001 0.0
    vertex -0.5656854249492378 -6.425685424949239 15.999999999999998
    vertex -0.5656854249492378 -6.425685424949239 0.0
  endloop
endfacet
facet normal 0.7933533402912344 0.6087614290087217 0.0
  outer loop
    vertex -0.5656854249492378 -6.425685424949239 15.999999999999998
    vertex -0.6928203230275508 -6.260000000000001 0.0
    vertex -0.6928203230275508 -6.260000000000001 15.999999999999998
  endloop
endfacet
facet normal 0.9238795325112839 0.38268343236509705 0.0
  outer loop
    vertex -0.7727406610312565 -6.067055236082017 0.0
    vertex -0.6928203230275508 -6.260000000000001 15.999999999999998
    vertex -0.6928203230275508 -6.260000000000001 0.0
  endloop
endfacet
facet normal 0.9238795325112839 0.38268343236509705 0.0
  outer loop
    vertex -0.6928203230275508 -6.260000000000001 15.999999999999998
    vertex -0.7727406610312565 -6.067055236082017 0.0
    vertex -0.7727406610312565 -6.067055236082017 15.999999999999998
  endloop
endfacet
facet normal 0.9914448613738108 0.13052619222004952 0.0
  outer loop
    vertex -0.8000000000000014 -5.860000000000001 0.0
    vertex -0.7727406610312565 -6.067055236082017 15.999999999999998
    vertex -0.7727406610312565 -6.067055236082017 0.0
  endloop
endfacet
facet normal 0.9914448613738108 0.13052619222004952 0.0
  outer loop
    vertex -0.7727406610312565 -6.067055236082017 15.999999999999998
    vertex -0.8000000000000014 -5.860000000000001 0.0
    vertex -0.8000000000000014 -5.860000000000001 15.999999999999998
  endloop
endfacet
facet normal 0.9914448613738108 -0.13052619222004908 0.0
  outer loop
    vertex -0.7727406610312565 -5.652944763917984 0.0
    vertex -0.8000000000000014 -5.860000000000001 15.999999999999998
    vertex -0.8000000000000014 -5.860000000000001 0.0
  endloop
endfacet
facet normal 0.9914448613738108 -0.13052619222004908 0.0
  outer loop
    vertex -0.8000000000000014 -5.860000000000001 15.999999999999998
    vertex -0.7727406610312565 -5.652944763917984 0.0
    vertex -0.7727406610312565 -5.652944763917984 15.999999999999998
  endloop
endfacet
facet normal 0.9238795325112839 -0.38268343236509705 0.0
  outer loop
    vertex -0.6928203230275508 -5.46 0.0
    vertex -0.7727406610312565 -5.652944763917984 15.999999999999998
    vertex -0.7727406610312565 -5.652944763917984 0.0
  endloop
endfacet
facet normal 0.9238795325112839 -0.38268343236509705 0.0
  outer loop
    vertex -0.7727406610312565 -5.652944763917984 15.999999999999998
    vertex -0.6928203230275508 -5.46 0.0
    vertex -0.6928203230275508 -5.46 15.999999999999998
  endloop
endfacet
facet normal 0.7933533402912344 -0.6087614290087217 0.0
  outer loop
    vertex -0.5656854249492378 -5.2943145750507625 0.0
    vertex -0.6928203230275508 -5.46 15.999999999999998
    vertex -0.6928203230275508 -5.46 0.0
  endloop
endfacet
facet normal 0.7933533402912344 -0.6087614290087217 0.0
  outer loop
    vertex -0.6928203230275508 -5.46 15.999999999999998
    vertex -0.5656854249492378 -5.2943145750507625 0.0
    vertex -0.5656854249492378 -5.2943145750507625 15.999999999999998
  endloop
endfacet
facet normal 0.6087614290087179 -0.7933533402912373 0.0
  outer loop
    vertex -0.39999999999999925 -5.16717967697245 15.999999999999998
    vertex -0.5656854249492378 -5.2943145750507625 0.0
    vertex -0.39999999999999925 -5.16717967697245 0.0
  endloop
endfacet
facet normal 0.6087614290087179 -0.7933533402912373 0.0
  outer loop
    vertex -0.5656854249492378 -5.2943145750507625 0.0
    vertex -0.39999999999999925 -5.16717967697245 15.999999999999998
    vertex -0.5656854249492378 -5.2943145750507625 15.999999999999998
  endloop
endfacet
facet normal 0.38268343236509245 -0.9238795325112856 0.0
  outer loop
    vertex -0.20705523608201595 -5.087259338968746 15.999999999999998
    vertex -0.39999999999999925 -5.16717967697245 0.0
    vertex -0.20705523608201595 -5.087259338968746 0.0
  endloop
endfacet
facet normal 0.38268343236509245 -0.9238795325112856 0.0
  outer loop
    vertex -0.39999999999999925 -5.16717967697245 0.0
    vertex -0.20705523608201595 -5.087259338968746 15.999999999999998
    vertex -0.39999999999999925 -5.16717967697245 15.999999999999998
  endloop
endfacet
facet normal 0.13052619222004952 -0.9914448613738108 0.0
  outer loop
    vertex 0.0 -5.0600000000000005 15.999999999999998
    vertex -0.20705523608201595 -5.087259338968746 0.0
    vertex 0.0 -5.0600000000000005 0.0
  endloop
endfacet
facet normal 0.13052619222004952 -0.9914448613738108 0.0
  outer loop
    vertex -0.20705523608201595 -5.087259338968746 0.0
    vertex 0.0 -5.0600000000000005 15.999999999999998
    vertex -0.20705523608201595 -5.087259338968746 15.999999999999998
  endloop
endfacet
facet normal -0.13052619222005282 -0.9914448613738104 -0.0
  outer loop
    vertex 0.20705523608201595 -5.087259338968747 15.999999999999998
    vertex 0.0 -5.0600000000000005 0.0
    vertex 0.20705523608201595 -5.087259338968747 0.0
  endloop
endfacet
facet normal -0.13052619222005282 -0.9914448613738104 -0.0
  outer loop
    vertex 0.0 -5.0600000000000005 0.0
    vertex 0.20705523608201595 -5.087259338968747 15.999999999999998
    vertex 0.0 -5.0600000000000005 15.999999999999998
  endloop
endfacet
facet normal -0.38268343236508956 -0.9238795325112867 -0.0
  outer loop
    vertex 0.39999999999999925 -5.16717967697245 15.999999999999998
    vertex 0.20705523608201595 -5.087259338968747 0.0
    vertex 0.39999999999999925 -5.16717967697245 0.0
  endloop
endfacet
facet normal -0.38268343236508956 -0.9238795325112867 -0.0
  outer loop
    vertex 0.20705523608201595 -5.087259338968747 0.0
    vertex 0.39999999999999925 -5.16717967697245 15.999999999999998
    vertex 0.20705523608201595 -5.087259338968747 15.999999999999998
  endloop
endfacet
facet normal -0.60876142900872 -0.7933533402912356 -0.0
  outer loop
    vertex 0.5656854249492378 -5.294314575050763 15.999999999999998
    vertex 0.39999999999999925 -5.16717967697245 0.0
    vertex 0.5656854249492378 -5.294314575050763 0.0
  endloop
endfacet
facet normal -0.60876142900872 -0.7933533402912356 -0.0
  outer loop
    vertex 0.39999999999999925 -5.16717967697245 0.0
    vertex 0.5656854249492378 -5.294314575050763 15.999999999999998
    vertex 0.39999999999999925 -5.16717967697245 15.999999999999998
  endloop
endfacet
facet normal -0.7933533402912344 -0.6087614290087217 -0.0
  outer loop
    vertex 0.5656854249492378 -5.294314575050763 15.999999999999998
    vertex 0.6928203230275508 -5.460000000000001 0.0
    vertex 0.6928203230275508 -5.460000000000001 15.999999999999998
  endloop
endfacet
facet normal -0.7933533402912344 -0.6087614290087217 -0.0
  outer loop
    vertex 0.6928203230275508 -5.460000000000001 0.0
    vertex 0.5656854249492378 -5.294314575050763 15.999999999999998
    vertex 0.5656854249492378 -5.294314575050763 0.0
  endloop
endfacet
facet normal -0.9238795325112881 -0.3826834323650867 -0.0
  outer loop
    vertex 0.6928203230275508 -5.460000000000001 15.999999999999998
    vertex 0.7727406610312537 -5.652944763917984 0.0
    vertex 0.7727406610312537 -5.652944763917984 15.999999999999998
  endloop
endfacet
facet normal -0.9238795325112881 -0.3826834323650867 -0.0
  outer loop
    vertex 0.7727406610312537 -5.652944763917984 0.0
    vertex 0.6928203230275508 -5.460000000000001 15.999999999999998
    vertex 0.6928203230275508 -5.460000000000001 0.0
  endloop
endfacet
facet normal -0.9914448613738108 -0.13052619222004908 -0.0
  outer loop
    vertex 0.7727406610312537 -5.652944763917984 15.999999999999998
    vertex 0.7999999999999985 -5.860000000000001 0.0
    vertex 0.7999999999999985 -5.860000000000001 15.999999999999998
  endloop
endfacet
facet normal -0.9914448613738108 -0.13052619222004908 -0.0
  outer loop
    vertex 0.7999999999999985 -5.860000000000001 0.0
    vertex 0.7727406610312537 -5.652944763917984 15.999999999999998
    vertex 0.7727406610312537 -5.652944763917984 0.0
  endloop
endfacet
facet normal -0.9914448613738108 0.13052619222004863 0.0
  outer loop
    vertex 0.7999999999999985 -5.860000000000001 15.999999999999998
    vertex 0.7727406610312537 -6.067055236082018 0.0
    vertex 0.7727406610312537 -6.067055236082018 15.999999999999998
  endloop
endfacet
facet normal -0.9914448613738108 0.13052619222004863 0.0
  outer loop
    vertex 0.7727406610312537 -6.067055236082018 0.0
    vertex 0.7999999999999985 -5.860000000000001 15.999999999999998
    vertex 0.7999999999999985 -5.860000000000001 0.0
  endloop
endfacet
facet normal -0.9238795325112881 0.3826834323650867 0.0
  outer loop
    vertex 0.7727406610312537 -6.067055236082018 15.999999999999998
    vertex 0.6928203230275508 -6.260000000000002 0.0
    vertex 0.6928203230275508 -6.260000000000002 15.999999999999998
  endloop
endfacet
facet normal -0.9238795325112881 0.3826834323650867 0.0
  outer loop
    vertex 0.6928203230275508 -6.260000000000002 0.0
    vertex 0.7727406610312537 -6.067055236082018 15.999999999999998
    vertex 0.7727406610312537 -6.067055236082018 0.0
  endloop
endfacet
facet normal -0.7933533402912333 0.6087614290087233 0.0
  outer loop
    vertex 0.6928203230275508 -6.260000000000002 15.999999999999998
    vertex 0.5656854249492378 -6.425685424949239 0.0
    vertex 0.5656854249492378 -6.425685424949239 15.999999999999998
  endloop
endfacet
facet normal -0.7933533402912333 0.6087614290087233 0.0
  outer loop
    vertex 0.5656854249492378 -6.425685424949239 0.0
    vertex 0.6928203230275508 -6.260000000000002 15.999999999999998
    vertex 0.6928203230275508 -6.260000000000002 0.0
  endloop
endfacet
facet normal -0.60876142900872 0.7933533402912356 0.0
  outer loop
    vertex 0.39999999999999925 -6.552820323027552 15.999999999999998
    vertex 0.5656854249492378 -6.425685424949239 0.0
    vertex 0.39999999999999925 -6.552820323027552 0.0
  endloop
endfacet
facet normal -0.60876142900872 0.7933533402912356 0.0
  outer loop
    vertex 0.5656854249492378 -6.425685424949239 0.0
    vertex 0.39999999999999925 -6.552820323027552 15.999999999999998
    vertex 0.5656854249492378 -6.425685424949239 15.999999999999998
  endloop
endfacet
facet normal -0.38268343236509245 0.9238795325112856 0.0
  outer loop
    vertex 0.20705523608201595 -6.632740661031256 15.999999999999998
    vertex 0.39999999999999925 -6.552820323027552 0.0
    vertex 0.20705523608201595 -6.632740661031256 0.0
  endloop
endfacet
facet normal -0.38268343236509245 0.9238795325112856 0.0
  outer loop
    vertex 0.39999999999999925 -6.552820323027552 0.0
    vertex 0.20705523608201595 -6.632740661031256 15.999999999999998
    vertex 0.39999999999999925 -6.552820323027552 15.999999999999998
  endloop
endfacet
facet normal -0.13052619222004952 0.9914448613738108 0.0
  outer loop
    vertex 0.0 -6.660000000000001 15.999999999999998
    vertex 0.20705523608201595 -6.632740661031256 0.0
    vertex 0.0 -6.660000000000001 0.0
  endloop
endfacet
facet normal -0.13052619222004952 0.9914448613738108 0.0
  outer loop
    vertex 0.20705523608201595 -6.632740661031256 0.0
    vertex 0.0 -6.660000000000001 15.999999999999998
    vertex 0.20705523608201595 -6.632740661031256 15.999999999999998
  endloop
endfacet
facet normal 0.13052619222004774 0.9914448613738109 0.0
  outer loop
    vertex -0.20705523608201878 -6.632740661031256 15.999999999999998
    vertex 0.0 -6.660000000000001 0.0
    vertex -0.20705523608201878 -6.632740661031256 0.0
  endloop
endfacet
facet normal 0.13052619222004774 0.9914448613738109 0.0
  outer loop
    vertex 0.0 -6.660000000000001 0.0
    vertex -0.20705523608201878 -6.632740661031256 15.999999999999998
    vertex 0.0 -6.660000000000001 15.999999999999998
  endloop
endfacet
facet normal 0.38268343236509245 0.9238795325112856 0.0
  outer loop
    vertex -0.4000000000000021 -6.552820323027552 15.999999999999998
    vertex -0.20705523608201878 -6.632740661031256 0.0
    vertex -0.4000000000000021 -6.552820323027552 0.0
  endloop
endfacet
facet normal 0.38268343236509245 0.9238795325112856 0.0
  outer loop
    vertex -0.20705523608201878 -6.632740661031256 0.0
    vertex -0.4000000000000021 -6.552820323027552 15.999999999999998
    vertex -0.20705523608201878 -6.632740661031256 15.999999999999998
  endloop
endfacet
endsolid Strider_v6
