solid Key
facet normal 0.7928080202933562 -0.4577279239320635 -0.4024184272761036
outer loop
vertex 8.496206889325364 -11.238620667976086 7.999999999999999
vertex 12.75 -4.75 8.999999999999998
vertex 8.75 -11.678203230275507 8.999999999999998
endloop
endfacet
facet normal 0.7928080202933562 -0.4577279239320635 -0.4024184272761036
outer loop
vertex 12.75 -4.75 8.999999999999998
vertex 8.496206889325364 -11.238620667976086 7.999999999999999
vertex 9.500000000000002 -9.5 7.999999999999999
endloop
endfacet
facet normal 0.7928080202933562 -0.4577279239320635 -0.4024184272761036
outer loop
vertex 12.75 -4.75 8.999999999999998
vertex 9.500000000000002 -9.5 7.999999999999999
vertex 12.242413778650725 -4.750000000000001 7.999999999999999
endloop
endfacet
facet normal 1.356340607856245e-16 -0.707106781186547 0.707106781186548
outer loop
vertex 8.75 -11.678203230275507 37.0
vertex 1.3273502691896264 -10.678203230275509 38.0
vertex 0.7500000000000029 -11.678203230275509 37.0
endloop
endfacet
facet normal 1.356340607856245e-16 -0.707106781186547 0.707106781186548
outer loop
vertex 1.3273502691896264 -10.678203230275509 38.0
vertex 8.75 -11.678203230275507 37.0
vertex 8.172649730810372 -10.678203230275509 38.0
endloop
endfacet
facet normal 0.0 0.0 -1.0
outer loop
vertex 0.0 -9.5 7.999999999999999
vertex -2.742413778650725 -4.750000000000001 7.999999999999999
vertex 0.0 0.0 7.999999999999999
endloop
endfacet
facet normal 1.0 0.0 0.0
outer loop
vertex 9.500000000000002 0.0 0.0
vertex 9.500000000000002 -9.5 7.999999999999999
vertex 9.500000000000002 -9.5 0.0
endloop
endfacet
facet normal 1.0 0.0 0.0
outer loop
vertex 9.500000000000002 -9.5 7.999999999999999
vertex 9.500000000000002 0.0 0.0
vertex 9.500000000000002 0.0 7.999999999999999
endloop
endfacet
facet normal 0.0 1.0 0.0
outer loop
vertex 0.0 0.0 7.999999999999999
vertex 9.500000000000002 0.0 0.0
vertex 0.0 0.0 0.0
endloop
endfacet
facet normal 0.0 1.0 0.0
outer loop
vertex 9.500000000000002 0.0 0.0
vertex 0.0 0.0 7.999999999999999
vertex 9.500000000000002 0.0 7.999999999999999
endloop
endfacet
facet normal 0.8660254037844387 -0.5000000000000001 0.0
outer loop
vertex 8.75 -11.678203230275507 8.999999999999998
vertex 9.301111260566401 -10.723650526351177 31.223542864692433
vertex 8.75 -11.678203230275507 37.0
endloop
endfacet
facet normal 0.8660254037844387 -0.5000000000000001 0.0
outer loop
vertex 9.301111260566401 -10.723650526351177 31.223542864692433
vertex 8.75 -11.678203230275507 8.999999999999998
vertex 12.75 -4.75 8.999999999999998
endloop
endfacet
facet normal 0.8660254037844387 -0.5000000000000001 0.0
outer loop
vertex 8.75 -11.678203230275507 37.0
vertex 9.301111260566401 -10.723650526351177 31.223542864692433
vertex 9.25 -10.812177826491068 31.999999999999996
endloop
endfacet
facet normal 0.8660254037844387 -0.5000000000000001 0.0
outer loop
vertex 9.301111260566401 -10.723650526351177 31.223542864692433
vertex 12.75 -4.75 8.999999999999998
vertex 9.450961894323342 -10.464101615137752 30.5
endloop
endfacet
facet normal 0.8660254037844387 -0.5000000000000001 0.0
outer loop
vertex 9.450961894323342 -10.464101615137752 30.5
vertex 12.75 -4.75 8.999999999999998
vertex 9.68933982822018 -10.051218922225138 29.878679656440355
endloop
endfacet
facet normal 0.8660254037844387 -0.5000000000000001 0.0
outer loop
vertex 9.68933982822018 -10.051218922225138 29.878679656440355
vertex 12.75 -4.75 8.999999999999998
vertex 10.000000000000005 -9.513139720814412 29.40192378864668
endloop
endfacet
facet normal 0.8660254037844387 -0.5000000000000001 0.0
outer loop
vertex 10.000000000000005 -9.513139720814412 29.40192378864668
vertex 12.75 -4.75 8.999999999999998
vertex 10.36177143234622 -8.886533219263798 29.10222252113279
endloop
endfacet
facet normal 0.8660254037844387 -0.5000000000000001 0.0
outer loop
vertex 10.36177143234622 -8.886533219263798 29.10222252113279
vertex 12.75 -4.75 8.999999999999998
vertex 10.750000000000004 -8.214101615137757 28.999999999999996
endloop
endfacet
facet normal 0.8660254037844387 -0.5000000000000001 0.0
outer loop
vertex 10.750000000000004 -8.214101615137757 28.999999999999996
vertex 12.75 -4.75 8.999999999999998
vertex 11.138228567653789 -7.541670011011719 29.10222252113279
endloop
endfacet
facet normal 0.8660254037844387 -0.5000000000000001 0.0
outer loop
vertex 11.138228567653789 -7.541670011011719 29.10222252113279
vertex 12.75 -4.75 8.999999999999998
vertex 11.500000000000009 -6.9150635094611035 29.40192378864668
endloop
endfacet
facet normal 0.8660254037844387 -0.5000000000000001 0.0
outer loop
vertex 11.500000000000009 -6.9150635094611035 29.40192378864668
vertex 12.75 -4.75 8.999999999999998
vertex 11.810660171779828 -6.376984308050376 29.878679656440355
endloop
endfacet
facet normal 0.8660254037844387 -0.5000000000000001 0.0
outer loop
vertex 11.810660171779828 -6.376984308050376 29.878679656440355
vertex 12.75 -4.75 8.999999999999998
vertex 12.049038105676665 -5.964101615137761 30.499999999999996
endloop
endfacet
facet normal 0.8660254037844387 -0.5000000000000001 0.0
outer loop
vertex 12.049038105676665 -5.964101615137761 30.499999999999996
vertex 12.75 -4.75 8.999999999999998
vertex 12.198888739433606 -5.704552703924335 31.223542864692433
endloop
endfacet
facet normal 0.8660254037844387 -0.5000000000000001 0.0
outer loop
vertex 12.198888739433606 -5.704552703924335 31.223542864692433
vertex 12.75 -4.75 8.999999999999998
vertex 12.250000000000007 -5.616025403784445 31.999999999999996
endloop
endfacet
facet normal 0.8660254037844387 -0.5000000000000001 0.0
outer loop
vertex 8.75 -11.678203230275507 37.0
vertex 10.000000000000005 -9.513139720814412 34.598076211353316
vertex 12.75 -4.75 37.0
endloop
endfacet
facet normal 0.8660254037844387 -0.5000000000000001 0.0
outer loop
vertex 10.000000000000005 -9.513139720814412 34.598076211353316
vertex 8.75 -11.678203230275507 37.0
vertex 9.689339828220186 -10.051218922225134 34.12132034355964
endloop
endfacet
facet normal 0.8660254037844387 -0.5000000000000001 0.0
outer loop
vertex 9.689339828220186 -10.051218922225134 34.12132034355964
vertex 8.75 -11.678203230275507 37.0
vertex 9.450961894323342 -10.464101615137752 33.5
endloop
endfacet
facet normal 0.8660254037844387 -0.5000000000000001 0.0
outer loop
vertex 9.450961894323342 -10.464101615137752 33.5
vertex 8.75 -11.678203230275507 37.0
vertex 9.301111260566401 -10.723650526351175 32.77645713530756
endloop
endfacet
facet normal 0.8660254037844387 -0.5000000000000001 0.0
outer loop
vertex 9.301111260566401 -10.723650526351175 32.77645713530756
vertex 8.75 -11.678203230275507 37.0
vertex 9.25 -10.812177826491068 31.999999999999996
endloop
endfacet
facet normal 0.8660254037844387 -0.5000000000000001 0.0
outer loop
vertex 12.75 -4.75 37.0
vertex 10.000000000000005 -9.513139720814412 34.598076211353316
vertex 10.361771432346226 -8.886533219263796 34.897777478867205
endloop
endfacet
facet normal 0.8660254037844387 -0.5000000000000001 0.0
outer loop
vertex 12.75 -4.75 37.0
vertex 10.361771432346226 -8.886533219263796 34.897777478867205
vertex 10.75000000000001 -8.214101615137757 35.0
endloop
endfacet
facet normal 0.8660254037844387 -0.5000000000000001 0.0
outer loop
vertex 12.75 -4.75 37.0
vertex 10.75000000000001 -8.214101615137757 35.0
vertex 11.138228567653789 -7.541670011011719 34.897777478867205
endloop
endfacet
facet normal 0.8660254037844387 -0.5000000000000001 0.0
outer loop
vertex 12.75 -4.75 37.0
vertex 11.138228567653789 -7.541670011011719 34.897777478867205
vertex 11.500000000000009 -6.915063509461101 34.598076211353316
endloop
endfacet
facet normal 0.8660254037844387 -0.5000000000000001 0.0
outer loop
vertex 12.75 -4.75 37.0
vertex 11.500000000000009 -6.915063509461101 34.598076211353316
vertex 11.810660171779828 -6.376984308050376 34.12132034355964
endloop
endfacet
facet normal 0.8660254037844387 -0.5000000000000001 0.0
outer loop
vertex 12.75 -4.75 37.0
vertex 11.810660171779828 -6.376984308050376 34.12132034355964
vertex 12.049038105676665 -5.964101615137758 33.49999999999999
endloop
endfacet
facet normal 0.8660254037844387 -0.5000000000000001 0.0
outer loop
vertex 12.75 -4.75 37.0
vertex 12.049038105676665 -5.964101615137758 33.49999999999999
vertex 12.198888739433613 -5.704552703924335 32.77645713530756
endloop
endfacet
facet normal 0.8660254037844387 -0.5000000000000001 0.0
outer loop
vertex 12.75 -4.75 37.0
vertex 12.198888739433613 -5.704552703924335 32.77645713530756
vertex 12.250000000000007 -5.616025403784445 31.999999999999996
endloop
endfacet
facet normal 0.8660254037844387 -0.5000000000000001 0.0
outer loop
vertex 12.75 -4.75 37.0
vertex 12.250000000000007 -5.616025403784445 31.999999999999996
vertex 12.75 -4.75 8.999999999999998
endloop
endfacet
facet normal 0.8660254037844384 0.5000000000000004 0.0
outer loop
vertex 8.749999999999993 2.1782032302755123 8.999999999999998
vertex 12.75 -4.75 37.0
vertex 12.75 -4.75 8.999999999999998
endloop
endfacet
facet normal 0.8660254037844384 0.5000000000000004 0.0
outer loop
vertex 12.75 -4.75 37.0
vertex 8.749999999999993 2.1782032302755123 8.999999999999998
vertex 8.749999999999993 2.1782032302755123 37.0
endloop
endfacet
facet normal -7.049916206369748e-16 1.0 0.0
outer loop
vertex 0.7499999999999972 2.1782032302755066 37.0
vertex 8.749999999999993 2.1782032302755123 8.999999999999998
vertex 0.7499999999999972 2.1782032302755066 8.999999999999998
endloop
endfacet
facet normal -7.049916206369748e-16 1.0 0.0
outer loop
vertex 8.749999999999993 2.1782032302755123 8.999999999999998
vertex 0.7499999999999972 2.1782032302755066 37.0
vertex 8.749999999999993 2.1782032302755123 37.0
endloop
endfacet
facet normal 0.0 0.0 1.0
outer loop
vertex 1.3273502691896264 -10.678203230275509 38.0
vertex 1.3273502691896242 1.1782032302755083 38.0
vertex -2.095299461620747 -4.75 38.0
endloop
endfacet
facet normal 0.0 0.0 1.0
outer loop
vertex 1.3273502691896242 1.1782032302755083 38.0
vertex 1.3273502691896264 -10.678203230275509 38.0
vertex 8.172649730810368 1.1782032302755112 38.0
endloop
endfacet
facet normal 0.0 0.0 1.0
outer loop
vertex 8.172649730810368 1.1782032302755112 38.0
vertex 1.3273502691896264 -10.678203230275509 38.0
vertex 8.172649730810372 -10.678203230275509 38.0
endloop
endfacet
facet normal 0.0 0.0 1.0
outer loop
vertex 8.172649730810368 1.1782032302755112 38.0
vertex 8.172649730810372 -10.678203230275509 38.0
vertex 11.595299461620746 -4.749999999999998 38.0
endloop
endfacet
facet normal -0.8660254037844388 0.49999999999999967 0.0
outer loop
vertex -3.2499999999999982 -4.750000000000001 37.0
vertex -2.7499999999999996 -3.8839745962155634 31.999999999999996
vertex -3.2499999999999982 -4.750000000000001 8.999999999999998
endloop
endfacet
facet normal -0.8660254037844388 0.49999999999999967 0.0
outer loop
vertex -2.7499999999999996 -3.8839745962155634 31.999999999999996
vertex -3.2499999999999982 -4.750000000000001 37.0
vertex -2.698888739433602 -3.795447296075671 32.77645713530756
endloop
endfacet
facet normal -0.8660254037844388 0.49999999999999967 0.0
outer loop
vertex -2.698888739433602 -3.795447296075671 32.77645713530756
vertex -3.2499999999999982 -4.750000000000001 37.0
vertex -2.5490381056766576 -3.5358983848622474 33.5
endloop
endfacet
facet normal -0.8660254037844388 0.49999999999999967 0.0
outer loop
vertex -2.5490381056766576 -3.5358983848622474 33.5
vertex -3.2499999999999982 -4.750000000000001 37.0
vertex -2.310660171779821 -3.123015691949631 34.12132034355964
endloop
endfacet
facet normal -0.8660254037844388 0.49999999999999967 0.0
outer loop
vertex -2.310660171779821 -3.123015691949631 34.12132034355964
vertex -3.2499999999999982 -4.750000000000001 37.0
vertex -1.9999999999999998 -2.5849364905389045 34.598076211353316
endloop
endfacet
facet normal -0.8660254037844388 0.49999999999999967 0.0
outer loop
vertex -1.9999999999999998 -2.5849364905389045 34.598076211353316
vertex -3.2499999999999982 -4.750000000000001 37.0
vertex 0.7499999999999972 2.1782032302755066 37.0
endloop
endfacet
facet normal -0.8660254037844388 0.49999999999999967 0.0
outer loop
vertex -1.9999999999999998 -2.5849364905389045 34.598076211353316
vertex 0.7499999999999972 2.1782032302755066 37.0
vertex -1.638228567653781 -1.958329988988287 34.897777478867205
endloop
endfacet
facet normal -0.8660254037844388 0.49999999999999967 0.0
outer loop
vertex -1.638228567653781 -1.958329988988287 34.897777478867205
vertex 0.7499999999999972 2.1782032302755066 37.0
vertex -1.2500000000000004 -1.2858983848622474 35.0
endloop
endfacet
facet normal -0.8660254037844388 0.49999999999999967 0.0
outer loop
vertex -1.2500000000000004 -1.2858983848622474 35.0
vertex 0.7499999999999972 2.1782032302755066 37.0
vertex -0.8617714323462192 -0.6134667807362061 34.897777478867205
endloop
endfacet
facet normal -0.8660254037844388 0.49999999999999967 0.0
outer loop
vertex -0.8617714323462192 -0.6134667807362061 34.897777478867205
vertex 0.7499999999999972 2.1782032302755066 37.0
vertex -0.5000000000000009 0.013139720814411449 34.598076211353316
endloop
endfacet
facet normal -0.8660254037844388 0.49999999999999967 0.0
outer loop
vertex -0.5000000000000009 0.013139720814411449 34.598076211353316
vertex 0.7499999999999972 2.1782032302755066 37.0
vertex -0.18933982822017978 0.5512189222251365 34.12132034355964
endloop
endfacet
facet normal -0.8660254037844388 0.49999999999999967 0.0
outer loop
vertex -0.18933982822017978 0.5512189222251365 34.12132034355964
vertex 0.7499999999999972 2.1782032302755066 37.0
vertex 0.04903810567665681 0.9641016151377542 33.49999999999999
endloop
endfacet
facet normal -0.8660254037844388 0.49999999999999967 0.0
outer loop
vertex 0.04903810567665681 0.9641016151377542 33.49999999999999
vertex 0.7499999999999972 2.1782032302755066 37.0
vertex 0.19888873943360122 1.2236505263511763 32.77645713530756
endloop
endfacet
facet normal -0.8660254037844388 0.49999999999999967 0.0
outer loop
vertex 0.19888873943360122 1.2236505263511763 32.77645713530756
vertex 0.7499999999999972 2.1782032302755066 37.0
vertex 0.24999999999999814 1.3121778264910702 31.999999999999996
endloop
endfacet
facet normal -0.8660254037844388 0.49999999999999967 0.0
outer loop
vertex -3.2499999999999982 -4.750000000000001 8.999999999999998
vertex -2.698888739433602 -3.795447296075672 31.223542864692433
vertex 0.7499999999999972 2.1782032302755066 8.999999999999998
endloop
endfacet
facet normal -0.8660254037844388 0.49999999999999967 0.0
outer loop
vertex -2.698888739433602 -3.795447296075672 31.223542864692433
vertex -3.2499999999999982 -4.750000000000001 8.999999999999998
vertex -2.7499999999999996 -3.8839745962155634 31.999999999999996
endloop
endfacet
facet normal -0.8660254037844388 0.49999999999999967 0.0
outer loop
vertex 0.7499999999999972 2.1782032302755066 8.999999999999998
vertex -2.698888739433602 -3.795447296075672 31.223542864692433
vertex -2.549038105676658 -3.5358983848622474 30.5
endloop
endfacet
facet normal -0.8660254037844388 0.49999999999999967 0.0
outer loop
vertex 0.7499999999999972 2.1782032302755066 8.999999999999998
vertex -2.549038105676658 -3.5358983848622474 30.5
vertex -2.310660171779822 -3.1230156919496324 29.878679656440355
endloop
endfacet
facet normal -0.8660254037844388 0.49999999999999967 0.0
outer loop
vertex 0.7499999999999972 2.1782032302755066 8.999999999999998
vertex -2.310660171779822 -3.1230156919496324 29.878679656440355
vertex -2.0000000000000004 -2.584936490538906 29.40192378864668
endloop
endfacet
facet normal -0.8660254037844388 0.49999999999999967 0.0
outer loop
vertex 0.7499999999999972 2.1782032302755066 8.999999999999998
vertex -2.0000000000000004 -2.584936490538906 29.40192378864668
vertex -1.6382285676537827 -1.95832998898829 29.10222252113279
endloop
endfacet
facet normal -0.8660254037844388 0.49999999999999967 0.0
outer loop
vertex 0.7499999999999972 2.1782032302755066 8.999999999999998
vertex -1.6382285676537827 -1.95832998898829 29.10222252113279
vertex -1.2500000000000009 -1.2858983848622474 28.999999999999996
endloop
endfacet
facet normal -0.8660254037844388 0.49999999999999967 0.0
outer loop
vertex 0.7499999999999972 2.1782032302755066 8.999999999999998
vertex -1.2500000000000009 -1.2858983848622474 28.999999999999996
vertex -0.8617714323462202 -0.6134667807362075 29.10222252113279
endloop
endfacet
facet normal -0.8660254037844388 0.49999999999999967 0.0
outer loop
vertex 0.7499999999999972 2.1782032302755066 8.999999999999998
vertex -0.8617714323462202 -0.6134667807362075 29.10222252113279
vertex -0.5000000000000019 0.013139720814410038 29.40192378864668
endloop
endfacet
facet normal -0.8660254037844388 0.49999999999999967 0.0
outer loop
vertex 0.7499999999999972 2.1782032302755066 8.999999999999998
vertex -0.5000000000000019 0.013139720814410038 29.40192378864668
vertex -0.1893398282201801 0.5512189222251365 29.878679656440355
endloop
endfacet
facet normal -0.8660254037844388 0.49999999999999967 0.0
outer loop
vertex 0.7499999999999972 2.1782032302755066 8.999999999999998
vertex -0.1893398282201801 0.5512189222251365 29.878679656440355
vertex 0.04903810567665611 0.9641016151377528 30.499999999999996
endloop
endfacet
facet normal -0.8660254037844388 0.49999999999999967 0.0
outer loop
vertex 0.7499999999999972 2.1782032302755066 8.999999999999998
vertex 0.04903810567665611 0.9641016151377528 30.499999999999996
vertex 0.1988887394336005 1.2236505263511763 31.223542864692433
endloop
endfacet
facet normal -0.8660254037844388 0.49999999999999967 0.0
outer loop
vertex 0.7499999999999972 2.1782032302755066 8.999999999999998
vertex 0.1988887394336005 1.2236505263511763 31.223542864692433
vertex 0.24999999999999814 1.3121778264910702 31.999999999999996
endloop
endfacet
facet normal -0.8660254037844388 0.49999999999999967 0.0
outer loop
vertex 0.7499999999999972 2.1782032302755066 8.999999999999998
vertex 0.24999999999999814 1.3121778264910702 31.999999999999996
vertex 0.7499999999999972 2.1782032302755066 37.0
endloop
endfacet
facet normal -1.0 0.0 0.0
outer loop
vertex 0.0 0.0 7.999999999999999
vertex 0.0 -9.5 0.0
vertex 0.0 -9.5 7.999999999999999
endloop
endfacet
facet normal -1.0 0.0 0.0
outer loop
vertex 0.0 -9.5 0.0
vertex 0.0 0.0 7.999999999999999
vertex 0.0 0.0 0.0
endloop
endfacet
facet normal 0.0 -1.0 0.0
outer loop
vertex 9.500000000000002 -9.5 7.999999999999999
vertex 0.0 -9.5 0.0
vertex 9.500000000000002 -9.5 0.0
endloop
endfacet
facet normal 0.0 -1.0 0.0
outer loop
vertex 0.0 -9.5 0.0
vertex 9.500000000000002 -9.5 7.999999999999999
vertex 0.0 -9.5 7.999999999999999
endloop
endfacet
facet normal -0.8660254037844387 -0.5000000000000002 -0.0
outer loop
vertex -3.2499999999999982 -4.750000000000001 37.0
vertex 0.7500000000000029 -11.678203230275509 8.999999999999998
vertex 0.7500000000000029 -11.678203230275509 37.0
endloop
endfacet
facet normal -0.8660254037844387 -0.5000000000000002 -0.0
outer loop
vertex 0.7500000000000029 -11.678203230275509 8.999999999999998
vertex -3.2499999999999982 -4.750000000000001 37.0
vertex -3.2499999999999982 -4.750000000000001 8.999999999999998
endloop
endfacet
facet normal 1.7624790515924366e-16 -1.0 0.0
outer loop
vertex 8.75 -11.678203230275507 37.0
vertex 0.7500000000000029 -11.678203230275509 8.999999999999998
vertex 8.75 -11.678203230275507 8.999999999999998
endloop
endfacet
facet normal 1.7624790515924366e-16 -1.0 0.0
outer loop
vertex 0.7500000000000029 -11.678203230275509 8.999999999999998
vertex 8.75 -11.678203230275507 37.0
vertex 0.7500000000000029 -11.678203230275509 37.0
endloop
endfacet
facet normal 0.0 0.0 -1.0
outer loop
vertex 9.500000000000002 0.0 0.0
vertex 0.0 -9.5 0.0
vertex 0.0 0.0 0.0
endloop
endfacet
facet normal 0.0 0.0 -1.0
outer loop
vertex 0.0 -9.5 0.0
vertex 9.500000000000002 0.0 0.0
vertex 9.500000000000002 -9.5 0.0
endloop
endfacet
facet normal 0.0 0.0 -1.0
outer loop
vertex 9.500000000000002 0.0 7.999999999999999
vertex 0.0 -9.5 7.999999999999999
vertex 0.0 0.0 7.999999999999999
endloop
endfacet
facet normal 0.0 0.0 -1.0
outer loop
vertex 0.0 -9.5 7.999999999999999
vertex 9.500000000000002 0.0 7.999999999999999
vertex 9.500000000000002 -9.5 7.999999999999999
endloop
endfacet
facet normal 0.7071067811865471 -5.733529126268872e-33 -0.707106781186548
outer loop
vertex 9.500000000000002 0.0 0.0
vertex 9.1 -9.1 -0.4000000000000001
vertex 9.1 -0.4000000000000007 -0.4000000000000001
endloop
endfacet
facet normal 0.7071067811865471 -5.733529126268872e-33 -0.707106781186548
outer loop
vertex 9.1 -9.1 -0.4000000000000001
vertex 9.500000000000002 0.0 0.0
vertex 9.500000000000002 -9.5 0.0
endloop
endfacet
facet normal -0.7071067811865476 0.0 -0.7071067811865476
outer loop
vertex 0.0 0.0 0.0
vertex 0.39999999999999997 -9.1 -0.4000000000000001
vertex 0.0 -9.5 0.0
endloop
endfacet
facet normal -0.7071067811865476 0.0 -0.7071067811865476
outer loop
vertex 0.39999999999999997 -9.1 -0.4000000000000001
vertex 0.0 0.0 0.0
vertex 0.39999999999999997 -0.4000000000000007 -0.4000000000000001
endloop
endfacet
facet normal 1.0163983451112998e-32 -0.7071067811865471 -0.707106781186548
outer loop
vertex 0.39999999999999997 -9.1 -0.4000000000000001
vertex 9.500000000000002 -9.5 0.0
vertex 0.0 -9.5 0.0
endloop
endfacet
facet normal 1.0163983451112998e-32 -0.7071067811865471 -0.707106781186548
outer loop
vertex 9.500000000000002 -9.5 0.0
vertex 0.39999999999999997 -9.1 -0.4000000000000001
vertex 9.1 -9.1 -0.4000000000000001
endloop
endfacet
facet normal 8.911109895646903e-18 1.7822219791293807e-17 -1.0
outer loop
vertex -1.2500000000000004 -1.2858983848622474 35.0
vertex 10.361771432346226 -8.886533219263796 34.897777478867205
vertex -1.638228567653781 -1.958329988988287 34.897777478867205
endloop
endfacet
facet normal 0.1294095225512598 0.22414386804201253 -0.9659258262890685
outer loop
vertex 10.361771432346226 -8.886533219263796 34.897777478867205
vertex -1.2500000000000004 -1.2858983848622474 35.0
vertex 10.75000000000001 -8.214101615137757 35.0
endloop
endfacet
facet normal -0.6123724356957951 -0.3535533905932742 0.7071067811865469
outer loop
vertex 0.7500000000000029 -11.678203230275509 37.0
vertex -2.095299461620747 -4.75 38.0
vertex -3.2499999999999982 -4.750000000000001 37.0
endloop
endfacet
facet normal -0.6123724356957951 -0.3535533905932742 0.7071067811865469
outer loop
vertex -2.095299461620747 -4.75 38.0
vertex 0.7500000000000029 -11.678203230275509 37.0
vertex 1.3273502691896264 -10.678203230275509 38.0
endloop
endfacet
facet normal 0.0 0.7071067811865476 -0.7071067811865476
outer loop
vertex 0.0 0.0 0.0
vertex 9.1 -0.4000000000000007 -0.4000000000000001
vertex 0.39999999999999997 -0.4000000000000007 -0.4000000000000001
endloop
endfacet
facet normal 0.0 0.7071067811865476 -0.7071067811865476
outer loop
vertex 9.1 -0.4000000000000007 -0.4000000000000001
vertex 0.0 0.0 0.0
vertex 9.500000000000002 0.0 0.0
endloop
endfacet
facet normal 0.0 0.0 -1.0
outer loop
vertex 9.1 -0.4000000000000007 -0.4000000000000001
vertex 0.39999999999999997 -9.1 -0.4000000000000001
vertex 0.39999999999999997 -0.4000000000000007 -0.4000000000000001
endloop
endfacet
facet normal 0.0 0.0 -1.0
outer loop
vertex 0.39999999999999997 -9.1 -0.4000000000000001
vertex 9.1 -0.4000000000000007 -0.4000000000000001
vertex 9.1 -9.1 -0.4000000000000001
endloop
endfacet
facet normal -0.25 -0.43301270189221963 -0.8660254037844387
outer loop
vertex -0.5000000000000009 0.013139720814411449 34.598076211353316
vertex 11.138228567653789 -7.541670011011719 34.897777478867205
vertex -0.8617714323462192 -0.6134667807362061 34.897777478867205
endloop
endfacet
facet normal -0.12940952255125995 -0.2241438680420128 -0.9659258262890686
outer loop
vertex 11.138228567653789 -7.541670011011719 34.897777478867205
vertex -0.5000000000000009 0.013139720814411449 34.598076211353316
vertex 11.500000000000009 -6.915063509461101 34.598076211353316
endloop
endfacet
facet normal -0.12940952255125995 -0.22414386804201283 -0.9659258262890686
outer loop
vertex -0.8617714323462192 -0.6134667807362061 34.897777478867205
vertex 10.75000000000001 -8.214101615137757 35.0
vertex -1.2500000000000004 -1.2858983848622474 35.0
endloop
endfacet
facet normal -5.3466659373881494e-17 -9.802220885211608e-17 -1.0
outer loop
vertex 10.75000000000001 -8.214101615137757 35.0
vertex -0.8617714323462192 -0.6134667807362061 34.897777478867205
vertex 11.138228567653789 -7.541670011011719 34.897777478867205
endloop
endfacet
facet normal -0.35355339059327434 -0.6123724356957959 -0.7071067811865462
outer loop
vertex -0.18933982822017978 0.5512189222251365 34.12132034355964
vertex 11.500000000000009 -6.915063509461101 34.598076211353316
vertex -0.5000000000000009 0.013139720814411449 34.598076211353316
endloop
endfacet
facet normal -0.24999999999999994 -0.4330127018922195 -0.8660254037844387
outer loop
vertex 11.500000000000009 -6.915063509461101 34.598076211353316
vertex -0.18933982822017978 0.5512189222251365 34.12132034355964
vertex 11.810660171779828 -6.376984308050376 34.12132034355964
endloop
endfacet
facet normal -0.3535533905932743 -0.6123724356957958 -0.7071067811865462
outer loop
vertex 11.810660171779828 -6.376984308050376 34.12132034355964
vertex 0.04903810567665681 0.9641016151377542 33.49999999999999
vertex 12.049038105676665 -5.964101615137758 33.49999999999999
endloop
endfacet
facet normal -0.43301270189221924 -0.7500000000000002 -0.49999999999999994
outer loop
vertex 0.04903810567665681 0.9641016151377542 33.49999999999999
vertex 11.810660171779828 -6.376984308050376 34.12132034355964
vertex -0.18933982822017978 0.5512189222251365 34.12132034355964
endloop
endfacet
facet normal -0.4330127018922192 -0.7500000000000001 -0.4999999999999997
outer loop
vertex 12.049038105676665 -5.964101615137758 33.49999999999999
vertex 0.19888873943360122 1.2236505263511763 32.77645713530756
vertex 12.198888739433613 -5.704552703924335 32.77645713530756
endloop
endfacet
facet normal -0.48296291314453377 -0.836516303737808 -0.25881904510252113
outer loop
vertex 0.19888873943360122 1.2236505263511763 32.77645713530756
vertex 12.049038105676665 -5.964101615137758 33.49999999999999
vertex 0.04903810567665681 0.9641016151377542 33.49999999999999
endloop
endfacet
facet normal -0.4829629131445338 -0.8365163037378082 -0.25881904510252113
outer loop
vertex 12.198888739433613 -5.704552703924335 32.77645713530756
vertex 0.24999999999999814 1.3121778264910702 31.999999999999996
vertex 12.250000000000007 -5.616025403784445 31.999999999999996
endloop
endfacet
facet normal -0.4999999999999999 -0.8660254037844388 5.435777036344616e-16
outer loop
vertex 0.24999999999999814 1.3121778264910702 31.999999999999996
vertex 12.198888739433613 -5.704552703924335 32.77645713530756
vertex 0.19888873943360122 1.2236505263511763 32.77645713530756
endloop
endfacet
facet normal -0.49999999999999967 -0.8660254037844388 2.4951107707811343e-16
outer loop
vertex 12.250000000000007 -5.616025403784445 31.999999999999996
vertex 0.1988887394336005 1.2236505263511763 31.223542864692433
vertex 12.198888739433606 -5.704552703924335 31.223542864692433
endloop
endfacet
facet normal -0.4829629131445339 -0.8365163037378083 0.25881904510252035
outer loop
vertex 0.1988887394336005 1.2236505263511763 31.223542864692433
vertex 12.250000000000007 -5.616025403784445 31.999999999999996
vertex 0.24999999999999814 1.3121778264910702 31.999999999999996
endloop
endfacet
facet normal -0.4829629131445339 -0.8365163037378082 0.2588190451025204
outer loop
vertex 12.198888739433606 -5.704552703924335 31.223542864692433
vertex 0.04903810567665611 0.9641016151377528 30.499999999999996
vertex 12.049038105676665 -5.964101615137761 30.499999999999996
endloop
endfacet
facet normal -0.43301270189221897 -0.7499999999999999 0.5000000000000007
outer loop
vertex 0.04903810567665611 0.9641016151377528 30.499999999999996
vertex 12.198888739433606 -5.704552703924335 31.223542864692433
vertex 0.1988887394336005 1.2236505263511763 31.223542864692433
endloop
endfacet
facet normal -0.43301270189221897 -0.7499999999999999 0.5000000000000007
outer loop
vertex 12.049038105676665 -5.964101615137761 30.499999999999996
vertex -0.1893398282201801 0.5512189222251365 29.878679656440355
vertex 11.810660171779828 -6.376984308050376 29.878679656440355
endloop
endfacet
facet normal -0.3535533905932733 -0.6123724356957941 0.7071067811865482
outer loop
vertex -0.1893398282201801 0.5512189222251365 29.878679656440355
vertex 12.049038105676665 -5.964101615137761 30.499999999999996
vertex 0.04903810567665611 0.9641016151377528 30.499999999999996
endloop
endfacet
facet normal -0.2499999999999997 -0.4330127018922192 0.8660254037844389
outer loop
vertex 11.500000000000009 -6.9150635094611035 29.40192378864668
vertex -0.1893398282201801 0.5512189222251365 29.878679656440355
vertex -0.5000000000000019 0.013139720814410038 29.40192378864668
endloop
endfacet
facet normal -0.3535533905932733 -0.6123724356957941 0.7071067811865482
outer loop
vertex -0.1893398282201801 0.5512189222251365 29.878679656440355
vertex 11.500000000000009 -6.9150635094611035 29.40192378864668
vertex 11.810660171779828 -6.376984308050376 29.878679656440355
endloop
endfacet
facet normal -0.12940952255126015 -0.22414386804201317 0.9659258262890685
outer loop
vertex 11.138228567653789 -7.541670011011719 29.10222252113279
vertex -0.5000000000000019 0.013139720814410038 29.40192378864668
vertex -0.8617714323462202 -0.6134667807362075 29.10222252113279
endloop
endfacet
facet normal -0.2499999999999997 -0.43301270189221913 0.8660254037844388
outer loop
vertex -0.5000000000000019 0.013139720814410038 29.40192378864668
vertex 11.138228567653789 -7.541670011011719 29.10222252113279
vertex 11.500000000000009 -6.9150635094611035 29.40192378864668
endloop
endfacet
facet normal -2.5842218697376e-16 -4.544666046779917e-16 1.0
outer loop
vertex 10.750000000000004 -8.214101615137757 28.999999999999996
vertex -0.8617714323462202 -0.6134667807362075 29.10222252113279
vertex -1.2500000000000009 -1.2858983848622474 28.999999999999996
endloop
endfacet
facet normal -0.12940952255126 -0.22414386804201292 0.9659258262890684
outer loop
vertex -0.8617714323462202 -0.6134667807362075 29.10222252113279
vertex 10.750000000000004 -8.214101615137757 28.999999999999996
vertex 11.138228567653789 -7.541670011011719 29.10222252113279
endloop
endfacet
facet normal 0.12940952255125995 0.2241438680420128 0.9659258262890685
outer loop
vertex 10.36177143234622 -8.886533219263798 29.10222252113279
vertex -1.2500000000000009 -1.2858983848622474 28.999999999999996
vertex -1.6382285676537827 -1.95832998898829 29.10222252113279
endloop
endfacet
facet normal -1.2029998359123324e-16 -2.0495552759987886e-16 1.0
outer loop
vertex -1.2500000000000009 -1.2858983848622474 28.999999999999996
vertex 10.36177143234622 -8.886533219263798 29.10222252113279
vertex 10.750000000000004 -8.214101615137757 28.999999999999996
endloop
endfacet
facet normal 0.24999999999999997 0.4330127018922196 0.8660254037844387
outer loop
vertex 10.000000000000005 -9.513139720814412 29.40192378864668
vertex -1.6382285676537827 -1.95832998898829 29.10222252113279
vertex -2.0000000000000004 -2.584936490538906 29.40192378864668
endloop
endfacet
facet normal 0.12940952255125995 0.2241438680420128 0.9659258262890686
outer loop
vertex -1.6382285676537827 -1.95832998898829 29.10222252113279
vertex 10.000000000000005 -9.513139720814412 29.40192378864668
vertex 10.36177143234622 -8.886533219263798 29.10222252113279
endloop
endfacet
facet normal 0.35355339059327434 0.612372435695796 0.7071067811865459
outer loop
vertex 9.68933982822018 -10.051218922225138 29.878679656440355
vertex -2.0000000000000004 -2.584936490538906 29.40192378864668
vertex -2.310660171779822 -3.1230156919496324 29.878679656440355
endloop
endfacet
facet normal 0.25000000000000006 0.4330127018922197 0.8660254037844386
outer loop
vertex -2.0000000000000004 -2.584936490538906 29.40192378864668
vertex 9.68933982822018 -10.051218922225138 29.878679656440355
vertex 10.000000000000005 -9.513139720814412 29.40192378864668
endloop
endfacet
facet normal 0.43301270189221913 0.7500000000000002 0.49999999999999994
outer loop
vertex -2.549038105676658 -3.5358983848622474 30.5
vertex 9.68933982822018 -10.051218922225138 29.878679656440355
vertex -2.310660171779822 -3.1230156919496324 29.878679656440355
endloop
endfacet
facet normal 0.35355339059327434 0.612372435695796 0.7071067811865459
outer loop
vertex 9.68933982822018 -10.051218922225138 29.878679656440355
vertex -2.549038105676658 -3.5358983848622474 30.5
vertex 9.450961894323342 -10.464101615137752 30.5
endloop
endfacet
facet normal 0.48296291314453377 0.8365163037378079 0.25881904510252135
outer loop
vertex -2.698888739433602 -3.795447296075672 31.223542864692433
vertex 9.450961894323342 -10.464101615137752 30.5
vertex -2.549038105676658 -3.5358983848622474 30.5
endloop
endfacet
facet normal 0.43301270189221913 0.7500000000000003 0.4999999999999998
outer loop
vertex 9.450961894323342 -10.464101615137752 30.5
vertex -2.698888739433602 -3.795447296075672 31.223542864692433
vertex 9.301111260566401 -10.723650526351177 31.223542864692433
endloop
endfacet
facet normal 0.4999999999999998 0.8660254037844388 -9.26755429147278e-16
outer loop
vertex -2.7499999999999996 -3.8839745962155634 31.999999999999996
vertex 9.301111260566401 -10.723650526351177 31.223542864692433
vertex -2.698888739433602 -3.795447296075672 31.223542864692433
endloop
endfacet
facet normal 0.4829629131445339 0.836516303737808 0.2588190451025214
outer loop
vertex 9.301111260566401 -10.723650526351177 31.223542864692433
vertex -2.7499999999999996 -3.8839745962155634 31.999999999999996
vertex 9.25 -10.812177826491068 31.999999999999996
endloop
endfacet
facet normal 0.48296291314453393 0.8365163037378082 -0.25881904510252013
outer loop
vertex -2.698888739433602 -3.795447296075671 32.77645713530756
vertex 9.25 -10.812177826491068 31.999999999999996
vertex -2.7499999999999996 -3.8839745962155634 31.999999999999996
endloop
endfacet
facet normal 0.4999999999999998 0.8660254037844388 -8.198221103995136e-16
outer loop
vertex 9.25 -10.812177826491068 31.999999999999996
vertex -2.698888739433602 -3.795447296075671 32.77645713530756
vertex 9.301111260566401 -10.723650526351175 32.77645713530756
endloop
endfacet
facet normal 0.4330127018922189 0.7499999999999998 -0.5000000000000004
outer loop
vertex -2.5490381056766576 -3.5358983848622474 33.5
vertex 9.301111260566401 -10.723650526351175 32.77645713530756
vertex -2.698888739433602 -3.795447296075671 32.77645713530756
endloop
endfacet
facet normal 0.482962913144534 0.8365163037378083 -0.2588190451025202
outer loop
vertex 9.301111260566401 -10.723650526351175 32.77645713530756
vertex -2.5490381056766576 -3.5358983848622474 33.5
vertex 9.450961894323342 -10.464101615137752 33.5
endloop
endfacet
facet normal 0.3535533905932734 0.6123724356957945 -0.7071067811865479
outer loop
vertex -2.310660171779821 -3.123015691949631 34.12132034355964
vertex 9.450961894323342 -10.464101615137752 33.5
vertex -2.5490381056766576 -3.5358983848622474 33.5
endloop
endfacet
facet normal 0.4330127018922188 0.7499999999999998 -0.5000000000000007
outer loop
vertex 9.450961894323342 -10.464101615137752 33.5
vertex -2.310660171779821 -3.123015691949631 34.12132034355964
vertex 9.689339828220186 -10.051218922225134 34.12132034355964
endloop
endfacet
facet normal 0.0 0.0 -1.0
outer loop
vertex 1.0037931106746318 1.7386206679760847 7.999999999999999
vertex 9.500000000000002 0.0 7.999999999999999
vertex 0.0 0.0 7.999999999999999
endloop
endfacet
facet normal 0.0 0.0 -1.0
outer loop
vertex 9.500000000000002 0.0 7.999999999999999
vertex 1.0037931106746318 1.7386206679760847 7.999999999999999
vertex 8.496206889325357 1.7386206679760905 7.999999999999999
endloop
endfacet
facet normal 0.2499999999999999 0.4330127018922195 -0.8660254037844387
outer loop
vertex -1.9999999999999998 -2.5849364905389045 34.598076211353316
vertex 9.689339828220186 -10.051218922225134 34.12132034355964
vertex -2.310660171779821 -3.123015691949631 34.12132034355964
endloop
endfacet
facet normal 0.35355339059327323 0.6123724356957941 -0.7071067811865481
outer loop
vertex 9.689339828220186 -10.051218922225134 34.12132034355964
vertex -1.9999999999999998 -2.5849364905389045 34.598076211353316
vertex 10.000000000000005 -9.513139720814412 34.598076211353316
endloop
endfacet
facet normal 0.12940952255125993 0.22414386804201278 -0.9659258262890685
outer loop
vertex -1.638228567653781 -1.958329988988287 34.897777478867205
vertex 10.000000000000005 -9.513139720814412 34.598076211353316
vertex -1.9999999999999998 -2.5849364905389045 34.598076211353316
endloop
endfacet
facet normal 0.2499999999999998 0.4330127018922194 -0.8660254037844388
outer loop
vertex 10.000000000000005 -9.513139720814412 34.598076211353316
vertex -1.638228567653781 -1.958329988988287 34.897777478867205
vertex 10.361771432346226 -8.886533219263796 34.897777478867205
endloop
endfacet
facet normal -4.675805779714953e-16 0.707106781186547 0.707106781186548
outer loop
vertex 1.3273502691896242 1.1782032302755083 38.0
vertex 8.749999999999993 2.1782032302755123 37.0
vertex 0.7499999999999972 2.1782032302755066 37.0
endloop
endfacet
facet normal -4.675805779714953e-16 0.707106781186547 0.707106781186548
outer loop
vertex 8.749999999999993 2.1782032302755123 37.0
vertex 1.3273502691896242 1.1782032302755083 38.0
vertex 8.172649730810368 1.1782032302755112 38.0
endloop
endfacet
facet normal 0.6123724356957939 0.35355339059327384 0.707106781186548
outer loop
vertex 11.595299461620746 -4.749999999999998 38.0
vertex 8.749999999999993 2.1782032302755123 37.0
vertex 8.172649730810368 1.1782032302755112 38.0
endloop
endfacet
facet normal 0.6123724356957939 0.35355339059327384 0.707106781186548
outer loop
vertex 8.749999999999993 2.1782032302755123 37.0
vertex 11.595299461620746 -4.749999999999998 38.0
vertex 12.75 -4.75 37.0
endloop
endfacet
facet normal -0.6123724356957936 0.35355339059327306 0.7071067811865487
outer loop
vertex -2.095299461620747 -4.75 38.0
vertex 0.7499999999999972 2.1782032302755066 37.0
vertex -3.2499999999999982 -4.750000000000001 37.0
endloop
endfacet
facet normal -0.6123724356957936 0.35355339059327306 0.7071067811865487
outer loop
vertex 0.7499999999999972 2.1782032302755066 37.0
vertex -2.095299461620747 -4.75 38.0
vertex 1.3273502691896242 1.1782032302755083 38.0
endloop
endfacet
facet normal 0.0 0.0 -1.0
outer loop
vertex 12.242413778650725 -4.750000000000001 7.999999999999999
vertex 9.500000000000002 -9.5 7.999999999999999
vertex 9.500000000000002 0.0 7.999999999999999
endloop
endfacet
facet normal 0.0 0.0 1.0
outer loop
vertex 0.7500000000000029 -11.678203230275509 37.0
vertex 0.7499999999999972 2.1782032302755066 37.0
vertex -3.2499999999999982 -4.750000000000001 37.0
endloop
endfacet
facet normal 0.0 0.0 1.0
outer loop
vertex 0.7499999999999972 2.1782032302755066 37.0
vertex 0.7500000000000029 -11.678203230275509 37.0
vertex 8.749999999999993 2.1782032302755123 37.0
endloop
endfacet
facet normal 0.0 0.0 1.0
outer loop
vertex 8.749999999999993 2.1782032302755123 37.0
vertex 0.7500000000000029 -11.678203230275509 37.0
vertex 8.75 -11.678203230275507 37.0
endloop
endfacet
facet normal 0.0 0.0 1.0
outer loop
vertex 8.749999999999993 2.1782032302755123 37.0
vertex 8.75 -11.678203230275507 37.0
vertex 12.75 -4.75 37.0
endloop
endfacet
facet normal 0.6123724356957947 -0.35355339059327395 0.7071067811865472
outer loop
vertex 8.75 -11.678203230275507 37.0
vertex 11.595299461620746 -4.749999999999998 38.0
vertex 8.172649730810372 -10.678203230275509 38.0
endloop
endfacet
facet normal 0.6123724356957947 -0.35355339059327395 0.7071067811865472
outer loop
vertex 11.595299461620746 -4.749999999999998 38.0
vertex 8.75 -11.678203230275507 37.0
vertex 12.75 -4.75 37.0
endloop
endfacet
facet normal 0.7928080202933562 0.457727923932064 -0.402418427276103
outer loop
vertex 9.500000000000002 0.0 7.999999999999999
vertex 12.75 -4.75 8.999999999999998
vertex 12.242413778650725 -4.750000000000001 7.999999999999999
endloop
endfacet
facet normal 0.7928080202933562 0.457727923932064 -0.402418427276103
outer loop
vertex 12.75 -4.75 8.999999999999998
vertex 9.500000000000002 0.0 7.999999999999999
vertex 8.749999999999993 2.1782032302755123 8.999999999999998
endloop
endfacet
facet normal 0.7928080202933562 0.457727923932064 -0.402418427276103
outer loop
vertex 8.749999999999993 2.1782032302755123 8.999999999999998
vertex 9.500000000000002 0.0 7.999999999999999
vertex 8.496206889325357 1.7386206679760905 7.999999999999999
endloop
endfacet
facet normal -0.7928080202933562 -0.4577279239320638 -0.40241842727610316
outer loop
vertex -3.2499999999999982 -4.750000000000001 8.999999999999998
vertex 1.0037931106746403 -11.238620667976088 7.999999999999999
vertex 0.7500000000000029 -11.678203230275509 8.999999999999998
endloop
endfacet
facet normal -0.7928080202933562 -0.4577279239320638 -0.40241842727610316
outer loop
vertex 1.0037931106746403 -11.238620667976088 7.999999999999999
vertex -3.2499999999999982 -4.750000000000001 8.999999999999998
vertex 0.0 -9.5 7.999999999999999
endloop
endfacet
facet normal -0.7928080202933562 -0.4577279239320638 -0.40241842727610316
outer loop
vertex 0.0 -9.5 7.999999999999999
vertex -3.2499999999999982 -4.750000000000001 8.999999999999998
vertex -2.742413778650725 -4.750000000000001 7.999999999999999
endloop
endfacet
facet normal -0.7928080202933563 0.45772792393206324 -0.40241842727610344
outer loop
vertex 0.7499999999999972 2.1782032302755066 8.999999999999998
vertex -2.742413778650725 -4.750000000000001 7.999999999999999
vertex -3.2499999999999982 -4.750000000000001 8.999999999999998
endloop
endfacet
facet normal -0.7928080202933563 0.45772792393206324 -0.40241842727610344
outer loop
vertex -2.742413778650725 -4.750000000000001 7.999999999999999
vertex 0.7499999999999972 2.1782032302755066 8.999999999999998
vertex 0.0 0.0 7.999999999999999
endloop
endfacet
facet normal -0.7928080202933563 0.45772792393206324 -0.40241842727610344
outer loop
vertex 0.0 0.0 7.999999999999999
vertex 0.7499999999999972 2.1782032302755066 8.999999999999998
vertex 1.0037931106746318 1.7386206679760847 7.999999999999999
endloop
endfacet
facet normal -6.638459195764456e-16 0.9154558478641273 -0.4024184272761029
outer loop
vertex 0.7499999999999972 2.1782032302755066 8.999999999999998
vertex 8.496206889325357 1.7386206679760905 7.999999999999999
vertex 1.0037931106746318 1.7386206679760847 7.999999999999999
endloop
endfacet
facet normal -6.638459195764456e-16 0.9154558478641273 -0.4024184272761029
outer loop
vertex 8.496206889325357 1.7386206679760905 7.999999999999999
vertex 0.7499999999999972 2.1782032302755066 8.999999999999998
vertex 8.749999999999993 2.1782032302755123 8.999999999999998
endloop
endfacet
facet normal 1.6894859959983546e-16 -0.9154558478641273 -0.4024184272761029
outer loop
vertex 8.75 -11.678203230275507 8.999999999999998
vertex 1.0037931106746403 -11.238620667976088 7.999999999999999
vertex 8.496206889325364 -11.238620667976086 7.999999999999999
endloop
endfacet
facet normal 1.6894859959983546e-16 -0.9154558478641273 -0.4024184272761029
outer loop
vertex 1.0037931106746403 -11.238620667976088 7.999999999999999
vertex 8.75 -11.678203230275507 8.999999999999998
vertex 0.7500000000000029 -11.678203230275509 8.999999999999998
endloop
endfacet
facet normal 0.0 0.0 -1.0
outer loop
vertex 0.7499999999999972 2.1782032302755066 8.999999999999998
vertex 0.7500000000000029 -11.678203230275509 8.999999999999998
vertex -3.2499999999999982 -4.750000000000001 8.999999999999998
endloop
endfacet
facet normal 0.0 0.0 -1.0
outer loop
vertex 0.7500000000000029 -11.678203230275509 8.999999999999998
vertex 0.7499999999999972 2.1782032302755066 8.999999999999998
vertex 8.749999999999993 2.1782032302755123 8.999999999999998
endloop
endfacet
facet normal 0.0 0.0 -1.0
outer loop
vertex 0.7500000000000029 -11.678203230275509 8.999999999999998
vertex 8.749999999999993 2.1782032302755123 8.999999999999998
vertex 8.75 -11.678203230275507 8.999999999999998
endloop
endfacet
facet normal 0.0 0.0 -1.0
outer loop
vertex 8.75 -11.678203230275507 8.999999999999998
vertex 8.749999999999993 2.1782032302755123 8.999999999999998
vertex 12.75 -4.75 8.999999999999998
endloop
endfacet
facet normal 0.0 0.0 -1.0
outer loop
vertex 9.500000000000002 -9.5 7.999999999999999
vertex 1.0037931106746403 -11.238620667976088 7.999999999999999
vertex 0.0 -9.5 7.999999999999999
endloop
endfacet
facet normal 0.0 0.0 -1.0
outer loop
vertex 1.0037931106746403 -11.238620667976088 7.999999999999999
vertex 9.500000000000002 -9.5 7.999999999999999
vertex 8.496206889325364 -11.238620667976086 7.999999999999999
endloop
endfacet
endsolid Key
