ISO-10303-21;
HEADER;
/* Generated by software containing ST-Developer
 * from STEP Tools, Inc. (www.steptools.com) 
 */

FILE_DESCRIPTION(
/* description */ (''),
/* implementation_level */ '2;1');

FILE_NAME(
/* name */ 'C:/Users/Sven/Downloads/Kettenglied v5 v1.step',
/* time_stamp */ '2019-01-07T16:30:30+01:00',
/* author */ ('infoLR2P4'),
/* organization */ (''),
/* preprocessor_version */ 'ST-DEVELOPER v17.2',
/* originating_system */ 'Autodesk Translation Framework v7.6.0.251',
/* authorisation */ '');

FILE_SCHEMA (('AUTOMOTIVE_DESIGN { 1 0 10303 214 3 1 1 }'));
ENDSEC;

DATA;
#10=MECHANICAL_DESIGN_GEOMETRIC_PRESENTATION_REPRESENTATION('',(#13),#1272);
#11=SHAPE_REPRESENTATION_RELATIONSHIP('SRR','None',#1279,#12);
#12=ADVANCED_BREP_SHAPE_REPRESENTATION('',(#14),#1271);
#13=STYLED_ITEM('',(#1288),#14);
#14=MANIFOLD_SOLID_BREP('Body1',#761);
#15=ELLIPSE('',#809,1.51474135877793,1.5);
#16=ELLIPSE('',#810,2.01965514503724,2.);
#17=ELLIPSE('',#811,2.01965514503724,2.);
#18=ELLIPSE('',#812,1.51474135877793,1.5);
#19=ELLIPSE('',#814,1.51474135877793,1.5);
#20=ELLIPSE('',#815,2.01965514503724,2.);
#21=ELLIPSE('',#816,2.01965514503724,2.);
#22=ELLIPSE('',#817,1.51474135877793,1.5);
#23=CYLINDRICAL_SURFACE('',#806,1.69095396114147);
#24=CYLINDRICAL_SURFACE('',#820,1.5);
#25=CYLINDRICAL_SURFACE('',#821,1.5);
#26=CYLINDRICAL_SURFACE('',#822,2.);
#27=CYLINDRICAL_SURFACE('',#823,2.);
#28=CYLINDRICAL_SURFACE('',#825,1.69095396114147);
#29=CYLINDRICAL_SURFACE('',#826,1.75);
#30=CYLINDRICAL_SURFACE('',#827,1.75);
#31=CYLINDRICAL_SURFACE('',#828,1.75);
#32=CYLINDRICAL_SURFACE('',#836,3.);
#33=CYLINDRICAL_SURFACE('',#837,3.);
#34=CYLINDRICAL_SURFACE('',#838,3.);
#35=FACE_BOUND('',#83,.T.);
#36=FACE_BOUND('',#85,.T.);
#37=FACE_BOUND('',#87,.T.);
#38=FACE_BOUND('',#89,.T.);
#39=FACE_BOUND('',#91,.T.);
#40=FACE_BOUND('',#93,.T.);
#41=FACE_OUTER_BOUND('',#78,.T.);
#42=FACE_OUTER_BOUND('',#79,.T.);
#43=FACE_OUTER_BOUND('',#80,.T.);
#44=FACE_OUTER_BOUND('',#81,.T.);
#45=FACE_OUTER_BOUND('',#82,.T.);
#46=FACE_OUTER_BOUND('',#84,.T.);
#47=FACE_OUTER_BOUND('',#86,.T.);
#48=FACE_OUTER_BOUND('',#88,.T.);
#49=FACE_OUTER_BOUND('',#90,.T.);
#50=FACE_OUTER_BOUND('',#92,.T.);
#51=FACE_OUTER_BOUND('',#94,.T.);
#52=FACE_OUTER_BOUND('',#95,.T.);
#53=FACE_OUTER_BOUND('',#96,.T.);
#54=FACE_OUTER_BOUND('',#97,.T.);
#55=FACE_OUTER_BOUND('',#98,.T.);
#56=FACE_OUTER_BOUND('',#99,.T.);
#57=FACE_OUTER_BOUND('',#100,.T.);
#58=FACE_OUTER_BOUND('',#101,.T.);
#59=FACE_OUTER_BOUND('',#102,.T.);
#60=FACE_OUTER_BOUND('',#103,.T.);
#61=FACE_OUTER_BOUND('',#104,.T.);
#62=FACE_OUTER_BOUND('',#105,.T.);
#63=FACE_OUTER_BOUND('',#106,.T.);
#64=FACE_OUTER_BOUND('',#107,.T.);
#65=FACE_OUTER_BOUND('',#108,.T.);
#66=FACE_OUTER_BOUND('',#109,.T.);
#67=FACE_OUTER_BOUND('',#110,.T.);
#68=FACE_OUTER_BOUND('',#111,.T.);
#69=FACE_OUTER_BOUND('',#112,.T.);
#70=FACE_OUTER_BOUND('',#113,.T.);
#71=FACE_OUTER_BOUND('',#114,.T.);
#72=FACE_OUTER_BOUND('',#115,.T.);
#73=FACE_OUTER_BOUND('',#116,.T.);
#74=FACE_OUTER_BOUND('',#117,.T.);
#75=FACE_OUTER_BOUND('',#118,.T.);
#76=FACE_OUTER_BOUND('',#119,.T.);
#77=FACE_OUTER_BOUND('',#120,.T.);
#78=EDGE_LOOP('',(#483,#484,#485,#486,#487,#488,#489));
#79=EDGE_LOOP('',(#490,#491,#492,#493,#494,#495));
#80=EDGE_LOOP('',(#496,#497,#498,#499));
#81=EDGE_LOOP('',(#500,#501,#502,#503,#504,#505,#506,#507,#508,#509,#510,
#511,#512,#513,#514,#515,#516,#517,#518,#519));
#82=EDGE_LOOP('',(#520,#521,#522,#523,#524,#525));
#83=EDGE_LOOP('',(#526));
#84=EDGE_LOOP('',(#527,#528,#529,#530));
#85=EDGE_LOOP('',(#531));
#86=EDGE_LOOP('',(#532,#533,#534,#535));
#87=EDGE_LOOP('',(#536,#537));
#88=EDGE_LOOP('',(#538,#539,#540,#541,#542,#543));
#89=EDGE_LOOP('',(#544,#545));
#90=EDGE_LOOP('',(#546,#547,#548,#549));
#91=EDGE_LOOP('',(#550));
#92=EDGE_LOOP('',(#551,#552,#553,#554));
#93=EDGE_LOOP('',(#555,#556));
#94=EDGE_LOOP('',(#557,#558,#559,#560));
#95=EDGE_LOOP('',(#561,#562,#563,#564));
#96=EDGE_LOOP('',(#565,#566,#567,#568));
#97=EDGE_LOOP('',(#569,#570,#571,#572,#573,#574,#575,#576,#577,#578,#579,
#580,#581,#582,#583,#584,#585,#586));
#98=EDGE_LOOP('',(#587,#588,#589,#590,#591,#592,#593,#594,#595));
#99=EDGE_LOOP('',(#596,#597,#598,#599,#600,#601,#602,#603,#604));
#100=EDGE_LOOP('',(#605,#606,#607,#608));
#101=EDGE_LOOP('',(#609,#610,#611,#612));
#102=EDGE_LOOP('',(#613,#614,#615,#616));
#103=EDGE_LOOP('',(#617,#618,#619,#620));
#104=EDGE_LOOP('',(#621,#622,#623,#624));
#105=EDGE_LOOP('',(#625,#626,#627,#628));
#106=EDGE_LOOP('',(#629,#630,#631,#632,#633,#634));
#107=EDGE_LOOP('',(#635,#636,#637,#638));
#108=EDGE_LOOP('',(#639,#640,#641,#642,#643));
#109=EDGE_LOOP('',(#644,#645,#646,#647,#648));
#110=EDGE_LOOP('',(#649,#650,#651,#652,#653));
#111=EDGE_LOOP('',(#654,#655,#656,#657));
#112=EDGE_LOOP('',(#658,#659,#660,#661));
#113=EDGE_LOOP('',(#662,#663,#664,#665));
#114=EDGE_LOOP('',(#666,#667,#668,#669,#670));
#115=EDGE_LOOP('',(#671,#672,#673,#674));
#116=EDGE_LOOP('',(#675,#676,#677,#678));
#117=EDGE_LOOP('',(#679,#680,#681,#682,#683,#684,#685,#686));
#118=EDGE_LOOP('',(#687,#688,#689,#690));
#119=EDGE_LOOP('',(#691,#692,#693,#694));
#120=EDGE_LOOP('',(#695,#696,#697,#698));
#121=CIRCLE('',#776,1.69095396114147);
#122=CIRCLE('',#778,1.69095396114147);
#123=CIRCLE('',#782,3.);
#124=CIRCLE('',#783,1.69095396114147);
#125=CIRCLE('',#784,1.75);
#126=CIRCLE('',#786,3.);
#127=CIRCLE('',#787,1.75);
#128=CIRCLE('',#789,3.);
#129=CIRCLE('',#790,1.75);
#130=CIRCLE('',#791,1.75);
#131=CIRCLE('',#793,3.);
#132=CIRCLE('',#794,1.69095396114147);
#133=CIRCLE('',#795,1.75);
#134=CIRCLE('',#796,1.75);
#135=CIRCLE('',#798,3.);
#136=CIRCLE('',#799,1.75);
#137=CIRCLE('',#801,3.);
#138=CIRCLE('',#802,1.75);
#139=CIRCLE('',#803,1.75);
#140=LINE('',#1054,#221);
#141=LINE('',#1056,#222);
#142=LINE('',#1058,#223);
#143=LINE('',#1062,#224);
#144=LINE('',#1064,#225);
#145=LINE('',#1065,#226);
#146=LINE('',#1069,#227);
#147=LINE('',#1071,#228);
#148=LINE('',#1073,#229);
#149=LINE('',#1075,#230);
#150=LINE('',#1077,#231);
#151=LINE('',#1082,#232);
#152=LINE('',#1084,#233);
#153=LINE('',#1086,#234);
#154=LINE('',#1087,#235);
#155=LINE('',#1091,#236);
#156=LINE('',#1093,#237);
#157=LINE('',#1095,#238);
#158=LINE('',#1096,#239);
#159=LINE('',#1098,#240);
#160=LINE('',#1100,#241);
#161=LINE('',#1102,#242);
#162=LINE('',#1104,#243);
#163=LINE('',#1106,#244);
#164=LINE('',#1108,#245);
#165=LINE('',#1110,#246);
#166=LINE('',#1112,#247);
#167=LINE('',#1114,#248);
#168=LINE('',#1116,#249);
#169=LINE('',#1118,#250);
#170=LINE('',#1120,#251);
#171=LINE('',#1121,#252);
#172=LINE('',#1122,#253);
#173=LINE('',#1127,#254);
#174=LINE('',#1129,#255);
#175=LINE('',#1131,#256);
#176=LINE('',#1138,#257);
#177=LINE('',#1140,#258);
#178=LINE('',#1147,#259);
#179=LINE('',#1148,#260);
#180=LINE('',#1155,#261);
#181=LINE('',#1159,#262);
#182=LINE('',#1168,#263);
#183=LINE('',#1169,#264);
#184=LINE('',#1175,#265);
#185=LINE('',#1177,#266);
#186=LINE('',#1185,#267);
#187=LINE('',#1187,#268);
#188=LINE('',#1189,#269);
#189=LINE('',#1190,#270);
#190=LINE('',#1192,#271);
#191=LINE('',#1193,#272);
#192=LINE('',#1196,#273);
#193=LINE('',#1197,#274);
#194=LINE('',#1198,#275);
#195=LINE('',#1199,#276);
#196=LINE('',#1200,#277);
#197=LINE('',#1201,#278);
#198=LINE('',#1203,#279);
#199=LINE('',#1204,#280);
#200=LINE('',#1205,#281);
#201=LINE('',#1208,#282);
#202=LINE('',#1212,#283);
#203=LINE('',#1217,#284);
#204=LINE('',#1221,#285);
#205=LINE('',#1225,#286);
#206=LINE('',#1230,#287);
#207=LINE('',#1233,#288);
#208=LINE('',#1234,#289);
#209=LINE('',#1236,#290);
#210=LINE('',#1237,#291);
#211=LINE('',#1240,#292);
#212=LINE('',#1245,#293);
#213=LINE('',#1246,#294);
#214=LINE('',#1247,#295);
#215=LINE('',#1250,#296);
#216=LINE('',#1252,#297);
#217=LINE('',#1254,#298);
#218=LINE('',#1260,#299);
#219=LINE('',#1261,#300);
#220=LINE('',#1263,#301);
#221=VECTOR('',#843,2.9048993717613);
#222=VECTOR('',#844,0.0914287301941336);
#223=VECTOR('',#845,2.4120856324217);
#224=VECTOR('',#848,5.00815594667691);
#225=VECTOR('',#849,6.);
#226=VECTOR('',#850,7.50000000000001);
#227=VECTOR('',#853,2.20717936101505);
#228=VECTOR('',#854,3.08827703495087);
#229=VECTOR('',#855,7.50000000000001);
#230=VECTOR('',#856,6.);
#231=VECTOR('',#857,5.00815594667691);
#232=VECTOR('',#862,0.031294085470106);
#233=VECTOR('',#863,2.08543218082135);
#234=VECTOR('',#864,0.0312940854701105);
#235=VECTOR('',#865,2.08543218082135);
#236=VECTOR('',#868,5.49999999999999);
#237=VECTOR('',#869,19.);
#238=VECTOR('',#870,5.49999999999999);
#239=VECTOR('',#871,15.5);
#240=VECTOR('',#872,5.);
#241=VECTOR('',#873,6.49184405332309);
#242=VECTOR('',#874,10.);
#243=VECTOR('',#875,5.);
#244=VECTOR('',#876,7.00000000000003);
#245=VECTOR('',#877,9.79178156641163);
#246=VECTOR('',#878,6.);
#247=VECTOR('',#879,9.79178156641163);
#248=VECTOR('',#880,7.00000000000002);
#249=VECTOR('',#881,5.);
#250=VECTOR('',#882,10.);
#251=VECTOR('',#883,6.49184405332309);
#252=VECTOR('',#884,5.);
#253=VECTOR('',#885,15.5);
#254=VECTOR('',#890,4.);
#255=VECTOR('',#891,3.08827703495087);
#256=VECTOR('',#892,2.20717936101505);
#257=VECTOR('',#899,5.49999999999999);
#258=VECTOR('',#902,6.);
#259=VECTOR('',#909,5.49999999999999);
#260=VECTOR('',#910,6.);
#261=VECTOR('',#917,3.5);
#262=VECTOR('',#922,3.32775858688623);
#263=VECTOR('',#931,5.);
#264=VECTOR('',#932,6.);
#265=VECTOR('',#937,5.);
#266=VECTOR('',#940,6.);
#267=VECTOR('',#947,1.17940335404843);
#268=VECTOR('',#948,4.03242831416651);
#269=VECTOR('',#949,1.17940335404843);
#270=VECTOR('',#950,4.03242831416651);
#271=VECTOR('',#953,5.);
#272=VECTOR('',#954,5.);
#273=VECTOR('',#959,19.);
#274=VECTOR('',#960,15.5);
#275=VECTOR('',#961,5.);
#276=VECTOR('',#962,10.);
#277=VECTOR('',#963,20.);
#278=VECTOR('',#964,10.);
#279=VECTOR('',#965,0.499999999999999);
#280=VECTOR('',#966,4.96870591452989);
#281=VECTOR('',#967,15.5);
#282=VECTOR('',#970,0.0903128710087977);
#283=VECTOR('',#973,4.60312604387163);
#284=VECTOR('',#978,4.60312604387163);
#285=VECTOR('',#983,0.0903128710087977);
#286=VECTOR('',#986,4.60312604387163);
#287=VECTOR('',#991,4.60312604387163);
#288=VECTOR('',#996,4.44909307443374);
#289=VECTOR('',#997,5.68750142979953);
#290=VECTOR('',#1000,4.44909307443374);
#291=VECTOR('',#1001,5.68750142979953);
#292=VECTOR('',#1006,5.97486175537015);
#293=VECTOR('',#1013,0.915672954464528);
#294=VECTOR('',#1014,5.);
#295=VECTOR('',#1015,4.96870591452989);
#296=VECTOR('',#1020,1.75);
#297=VECTOR('',#1023,1.75);
#298=VECTOR('',#1026,1.75);
#299=VECTOR('',#1035,0.0914287301941347);
#300=VECTOR('',#1036,2.9048993717613);
#301=VECTOR('',#1039,4.96870591452989);
#302=VERTEX_POINT('',#1052);
#303=VERTEX_POINT('',#1053);
#304=VERTEX_POINT('',#1055);
#305=VERTEX_POINT('',#1057);
#306=VERTEX_POINT('',#1059);
#307=VERTEX_POINT('',#1061);
#308=VERTEX_POINT('',#1063);
#309=VERTEX_POINT('',#1067);
#310=VERTEX_POINT('',#1068);
#311=VERTEX_POINT('',#1070);
#312=VERTEX_POINT('',#1072);
#313=VERTEX_POINT('',#1074);
#314=VERTEX_POINT('',#1076);
#315=VERTEX_POINT('',#1080);
#316=VERTEX_POINT('',#1081);
#317=VERTEX_POINT('',#1083);
#318=VERTEX_POINT('',#1085);
#319=VERTEX_POINT('',#1089);
#320=VERTEX_POINT('',#1090);
#321=VERTEX_POINT('',#1092);
#322=VERTEX_POINT('',#1094);
#323=VERTEX_POINT('',#1097);
#324=VERTEX_POINT('',#1099);
#325=VERTEX_POINT('',#1101);
#326=VERTEX_POINT('',#1103);
#327=VERTEX_POINT('',#1105);
#328=VERTEX_POINT('',#1107);
#329=VERTEX_POINT('',#1109);
#330=VERTEX_POINT('',#1111);
#331=VERTEX_POINT('',#1113);
#332=VERTEX_POINT('',#1115);
#333=VERTEX_POINT('',#1117);
#334=VERTEX_POINT('',#1119);
#335=VERTEX_POINT('',#1124);
#336=VERTEX_POINT('',#1126);
#337=VERTEX_POINT('',#1128);
#338=VERTEX_POINT('',#1130);
#339=VERTEX_POINT('',#1133);
#340=VERTEX_POINT('',#1136);
#341=VERTEX_POINT('',#1137);
#342=VERTEX_POINT('',#1141);
#343=VERTEX_POINT('',#1144);
#344=VERTEX_POINT('',#1146);
#345=VERTEX_POINT('',#1149);
#346=VERTEX_POINT('',#1150);
#347=VERTEX_POINT('',#1154);
#348=VERTEX_POINT('',#1157);
#349=VERTEX_POINT('',#1160);
#350=VERTEX_POINT('',#1161);
#351=VERTEX_POINT('',#1165);
#352=VERTEX_POINT('',#1167);
#353=VERTEX_POINT('',#1170);
#354=VERTEX_POINT('',#1173);
#355=VERTEX_POINT('',#1174);
#356=VERTEX_POINT('',#1178);
#357=VERTEX_POINT('',#1179);
#358=VERTEX_POINT('',#1183);
#359=VERTEX_POINT('',#1184);
#360=VERTEX_POINT('',#1186);
#361=VERTEX_POINT('',#1188);
#362=VERTEX_POINT('',#1202);
#363=VERTEX_POINT('',#1207);
#364=VERTEX_POINT('',#1209);
#365=VERTEX_POINT('',#1211);
#366=VERTEX_POINT('',#1214);
#367=VERTEX_POINT('',#1216);
#368=VERTEX_POINT('',#1220);
#369=VERTEX_POINT('',#1222);
#370=VERTEX_POINT('',#1224);
#371=VERTEX_POINT('',#1227);
#372=VERTEX_POINT('',#1229);
#373=VERTEX_POINT('',#1244);
#374=VERTEX_POINT('',#1259);
#375=EDGE_CURVE('',#302,#303,#140,.T.);
#376=EDGE_CURVE('',#302,#304,#141,.T.);
#377=EDGE_CURVE('',#304,#305,#142,.T.);
#378=EDGE_CURVE('',#305,#306,#121,.T.);
#379=EDGE_CURVE('',#307,#306,#143,.T.);
#380=EDGE_CURVE('',#308,#307,#144,.T.);
#381=EDGE_CURVE('',#303,#308,#145,.T.);
#382=EDGE_CURVE('',#309,#310,#146,.T.);
#383=EDGE_CURVE('',#311,#310,#147,.T.);
#384=EDGE_CURVE('',#312,#311,#148,.T.);
#385=EDGE_CURVE('',#313,#312,#149,.T.);
#386=EDGE_CURVE('',#314,#313,#150,.T.);
#387=EDGE_CURVE('',#309,#314,#122,.T.);
#388=EDGE_CURVE('',#315,#316,#151,.T.);
#389=EDGE_CURVE('',#317,#315,#152,.T.);
#390=EDGE_CURVE('',#318,#317,#153,.T.);
#391=EDGE_CURVE('',#316,#318,#154,.T.);
#392=EDGE_CURVE('',#319,#320,#155,.T.);
#393=EDGE_CURVE('',#320,#321,#156,.F.);
#394=EDGE_CURVE('',#321,#322,#157,.T.);
#395=EDGE_CURVE('',#307,#322,#158,.T.);
#396=EDGE_CURVE('',#306,#323,#159,.F.);
#397=EDGE_CURVE('',#323,#324,#160,.T.);
#398=EDGE_CURVE('',#324,#325,#161,.F.);
#399=EDGE_CURVE('',#325,#326,#162,.T.);
#400=EDGE_CURVE('',#327,#326,#163,.T.);
#401=EDGE_CURVE('',#328,#327,#164,.T.);
#402=EDGE_CURVE('',#328,#329,#165,.F.);
#403=EDGE_CURVE('',#330,#329,#166,.T.);
#404=EDGE_CURVE('',#331,#330,#167,.T.);
#405=EDGE_CURVE('',#331,#332,#168,.T.);
#406=EDGE_CURVE('',#332,#333,#169,.F.);
#407=EDGE_CURVE('',#333,#334,#170,.T.);
#408=EDGE_CURVE('',#314,#334,#171,.F.);
#409=EDGE_CURVE('',#319,#313,#172,.T.);
#410=EDGE_CURVE('',#333,#335,#123,.F.);
#411=EDGE_CURVE('',#336,#335,#173,.T.);
#412=EDGE_CURVE('',#337,#336,#174,.T.);
#413=EDGE_CURVE('',#337,#338,#175,.T.);
#414=EDGE_CURVE('',#338,#334,#124,.T.);
#415=EDGE_CURVE('',#339,#339,#125,.T.);
#416=EDGE_CURVE('',#340,#341,#176,.T.);
#417=EDGE_CURVE('',#340,#320,#126,.F.);
#418=EDGE_CURVE('',#341,#319,#177,.T.);
#419=EDGE_CURVE('',#342,#342,#127,.T.);
#420=EDGE_CURVE('',#321,#343,#128,.F.);
#421=EDGE_CURVE('',#344,#343,#178,.T.);
#422=EDGE_CURVE('',#322,#344,#179,.T.);
#423=EDGE_CURVE('',#345,#346,#129,.T.);
#424=EDGE_CURVE('',#346,#345,#130,.T.);
#425=EDGE_CURVE('',#347,#318,#180,.T.);
#426=EDGE_CURVE('',#347,#324,#131,.F.);
#427=EDGE_CURVE('',#348,#323,#132,.T.);
#428=EDGE_CURVE('',#316,#348,#181,.T.);
#429=EDGE_CURVE('',#349,#350,#133,.T.);
#430=EDGE_CURVE('',#350,#349,#134,.T.);
#431=EDGE_CURVE('',#325,#351,#135,.F.);
#432=EDGE_CURVE('',#352,#351,#182,.T.);
#433=EDGE_CURVE('',#352,#326,#183,.T.);
#434=EDGE_CURVE('',#353,#353,#136,.T.);
#435=EDGE_CURVE('',#354,#355,#184,.T.);
#436=EDGE_CURVE('',#354,#332,#137,.F.);
#437=EDGE_CURVE('',#355,#331,#185,.T.);
#438=EDGE_CURVE('',#356,#357,#138,.T.);
#439=EDGE_CURVE('',#357,#356,#139,.T.);
#440=EDGE_CURVE('',#358,#359,#186,.T.);
#441=EDGE_CURVE('',#359,#360,#187,.T.);
#442=EDGE_CURVE('',#360,#361,#188,.T.);
#443=EDGE_CURVE('',#361,#358,#189,.T.);
#444=EDGE_CURVE('',#337,#310,#190,.T.);
#445=EDGE_CURVE('',#338,#309,#191,.T.);
#446=EDGE_CURVE('',#343,#340,#192,.F.);
#447=EDGE_CURVE('',#312,#341,#193,.T.);
#448=EDGE_CURVE('',#336,#311,#194,.T.);
#449=EDGE_CURVE('',#335,#354,#195,.F.);
#450=EDGE_CURVE('',#355,#352,#196,.T.);
#451=EDGE_CURVE('',#351,#347,#197,.F.);
#452=EDGE_CURVE('',#362,#317,#198,.T.);
#453=EDGE_CURVE('',#303,#362,#199,.T.);
#454=EDGE_CURVE('',#344,#308,#200,.T.);
#455=EDGE_CURVE('',#330,#363,#201,.T.);
#456=EDGE_CURVE('',#329,#364,#15,.F.);
#457=EDGE_CURVE('',#364,#365,#202,.T.);
#458=EDGE_CURVE('',#365,#361,#16,.T.);
#459=EDGE_CURVE('',#360,#366,#17,.T.);
#460=EDGE_CURVE('',#366,#367,#203,.T.);
#461=EDGE_CURVE('',#367,#363,#18,.F.);
#462=EDGE_CURVE('',#368,#327,#204,.T.);
#463=EDGE_CURVE('',#368,#369,#19,.F.);
#464=EDGE_CURVE('',#369,#370,#205,.T.);
#465=EDGE_CURVE('',#370,#359,#20,.T.);
#466=EDGE_CURVE('',#358,#371,#21,.T.);
#467=EDGE_CURVE('',#371,#372,#206,.T.);
#468=EDGE_CURVE('',#372,#328,#22,.F.);
#469=EDGE_CURVE('',#371,#365,#207,.F.);
#470=EDGE_CURVE('',#364,#372,#208,.T.);
#471=EDGE_CURVE('',#366,#370,#209,.F.);
#472=EDGE_CURVE('',#369,#367,#210,.T.);
#473=EDGE_CURVE('',#368,#363,#211,.F.);
#474=EDGE_CURVE('',#315,#373,#212,.T.);
#475=EDGE_CURVE('',#348,#305,#213,.T.);
#476=EDGE_CURVE('',#373,#304,#214,.T.);
#477=EDGE_CURVE('',#357,#339,#215,.T.);
#478=EDGE_CURVE('',#350,#353,#216,.T.);
#479=EDGE_CURVE('',#346,#342,#217,.T.);
#480=EDGE_CURVE('',#374,#373,#218,.T.);
#481=EDGE_CURVE('',#362,#374,#219,.T.);
#482=EDGE_CURVE('',#374,#302,#220,.T.);
#483=ORIENTED_EDGE('',*,*,#375,.F.);
#484=ORIENTED_EDGE('',*,*,#376,.T.);
#485=ORIENTED_EDGE('',*,*,#377,.T.);
#486=ORIENTED_EDGE('',*,*,#378,.T.);
#487=ORIENTED_EDGE('',*,*,#379,.F.);
#488=ORIENTED_EDGE('',*,*,#380,.F.);
#489=ORIENTED_EDGE('',*,*,#381,.F.);
#490=ORIENTED_EDGE('',*,*,#382,.T.);
#491=ORIENTED_EDGE('',*,*,#383,.F.);
#492=ORIENTED_EDGE('',*,*,#384,.F.);
#493=ORIENTED_EDGE('',*,*,#385,.F.);
#494=ORIENTED_EDGE('',*,*,#386,.F.);
#495=ORIENTED_EDGE('',*,*,#387,.F.);
#496=ORIENTED_EDGE('',*,*,#388,.F.);
#497=ORIENTED_EDGE('',*,*,#389,.F.);
#498=ORIENTED_EDGE('',*,*,#390,.F.);
#499=ORIENTED_EDGE('',*,*,#391,.F.);
#500=ORIENTED_EDGE('',*,*,#392,.T.);
#501=ORIENTED_EDGE('',*,*,#393,.T.);
#502=ORIENTED_EDGE('',*,*,#394,.T.);
#503=ORIENTED_EDGE('',*,*,#395,.F.);
#504=ORIENTED_EDGE('',*,*,#379,.T.);
#505=ORIENTED_EDGE('',*,*,#396,.T.);
#506=ORIENTED_EDGE('',*,*,#397,.T.);
#507=ORIENTED_EDGE('',*,*,#398,.T.);
#508=ORIENTED_EDGE('',*,*,#399,.T.);
#509=ORIENTED_EDGE('',*,*,#400,.F.);
#510=ORIENTED_EDGE('',*,*,#401,.F.);
#511=ORIENTED_EDGE('',*,*,#402,.T.);
#512=ORIENTED_EDGE('',*,*,#403,.F.);
#513=ORIENTED_EDGE('',*,*,#404,.F.);
#514=ORIENTED_EDGE('',*,*,#405,.T.);
#515=ORIENTED_EDGE('',*,*,#406,.T.);
#516=ORIENTED_EDGE('',*,*,#407,.T.);
#517=ORIENTED_EDGE('',*,*,#408,.F.);
#518=ORIENTED_EDGE('',*,*,#386,.T.);
#519=ORIENTED_EDGE('',*,*,#409,.F.);
#520=ORIENTED_EDGE('',*,*,#410,.T.);
#521=ORIENTED_EDGE('',*,*,#411,.F.);
#522=ORIENTED_EDGE('',*,*,#412,.F.);
#523=ORIENTED_EDGE('',*,*,#413,.T.);
#524=ORIENTED_EDGE('',*,*,#414,.T.);
#525=ORIENTED_EDGE('',*,*,#407,.F.);
#526=ORIENTED_EDGE('',*,*,#415,.T.);
#527=ORIENTED_EDGE('',*,*,#416,.F.);
#528=ORIENTED_EDGE('',*,*,#417,.T.);
#529=ORIENTED_EDGE('',*,*,#392,.F.);
#530=ORIENTED_EDGE('',*,*,#418,.F.);
#531=ORIENTED_EDGE('',*,*,#419,.T.);
#532=ORIENTED_EDGE('',*,*,#420,.T.);
#533=ORIENTED_EDGE('',*,*,#421,.F.);
#534=ORIENTED_EDGE('',*,*,#422,.F.);
#535=ORIENTED_EDGE('',*,*,#394,.F.);
#536=ORIENTED_EDGE('',*,*,#423,.T.);
#537=ORIENTED_EDGE('',*,*,#424,.T.);
#538=ORIENTED_EDGE('',*,*,#425,.F.);
#539=ORIENTED_EDGE('',*,*,#426,.T.);
#540=ORIENTED_EDGE('',*,*,#397,.F.);
#541=ORIENTED_EDGE('',*,*,#427,.F.);
#542=ORIENTED_EDGE('',*,*,#428,.F.);
#543=ORIENTED_EDGE('',*,*,#391,.T.);
#544=ORIENTED_EDGE('',*,*,#429,.T.);
#545=ORIENTED_EDGE('',*,*,#430,.T.);
#546=ORIENTED_EDGE('',*,*,#431,.T.);
#547=ORIENTED_EDGE('',*,*,#432,.F.);
#548=ORIENTED_EDGE('',*,*,#433,.T.);
#549=ORIENTED_EDGE('',*,*,#399,.F.);
#550=ORIENTED_EDGE('',*,*,#434,.T.);
#551=ORIENTED_EDGE('',*,*,#435,.F.);
#552=ORIENTED_EDGE('',*,*,#436,.T.);
#553=ORIENTED_EDGE('',*,*,#405,.F.);
#554=ORIENTED_EDGE('',*,*,#437,.F.);
#555=ORIENTED_EDGE('',*,*,#438,.T.);
#556=ORIENTED_EDGE('',*,*,#439,.T.);
#557=ORIENTED_EDGE('',*,*,#440,.T.);
#558=ORIENTED_EDGE('',*,*,#441,.T.);
#559=ORIENTED_EDGE('',*,*,#442,.T.);
#560=ORIENTED_EDGE('',*,*,#443,.T.);
#561=ORIENTED_EDGE('',*,*,#413,.F.);
#562=ORIENTED_EDGE('',*,*,#444,.T.);
#563=ORIENTED_EDGE('',*,*,#382,.F.);
#564=ORIENTED_EDGE('',*,*,#445,.F.);
#565=ORIENTED_EDGE('',*,*,#408,.T.);
#566=ORIENTED_EDGE('',*,*,#414,.F.);
#567=ORIENTED_EDGE('',*,*,#445,.T.);
#568=ORIENTED_EDGE('',*,*,#387,.T.);
#569=ORIENTED_EDGE('',*,*,#421,.T.);
#570=ORIENTED_EDGE('',*,*,#446,.T.);
#571=ORIENTED_EDGE('',*,*,#416,.T.);
#572=ORIENTED_EDGE('',*,*,#447,.F.);
#573=ORIENTED_EDGE('',*,*,#384,.T.);
#574=ORIENTED_EDGE('',*,*,#448,.F.);
#575=ORIENTED_EDGE('',*,*,#411,.T.);
#576=ORIENTED_EDGE('',*,*,#449,.T.);
#577=ORIENTED_EDGE('',*,*,#435,.T.);
#578=ORIENTED_EDGE('',*,*,#450,.T.);
#579=ORIENTED_EDGE('',*,*,#432,.T.);
#580=ORIENTED_EDGE('',*,*,#451,.T.);
#581=ORIENTED_EDGE('',*,*,#425,.T.);
#582=ORIENTED_EDGE('',*,*,#390,.T.);
#583=ORIENTED_EDGE('',*,*,#452,.F.);
#584=ORIENTED_EDGE('',*,*,#453,.F.);
#585=ORIENTED_EDGE('',*,*,#381,.T.);
#586=ORIENTED_EDGE('',*,*,#454,.F.);
#587=ORIENTED_EDGE('',*,*,#455,.F.);
#588=ORIENTED_EDGE('',*,*,#403,.T.);
#589=ORIENTED_EDGE('',*,*,#456,.T.);
#590=ORIENTED_EDGE('',*,*,#457,.T.);
#591=ORIENTED_EDGE('',*,*,#458,.T.);
#592=ORIENTED_EDGE('',*,*,#442,.F.);
#593=ORIENTED_EDGE('',*,*,#459,.T.);
#594=ORIENTED_EDGE('',*,*,#460,.T.);
#595=ORIENTED_EDGE('',*,*,#461,.T.);
#596=ORIENTED_EDGE('',*,*,#462,.F.);
#597=ORIENTED_EDGE('',*,*,#463,.T.);
#598=ORIENTED_EDGE('',*,*,#464,.T.);
#599=ORIENTED_EDGE('',*,*,#465,.T.);
#600=ORIENTED_EDGE('',*,*,#440,.F.);
#601=ORIENTED_EDGE('',*,*,#466,.T.);
#602=ORIENTED_EDGE('',*,*,#467,.T.);
#603=ORIENTED_EDGE('',*,*,#468,.T.);
#604=ORIENTED_EDGE('',*,*,#401,.T.);
#605=ORIENTED_EDGE('',*,*,#467,.F.);
#606=ORIENTED_EDGE('',*,*,#469,.T.);
#607=ORIENTED_EDGE('',*,*,#457,.F.);
#608=ORIENTED_EDGE('',*,*,#470,.T.);
#609=ORIENTED_EDGE('',*,*,#460,.F.);
#610=ORIENTED_EDGE('',*,*,#471,.T.);
#611=ORIENTED_EDGE('',*,*,#464,.F.);
#612=ORIENTED_EDGE('',*,*,#472,.T.);
#613=ORIENTED_EDGE('',*,*,#456,.F.);
#614=ORIENTED_EDGE('',*,*,#402,.F.);
#615=ORIENTED_EDGE('',*,*,#468,.F.);
#616=ORIENTED_EDGE('',*,*,#470,.F.);
#617=ORIENTED_EDGE('',*,*,#463,.F.);
#618=ORIENTED_EDGE('',*,*,#473,.T.);
#619=ORIENTED_EDGE('',*,*,#461,.F.);
#620=ORIENTED_EDGE('',*,*,#472,.F.);
#621=ORIENTED_EDGE('',*,*,#465,.F.);
#622=ORIENTED_EDGE('',*,*,#471,.F.);
#623=ORIENTED_EDGE('',*,*,#459,.F.);
#624=ORIENTED_EDGE('',*,*,#441,.F.);
#625=ORIENTED_EDGE('',*,*,#458,.F.);
#626=ORIENTED_EDGE('',*,*,#469,.F.);
#627=ORIENTED_EDGE('',*,*,#466,.F.);
#628=ORIENTED_EDGE('',*,*,#443,.F.);
#629=ORIENTED_EDGE('',*,*,#474,.F.);
#630=ORIENTED_EDGE('',*,*,#388,.T.);
#631=ORIENTED_EDGE('',*,*,#428,.T.);
#632=ORIENTED_EDGE('',*,*,#475,.T.);
#633=ORIENTED_EDGE('',*,*,#377,.F.);
#634=ORIENTED_EDGE('',*,*,#476,.F.);
#635=ORIENTED_EDGE('',*,*,#378,.F.);
#636=ORIENTED_EDGE('',*,*,#475,.F.);
#637=ORIENTED_EDGE('',*,*,#427,.T.);
#638=ORIENTED_EDGE('',*,*,#396,.F.);
#639=ORIENTED_EDGE('',*,*,#438,.F.);
#640=ORIENTED_EDGE('',*,*,#439,.F.);
#641=ORIENTED_EDGE('',*,*,#477,.T.);
#642=ORIENTED_EDGE('',*,*,#415,.F.);
#643=ORIENTED_EDGE('',*,*,#477,.F.);
#644=ORIENTED_EDGE('',*,*,#429,.F.);
#645=ORIENTED_EDGE('',*,*,#430,.F.);
#646=ORIENTED_EDGE('',*,*,#478,.T.);
#647=ORIENTED_EDGE('',*,*,#434,.F.);
#648=ORIENTED_EDGE('',*,*,#478,.F.);
#649=ORIENTED_EDGE('',*,*,#423,.F.);
#650=ORIENTED_EDGE('',*,*,#424,.F.);
#651=ORIENTED_EDGE('',*,*,#479,.T.);
#652=ORIENTED_EDGE('',*,*,#419,.F.);
#653=ORIENTED_EDGE('',*,*,#479,.F.);
#654=ORIENTED_EDGE('',*,*,#385,.T.);
#655=ORIENTED_EDGE('',*,*,#447,.T.);
#656=ORIENTED_EDGE('',*,*,#418,.T.);
#657=ORIENTED_EDGE('',*,*,#409,.T.);
#658=ORIENTED_EDGE('',*,*,#422,.T.);
#659=ORIENTED_EDGE('',*,*,#454,.T.);
#660=ORIENTED_EDGE('',*,*,#380,.T.);
#661=ORIENTED_EDGE('',*,*,#395,.T.);
#662=ORIENTED_EDGE('',*,*,#412,.T.);
#663=ORIENTED_EDGE('',*,*,#448,.T.);
#664=ORIENTED_EDGE('',*,*,#383,.T.);
#665=ORIENTED_EDGE('',*,*,#444,.F.);
#666=ORIENTED_EDGE('',*,*,#474,.T.);
#667=ORIENTED_EDGE('',*,*,#480,.F.);
#668=ORIENTED_EDGE('',*,*,#481,.F.);
#669=ORIENTED_EDGE('',*,*,#452,.T.);
#670=ORIENTED_EDGE('',*,*,#389,.T.);
#671=ORIENTED_EDGE('',*,*,#476,.T.);
#672=ORIENTED_EDGE('',*,*,#376,.F.);
#673=ORIENTED_EDGE('',*,*,#482,.F.);
#674=ORIENTED_EDGE('',*,*,#480,.T.);
#675=ORIENTED_EDGE('',*,*,#481,.T.);
#676=ORIENTED_EDGE('',*,*,#482,.T.);
#677=ORIENTED_EDGE('',*,*,#375,.T.);
#678=ORIENTED_EDGE('',*,*,#453,.T.);
#679=ORIENTED_EDGE('',*,*,#404,.T.);
#680=ORIENTED_EDGE('',*,*,#455,.T.);
#681=ORIENTED_EDGE('',*,*,#473,.F.);
#682=ORIENTED_EDGE('',*,*,#462,.T.);
#683=ORIENTED_EDGE('',*,*,#400,.T.);
#684=ORIENTED_EDGE('',*,*,#433,.F.);
#685=ORIENTED_EDGE('',*,*,#450,.F.);
#686=ORIENTED_EDGE('',*,*,#437,.T.);
#687=ORIENTED_EDGE('',*,*,#393,.F.);
#688=ORIENTED_EDGE('',*,*,#417,.F.);
#689=ORIENTED_EDGE('',*,*,#446,.F.);
#690=ORIENTED_EDGE('',*,*,#420,.F.);
#691=ORIENTED_EDGE('',*,*,#406,.F.);
#692=ORIENTED_EDGE('',*,*,#436,.F.);
#693=ORIENTED_EDGE('',*,*,#449,.F.);
#694=ORIENTED_EDGE('',*,*,#410,.F.);
#695=ORIENTED_EDGE('',*,*,#398,.F.);
#696=ORIENTED_EDGE('',*,*,#426,.F.);
#697=ORIENTED_EDGE('',*,*,#451,.F.);
#698=ORIENTED_EDGE('',*,*,#431,.F.);
#699=PLANE('',#775);
#700=PLANE('',#777);
#701=PLANE('',#779);
#702=PLANE('',#780);
#703=PLANE('',#781);
#704=PLANE('',#785);
#705=PLANE('',#788);
#706=PLANE('',#792);
#707=PLANE('',#797);
#708=PLANE('',#800);
#709=PLANE('',#804);
#710=PLANE('',#805);
#711=PLANE('',#807);
#712=PLANE('',#808);
#713=PLANE('',#813);
#714=PLANE('',#818);
#715=PLANE('',#819);
#716=PLANE('',#824);
#717=PLANE('',#829);
#718=PLANE('',#830);
#719=PLANE('',#831);
#720=PLANE('',#832);
#721=PLANE('',#833);
#722=PLANE('',#834);
#723=PLANE('',#835);
#724=ADVANCED_FACE('',(#41),#699,.F.);
#725=ADVANCED_FACE('',(#42),#700,.F.);
#726=ADVANCED_FACE('',(#43),#701,.F.);
#727=ADVANCED_FACE('',(#44),#702,.T.);
#728=ADVANCED_FACE('',(#45,#35),#703,.F.);
#729=ADVANCED_FACE('',(#46,#36),#704,.F.);
#730=ADVANCED_FACE('',(#47,#37),#705,.F.);
#731=ADVANCED_FACE('',(#48,#38),#706,.F.);
#732=ADVANCED_FACE('',(#49,#39),#707,.F.);
#733=ADVANCED_FACE('',(#50,#40),#708,.F.);
#734=ADVANCED_FACE('',(#51),#709,.T.);
#735=ADVANCED_FACE('',(#52),#710,.F.);
#736=ADVANCED_FACE('',(#53),#23,.T.);
#737=ADVANCED_FACE('',(#54),#711,.T.);
#738=ADVANCED_FACE('',(#55),#712,.T.);
#739=ADVANCED_FACE('',(#56),#713,.T.);
#740=ADVANCED_FACE('',(#57),#714,.T.);
#741=ADVANCED_FACE('',(#58),#715,.T.);
#742=ADVANCED_FACE('',(#59),#24,.F.);
#743=ADVANCED_FACE('',(#60),#25,.F.);
#744=ADVANCED_FACE('',(#61),#26,.T.);
#745=ADVANCED_FACE('',(#62),#27,.T.);
#746=ADVANCED_FACE('',(#63),#716,.T.);
#747=ADVANCED_FACE('',(#64),#28,.T.);
#748=ADVANCED_FACE('',(#65),#29,.F.);
#749=ADVANCED_FACE('',(#66),#30,.F.);
#750=ADVANCED_FACE('',(#67),#31,.F.);
#751=ADVANCED_FACE('',(#68),#717,.T.);
#752=ADVANCED_FACE('',(#69),#718,.T.);
#753=ADVANCED_FACE('',(#70),#719,.F.);
#754=ADVANCED_FACE('',(#71),#720,.F.);
#755=ADVANCED_FACE('',(#72),#721,.F.);
#756=ADVANCED_FACE('',(#73),#722,.F.);
#757=ADVANCED_FACE('',(#74),#723,.F.);
#758=ADVANCED_FACE('',(#75),#32,.T.);
#759=ADVANCED_FACE('',(#76),#33,.T.);
#760=ADVANCED_FACE('',(#77),#34,.T.);
#761=CLOSED_SHELL('',(#724,#725,#726,#727,#728,#729,#730,#731,#732,#733,
#734,#735,#736,#737,#738,#739,#740,#741,#742,#743,#744,#745,#746,#747,#748,
#749,#750,#751,#752,#753,#754,#755,#756,#757,#758,#759,#760));
#762=DERIVED_UNIT_ELEMENT(#764,1.);
#763=DERIVED_UNIT_ELEMENT(#1274,3.);
#764=(
MASS_UNIT()
NAMED_UNIT(*)
SI_UNIT(.KILO.,.GRAM.)
);
#765=DERIVED_UNIT((#762,#763));
#766=MEASURE_REPRESENTATION_ITEM('density measure',
POSITIVE_RATIO_MEASURE(1020.),#765);
#767=PROPERTY_DEFINITION_REPRESENTATION(#772,#769);
#768=PROPERTY_DEFINITION_REPRESENTATION(#773,#770);
#769=REPRESENTATION('material name',(#771),#1271);
#770=REPRESENTATION('density',(#766),#1271);
#771=DESCRIPTIVE_REPRESENTATION_ITEM('solidworks materials|ABS',
'solidworks materials|ABS');
#772=PROPERTY_DEFINITION('material property','material name',#1281);
#773=PROPERTY_DEFINITION('material property','density of part',#1281);
#774=AXIS2_PLACEMENT_3D('placement',#1050,#839,#840);
#775=AXIS2_PLACEMENT_3D('',#1051,#841,#842);
#776=AXIS2_PLACEMENT_3D('',#1060,#846,#847);
#777=AXIS2_PLACEMENT_3D('',#1066,#851,#852);
#778=AXIS2_PLACEMENT_3D('',#1078,#858,#859);
#779=AXIS2_PLACEMENT_3D('',#1079,#860,#861);
#780=AXIS2_PLACEMENT_3D('',#1088,#866,#867);
#781=AXIS2_PLACEMENT_3D('',#1123,#886,#887);
#782=AXIS2_PLACEMENT_3D('',#1125,#888,#889);
#783=AXIS2_PLACEMENT_3D('',#1132,#893,#894);
#784=AXIS2_PLACEMENT_3D('',#1134,#895,#896);
#785=AXIS2_PLACEMENT_3D('',#1135,#897,#898);
#786=AXIS2_PLACEMENT_3D('',#1139,#900,#901);
#787=AXIS2_PLACEMENT_3D('',#1142,#903,#904);
#788=AXIS2_PLACEMENT_3D('',#1143,#905,#906);
#789=AXIS2_PLACEMENT_3D('',#1145,#907,#908);
#790=AXIS2_PLACEMENT_3D('',#1151,#911,#912);
#791=AXIS2_PLACEMENT_3D('',#1152,#913,#914);
#792=AXIS2_PLACEMENT_3D('',#1153,#915,#916);
#793=AXIS2_PLACEMENT_3D('',#1156,#918,#919);
#794=AXIS2_PLACEMENT_3D('',#1158,#920,#921);
#795=AXIS2_PLACEMENT_3D('',#1162,#923,#924);
#796=AXIS2_PLACEMENT_3D('',#1163,#925,#926);
#797=AXIS2_PLACEMENT_3D('',#1164,#927,#928);
#798=AXIS2_PLACEMENT_3D('',#1166,#929,#930);
#799=AXIS2_PLACEMENT_3D('',#1171,#933,#934);
#800=AXIS2_PLACEMENT_3D('',#1172,#935,#936);
#801=AXIS2_PLACEMENT_3D('',#1176,#938,#939);
#802=AXIS2_PLACEMENT_3D('',#1180,#941,#942);
#803=AXIS2_PLACEMENT_3D('',#1181,#943,#944);
#804=AXIS2_PLACEMENT_3D('',#1182,#945,#946);
#805=AXIS2_PLACEMENT_3D('',#1191,#951,#952);
#806=AXIS2_PLACEMENT_3D('',#1194,#955,#956);
#807=AXIS2_PLACEMENT_3D('',#1195,#957,#958);
#808=AXIS2_PLACEMENT_3D('',#1206,#968,#969);
#809=AXIS2_PLACEMENT_3D('',#1210,#971,#972);
#810=AXIS2_PLACEMENT_3D('',#1213,#974,#975);
#811=AXIS2_PLACEMENT_3D('',#1215,#976,#977);
#812=AXIS2_PLACEMENT_3D('',#1218,#979,#980);
#813=AXIS2_PLACEMENT_3D('',#1219,#981,#982);
#814=AXIS2_PLACEMENT_3D('',#1223,#984,#985);
#815=AXIS2_PLACEMENT_3D('',#1226,#987,#988);
#816=AXIS2_PLACEMENT_3D('',#1228,#989,#990);
#817=AXIS2_PLACEMENT_3D('',#1231,#992,#993);
#818=AXIS2_PLACEMENT_3D('',#1232,#994,#995);
#819=AXIS2_PLACEMENT_3D('',#1235,#998,#999);
#820=AXIS2_PLACEMENT_3D('',#1238,#1002,#1003);
#821=AXIS2_PLACEMENT_3D('',#1239,#1004,#1005);
#822=AXIS2_PLACEMENT_3D('',#1241,#1007,#1008);
#823=AXIS2_PLACEMENT_3D('',#1242,#1009,#1010);
#824=AXIS2_PLACEMENT_3D('',#1243,#1011,#1012);
#825=AXIS2_PLACEMENT_3D('',#1248,#1016,#1017);
#826=AXIS2_PLACEMENT_3D('',#1249,#1018,#1019);
#827=AXIS2_PLACEMENT_3D('',#1251,#1021,#1022);
#828=AXIS2_PLACEMENT_3D('',#1253,#1024,#1025);
#829=AXIS2_PLACEMENT_3D('',#1255,#1027,#1028);
#830=AXIS2_PLACEMENT_3D('',#1256,#1029,#1030);
#831=AXIS2_PLACEMENT_3D('',#1257,#1031,#1032);
#832=AXIS2_PLACEMENT_3D('',#1258,#1033,#1034);
#833=AXIS2_PLACEMENT_3D('',#1262,#1037,#1038);
#834=AXIS2_PLACEMENT_3D('',#1264,#1040,#1041);
#835=AXIS2_PLACEMENT_3D('',#1265,#1042,#1043);
#836=AXIS2_PLACEMENT_3D('',#1266,#1044,#1045);
#837=AXIS2_PLACEMENT_3D('',#1267,#1046,#1047);
#838=AXIS2_PLACEMENT_3D('',#1268,#1048,#1049);
#839=DIRECTION('axis',(0.,0.,1.));
#840=DIRECTION('refdir',(1.,0.,0.));
#841=DIRECTION('center_axis',(1.,0.,-3.46944695195361E-16));
#842=DIRECTION('ref_axis',(-3.46944695195361E-16,0.,-1.));
#843=DIRECTION('',(0.,-1.,0.));
#844=DIRECTION('',(0.,0.,1.));
#845=DIRECTION('',(1.84110051434701E-15,0.894934361602027,-0.446197813109805));
#846=DIRECTION('center_axis',(-1.,0.,-3.46944695195361E-16));
#847=DIRECTION('ref_axis',(3.46944695195361E-16,0.,-1.));
#848=DIRECTION('',(0.,0.,1.));
#849=DIRECTION('',(0.,1.,0.));
#850=DIRECTION('',(0.,0.,-1.));
#851=DIRECTION('center_axis',(-1.,0.,-3.46944695195361E-16));
#852=DIRECTION('ref_axis',(-3.46944695195361E-16,0.,1.));
#853=DIRECTION('',(0.,-0.894934361602027,0.446197813109804));
#854=DIRECTION('',(0.,1.,0.));
#855=DIRECTION('',(0.,0.,1.));
#856=DIRECTION('',(0.,-1.,0.));
#857=DIRECTION('',(0.,0.,-1.));
#858=DIRECTION('center_axis',(-1.,0.,3.46944695195361E-16));
#859=DIRECTION('ref_axis',(-3.46944695195361E-16,0.,-1.));
#860=DIRECTION('center_axis',(0.,0.,-1.));
#861=DIRECTION('ref_axis',(-1.,0.,0.));
#862=DIRECTION('',(1.,5.54329500260973E-16,0.));
#863=DIRECTION('',(0.,1.,0.));
#864=DIRECTION('',(-1.,0.,0.));
#865=DIRECTION('',(0.,-1.,0.));
#866=DIRECTION('center_axis',(0.,1.,0.));
#867=DIRECTION('ref_axis',(0.,0.,1.));
#868=DIRECTION('',(-2.01858731750029E-16,0.,-1.));
#869=DIRECTION('',(1.,0.,0.));
#870=DIRECTION('',(-2.01858731750029E-16,0.,1.));
#871=DIRECTION('',(1.,0.,0.));
#872=DIRECTION('',(-1.,0.,-3.33066907387547E-16));
#873=DIRECTION('',(0.,0.,1.));
#874=DIRECTION('',(-1.,0.,0.));
#875=DIRECTION('',(0.,0.,-1.));
#876=DIRECTION('',(-1.,0.,0.));
#877=DIRECTION('',(0.,0.,1.));
#878=DIRECTION('',(-1.,0.,0.));
#879=DIRECTION('',(0.,0.,-1.));
#880=DIRECTION('',(-1.,0.,0.));
#881=DIRECTION('',(0.,0.,1.));
#882=DIRECTION('',(-1.,0.,0.));
#883=DIRECTION('',(0.,0.,-1.));
#884=DIRECTION('',(1.,0.,-3.33066907387547E-16));
#885=DIRECTION('',(1.,0.,0.));
#886=DIRECTION('center_axis',(-1.,0.,0.));
#887=DIRECTION('ref_axis',(0.,0.,1.));
#888=DIRECTION('center_axis',(-1.,0.,0.));
#889=DIRECTION('ref_axis',(0.,0.,1.));
#890=DIRECTION('',(0.,0.,1.));
#891=DIRECTION('',(0.,-1.,0.));
#892=DIRECTION('',(-2.01202139569587E-15,0.894934361602027,-0.446197813109805));
#893=DIRECTION('center_axis',(-1.,0.,3.46944695195361E-16));
#894=DIRECTION('ref_axis',(-3.46944695195361E-16,0.,-1.));
#895=DIRECTION('center_axis',(-1.,0.,0.));
#896=DIRECTION('ref_axis',(0.,0.,1.));
#897=DIRECTION('center_axis',(-1.,0.,3.46944695195362E-16));
#898=DIRECTION('ref_axis',(3.46944695195362E-16,0.,1.));
#899=DIRECTION('',(0.,0.,1.));
#900=DIRECTION('center_axis',(-1.,0.,3.46944695195362E-16));
#901=DIRECTION('ref_axis',(3.46944695195362E-16,0.,1.));
#902=DIRECTION('',(0.,1.,0.));
#903=DIRECTION('center_axis',(-1.,0.,3.46944695195362E-16));
#904=DIRECTION('ref_axis',(3.46944695195362E-16,0.,1.));
#905=DIRECTION('center_axis',(1.,0.,3.46944695195362E-16));
#906=DIRECTION('ref_axis',(3.46944695195362E-16,0.,-1.));
#907=DIRECTION('center_axis',(1.,0.,3.46944695195362E-16));
#908=DIRECTION('ref_axis',(3.46944695195362E-16,0.,-1.));
#909=DIRECTION('',(0.,0.,-1.));
#910=DIRECTION('',(0.,-1.,0.));
#911=DIRECTION('center_axis',(1.,0.,3.46944695195362E-16));
#912=DIRECTION('ref_axis',(3.46944695195362E-16,0.,-1.));
#913=DIRECTION('center_axis',(1.,0.,3.46944695195362E-16));
#914=DIRECTION('ref_axis',(3.46944695195362E-16,0.,-1.));
#915=DIRECTION('center_axis',(1.,0.,0.));
#916=DIRECTION('ref_axis',(0.,0.,-1.));
#917=DIRECTION('',(0.,0.,-1.));
#918=DIRECTION('center_axis',(1.,0.,0.));
#919=DIRECTION('ref_axis',(0.,0.,-1.));
#920=DIRECTION('center_axis',(-1.,0.,-3.46944695195361E-16));
#921=DIRECTION('ref_axis',(3.46944695195361E-16,0.,-1.));
#922=DIRECTION('',(1.33449947841798E-15,0.894934361602027,-0.446197813109804));
#923=DIRECTION('center_axis',(1.,0.,0.));
#924=DIRECTION('ref_axis',(0.,0.,-1.));
#925=DIRECTION('center_axis',(1.,0.,0.));
#926=DIRECTION('ref_axis',(0.,0.,-1.));
#927=DIRECTION('center_axis',(-1.,0.,0.));
#928=DIRECTION('ref_axis',(0.,0.,1.));
#929=DIRECTION('center_axis',(-1.,0.,0.));
#930=DIRECTION('ref_axis',(0.,0.,1.));
#931=DIRECTION('',(0.,0.,1.));
#932=DIRECTION('',(0.,1.,0.));
#933=DIRECTION('center_axis',(-1.,0.,0.));
#934=DIRECTION('ref_axis',(0.,0.,1.));
#935=DIRECTION('center_axis',(1.,0.,0.));
#936=DIRECTION('ref_axis',(0.,0.,-1.));
#937=DIRECTION('',(0.,0.,-1.));
#938=DIRECTION('center_axis',(1.,0.,0.));
#939=DIRECTION('ref_axis',(0.,0.,-1.));
#940=DIRECTION('',(0.,1.,0.));
#941=DIRECTION('center_axis',(1.,0.,0.));
#942=DIRECTION('ref_axis',(0.,0.,-1.));
#943=DIRECTION('center_axis',(1.,0.,0.));
#944=DIRECTION('ref_axis',(0.,0.,-1.));
#945=DIRECTION('center_axis',(0.,1.,0.));
#946=DIRECTION('ref_axis',(0.,0.,1.));
#947=DIRECTION('',(0.,0.,1.));
#948=DIRECTION('',(1.,0.,0.));
#949=DIRECTION('',(0.,0.,-1.));
#950=DIRECTION('',(-1.,0.,0.));
#951=DIRECTION('center_axis',(-3.10492729305871E-16,-0.446197813109805,
-0.894934361602027));
#952=DIRECTION('ref_axis',(-1.,0.,3.46944695195361E-16));
#953=DIRECTION('',(1.,-6.93889390390723E-16,0.));
#954=DIRECTION('',(1.,0.,-3.33066907387547E-16));
#955=DIRECTION('center_axis',(1.,0.,-3.46944695195361E-16));
#956=DIRECTION('ref_axis',(-3.46944695195361E-16,0.,-1.));
#957=DIRECTION('center_axis',(0.,-1.,0.));
#958=DIRECTION('ref_axis',(0.,0.,-1.));
#959=DIRECTION('',(-1.,0.,0.));
#960=DIRECTION('',(-1.,0.,0.));
#961=DIRECTION('',(1.,3.33066907387547E-16,0.));
#962=DIRECTION('',(1.,0.,0.));
#963=DIRECTION('',(-1.,0.,0.));
#964=DIRECTION('',(1.,0.,0.));
#965=DIRECTION('',(0.,0.,1.));
#966=DIRECTION('',(1.,0.,0.));
#967=DIRECTION('',(-1.,0.,0.));
#968=DIRECTION('center_axis',(0.990268068741571,0.139173100960062,0.));
#969=DIRECTION('ref_axis',(0.,0.,-1.));
#970=DIRECTION('',(-0.139173100960068,0.99026806874157,0.));
#971=DIRECTION('center_axis',(0.990268068741571,0.139173100960062,0.));
#972=DIRECTION('ref_axis',(0.139173100960062,-0.990268068741571,0.));
#973=DIRECTION('',(-0.134518188679034,0.957146646836786,0.256466671058071));
#974=DIRECTION('center_axis',(0.990268068741571,0.139173100960062,0.));
#975=DIRECTION('ref_axis',(-0.139173100960062,0.990268068741571,0.));
#976=DIRECTION('center_axis',(0.990268068741571,0.139173100960062,0.));
#977=DIRECTION('ref_axis',(0.139173100960062,-0.990268068741571,0.));
#978=DIRECTION('',(0.134518188679034,-0.957146646836786,0.256466671058071));
#979=DIRECTION('center_axis',(0.990268068741571,0.139173100960062,0.));
#980=DIRECTION('ref_axis',(-0.139173100960062,0.990268068741571,0.));
#981=DIRECTION('center_axis',(-0.990268068741571,0.139173100960062,0.));
#982=DIRECTION('ref_axis',(0.,0.,1.));
#983=DIRECTION('',(-0.139173100960068,-0.99026806874157,0.));
#984=DIRECTION('center_axis',(-0.990268068741571,0.139173100960062,0.));
#985=DIRECTION('ref_axis',(-0.139173100960062,-0.990268068741571,0.));
#986=DIRECTION('',(0.134518188679034,0.957146646836786,-0.256466671058071));
#987=DIRECTION('center_axis',(-0.990268068741571,0.139173100960062,0.));
#988=DIRECTION('ref_axis',(0.139173100960062,0.990268068741571,0.));
#989=DIRECTION('center_axis',(-0.990268068741571,0.139173100960062,0.));
#990=DIRECTION('ref_axis',(-0.139173100960062,-0.990268068741571,0.));
#991=DIRECTION('',(-0.134518188679034,-0.957146646836786,-0.256466671058071));
#992=DIRECTION('center_axis',(-0.990268068741571,0.139173100960062,0.));
#993=DIRECTION('ref_axis',(0.139173100960062,0.990268068741571,0.));
#994=DIRECTION('center_axis',(0.,0.258819045102518,-0.965925826289069));
#995=DIRECTION('ref_axis',(-1.,0.,0.));
#996=DIRECTION('',(-1.,0.,0.));
#997=DIRECTION('',(-1.,0.,0.));
#998=DIRECTION('center_axis',(0.,0.258819045102518,0.965925826289069));
#999=DIRECTION('ref_axis',(1.,0.,0.));
#1000=DIRECTION('',(1.,0.,0.));
#1001=DIRECTION('',(1.,0.,0.));
#1002=DIRECTION('center_axis',(1.,0.,0.));
#1003=DIRECTION('ref_axis',(0.,0.,-1.));
#1004=DIRECTION('center_axis',(-1.,0.,0.));
#1005=DIRECTION('ref_axis',(0.,0.,1.));
#1006=DIRECTION('',(-1.,0.,0.));
#1007=DIRECTION('center_axis',(1.,0.,0.));
#1008=DIRECTION('ref_axis',(0.,0.,-1.));
#1009=DIRECTION('center_axis',(-1.,0.,0.));
#1010=DIRECTION('ref_axis',(0.,0.,1.));
#1011=DIRECTION('center_axis',(-3.10492729305871E-16,0.446197813109805,
0.894934361602027));
#1012=DIRECTION('ref_axis',(1.,0.,3.46944695195361E-16));
#1013=DIRECTION('',(0.,0.894934361602027,-0.446197813109804));
#1014=DIRECTION('',(-1.,0.,-3.33066907387547E-16));
#1015=DIRECTION('',(-1.,-1.39651933989813E-16,-3.35164641575552E-16));
#1016=DIRECTION('center_axis',(-1.,0.,-3.46944695195361E-16));
#1017=DIRECTION('ref_axis',(-3.46944695195361E-16,0.,1.));
#1018=DIRECTION('center_axis',(1.,0.,0.));
#1019=DIRECTION('ref_axis',(0.,0.,-1.));
#1020=DIRECTION('',(1.,0.,0.));
#1021=DIRECTION('center_axis',(1.,0.,0.));
#1022=DIRECTION('ref_axis',(0.,0.,-1.));
#1023=DIRECTION('',(1.,0.,0.));
#1024=DIRECTION('center_axis',(1.,0.,0.));
#1025=DIRECTION('ref_axis',(0.,0.,-1.));
#1026=DIRECTION('',(1.,0.,0.));
#1027=DIRECTION('center_axis',(0.,0.,-1.));
#1028=DIRECTION('ref_axis',(-1.,0.,0.));
#1029=DIRECTION('center_axis',(0.,0.,-1.));
#1030=DIRECTION('ref_axis',(-1.,0.,0.));
#1031=DIRECTION('center_axis',(0.,0.,-1.));
#1032=DIRECTION('ref_axis',(-1.,0.,0.));
#1033=DIRECTION('center_axis',(1.,0.,0.));
#1034=DIRECTION('ref_axis',(0.,0.,-1.));
#1035=DIRECTION('',(0.,0.,1.));
#1036=DIRECTION('',(0.,1.,0.));
#1037=DIRECTION('center_axis',(-1.3092368811545E-16,1.,0.));
#1038=DIRECTION('ref_axis',(0.,0.,1.));
#1039=DIRECTION('',(-1.,-1.39651933989813E-16,0.));
#1040=DIRECTION('center_axis',(0.,0.,-1.));
#1041=DIRECTION('ref_axis',(-1.,0.,0.));
#1042=DIRECTION('center_axis',(0.,0.,-1.));
#1043=DIRECTION('ref_axis',(-1.,0.,0.));
#1044=DIRECTION('center_axis',(1.,0.,0.));
#1045=DIRECTION('ref_axis',(0.,0.,-1.));
#1046=DIRECTION('center_axis',(1.,0.,0.));
#1047=DIRECTION('ref_axis',(0.,1.22464679914735E-16,1.));
#1048=DIRECTION('center_axis',(1.,0.,0.));
#1049=DIRECTION('ref_axis',(0.,1.22464679914735E-16,1.));
#1050=CARTESIAN_POINT('',(0.,0.,0.));
#1051=CARTESIAN_POINT('Origin',(-25.,4.,-5.));
#1052=CARTESIAN_POINT('',(-25.,0.904899371761302,4.5));
#1053=CARTESIAN_POINT('',(-25.,-2.,4.5));
#1054=CARTESIAN_POINT('',(-25.,0.904899371761302,4.5));
#1055=CARTESIAN_POINT('',(-25.,0.904899371761302,4.59142873019414));
#1056=CARTESIAN_POINT('',(-25.,0.904899371761302,4.5));
#1057=CARTESIAN_POINT('',(-25.,3.06355768734204,3.51516139597399));
#1058=CARTESIAN_POINT('',(-25.,0.904899371761302,4.59142873019414));
#1059=CARTESIAN_POINT('',(-25.,4.,2.00815594667691));
#1060=CARTESIAN_POINT('Origin',(-25.,2.30905772781135,2.00186859226143));
#1061=CARTESIAN_POINT('',(-25.,4.,-3.));
#1062=CARTESIAN_POINT('',(-25.,4.,-3.));
#1063=CARTESIAN_POINT('',(-25.,-2.,-3.));
#1064=CARTESIAN_POINT('',(-25.,-2.,-3.));
#1065=CARTESIAN_POINT('',(-25.,-2.,4.5));
#1066=CARTESIAN_POINT('Origin',(25.,4.,-5.));
#1067=CARTESIAN_POINT('',(25.,3.06355768734204,3.51516139597399));
#1068=CARTESIAN_POINT('',(25.,1.08827703495087,4.5));
#1069=CARTESIAN_POINT('',(25.,3.06355768734204,3.51516139597399));
#1070=CARTESIAN_POINT('',(25.,-2.,4.5));
#1071=CARTESIAN_POINT('',(25.,-2.,4.5));
#1072=CARTESIAN_POINT('',(25.,-2.,-3.));
#1073=CARTESIAN_POINT('',(25.,-2.,-3.));
#1074=CARTESIAN_POINT('',(25.,4.,-3.));
#1075=CARTESIAN_POINT('',(25.,4.,-3.));
#1076=CARTESIAN_POINT('',(25.,4.,2.00815594667691));
#1077=CARTESIAN_POINT('',(25.,4.,2.00815594667691));
#1078=CARTESIAN_POINT('Origin',(25.,2.30905772781135,2.00186859226143));
#1079=CARTESIAN_POINT('Origin',(-10.,4.,5.));
#1080=CARTESIAN_POINT('',(-20.0312940854701,0.0854321808213484,5.));
#1081=CARTESIAN_POINT('',(-20.,0.08543218082135,5.));
#1082=CARTESIAN_POINT('',(-20.0312940854701,0.0854321808213499,5.));
#1083=CARTESIAN_POINT('',(-20.0312940854701,-2.,5.));
#1084=CARTESIAN_POINT('',(-20.0312940854701,-2.,5.));
#1085=CARTESIAN_POINT('',(-20.,-2.,5.00000000000001));
#1086=CARTESIAN_POINT('',(-20.,-2.,5.00000000000001));
#1087=CARTESIAN_POINT('',(-20.,0.08543218082135,5.));
#1088=CARTESIAN_POINT('Origin',(0.,4.,0.));
#1089=CARTESIAN_POINT('',(9.5,4.,-3.));
#1090=CARTESIAN_POINT('',(9.5,4.,-8.5));
#1091=CARTESIAN_POINT('',(9.5,4.,-3.));
#1092=CARTESIAN_POINT('',(-9.5,4.,-8.5));
#1093=CARTESIAN_POINT('',(-9.5,4.,-8.5));
#1094=CARTESIAN_POINT('',(-9.5,4.,-3.));
#1095=CARTESIAN_POINT('',(-9.5,4.,-8.5));
#1096=CARTESIAN_POINT('',(-25.,4.,-3.));
#1097=CARTESIAN_POINT('',(-20.,4.,2.00815594667691));
#1098=CARTESIAN_POINT('',(-20.,4.,2.00815594667691));
#1099=CARTESIAN_POINT('',(-20.,4.,8.5));
#1100=CARTESIAN_POINT('',(-20.,4.,2.00815594667691));
#1101=CARTESIAN_POINT('',(-10.,4.,8.5));
#1102=CARTESIAN_POINT('',(-10.,4.,8.5));
#1103=CARTESIAN_POINT('',(-10.,4.,3.5));
#1104=CARTESIAN_POINT('',(-10.,4.,8.5));
#1105=CARTESIAN_POINT('',(-2.99999999999997,4.,3.5));
#1106=CARTESIAN_POINT('',(-2.99999999999997,4.,3.5));
#1107=CARTESIAN_POINT('',(-3.,4.,-6.29178156641163));
#1108=CARTESIAN_POINT('',(-3.,4.,-6.29178156641163));
#1109=CARTESIAN_POINT('',(3.,4.,-6.29178156641163));
#1110=CARTESIAN_POINT('',(3.,4.,-6.29178156641163));
#1111=CARTESIAN_POINT('',(2.99999999999997,4.,3.5));
#1112=CARTESIAN_POINT('',(3.,4.,3.5));
#1113=CARTESIAN_POINT('',(10.,4.,3.5));
#1114=CARTESIAN_POINT('',(10.,4.,3.5));
#1115=CARTESIAN_POINT('',(10.,4.,8.5));
#1116=CARTESIAN_POINT('',(10.,4.,3.5));
#1117=CARTESIAN_POINT('',(20.,4.,8.5));
#1118=CARTESIAN_POINT('',(20.,4.,8.5));
#1119=CARTESIAN_POINT('',(20.,4.,2.00815594667691));
#1120=CARTESIAN_POINT('',(20.,4.,8.5));
#1121=CARTESIAN_POINT('',(20.,4.,2.00815594667691));
#1122=CARTESIAN_POINT('',(9.5,4.,-3.));
#1123=CARTESIAN_POINT('Origin',(20.,4.,10.));
#1124=CARTESIAN_POINT('',(20.,-2.,8.5));
#1125=CARTESIAN_POINT('Origin',(20.,1.,8.5));
#1126=CARTESIAN_POINT('',(20.,-2.,4.5));
#1127=CARTESIAN_POINT('',(20.,-2.,4.5));
#1128=CARTESIAN_POINT('',(20.,1.08827703495087,4.5));
#1129=CARTESIAN_POINT('',(20.,1.08827703495087,4.5));
#1130=CARTESIAN_POINT('',(20.,3.06355768734204,3.51516139597399));
#1131=CARTESIAN_POINT('',(20.,1.08827703495087,4.50000000000001));
#1132=CARTESIAN_POINT('Origin',(20.,2.30905772781135,2.00186859226143));
#1133=CARTESIAN_POINT('',(20.,1.,9.50000000000001));
#1134=CARTESIAN_POINT('Origin',(20.,1.,7.75));
#1135=CARTESIAN_POINT('Origin',(9.5,4.,-10.));
#1136=CARTESIAN_POINT('',(9.5,-2.,-8.5));
#1137=CARTESIAN_POINT('',(9.5,-2.,-3.));
#1138=CARTESIAN_POINT('',(9.5,-2.,-8.5));
#1139=CARTESIAN_POINT('Origin',(9.5,1.,-8.5));
#1140=CARTESIAN_POINT('',(9.5,-2.,-3.));
#1141=CARTESIAN_POINT('',(9.5,1.,-6.));
#1142=CARTESIAN_POINT('Origin',(9.5,1.,-7.75));
#1143=CARTESIAN_POINT('Origin',(-9.5,4.,-10.));
#1144=CARTESIAN_POINT('',(-9.5,-2.,-8.5));
#1145=CARTESIAN_POINT('Origin',(-9.5,1.,-8.5));
#1146=CARTESIAN_POINT('',(-9.5,-2.,-3.));
#1147=CARTESIAN_POINT('',(-9.5,-2.,-3.));
#1148=CARTESIAN_POINT('',(-9.5,4.,-3.));
#1149=CARTESIAN_POINT('',(-9.5,1.,-9.5));
#1150=CARTESIAN_POINT('',(-9.5,1.,-6.));
#1151=CARTESIAN_POINT('Origin',(-9.5,1.,-7.75));
#1152=CARTESIAN_POINT('Origin',(-9.5,1.,-7.75));
#1153=CARTESIAN_POINT('Origin',(-20.,4.,10.));
#1154=CARTESIAN_POINT('',(-20.,-2.,8.5));
#1155=CARTESIAN_POINT('',(-20.,-2.,8.5));
#1156=CARTESIAN_POINT('Origin',(-20.,1.,8.5));
#1157=CARTESIAN_POINT('',(-20.,3.06355768734204,3.51516139597399));
#1158=CARTESIAN_POINT('Origin',(-20.,2.30905772781135,2.00186859226143));
#1159=CARTESIAN_POINT('',(-20.,0.08543218082135,5.));
#1160=CARTESIAN_POINT('',(-20.,1.,6.00000000000001));
#1161=CARTESIAN_POINT('',(-20.,1.,9.50000000000001));
#1162=CARTESIAN_POINT('Origin',(-20.,1.,7.75));
#1163=CARTESIAN_POINT('Origin',(-20.,1.,7.75));
#1164=CARTESIAN_POINT('Origin',(-10.,4.,5.));
#1165=CARTESIAN_POINT('',(-10.,-2.,8.5));
#1166=CARTESIAN_POINT('Origin',(-10.,1.,8.5));
#1167=CARTESIAN_POINT('',(-10.,-2.,3.5));
#1168=CARTESIAN_POINT('',(-10.,-2.,3.5));
#1169=CARTESIAN_POINT('',(-10.,-2.,3.5));
#1170=CARTESIAN_POINT('',(-10.,1.,9.50000000000001));
#1171=CARTESIAN_POINT('Origin',(-10.,1.,7.75));
#1172=CARTESIAN_POINT('Origin',(10.,4.,5.));
#1173=CARTESIAN_POINT('',(10.,-2.,8.5));
#1174=CARTESIAN_POINT('',(10.,-2.,3.5));
#1175=CARTESIAN_POINT('',(10.,-2.,8.5));
#1176=CARTESIAN_POINT('Origin',(10.,1.,8.5));
#1177=CARTESIAN_POINT('',(10.,-2.,3.5));
#1178=CARTESIAN_POINT('',(10.,1.,6.00000000000001));
#1179=CARTESIAN_POINT('',(10.,1.,9.50000000000001));
#1180=CARTESIAN_POINT('Origin',(10.,1.,7.75));
#1181=CARTESIAN_POINT('Origin',(10.,1.,7.75));
#1182=CARTESIAN_POINT('Origin',(0.,11.,0.));
#1183=CARTESIAN_POINT('',(-2.01621415708326,11.,-1.73049276146742));
#1184=CARTESIAN_POINT('',(-2.01621415708326,11.,-0.551089407418995));
#1185=CARTESIAN_POINT('',(-2.01621415708326,11.,-1.73049276146742));
#1186=CARTESIAN_POINT('',(2.01621415708326,11.,-0.551089407418995));
#1187=CARTESIAN_POINT('',(-2.01621415708326,11.,-0.551089407418995));
#1188=CARTESIAN_POINT('',(2.01621415708326,11.,-1.73049276146742));
#1189=CARTESIAN_POINT('',(2.01621415708326,11.,-0.551089407418995));
#1190=CARTESIAN_POINT('',(2.01621415708326,11.,-1.73049276146742));
#1191=CARTESIAN_POINT('Origin',(20.,0.00372911891509294,5.04073564398811));
#1192=CARTESIAN_POINT('',(20.,1.08827703495087,4.5));
#1193=CARTESIAN_POINT('',(20.,3.06355768734204,3.51516139597399));
#1194=CARTESIAN_POINT('Origin',(20.,2.30905772781135,2.00186859226143));
#1195=CARTESIAN_POINT('Origin',(0.,-2.,0.));
#1196=CARTESIAN_POINT('',(9.5,-2.,-8.5));
#1197=CARTESIAN_POINT('',(25.,-2.,-3.));
#1198=CARTESIAN_POINT('',(20.,-2.,4.5));
#1199=CARTESIAN_POINT('',(10.,-2.,8.5));
#1200=CARTESIAN_POINT('',(10.,-2.,3.5));
#1201=CARTESIAN_POINT('',(-20.,-2.,8.5));
#1202=CARTESIAN_POINT('',(-20.0312940854701,-2.,4.5));
#1203=CARTESIAN_POINT('',(-20.0312940854701,-2.,4.5));
#1204=CARTESIAN_POINT('',(-25.,-2.,4.5));
#1205=CARTESIAN_POINT('',(-9.5,-2.,-3.));
#1206=CARTESIAN_POINT('Origin',(2.01621415708326,11.,0.));
#1207=CARTESIAN_POINT('',(2.98743087768507,4.08943395235639,3.5));
#1208=CARTESIAN_POINT('',(2.99999999999998,4.,3.5));
#1209=CARTESIAN_POINT('',(2.84375071489977,5.11177143234622,-4.84289282697802));
#1210=CARTESIAN_POINT('Origin',(2.78918874794639,5.5,-6.29178156641163));
#1211=CARTESIAN_POINT('',(2.22454653721687,9.51763809020504,-3.66234441404556));
#1212=CARTESIAN_POINT('',(2.84375071489977,5.11177143234622,-4.84289282697802));
#1213=CARTESIAN_POINT('Origin',(2.29729582648803,9.,-1.73049276146742));
#1214=CARTESIAN_POINT('',(2.22454653721687,9.51763809020504,1.38076224515914));
#1215=CARTESIAN_POINT('Origin',(2.29729582648803,9.,-0.551089407418995));
#1216=CARTESIAN_POINT('',(2.84375071489977,5.11177143234622,2.56131065809161));
#1217=CARTESIAN_POINT('',(2.22454653721687,9.51763809020504,1.38076224515914));
#1218=CARTESIAN_POINT('Origin',(2.78918874794639,5.5,4.01019939752521));
#1219=CARTESIAN_POINT('Origin',(-2.01621415708326,11.,0.));
#1220=CARTESIAN_POINT('',(-2.98743087768507,4.08943395235639,3.5));
#1221=CARTESIAN_POINT('',(-2.98743087768507,4.08943395235639,3.5));
#1222=CARTESIAN_POINT('',(-2.84375071489977,5.11177143234622,2.56131065809161));
#1223=CARTESIAN_POINT('Origin',(-2.78918874794639,5.5,4.01019939752521));
#1224=CARTESIAN_POINT('',(-2.22454653721687,9.51763809020504,1.38076224515914));
#1225=CARTESIAN_POINT('',(-2.84375071489977,5.11177143234622,2.56131065809161));
#1226=CARTESIAN_POINT('Origin',(-2.29729582648803,9.,-0.551089407418995));
#1227=CARTESIAN_POINT('',(-2.22454653721687,9.51763809020504,-3.66234441404556));
#1228=CARTESIAN_POINT('Origin',(-2.29729582648803,9.,-1.73049276146742));
#1229=CARTESIAN_POINT('',(-2.84375071489977,5.11177143234622,-4.84289282697802));
#1230=CARTESIAN_POINT('',(-2.22454653721687,9.51763809020504,-3.66234441404556));
#1231=CARTESIAN_POINT('Origin',(-2.78918874794639,5.5,-6.29178156641163));
#1232=CARTESIAN_POINT('Origin',(0.,11.,-3.26514673742535));
#1233=CARTESIAN_POINT('',(2.22454653721687,9.51763809020504,-3.66234441404556));
#1234=CARTESIAN_POINT('',(2.84375071489977,5.11177143234622,-4.84289282697802));
#1235=CARTESIAN_POINT('Origin',(0.,11.,0.98356456853893));
#1236=CARTESIAN_POINT('',(-2.22454653721687,9.51763809020504,1.38076224515914));
#1237=CARTESIAN_POINT('',(-2.84375071489977,5.11177143234622,2.56131065809161));
#1238=CARTESIAN_POINT('Origin',(0.,5.5,-6.29178156641163));
#1239=CARTESIAN_POINT('Origin',(0.,5.5,4.01019939752521));
#1240=CARTESIAN_POINT('',(2.98743087768507,4.08943395235639,3.5));
#1241=CARTESIAN_POINT('Origin',(0.,9.,-0.551089407418995));
#1242=CARTESIAN_POINT('Origin',(0.,9.,-1.73049276146742));
#1243=CARTESIAN_POINT('Origin',(-20.,0.00372911891509294,5.04073564398811));
#1244=CARTESIAN_POINT('',(-20.0312940854701,0.904899371761303,4.59142873019414));
#1245=CARTESIAN_POINT('',(-20.0312940854701,0.0854321808213488,5.));
#1246=CARTESIAN_POINT('',(-20.,3.06355768734204,3.51516139597399));
#1247=CARTESIAN_POINT('',(-20.0312940854701,0.904899371761303,4.59142873019414));
#1248=CARTESIAN_POINT('Origin',(-20.,2.30905772781135,2.00186859226143));
#1249=CARTESIAN_POINT('Origin',(-25.000025,1.,7.75));
#1250=CARTESIAN_POINT('',(-25.000025,1.,9.50000000000001));
#1251=CARTESIAN_POINT('Origin',(-25.000025,1.,7.75));
#1252=CARTESIAN_POINT('',(-25.000025,1.,9.50000000000001));
#1253=CARTESIAN_POINT('Origin',(-25.000025,1.,-7.75));
#1254=CARTESIAN_POINT('',(-25.000025,1.,-6.));
#1255=CARTESIAN_POINT('Origin',(0.,0.,-3.));
#1256=CARTESIAN_POINT('Origin',(0.,0.,-3.));
#1257=CARTESIAN_POINT('Origin',(0.,0.,4.5));
#1258=CARTESIAN_POINT('Origin',(-20.0312940854701,0.904899371761303,4.5));
#1259=CARTESIAN_POINT('',(-20.0312940854701,0.904899371761303,4.5));
#1260=CARTESIAN_POINT('',(-20.0312940854701,0.904899371761303,4.5));
#1261=CARTESIAN_POINT('',(-20.0312940854701,-2.,4.5));
#1262=CARTESIAN_POINT('Origin',(-20.0312940854701,0.904899371761303,4.5));
#1263=CARTESIAN_POINT('',(-20.0312940854701,0.904899371761303,4.5));
#1264=CARTESIAN_POINT('Origin',(0.,0.,4.5));
#1265=CARTESIAN_POINT('Origin',(-10.,-2.,3.5));
#1266=CARTESIAN_POINT('Origin',(0.,1.,-8.5));
#1267=CARTESIAN_POINT('Origin',(0.,1.,8.5));
#1268=CARTESIAN_POINT('Origin',(0.,1.,8.5));
#1269=UNCERTAINTY_MEASURE_WITH_UNIT(LENGTH_MEASURE(0.01),#1273,
'DISTANCE_ACCURACY_VALUE',
'Maximum model space distance between geometric entities at asserted c
onnectivities');
#1270=UNCERTAINTY_MEASURE_WITH_UNIT(LENGTH_MEASURE(0.01),#1273,
'DISTANCE_ACCURACY_VALUE',
'Maximum model space distance between geometric entities at asserted c
onnectivities');
#1271=(
GEOMETRIC_REPRESENTATION_CONTEXT(3)
GLOBAL_UNCERTAINTY_ASSIGNED_CONTEXT((#1269))
GLOBAL_UNIT_ASSIGNED_CONTEXT((#1273,#1275,#1276))
REPRESENTATION_CONTEXT('','3D')
);
#1272=(
GEOMETRIC_REPRESENTATION_CONTEXT(3)
GLOBAL_UNCERTAINTY_ASSIGNED_CONTEXT((#1270))
GLOBAL_UNIT_ASSIGNED_CONTEXT((#1273,#1275,#1276))
REPRESENTATION_CONTEXT('','3D')
);
#1273=(
LENGTH_UNIT()
NAMED_UNIT(*)
SI_UNIT(.MILLI.,.METRE.)
);
#1274=(
LENGTH_UNIT()
NAMED_UNIT(*)
SI_UNIT($,.METRE.)
);
#1275=(
NAMED_UNIT(*)
PLANE_ANGLE_UNIT()
SI_UNIT($,.RADIAN.)
);
#1276=(
NAMED_UNIT(*)
SI_UNIT($,.STERADIAN.)
SOLID_ANGLE_UNIT()
);
#1277=SHAPE_DEFINITION_REPRESENTATION(#1278,#1279);
#1278=PRODUCT_DEFINITION_SHAPE('',$,#1281);
#1279=SHAPE_REPRESENTATION('',(#774),#1271);
#1280=PRODUCT_DEFINITION_CONTEXT('part definition',#1285,'design');
#1281=PRODUCT_DEFINITION('Kettenglied v5','Kettenglied v5 v1',#1282,#1280);
#1282=PRODUCT_DEFINITION_FORMATION('',$,#1287);
#1283=PRODUCT_RELATED_PRODUCT_CATEGORY('Kettenglied v5 v1',
'Kettenglied v5 v1',(#1287));
#1284=APPLICATION_PROTOCOL_DEFINITION('international standard',
'automotive_design',2009,#1285);
#1285=APPLICATION_CONTEXT(
'Core Data for Automotive Mechanical Design Process');
#1286=PRODUCT_CONTEXT('part definition',#1285,'mechanical');
#1287=PRODUCT('Kettenglied v5','Kettenglied v5 v1',$,(#1286));
#1288=PRESENTATION_STYLE_ASSIGNMENT((#1289));
#1289=SURFACE_STYLE_USAGE(.BOTH.,#1290);
#1290=SURFACE_SIDE_STYLE('',(#1291));
#1291=SURFACE_STYLE_FILL_AREA(#1292);
#1292=FILL_AREA_STYLE('Stahl - satiniert',(#1293));
#1293=FILL_AREA_STYLE_COLOUR('Stahl - satiniert',#1294);
#1294=COLOUR_RGB('Stahl - satiniert',0.627450980392157,0.627450980392157,
0.627450980392157);
ENDSEC;
END-ISO-10303-21;
